<svg width="375" height="565" viewBox="0 0 375 565" fill="none" xmlns="http://www.w3.org/2000/svg">
<path d="M0 20C0 8.95431 8.95431 0 20 0H355C366.046 0 375 8.95431 375 20V565H0V20Z" fill="white"/>
<path d="M30.892 45.444H25.654L24.754 48H22.612L27.094 35.472H29.47L33.952 48H31.792L30.892 45.444ZM30.334 43.842L28.282 37.956L26.212 43.842H30.334ZM42.3988 48L39.5188 42.996H37.9528V48H35.9008V35.49H40.2208C41.1808 35.49 41.9908 35.658 42.6508 35.994C43.3228 36.33 43.8208 36.78 44.1448 37.344C44.4808 37.908 44.6488 38.538 44.6488 39.234C44.6488 40.05 44.4088 40.794 43.9288 41.466C43.4608 42.126 42.7348 42.576 41.7508 42.816L44.8468 48H42.3988ZM37.9528 41.376H40.2208C40.9888 41.376 41.5648 41.184 41.9488 40.8C42.3448 40.416 42.5428 39.894 42.5428 39.234C42.5428 38.562 42.3508 38.04 41.9668 37.668C41.5828 37.284 41.0008 37.092 40.2208 37.092H37.9528V41.376ZM65.8463 35.49V48H63.7943V39.432L59.9783 48H58.5563L54.7223 39.432V48H52.6703V35.49H54.8843L59.2763 45.3L63.6503 35.49H65.8463ZM72.8454 48.162C71.9094 48.162 71.0634 47.952 70.3074 47.532C69.5514 47.1 68.9574 46.5 68.5254 45.732C68.0934 44.952 67.8774 44.052 67.8774 43.032C67.8774 42.024 68.0994 41.13 68.5434 40.35C68.9874 39.57 69.5934 38.97 70.3614 38.55C71.1294 38.13 71.9874 37.92 72.9354 37.92C73.8834 37.92 74.7414 38.13 75.5094 38.55C76.2774 38.97 76.8834 39.57 77.3274 40.35C77.7714 41.13 77.9934 42.024 77.9934 43.032C77.9934 44.04 77.7654 44.934 77.3094 45.714C76.8534 46.494 76.2294 47.1 75.4374 47.532C74.6574 47.952 73.7934 48.162 72.8454 48.162ZM72.8454 46.434C73.3734 46.434 73.8654 46.302 74.3214 46.038C74.7894 45.774 75.1674 45.39 75.4554 44.886C75.7434 44.37 75.8874 43.752 75.8874 43.032C75.8874 42.312 75.7494 41.7 75.4734 41.196C75.1974 40.68 74.8314 40.296 74.3754 40.044C73.9194 39.78 73.4274 39.648 72.8994 39.648C72.3714 39.648 71.8854 39.78 71.4414 40.044C70.9974 40.296 70.6374 40.68 70.3614 41.196C70.0974 41.7 69.9654 42.312 69.9654 43.032C69.9654 43.752 70.0914 44.37 70.3434 44.886C70.6074 45.402 70.9554 45.792 71.3874 46.056C71.8314 46.308 72.3174 46.434 72.8454 46.434ZM79.3379 42.996C79.3379 42 79.5419 41.118 79.9499 40.35C80.3699 39.582 80.9339 38.988 81.6419 38.568C82.3619 38.136 83.1599 37.92 84.0359 37.92C84.6839 37.92 85.3199 38.064 85.9439 38.352C86.5799 38.628 87.0839 39 87.4559 39.468V34.68H89.5259V48H87.4559V46.506C87.1199 46.986 86.6519 47.382 86.0519 47.694C85.4639 48.006 84.7859 48.162 84.0179 48.162C83.1539 48.162 82.3619 47.946 81.6419 47.514C80.9339 47.07 80.3699 46.458 79.9499 45.678C79.5419 44.886 79.3379 43.992 79.3379 42.996ZM87.4559 43.032C87.4559 42.348 87.3119 41.754 87.0239 41.25C86.7479 40.746 86.3819 40.362 85.9259 40.098C85.4699 39.834 84.9779 39.702 84.4499 39.702C83.9219 39.702 83.4299 39.834 82.9739 40.098C82.5179 40.35 82.1459 40.728 81.8579 41.232C81.5819 41.724 81.4439 42.312 81.4439 42.996C81.4439 43.68 81.5819 44.28 81.8579 44.796C82.1459 45.312 82.5179 45.708 82.9739 45.984C83.4419 46.248 83.9339 46.38 84.4499 46.38C84.9779 46.38 85.4699 46.248 85.9259 45.984C86.3819 45.72 86.7479 45.336 87.0239 44.832C87.3119 44.316 87.4559 43.716 87.4559 43.032ZM101.203 38.082V48H99.1511V46.83C98.8271 47.238 98.4011 47.562 97.8731 47.802C97.3571 48.03 96.8051 48.144 96.2171 48.144C95.4371 48.144 94.7351 47.982 94.1111 47.658C93.4991 47.334 93.0131 46.854 92.6531 46.218C92.3051 45.582 92.1311 44.814 92.1311 43.914V38.082H94.1651V43.608C94.1651 44.496 94.3871 45.18 94.8311 45.66C95.2751 46.128 95.8811 46.362 96.6491 46.362C97.4171 46.362 98.0231 46.128 98.4671 45.66C98.9231 45.18 99.1511 44.496 99.1511 43.608V38.082H101.203ZM105.963 34.68V48H103.911V34.68H105.963ZM117.747 42.762C117.747 43.11 117.723 43.434 117.675 43.734H110.079C110.139 44.562 110.433 45.222 110.961 45.714C111.489 46.194 112.143 46.434 112.923 46.434C114.027 46.434 114.807 45.972 115.263 45.048H117.477C117.177 45.96 116.631 46.71 115.839 47.298C115.059 47.874 114.087 48.162 112.923 48.162C111.975 48.162 111.123 47.952 110.367 47.532C109.623 47.1 109.035 46.5 108.603 45.732C108.183 44.952 107.973 44.052 107.973 43.032C107.973 42.012 108.177 41.118 108.585 40.35C109.005 39.57 109.587 38.97 110.331 38.55C111.087 38.13 111.951 37.92 112.923 37.92C113.859 37.92 114.693 38.124 115.425 38.532C116.157 38.94 116.727 39.51 117.135 40.242C117.543 40.974 117.747 41.814 117.747 42.762ZM115.605 42.258C115.593 41.454 115.323 40.818 114.795 40.35C114.279 39.882 113.625 39.648 112.833 39.648C112.113 39.648 111.495 39.882 110.979 40.35C110.475 40.818 110.181 41.454 110.097 42.258H115.605ZM123.33 48.162C122.562 48.162 121.872 48.024 121.26 47.748C120.648 47.46 120.162 47.076 119.802 46.596C119.442 46.104 119.25 45.558 119.226 44.958H121.35C121.386 45.414 121.584 45.792 121.944 46.092C122.316 46.392 122.778 46.542 123.33 46.542C123.906 46.542 124.35 46.428 124.662 46.2C124.986 45.96 125.148 45.642 125.148 45.246C125.148 44.886 124.968 44.61 124.608 44.418C124.248 44.226 123.69 44.034 122.934 43.842C122.202 43.638 121.602 43.446 121.134 43.266C120.678 43.074 120.282 42.786 119.946 42.402C119.61 42.006 119.442 41.496 119.442 40.872C119.442 40.332 119.592 39.84 119.892 39.396C120.192 38.94 120.624 38.58 121.188 38.316C121.764 38.052 122.436 37.92 123.204 37.92C124.332 37.92 125.238 38.208 125.922 38.784C126.618 39.348 126.99 40.122 127.038 41.106H124.986C124.95 40.626 124.77 40.248 124.446 39.972C124.122 39.684 123.684 39.54 123.132 39.54C122.592 39.54 122.178 39.654 121.89 39.882C121.602 40.098 121.458 40.392 121.458 40.764C121.458 41.028 121.554 41.25 121.746 41.43C121.938 41.61 122.178 41.754 122.466 41.862C122.754 41.958 123.162 42.078 123.69 42.222C124.41 42.414 124.998 42.606 125.454 42.798C125.91 42.99 126.3 43.284 126.624 43.68C126.948 44.064 127.11 44.568 127.11 45.192C127.11 45.756 126.96 46.266 126.66 46.722C126.36 47.166 125.922 47.52 125.346 47.784C124.782 48.036 124.11 48.162 123.33 48.162Z" fill="black"/>
<path d="M157.292 35.454C158.66 35.454 159.842 35.712 160.838 36.228C161.846 36.732 162.614 37.458 163.142 38.406C163.682 39.354 163.952 40.47 163.952 41.754C163.952 43.038 163.682 44.154 163.142 45.102C162.614 46.038 161.846 46.758 160.838 47.262C159.842 47.754 158.66 48 157.292 48H153.386V35.454H157.292ZM157.292 46.74C158.9 46.74 160.13 46.302 160.982 45.426C161.846 44.538 162.278 43.314 162.278 41.754C162.278 40.194 161.846 38.976 160.982 38.1C160.13 37.224 158.9 36.786 157.292 36.786H155.024V46.74H157.292ZM166.959 36.534C166.647 36.534 166.383 36.426 166.167 36.21C165.951 35.994 165.843 35.73 165.843 35.418C165.843 35.106 165.951 34.842 166.167 34.626C166.383 34.41 166.647 34.302 166.959 34.302C167.259 34.302 167.511 34.41 167.715 34.626C167.931 34.842 168.039 35.106 168.039 35.418C168.039 35.73 167.931 35.994 167.715 36.21C167.511 36.426 167.259 36.534 166.959 36.534ZM167.751 38.136V48H166.113V38.136H167.751ZM174.016 48.162C173.26 48.162 172.582 48.036 171.982 47.784C171.394 47.52 170.926 47.16 170.578 46.704C170.23 46.236 170.038 45.702 170.002 45.102H171.694C171.742 45.618 171.97 46.038 172.378 46.362C172.798 46.686 173.344 46.848 174.016 46.848C174.652 46.848 175.144 46.71 175.492 46.434C175.852 46.146 176.032 45.774 176.032 45.318C176.032 44.886 175.84 44.568 175.456 44.364C175.072 44.148 174.478 43.938 173.674 43.734C172.942 43.542 172.348 43.35 171.892 43.158C171.436 42.966 171.046 42.684 170.722 42.312C170.398 41.928 170.236 41.424 170.236 40.8C170.236 40.284 170.38 39.81 170.668 39.378C170.956 38.946 171.37 38.604 171.91 38.352C172.462 38.1 173.098 37.974 173.818 37.974C174.91 37.974 175.792 38.25 176.464 38.802C177.136 39.354 177.496 40.11 177.544 41.07H175.906C175.87 40.53 175.66 40.098 175.276 39.774C174.904 39.45 174.4 39.288 173.764 39.288C173.164 39.288 172.69 39.42 172.342 39.684C172.006 39.948 171.838 40.296 171.838 40.728C171.838 41.064 171.946 41.34 172.162 41.556C172.378 41.76 172.642 41.922 172.954 42.042C173.266 42.15 173.71 42.288 174.286 42.456C175.006 42.648 175.582 42.84 176.014 43.032C176.446 43.212 176.818 43.482 177.13 43.842C177.442 44.202 177.598 44.682 177.598 45.282C177.598 45.834 177.448 46.326 177.148 46.758C176.86 47.19 176.446 47.532 175.906 47.784C175.366 48.036 174.736 48.162 174.016 48.162ZM179.335 43.05C179.335 42.03 179.539 41.142 179.947 40.386C180.355 39.618 180.919 39.024 181.639 38.604C182.371 38.184 183.205 37.974 184.141 37.974C185.353 37.974 186.349 38.268 187.129 38.856C187.921 39.444 188.443 40.26 188.695 41.304H186.931C186.763 40.704 186.433 40.23 185.941 39.882C185.461 39.534 184.861 39.36 184.141 39.36C183.205 39.36 182.449 39.684 181.873 40.332C181.297 40.968 181.009 41.874 181.009 43.05C181.009 44.238 181.297 45.156 181.873 45.804C182.449 46.452 183.205 46.776 184.141 46.776C184.861 46.776 185.461 46.608 185.941 46.272C186.421 45.936 186.751 45.456 186.931 44.832H188.695C188.431 45.84 187.903 46.65 187.111 47.262C186.319 47.862 185.329 48.162 184.141 48.162C183.205 48.162 182.371 47.952 181.639 47.532C180.919 47.112 180.355 46.518 179.947 45.75C179.539 44.982 179.335 44.082 179.335 43.05ZM199.628 38.136V48H197.99V46.542C197.678 47.046 197.24 47.442 196.676 47.73C196.124 48.006 195.512 48.144 194.84 48.144C194.072 48.144 193.382 47.988 192.77 47.676C192.158 47.352 191.672 46.872 191.312 46.236C190.964 45.6 190.79 44.826 190.79 43.914V38.136H192.41V43.698C192.41 44.67 192.656 45.42 193.148 45.948C193.64 46.464 194.312 46.722 195.164 46.722C196.04 46.722 196.73 46.452 197.234 45.912C197.738 45.372 197.99 44.586 197.99 43.554V38.136H199.628ZM205.868 48.162C205.112 48.162 204.434 48.036 203.834 47.784C203.246 47.52 202.778 47.16 202.43 46.704C202.082 46.236 201.89 45.702 201.854 45.102H203.546C203.594 45.618 203.822 46.038 204.23 46.362C204.65 46.686 205.196 46.848 205.868 46.848C206.504 46.848 206.996 46.71 207.344 46.434C207.704 46.146 207.884 45.774 207.884 45.318C207.884 44.886 207.692 44.568 207.308 44.364C206.924 44.148 206.33 43.938 205.526 43.734C204.794 43.542 204.2 43.35 203.744 43.158C203.288 42.966 202.898 42.684 202.574 42.312C202.25 41.928 202.088 41.424 202.088 40.8C202.088 40.284 202.232 39.81 202.52 39.378C202.808 38.946 203.222 38.604 203.762 38.352C204.314 38.1 204.95 37.974 205.67 37.974C206.762 37.974 207.644 38.25 208.316 38.802C208.988 39.354 209.348 40.11 209.396 41.07H207.758C207.722 40.53 207.512 40.098 207.128 39.774C206.756 39.45 206.252 39.288 205.616 39.288C205.016 39.288 204.542 39.42 204.194 39.684C203.858 39.948 203.69 40.296 203.69 40.728C203.69 41.064 203.798 41.34 204.014 41.556C204.23 41.76 204.494 41.922 204.806 42.042C205.118 42.15 205.562 42.288 206.138 42.456C206.858 42.648 207.434 42.84 207.866 43.032C208.298 43.212 208.67 43.482 208.982 43.842C209.294 44.202 209.45 44.682 209.45 45.282C209.45 45.834 209.3 46.326 209 46.758C208.712 47.19 208.298 47.532 207.758 47.784C207.218 48.036 206.588 48.162 205.868 48.162ZM215.272 48.162C214.516 48.162 213.838 48.036 213.238 47.784C212.65 47.52 212.182 47.16 211.834 46.704C211.486 46.236 211.294 45.702 211.258 45.102H212.95C212.998 45.618 213.226 46.038 213.634 46.362C214.054 46.686 214.6 46.848 215.272 46.848C215.908 46.848 216.4 46.71 216.748 46.434C217.108 46.146 217.288 45.774 217.288 45.318C217.288 44.886 217.096 44.568 216.712 44.364C216.328 44.148 215.734 43.938 214.93 43.734C214.198 43.542 213.604 43.35 213.148 43.158C212.692 42.966 212.302 42.684 211.978 42.312C211.654 41.928 211.492 41.424 211.492 40.8C211.492 40.284 211.636 39.81 211.924 39.378C212.212 38.946 212.626 38.604 213.166 38.352C213.718 38.1 214.354 37.974 215.074 37.974C216.166 37.974 217.048 38.25 217.72 38.802C218.392 39.354 218.752 40.11 218.8 41.07H217.162C217.126 40.53 216.916 40.098 216.532 39.774C216.16 39.45 215.656 39.288 215.02 39.288C214.42 39.288 213.946 39.42 213.598 39.684C213.262 39.948 213.094 40.296 213.094 40.728C213.094 41.064 213.202 41.34 213.418 41.556C213.634 41.76 213.898 41.922 214.21 42.042C214.522 42.15 214.966 42.288 215.542 42.456C216.262 42.648 216.838 42.84 217.27 43.032C217.702 43.212 218.074 43.482 218.386 43.842C218.698 44.202 218.854 44.682 218.854 45.282C218.854 45.834 218.704 46.326 218.404 46.758C218.116 47.19 217.702 47.532 217.162 47.784C216.622 48.036 215.992 48.162 215.272 48.162ZM222.048 36.534C221.736 36.534 221.472 36.426 221.256 36.21C221.04 35.994 220.932 35.73 220.932 35.418C220.932 35.106 221.04 34.842 221.256 34.626C221.472 34.41 221.736 34.302 222.048 34.302C222.348 34.302 222.6 34.41 222.804 34.626C223.02 34.842 223.128 35.106 223.128 35.418C223.128 35.73 223.02 35.994 222.804 36.21C222.6 36.426 222.348 36.534 222.048 36.534ZM222.84 38.136V48H221.202V38.136H222.84ZM229.934 48.162C229.01 48.162 228.17 47.952 227.414 47.532C226.67 47.112 226.082 46.518 225.65 45.75C225.23 44.97 225.02 44.07 225.02 43.05C225.02 42.042 225.236 41.154 225.668 40.386C226.112 39.606 226.712 39.012 227.468 38.604C228.224 38.184 229.07 37.974 230.006 37.974C230.942 37.974 231.788 38.184 232.544 38.604C233.3 39.012 233.894 39.6 234.326 40.368C234.77 41.136 234.992 42.03 234.992 43.05C234.992 44.07 234.764 44.97 234.308 45.75C233.864 46.518 233.258 47.112 232.49 47.532C231.722 47.952 230.87 48.162 229.934 48.162ZM229.934 46.776C230.522 46.776 231.074 46.638 231.59 46.362C232.106 46.074 232.52 45.648 232.832 45.084C233.156 44.52 233.318 43.842 233.318 43.05C233.318 42.258 233.162 41.586 232.85 41.034C232.538 40.47 232.13 40.05 231.626 39.774C231.122 39.498 230.576 39.36 229.988 39.36C229.388 39.36 228.836 39.498 228.332 39.774C227.84 40.05 227.444 40.47 227.144 41.034C226.844 41.586 226.694 42.258 226.694 43.05C226.694 43.854 226.838 44.538 227.126 45.102C227.426 45.654 227.822 46.074 228.314 46.362C228.806 46.638 229.346 46.776 229.934 46.776ZM241.952 37.956C243.152 37.956 244.124 38.322 244.868 39.054C245.612 39.774 245.984 40.818 245.984 42.186V48H244.364V42.42C244.364 41.436 244.118 40.686 243.626 40.17C243.134 39.642 242.462 39.378 241.61 39.378C240.746 39.378 240.056 39.648 239.54 40.188C239.036 40.728 238.784 41.514 238.784 42.546V48H237.146V38.136H238.784V39.54C239.108 39.036 239.546 38.646 240.098 38.37C240.662 38.094 241.28 37.956 241.952 37.956Z" fill="black" fill-opacity="0.84"/>
<line x1="20" y1="57.75" x2="348" y2="57.75" stroke="black" stroke-opacity="0.6" stroke-width="0.5"/>
<line x1="20" y1="57" x2="129" y2="57" stroke="black" stroke-width="2"/>
</svg>
