<svg width="332" height="227" viewBox="0 0 332 227" fill="none" xmlns="http://www.w3.org/2000/svg">
<g filter="url(#filter0_d)">
<rect x="4" width="324" height="219" rx="20" fill="white"/>
<path d="M31.292 42.116V47.828H38.012V50.432H31.292V56.396H38.852V59H28.1V39.512H38.852V42.116H31.292ZM45.9756 56.424H52.5556V59H42.7836V39.54H45.9756V56.424ZM58.417 42.116V47.828H65.137V50.432H58.417V56.396H65.977V59H55.225V39.512H65.977V42.116H58.417ZM85.8966 59H82.7046L73.1006 44.468V59H69.9086V39.512H73.1006L82.7046 54.016V39.512H85.8966V59ZM91.4323 54.66C93.2243 53.1107 94.6336 51.8413 95.6603 50.852C96.7056 49.844 97.5736 48.7987 98.2643 47.716C98.9549 46.6333 99.3003 45.5507 99.3003 44.468C99.3003 43.348 99.0296 42.4707 98.4883 41.836C97.9656 41.2013 97.1349 40.884 95.9963 40.884C94.8949 40.884 94.0363 41.2387 93.4203 41.948C92.8229 42.6387 92.5056 43.572 92.4683 44.748H89.3883C89.4443 42.62 90.0789 40.996 91.2923 39.876C92.5243 38.7373 94.0829 38.168 95.9683 38.168C98.0029 38.168 99.5896 38.728 100.728 39.848C101.886 40.968 102.464 42.4613 102.464 44.328C102.464 45.672 102.119 46.9693 101.428 48.22C100.756 49.452 99.9443 50.5627 98.9923 51.552C98.0589 52.5227 96.8643 53.652 95.4083 54.94L94.1483 56.06H103.024V58.72H89.4163V56.396L91.4323 54.66ZM105.828 48.528C105.828 45.2987 106.37 42.7787 107.452 40.968C108.554 39.1387 110.439 38.224 113.108 38.224C115.778 38.224 117.654 39.1387 118.736 40.968C119.838 42.7787 120.388 45.2987 120.388 48.528C120.388 51.7947 119.838 54.352 118.736 56.2C117.654 58.0293 115.778 58.944 113.108 58.944C110.439 58.944 108.554 58.0293 107.452 56.2C106.37 54.352 105.828 51.7947 105.828 48.528ZM117.252 48.528C117.252 47.016 117.15 45.7373 116.944 44.692C116.758 43.6467 116.366 42.7973 115.768 42.144C115.171 41.472 114.284 41.136 113.108 41.136C111.932 41.136 111.046 41.472 110.448 42.144C109.851 42.7973 109.45 43.6467 109.244 44.692C109.058 45.7373 108.964 47.016 108.964 48.528C108.964 50.096 109.058 51.412 109.244 52.476C109.431 53.54 109.823 54.3987 110.42 55.052C111.036 55.7053 111.932 56.032 113.108 56.032C114.284 56.032 115.171 55.7053 115.768 55.052C116.384 54.3987 116.786 53.54 116.972 52.476C117.159 51.412 117.252 50.096 117.252 48.528ZM123.766 48.528C123.766 45.2987 124.307 42.7787 125.39 40.968C126.491 39.1387 128.377 38.224 131.046 38.224C133.715 38.224 135.591 39.1387 136.674 40.968C137.775 42.7787 138.326 45.2987 138.326 48.528C138.326 51.7947 137.775 54.352 136.674 56.2C135.591 58.0293 133.715 58.944 131.046 58.944C128.377 58.944 126.491 58.0293 125.39 56.2C124.307 54.352 123.766 51.7947 123.766 48.528ZM135.19 48.528C135.19 47.016 135.087 45.7373 134.882 44.692C134.695 43.6467 134.303 42.7973 133.706 42.144C133.109 41.472 132.222 41.136 131.046 41.136C129.87 41.136 128.983 41.472 128.386 42.144C127.789 42.7973 127.387 43.6467 127.182 44.692C126.995 45.7373 126.902 47.016 126.902 48.528C126.902 50.096 126.995 51.412 127.182 52.476C127.369 53.54 127.761 54.3987 128.358 55.052C128.974 55.7053 129.87 56.032 131.046 56.032C132.222 56.032 133.109 55.7053 133.706 55.052C134.322 54.3987 134.723 53.54 134.91 52.476C135.097 51.412 135.19 50.096 135.19 48.528ZM141.703 48.528C141.703 45.2987 142.245 42.7787 143.327 40.968C144.429 39.1387 146.314 38.224 148.983 38.224C151.653 38.224 153.529 39.1387 154.611 40.968C155.713 42.7787 156.263 45.2987 156.263 48.528C156.263 51.7947 155.713 54.352 154.611 56.2C153.529 58.0293 151.653 58.944 148.983 58.944C146.314 58.944 144.429 58.0293 143.327 56.2C142.245 54.352 141.703 51.7947 141.703 48.528ZM153.127 48.528C153.127 47.016 153.025 45.7373 152.819 44.692C152.633 43.6467 152.241 42.7973 151.643 42.144C151.046 41.472 150.159 41.136 148.983 41.136C147.807 41.136 146.921 41.472 146.323 42.144C145.726 42.7973 145.325 43.6467 145.119 44.692C144.933 45.7373 144.839 47.016 144.839 48.528C144.839 50.096 144.933 51.412 145.119 52.476C145.306 53.54 145.698 54.3987 146.295 55.052C146.911 55.7053 147.807 56.032 148.983 56.032C150.159 56.032 151.046 55.7053 151.643 55.052C152.259 54.3987 152.661 53.54 152.847 52.476C153.034 51.412 153.127 50.096 153.127 48.528ZM172.801 41.332H163.421V46.904C163.813 46.3813 164.392 45.9427 165.157 45.588C165.941 45.2333 166.772 45.056 167.649 45.056C169.217 45.056 170.486 45.392 171.457 46.064C172.446 46.736 173.146 47.5853 173.557 48.612C173.986 49.6387 174.201 50.7213 174.201 51.86C174.201 53.2413 173.93 54.4733 173.389 55.556C172.866 56.62 172.073 57.46 171.009 58.076C169.964 58.692 168.676 59 167.145 59C165.11 59 163.477 58.496 162.245 57.488C161.013 56.48 160.276 55.1453 160.033 53.484H163.141C163.346 54.3613 163.804 55.0613 164.513 55.584C165.222 56.088 166.109 56.34 167.173 56.34C168.498 56.34 169.488 55.9387 170.141 55.136C170.813 54.3333 171.149 53.2693 171.149 51.944C171.149 50.6 170.813 49.5733 170.141 48.864C169.469 48.136 168.48 47.772 167.173 47.772C166.258 47.772 165.484 48.0053 164.849 48.472C164.233 48.92 163.785 49.536 163.505 50.32H160.481V38.532H172.801V41.332Z" fill="#333333"/>
<path d="M34.712 86.49V88.092H29.402V91.89H33.542V93.474H29.402V99H27.35V86.49H34.712ZM40.9157 99.162C39.9797 99.162 39.1337 98.952 38.3777 98.532C37.6217 98.1 37.0277 97.5 36.5957 96.732C36.1637 95.952 35.9477 95.052 35.9477 94.032C35.9477 93.024 36.1697 92.13 36.6137 91.35C37.0577 90.57 37.6637 89.97 38.4317 89.55C39.1997 89.13 40.0577 88.92 41.0057 88.92C41.9537 88.92 42.8117 89.13 43.5797 89.55C44.3477 89.97 44.9537 90.57 45.3977 91.35C45.8417 92.13 46.0637 93.024 46.0637 94.032C46.0637 95.04 45.8357 95.934 45.3797 96.714C44.9237 97.494 44.2997 98.1 43.5077 98.532C42.7277 98.952 41.8637 99.162 40.9157 99.162ZM40.9157 97.434C41.4437 97.434 41.9357 97.302 42.3917 97.038C42.8597 96.774 43.2377 96.39 43.5257 95.886C43.8137 95.37 43.9577 94.752 43.9577 94.032C43.9577 93.312 43.8197 92.7 43.5437 92.196C43.2677 91.68 42.9017 91.296 42.4457 91.044C41.9897 90.78 41.4977 90.648 40.9697 90.648C40.4417 90.648 39.9557 90.78 39.5117 91.044C39.0677 91.296 38.7077 91.68 38.4317 92.196C38.1677 92.7 38.0357 93.312 38.0357 94.032C38.0357 94.752 38.1617 95.37 38.4137 95.886C38.6777 96.402 39.0257 96.792 39.4577 97.056C39.9017 97.308 40.3877 97.434 40.9157 97.434ZM57.0742 89.082V99H55.0222V97.83C54.6982 98.238 54.2722 98.562 53.7442 98.802C53.2282 99.03 52.6762 99.144 52.0882 99.144C51.3082 99.144 50.6062 98.982 49.9822 98.658C49.3702 98.334 48.8842 97.854 48.5242 97.218C48.1762 96.582 48.0022 95.814 48.0022 94.914V89.082H50.0362V94.608C50.0362 95.496 50.2582 96.18 50.7022 96.66C51.1462 97.128 51.7522 97.362 52.5202 97.362C53.2882 97.362 53.8942 97.128 54.3382 96.66C54.7942 96.18 55.0222 95.496 55.0222 94.608V89.082H57.0742ZM64.7856 88.92C65.5656 88.92 66.2616 89.082 66.8736 89.406C67.4976 89.73 67.9836 90.21 68.3316 90.846C68.6796 91.482 68.8536 92.25 68.8536 93.15V99H66.8196V93.456C66.8196 92.568 66.5976 91.89 66.1536 91.422C65.7096 90.942 65.1036 90.702 64.3356 90.702C63.5676 90.702 62.9556 90.942 62.4996 91.422C62.0556 91.89 61.8336 92.568 61.8336 93.456V99H59.7816V89.082H61.8336V90.216C62.1696 89.808 62.5956 89.49 63.1116 89.262C63.6396 89.034 64.1976 88.92 64.7856 88.92ZM70.7871 93.996C70.7871 93 70.9911 92.118 71.3991 91.35C71.8191 90.582 72.3831 89.988 73.0911 89.568C73.8111 89.136 74.6091 88.92 75.4851 88.92C76.1331 88.92 76.7691 89.064 77.3931 89.352C78.0291 89.628 78.5331 90 78.9051 90.468V85.68H80.9751V99H78.9051V97.506C78.5691 97.986 78.1011 98.382 77.5011 98.694C76.9131 99.006 76.2351 99.162 75.4671 99.162C74.6031 99.162 73.8111 98.946 73.0911 98.514C72.3831 98.07 71.8191 97.458 71.3991 96.678C70.9911 95.886 70.7871 94.992 70.7871 93.996ZM78.9051 94.032C78.9051 93.348 78.7611 92.754 78.4731 92.25C78.1971 91.746 77.8311 91.362 77.3751 91.098C76.9191 90.834 76.4271 90.702 75.8991 90.702C75.3711 90.702 74.8791 90.834 74.4231 91.098C73.9671 91.35 73.5951 91.728 73.3071 92.232C73.0311 92.724 72.8931 93.312 72.8931 93.996C72.8931 94.68 73.0311 95.28 73.3071 95.796C73.5951 96.312 73.9671 96.708 74.4231 96.984C74.8911 97.248 75.3831 97.38 75.8991 97.38C76.4271 97.38 76.9191 97.248 77.3751 96.984C77.8311 96.72 78.1971 96.336 78.4731 95.832C78.7611 95.316 78.9051 94.716 78.9051 94.032ZM82.9863 93.996C82.9863 93 83.1903 92.118 83.5983 91.35C84.0183 90.582 84.5823 89.988 85.2903 89.568C86.0103 89.136 86.8023 88.92 87.6663 88.92C88.4463 88.92 89.1243 89.076 89.7003 89.388C90.2883 89.688 90.7563 90.066 91.1043 90.522V89.082H93.1743V99H91.1043V97.524C90.7563 97.992 90.2823 98.382 89.6823 98.694C89.0823 99.006 88.3983 99.162 87.6303 99.162C86.7783 99.162 85.9983 98.946 85.2903 98.514C84.5823 98.07 84.0183 97.458 83.5983 96.678C83.1903 95.886 82.9863 94.992 82.9863 93.996ZM91.1043 94.032C91.1043 93.348 90.9603 92.754 90.6723 92.25C90.3963 91.746 90.0303 91.362 89.5743 91.098C89.1183 90.834 88.6263 90.702 88.0983 90.702C87.5703 90.702 87.0783 90.834 86.6223 91.098C86.1663 91.35 85.7943 91.728 85.5063 92.232C85.2303 92.724 85.0923 93.312 85.0923 93.996C85.0923 94.68 85.2303 95.28 85.5063 95.796C85.7943 96.312 86.1663 96.708 86.6223 96.984C87.0903 97.248 87.5823 97.38 88.0983 97.38C88.6263 97.38 89.1183 97.248 89.5743 96.984C90.0303 96.72 90.3963 96.336 90.6723 95.832C90.9603 95.316 91.1043 94.716 91.1043 94.032ZM98.2635 90.756V96.246C98.2635 96.618 98.3475 96.888 98.5155 97.056C98.6955 97.212 98.9955 97.29 99.4155 97.29H100.676V99H99.0555C98.1315 99 97.4235 98.784 96.9315 98.352C96.4395 97.92 96.1935 97.218 96.1935 96.246V90.756H95.0235V89.082H96.1935V86.616H98.2635V89.082H100.676V90.756H98.2635ZM103.611 87.768C103.239 87.768 102.927 87.642 102.675 87.39C102.423 87.138 102.297 86.826 102.297 86.454C102.297 86.082 102.423 85.77 102.675 85.518C102.927 85.266 103.239 85.14 103.611 85.14C103.971 85.14 104.277 85.266 104.529 85.518C104.781 85.77 104.907 86.082 104.907 86.454C104.907 86.826 104.781 87.138 104.529 87.39C104.277 87.642 103.971 87.768 103.611 87.768ZM104.619 89.082V99H102.567V89.082H104.619ZM111.615 99.162C110.679 99.162 109.833 98.952 109.077 98.532C108.321 98.1 107.727 97.5 107.295 96.732C106.863 95.952 106.647 95.052 106.647 94.032C106.647 93.024 106.869 92.13 107.313 91.35C107.757 90.57 108.363 89.97 109.131 89.55C109.899 89.13 110.757 88.92 111.705 88.92C112.653 88.92 113.511 89.13 114.279 89.55C115.047 89.97 115.653 90.57 116.097 91.35C116.541 92.13 116.763 93.024 116.763 94.032C116.763 95.04 116.535 95.934 116.079 96.714C115.623 97.494 114.999 98.1 114.207 98.532C113.427 98.952 112.563 99.162 111.615 99.162ZM111.615 97.434C112.143 97.434 112.635 97.302 113.091 97.038C113.559 96.774 113.937 96.39 114.225 95.886C114.513 95.37 114.657 94.752 114.657 94.032C114.657 93.312 114.519 92.7 114.243 92.196C113.967 91.68 113.601 91.296 113.145 91.044C112.689 90.78 112.197 90.648 111.669 90.648C111.141 90.648 110.655 90.78 110.211 91.044C109.767 91.296 109.407 91.68 109.131 92.196C108.867 92.7 108.735 93.312 108.735 94.032C108.735 94.752 108.861 95.37 109.113 95.886C109.377 96.402 109.725 96.792 110.157 97.056C110.601 97.308 111.087 97.434 111.615 97.434ZM123.795 88.92C124.575 88.92 125.271 89.082 125.883 89.406C126.507 89.73 126.993 90.21 127.341 90.846C127.689 91.482 127.863 92.25 127.863 93.15V99H125.829V93.456C125.829 92.568 125.607 91.89 125.163 91.422C124.719 90.942 124.113 90.702 123.345 90.702C122.577 90.702 121.965 90.942 121.509 91.422C121.065 91.89 120.843 92.568 120.843 93.456V99H118.791V89.082H120.843V90.216C121.179 89.808 121.605 89.49 122.121 89.262C122.649 89.034 123.207 88.92 123.795 88.92ZM134.045 99.162C133.277 99.162 132.587 99.024 131.975 98.748C131.363 98.46 130.877 98.076 130.517 97.596C130.157 97.104 129.965 96.558 129.941 95.958H132.065C132.101 96.414 132.299 96.792 132.659 97.092C133.031 97.392 133.493 97.542 134.045 97.542C134.621 97.542 135.065 97.428 135.377 97.2C135.701 96.96 135.863 96.642 135.863 96.246C135.863 95.886 135.683 95.61 135.323 95.418C134.963 95.226 134.405 95.034 133.649 94.842C132.917 94.638 132.317 94.446 131.849 94.266C131.393 94.074 130.997 93.786 130.661 93.402C130.325 93.006 130.157 92.496 130.157 91.872C130.157 91.332 130.307 90.84 130.607 90.396C130.907 89.94 131.339 89.58 131.903 89.316C132.479 89.052 133.151 88.92 133.919 88.92C135.047 88.92 135.953 89.208 136.637 89.784C137.333 90.348 137.705 91.122 137.753 92.106H135.701C135.665 91.626 135.485 91.248 135.161 90.972C134.837 90.684 134.399 90.54 133.847 90.54C133.307 90.54 132.893 90.654 132.605 90.882C132.317 91.098 132.173 91.392 132.173 91.764C132.173 92.028 132.269 92.25 132.461 92.43C132.653 92.61 132.893 92.754 133.181 92.862C133.469 92.958 133.877 93.078 134.405 93.222C135.125 93.414 135.713 93.606 136.169 93.798C136.625 93.99 137.015 94.284 137.339 94.68C137.663 95.064 137.825 95.568 137.825 96.192C137.825 96.756 137.675 97.266 137.375 97.722C137.075 98.166 136.637 98.52 136.061 98.784C135.497 99.036 134.825 99.162 134.045 99.162ZM149.795 99.162C148.859 99.162 148.013 98.952 147.257 98.532C146.501 98.1 145.907 97.5 145.475 96.732C145.043 95.952 144.827 95.052 144.827 94.032C144.827 93.024 145.049 92.13 145.493 91.35C145.937 90.57 146.543 89.97 147.311 89.55C148.079 89.13 148.937 88.92 149.885 88.92C150.833 88.92 151.691 89.13 152.459 89.55C153.227 89.97 153.833 90.57 154.277 91.35C154.721 92.13 154.943 93.024 154.943 94.032C154.943 95.04 154.715 95.934 154.259 96.714C153.803 97.494 153.179 98.1 152.387 98.532C151.607 98.952 150.743 99.162 149.795 99.162ZM149.795 97.434C150.323 97.434 150.815 97.302 151.271 97.038C151.739 96.774 152.117 96.39 152.405 95.886C152.693 95.37 152.837 94.752 152.837 94.032C152.837 93.312 152.699 92.7 152.423 92.196C152.147 91.68 151.781 91.296 151.325 91.044C150.869 90.78 150.377 90.648 149.849 90.648C149.321 90.648 148.835 90.78 148.391 91.044C147.947 91.296 147.587 91.68 147.311 92.196C147.047 92.7 146.915 93.312 146.915 94.032C146.915 94.752 147.041 95.37 147.293 95.886C147.557 96.402 147.905 96.792 148.337 97.056C148.781 97.308 149.267 97.434 149.795 97.434ZM161.129 90.756H159.293V99H157.223V90.756H156.053V89.082H157.223V88.38C157.223 87.24 157.523 86.412 158.123 85.896C158.735 85.368 159.689 85.104 160.985 85.104V86.814C160.361 86.814 159.923 86.934 159.671 87.174C159.419 87.402 159.293 87.804 159.293 88.38V89.082H161.129V90.756ZM177.434 93.762C177.434 94.11 177.41 94.434 177.362 94.734H169.766C169.826 95.562 170.12 96.222 170.648 96.714C171.176 97.194 171.83 97.434 172.61 97.434C173.714 97.434 174.494 96.972 174.95 96.048H177.164C176.864 96.96 176.318 97.71 175.526 98.298C174.746 98.874 173.774 99.162 172.61 99.162C171.662 99.162 170.81 98.952 170.054 98.532C169.31 98.1 168.722 97.5 168.29 96.732C167.87 95.952 167.66 95.052 167.66 94.032C167.66 93.012 167.864 92.118 168.272 91.35C168.692 90.57 169.274 89.97 170.018 89.55C170.774 89.13 171.638 88.92 172.61 88.92C173.546 88.92 174.38 89.124 175.112 89.532C175.844 89.94 176.414 90.51 176.822 91.242C177.23 91.974 177.434 92.814 177.434 93.762ZM175.292 93.258C175.28 92.454 175.01 91.818 174.482 91.35C173.966 90.882 173.312 90.648 172.52 90.648C171.8 90.648 171.182 90.882 170.666 91.35C170.162 91.818 169.868 92.454 169.784 93.258H175.292ZM181.506 85.68V99H179.454V85.68H181.506ZM193.29 93.762C193.29 94.11 193.266 94.434 193.218 94.734H185.622C185.682 95.562 185.976 96.222 186.504 96.714C187.032 97.194 187.686 97.434 188.466 97.434C189.57 97.434 190.35 96.972 190.806 96.048H193.02C192.72 96.96 192.174 97.71 191.382 98.298C190.602 98.874 189.63 99.162 188.466 99.162C187.518 99.162 186.666 98.952 185.91 98.532C185.166 98.1 184.578 97.5 184.146 96.732C183.726 95.952 183.516 95.052 183.516 94.032C183.516 93.012 183.72 92.118 184.128 91.35C184.548 90.57 185.13 89.97 185.874 89.55C186.63 89.13 187.494 88.92 188.466 88.92C189.402 88.92 190.236 89.124 190.968 89.532C191.7 89.94 192.27 90.51 192.678 91.242C193.086 91.974 193.29 92.814 193.29 93.762ZM191.148 93.258C191.136 92.454 190.866 91.818 190.338 91.35C189.822 90.882 189.168 90.648 188.376 90.648C187.656 90.648 187.038 90.882 186.522 91.35C186.018 91.818 185.724 92.454 185.64 93.258H191.148ZM194.625 94.032C194.625 93.012 194.829 92.118 195.237 91.35C195.657 90.57 196.233 89.97 196.965 89.55C197.697 89.13 198.537 88.92 199.485 88.92C200.685 88.92 201.675 89.208 202.455 89.784C203.247 90.348 203.781 91.158 204.057 92.214H201.843C201.663 91.722 201.375 91.338 200.979 91.062C200.583 90.786 200.085 90.648 199.485 90.648C198.645 90.648 197.973 90.948 197.469 91.548C196.977 92.136 196.731 92.964 196.731 94.032C196.731 95.1 196.977 95.934 197.469 96.534C197.973 97.134 198.645 97.434 199.485 97.434C200.673 97.434 201.459 96.912 201.843 95.868H204.057C203.769 96.876 203.229 97.68 202.437 98.28C201.645 98.868 200.661 99.162 199.485 99.162C198.537 99.162 197.697 98.952 196.965 98.532C196.233 98.1 195.657 97.5 195.237 96.732C194.829 95.952 194.625 95.052 194.625 94.032ZM208.496 90.756V96.246C208.496 96.618 208.58 96.888 208.748 97.056C208.928 97.212 209.228 97.29 209.648 97.29H210.908V99H209.288C208.364 99 207.656 98.784 207.164 98.352C206.672 97.92 206.426 97.218 206.426 96.246V90.756H205.256V89.082H206.426V86.616H208.496V89.082H210.908V90.756H208.496ZM214.851 90.81C215.151 90.21 215.547 89.748 216.039 89.424C216.543 89.088 217.137 88.92 217.821 88.92V91.044H217.299C216.495 91.044 215.883 91.248 215.463 91.656C215.055 92.064 214.851 92.772 214.851 93.78V99H212.799V89.082H214.851V90.81ZM220.751 87.768C220.379 87.768 220.067 87.642 219.815 87.39C219.563 87.138 219.437 86.826 219.437 86.454C219.437 86.082 219.563 85.77 219.815 85.518C220.067 85.266 220.379 85.14 220.751 85.14C221.111 85.14 221.417 85.266 221.669 85.518C221.921 85.77 222.047 86.082 222.047 86.454C222.047 86.826 221.921 87.138 221.669 87.39C221.417 87.642 221.111 87.768 220.751 87.768ZM221.759 89.082V99H219.707V89.082H221.759ZM223.77 94.032C223.77 93.012 223.974 92.118 224.382 91.35C224.802 90.57 225.378 89.97 226.11 89.55C226.842 89.13 227.682 88.92 228.63 88.92C229.83 88.92 230.82 89.208 231.6 89.784C232.392 90.348 232.926 91.158 233.202 92.214H230.988C230.808 91.722 230.52 91.338 230.124 91.062C229.728 90.786 229.23 90.648 228.63 90.648C227.79 90.648 227.118 90.948 226.614 91.548C226.122 92.136 225.876 92.964 225.876 94.032C225.876 95.1 226.122 95.934 226.614 96.534C227.118 97.134 227.79 97.434 228.63 97.434C229.818 97.434 230.604 96.912 230.988 95.868H233.202C232.914 96.876 232.374 97.68 231.582 98.28C230.79 98.868 229.806 99.162 228.63 99.162C227.682 99.162 226.842 98.952 226.11 98.532C225.378 98.1 224.802 97.5 224.382 96.732C223.974 95.952 223.77 95.052 223.77 94.032ZM234.562 93.996C234.562 93 234.766 92.118 235.174 91.35C235.594 90.582 236.158 89.988 236.866 89.568C237.586 89.136 238.378 88.92 239.242 88.92C240.022 88.92 240.7 89.076 241.276 89.388C241.864 89.688 242.332 90.066 242.68 90.522V89.082H244.75V99H242.68V97.524C242.332 97.992 241.858 98.382 241.258 98.694C240.658 99.006 239.974 99.162 239.206 99.162C238.354 99.162 237.574 98.946 236.866 98.514C236.158 98.07 235.594 97.458 235.174 96.678C234.766 95.886 234.562 94.992 234.562 93.996ZM242.68 94.032C242.68 93.348 242.536 92.754 242.248 92.25C241.972 91.746 241.606 91.362 241.15 91.098C240.694 90.834 240.202 90.702 239.674 90.702C239.146 90.702 238.654 90.834 238.198 91.098C237.742 91.35 237.37 91.728 237.082 92.232C236.806 92.724 236.668 93.312 236.668 93.996C236.668 94.68 236.806 95.28 237.082 95.796C237.37 96.312 237.742 96.708 238.198 96.984C238.666 97.248 239.158 97.38 239.674 97.38C240.202 97.38 240.694 97.248 241.15 96.984C241.606 96.72 241.972 96.336 242.248 95.832C242.536 95.316 242.68 94.716 242.68 94.032ZM249.498 85.68V99H247.446V85.68H249.498ZM32.354 115.92C33.134 115.92 33.83 116.082 34.442 116.406C35.066 116.73 35.552 117.21 35.9 117.846C36.248 118.482 36.422 119.25 36.422 120.15V126H34.388V120.456C34.388 119.568 34.166 118.89 33.722 118.422C33.278 117.942 32.672 117.702 31.904 117.702C31.136 117.702 30.524 117.942 30.068 118.422C29.624 118.89 29.402 119.568 29.402 120.456V126H27.35V116.082H29.402V117.216C29.738 116.808 30.164 116.49 30.68 116.262C31.208 116.034 31.766 115.92 32.354 115.92ZM48.1295 120.762C48.1295 121.11 48.1055 121.434 48.0575 121.734H40.4615C40.5215 122.562 40.8155 123.222 41.3435 123.714C41.8715 124.194 42.5255 124.434 43.3055 124.434C44.4095 124.434 45.1895 123.972 45.6455 123.048H47.8595C47.5595 123.96 47.0135 124.71 46.2215 125.298C45.4415 125.874 44.4695 126.162 43.3055 126.162C42.3575 126.162 41.5055 125.952 40.7495 125.532C40.0055 125.1 39.4175 124.5 38.9855 123.732C38.5655 122.952 38.3555 122.052 38.3555 121.032C38.3555 120.012 38.5595 119.118 38.9675 118.35C39.3875 117.57 39.9695 116.97 40.7135 116.55C41.4695 116.13 42.3335 115.92 43.3055 115.92C44.2415 115.92 45.0755 116.124 45.8075 116.532C46.5395 116.94 47.1095 117.51 47.5175 118.242C47.9255 118.974 48.1295 119.814 48.1295 120.762ZM45.9875 120.258C45.9755 119.454 45.7055 118.818 45.1775 118.35C44.6615 117.882 44.0075 117.648 43.2155 117.648C42.4955 117.648 41.8775 117.882 41.3615 118.35C40.8575 118.818 40.5635 119.454 40.4795 120.258H45.9875ZM52.5428 117.756V123.246C52.5428 123.618 52.6268 123.888 52.7948 124.056C52.9748 124.212 53.2748 124.29 53.6948 124.29H54.9548V126H53.3348C52.4108 126 51.7028 125.784 51.2108 125.352C50.7188 124.92 50.4728 124.218 50.4728 123.246V117.756H49.3028V116.082H50.4728V113.616H52.5428V116.082H54.9548V117.756H52.5428ZM70.1661 116.082L67.0881 126H64.9281L62.9301 118.674L60.9321 126H58.7721L55.6761 116.082H57.7641L59.8341 124.056L61.9401 116.082H64.0821L66.0981 124.02L68.1501 116.082H70.1661ZM76.0016 126.162C75.0656 126.162 74.2196 125.952 73.4636 125.532C72.7076 125.1 72.1136 124.5 71.6816 123.732C71.2496 122.952 71.0336 122.052 71.0336 121.032C71.0336 120.024 71.2556 119.13 71.6996 118.35C72.1436 117.57 72.7496 116.97 73.5176 116.55C74.2856 116.13 75.1436 115.92 76.0916 115.92C77.0396 115.92 77.8976 116.13 78.6656 116.55C79.4336 116.97 80.0396 117.57 80.4836 118.35C80.9276 119.13 81.1496 120.024 81.1496 121.032C81.1496 122.04 80.9216 122.934 80.4656 123.714C80.0096 124.494 79.3856 125.1 78.5936 125.532C77.8136 125.952 76.9496 126.162 76.0016 126.162ZM76.0016 124.434C76.5296 124.434 77.0216 124.302 77.4776 124.038C77.9456 123.774 78.3236 123.39 78.6116 122.886C78.8996 122.37 79.0436 121.752 79.0436 121.032C79.0436 120.312 78.9056 119.7 78.6296 119.196C78.3536 118.68 77.9876 118.296 77.5316 118.044C77.0756 117.78 76.5836 117.648 76.0556 117.648C75.5276 117.648 75.0416 117.78 74.5976 118.044C74.1536 118.296 73.7936 118.68 73.5176 119.196C73.2536 119.7 73.1216 120.312 73.1216 121.032C73.1216 121.752 73.2476 122.37 73.4996 122.886C73.7636 123.402 74.1116 123.792 74.5436 124.056C74.9876 124.308 75.4736 124.434 76.0016 124.434ZM85.2301 117.81C85.5301 117.21 85.9261 116.748 86.4181 116.424C86.9221 116.088 87.5161 115.92 88.2001 115.92V118.044H87.6781C86.8741 118.044 86.2621 118.248 85.8421 118.656C85.4341 119.064 85.2301 119.772 85.2301 120.78V126H83.1781V116.082H85.2301V117.81ZM94.0103 121.05L98.5823 126H95.8103L92.1383 121.734V126H90.0863V112.68H92.1383V120.42L95.7383 116.082H98.5823L94.0103 121.05ZM103.617 126.162C102.849 126.162 102.159 126.024 101.547 125.748C100.935 125.46 100.449 125.076 100.089 124.596C99.7291 124.104 99.5371 123.558 99.5131 122.958H101.637C101.673 123.414 101.871 123.792 102.231 124.092C102.603 124.392 103.065 124.542 103.617 124.542C104.193 124.542 104.637 124.428 104.949 124.2C105.273 123.96 105.435 123.642 105.435 123.246C105.435 122.886 105.255 122.61 104.895 122.418C104.535 122.226 103.977 122.034 103.221 121.842C102.489 121.638 101.889 121.446 101.421 121.266C100.965 121.074 100.569 120.786 100.233 120.402C99.8971 120.006 99.7291 119.496 99.7291 118.872C99.7291 118.332 99.8791 117.84 100.179 117.396C100.479 116.94 100.911 116.58 101.475 116.316C102.051 116.052 102.723 115.92 103.491 115.92C104.619 115.92 105.525 116.208 106.209 116.784C106.905 117.348 107.277 118.122 107.325 119.106H105.273C105.237 118.626 105.057 118.248 104.733 117.972C104.409 117.684 103.971 117.54 103.419 117.54C102.879 117.54 102.465 117.654 102.177 117.882C101.889 118.098 101.745 118.392 101.745 118.764C101.745 119.028 101.841 119.25 102.033 119.43C102.225 119.61 102.465 119.754 102.753 119.862C103.041 119.958 103.449 120.078 103.977 120.222C104.697 120.414 105.285 120.606 105.741 120.798C106.197 120.99 106.587 121.284 106.911 121.68C107.235 122.064 107.397 122.568 107.397 123.192C107.397 123.756 107.247 124.266 106.947 124.722C106.647 125.166 106.209 125.52 105.633 125.784C105.069 126.036 104.397 126.162 103.617 126.162ZM128.385 116.082L125.307 126H123.147L121.149 118.674L119.151 126H116.991L113.895 116.082H115.983L118.053 124.056L120.159 116.082H122.301L124.317 124.02L126.369 116.082H128.385ZM130.962 114.768C130.59 114.768 130.278 114.642 130.026 114.39C129.774 114.138 129.648 113.826 129.648 113.454C129.648 113.082 129.774 112.77 130.026 112.518C130.278 112.266 130.59 112.14 130.962 112.14C131.322 112.14 131.628 112.266 131.88 112.518C132.132 112.77 132.258 113.082 132.258 113.454C132.258 113.826 132.132 114.138 131.88 114.39C131.628 114.642 131.322 114.768 130.962 114.768ZM131.97 116.082V126H129.918V116.082H131.97ZM137.058 117.756V123.246C137.058 123.618 137.142 123.888 137.31 124.056C137.49 124.212 137.79 124.29 138.21 124.29H139.47V126H137.85C136.926 126 136.218 125.784 135.726 125.352C135.234 124.92 134.988 124.218 134.988 123.246V117.756H133.818V116.082H134.988V113.616H137.058V116.082H139.47V117.756H137.058ZM146.492 115.92C147.248 115.92 147.92 116.082 148.508 116.406C149.108 116.73 149.576 117.21 149.912 117.846C150.26 118.482 150.434 119.25 150.434 120.15V126H148.4V120.456C148.4 119.568 148.178 118.89 147.734 118.422C147.29 117.942 146.684 117.702 145.916 117.702C145.148 117.702 144.536 117.942 144.08 118.422C143.636 118.89 143.414 119.568 143.414 120.456V126H141.362V112.68H143.414V117.234C143.762 116.814 144.2 116.49 144.728 116.262C145.268 116.034 145.856 115.92 146.492 115.92ZM160.842 117.756V123.246C160.842 123.618 160.926 123.888 161.094 124.056C161.274 124.212 161.574 124.29 161.994 124.29H163.254V126H161.634C160.71 126 160.002 125.784 159.51 125.352C159.018 124.92 158.772 124.218 158.772 123.246V117.756H157.602V116.082H158.772V113.616H160.842V116.082H163.254V117.756H160.842ZM170.275 115.92C171.031 115.92 171.703 116.082 172.291 116.406C172.891 116.73 173.359 117.21 173.695 117.846C174.043 118.482 174.217 119.25 174.217 120.15V126H172.183V120.456C172.183 119.568 171.961 118.89 171.517 118.422C171.073 117.942 170.467 117.702 169.699 117.702C168.931 117.702 168.319 117.942 167.863 118.422C167.419 118.89 167.197 119.568 167.197 120.456V126H165.145V112.68H167.197V117.234C167.545 116.814 167.983 116.49 168.511 116.262C169.051 116.034 169.639 115.92 170.275 115.92ZM185.924 120.762C185.924 121.11 185.9 121.434 185.852 121.734H178.256C178.316 122.562 178.61 123.222 179.138 123.714C179.666 124.194 180.32 124.434 181.1 124.434C182.204 124.434 182.984 123.972 183.44 123.048H185.654C185.354 123.96 184.808 124.71 184.016 125.298C183.236 125.874 182.264 126.162 181.1 126.162C180.152 126.162 179.3 125.952 178.544 125.532C177.8 125.1 177.212 124.5 176.78 123.732C176.36 122.952 176.15 122.052 176.15 121.032C176.15 120.012 176.354 119.118 176.762 118.35C177.182 117.57 177.764 116.97 178.508 116.55C179.264 116.13 180.128 115.92 181.1 115.92C182.036 115.92 182.87 116.124 183.602 116.532C184.334 116.94 184.904 117.51 185.312 118.242C185.72 118.974 185.924 119.814 185.924 120.762ZM183.782 120.258C183.77 119.454 183.5 118.818 182.972 118.35C182.456 117.882 181.802 117.648 181.01 117.648C180.29 117.648 179.672 117.882 179.156 118.35C178.652 118.818 178.358 119.454 178.274 120.258H183.782ZM200.882 123.444H195.644L194.744 126H192.602L197.084 113.472H199.46L203.942 126H201.782L200.882 123.444ZM200.324 121.842L198.272 115.956L196.202 121.842H200.324ZM212.389 126L209.509 120.996H207.943V126H205.891V113.49H210.211C211.171 113.49 211.981 113.658 212.641 113.994C213.313 114.33 213.811 114.78 214.135 115.344C214.471 115.908 214.639 116.538 214.639 117.234C214.639 118.05 214.399 118.794 213.919 119.466C213.451 120.126 212.725 120.576 211.741 120.816L214.837 126H212.389ZM207.943 119.376H210.211C210.979 119.376 211.555 119.184 211.939 118.8C212.335 118.416 212.533 117.894 212.533 117.234C212.533 116.562 212.341 116.04 211.957 115.668C211.573 115.284 210.991 115.092 210.211 115.092H207.943V119.376ZM234.667 115.92C235.447 115.92 236.143 116.082 236.755 116.406C237.379 116.73 237.865 117.21 238.213 117.846C238.573 118.482 238.753 119.25 238.753 120.15V126H236.719V120.456C236.719 119.568 236.497 118.89 236.053 118.422C235.609 117.942 235.003 117.702 234.235 117.702C233.467 117.702 232.855 117.942 232.399 118.422C231.955 118.89 231.733 119.568 231.733 120.456V126H229.699V120.456C229.699 119.568 229.477 118.89 229.033 118.422C228.589 117.942 227.983 117.702 227.215 117.702C226.447 117.702 225.835 117.942 225.379 118.422C224.935 118.89 224.713 119.568 224.713 120.456V126H222.661V116.082H224.713V117.216C225.049 116.808 225.475 116.49 225.991 116.262C226.507 116.034 227.059 115.92 227.647 115.92C228.439 115.92 229.147 116.088 229.771 116.424C230.395 116.76 230.875 117.246 231.211 117.882C231.511 117.282 231.979 116.808 232.615 116.46C233.251 116.1 233.935 115.92 234.667 115.92ZM245.666 126.162C244.73 126.162 243.884 125.952 243.128 125.532C242.372 125.1 241.778 124.5 241.346 123.732C240.914 122.952 240.698 122.052 240.698 121.032C240.698 120.024 240.92 119.13 241.364 118.35C241.808 117.57 242.414 116.97 243.182 116.55C243.95 116.13 244.808 115.92 245.756 115.92C246.704 115.92 247.562 116.13 248.33 116.55C249.098 116.97 249.704 117.57 250.148 118.35C250.592 119.13 250.814 120.024 250.814 121.032C250.814 122.04 250.586 122.934 250.13 123.714C249.674 124.494 249.05 125.1 248.258 125.532C247.478 125.952 246.614 126.162 245.666 126.162ZM245.666 124.434C246.194 124.434 246.686 124.302 247.142 124.038C247.61 123.774 247.988 123.39 248.276 122.886C248.564 122.37 248.708 121.752 248.708 121.032C248.708 120.312 248.57 119.7 248.294 119.196C248.018 118.68 247.652 118.296 247.196 118.044C246.74 117.78 246.248 117.648 245.72 117.648C245.192 117.648 244.706 117.78 244.262 118.044C243.818 118.296 243.458 118.68 243.182 119.196C242.918 119.7 242.786 120.312 242.786 121.032C242.786 121.752 242.912 122.37 243.164 122.886C243.428 123.402 243.776 123.792 244.208 124.056C244.652 124.308 245.138 124.434 245.666 124.434ZM252.158 120.996C252.158 120 252.362 119.118 252.77 118.35C253.19 117.582 253.754 116.988 254.462 116.568C255.182 116.136 255.98 115.92 256.856 115.92C257.504 115.92 258.14 116.064 258.764 116.352C259.4 116.628 259.904 117 260.276 117.468V112.68H262.346V126H260.276V124.506C259.94 124.986 259.472 125.382 258.872 125.694C258.284 126.006 257.606 126.162 256.838 126.162C255.974 126.162 255.182 125.946 254.462 125.514C253.754 125.07 253.19 124.458 252.77 123.678C252.362 122.886 252.158 121.992 252.158 120.996ZM260.276 121.032C260.276 120.348 260.132 119.754 259.844 119.25C259.568 118.746 259.202 118.362 258.746 118.098C258.29 117.834 257.798 117.702 257.27 117.702C256.742 117.702 256.25 117.834 255.794 118.098C255.338 118.35 254.966 118.728 254.678 119.232C254.402 119.724 254.264 120.312 254.264 120.996C254.264 121.68 254.402 122.28 254.678 122.796C254.966 123.312 255.338 123.708 255.794 123.984C256.262 124.248 256.754 124.38 257.27 124.38C257.798 124.38 258.29 124.248 258.746 123.984C259.202 123.72 259.568 123.336 259.844 122.832C260.132 122.316 260.276 121.716 260.276 121.032ZM274.131 120.762C274.131 121.11 274.107 121.434 274.059 121.734H266.463C266.523 122.562 266.817 123.222 267.345 123.714C267.873 124.194 268.527 124.434 269.307 124.434C270.411 124.434 271.191 123.972 271.647 123.048H273.861C273.561 123.96 273.015 124.71 272.223 125.298C271.443 125.874 270.471 126.162 269.307 126.162C268.359 126.162 267.507 125.952 266.751 125.532C266.007 125.1 265.419 124.5 264.987 123.732C264.567 122.952 264.357 122.052 264.357 121.032C264.357 120.012 264.561 119.118 264.969 118.35C265.389 117.57 265.971 116.97 266.715 116.55C267.471 116.13 268.335 115.92 269.307 115.92C270.243 115.92 271.077 116.124 271.809 116.532C272.541 116.94 273.111 117.51 273.519 118.242C273.927 118.974 274.131 119.814 274.131 120.762ZM271.989 120.258C271.977 119.454 271.707 118.818 271.179 118.35C270.663 117.882 270.009 117.648 269.217 117.648C268.497 117.648 267.879 117.882 267.363 118.35C266.859 118.818 266.565 119.454 266.481 120.258H271.989ZM278.203 112.68V126H276.151V112.68H278.203Z" fill="#333333"/>
<rect x="26" y="151" width="132" height="36" rx="4" fill="#1D1D1D"/>
<path d="M38.592 169.416C38.592 168.328 38.8427 167.352 39.344 166.488C39.856 165.624 40.544 164.952 41.408 164.472C42.2827 163.981 43.2373 163.736 44.272 163.736C45.456 163.736 46.5067 164.029 47.424 164.616C48.352 165.192 49.024 166.013 49.44 167.08H47.248C46.96 166.525 46.56 166.109 46.048 165.832C45.536 165.544 44.944 165.4 44.272 165.4C43.536 165.4 42.88 165.565 42.304 165.896C41.728 166.227 41.2747 166.696 40.944 167.304C40.624 167.912 40.464 168.616 40.464 169.416C40.464 170.216 40.624 170.925 40.944 171.544C41.2747 172.152 41.728 172.621 42.304 172.952C42.88 173.283 43.536 173.448 44.272 173.448C45.264 173.448 46.0693 173.171 46.688 172.616C47.3173 172.051 47.696 171.288 47.824 170.328H43.648V168.904H49.776V170.328C49.6587 171.192 49.3493 171.987 48.848 172.712C48.3573 173.437 47.712 174.019 46.912 174.456C46.1227 174.883 45.2427 175.096 44.272 175.096C43.2267 175.096 42.272 174.856 41.408 174.376C40.544 173.885 39.856 173.208 39.344 172.344C38.8427 171.48 38.592 170.504 38.592 169.416ZM55.399 175.144C54.567 175.144 53.815 174.957 53.143 174.584C52.471 174.2 51.943 173.667 51.559 172.984C51.175 172.291 50.983 171.491 50.983 170.584C50.983 169.688 51.1803 168.893 51.575 168.2C51.9697 167.507 52.5083 166.973 53.191 166.6C53.8737 166.227 54.6363 166.04 55.479 166.04C56.3217 166.04 57.0843 166.227 57.767 166.6C58.4497 166.973 58.9883 167.507 59.383 168.2C59.7777 168.893 59.975 169.688 59.975 170.584C59.975 171.48 59.7723 172.275 59.367 172.968C58.9617 173.661 58.407 174.2 57.703 174.584C57.0097 174.957 56.2417 175.144 55.399 175.144ZM55.399 173.608C55.8683 173.608 56.3057 173.491 56.711 173.256C57.127 173.021 57.463 172.68 57.719 172.232C57.975 171.773 58.103 171.224 58.103 170.584C58.103 169.944 57.9803 169.4 57.735 168.952C57.4897 168.493 57.1643 168.152 56.759 167.928C56.3537 167.693 55.9163 167.576 55.447 167.576C54.9777 167.576 54.5457 167.693 54.151 167.928C53.7563 168.152 53.4363 168.493 53.191 168.952C52.9563 169.4 52.839 169.944 52.839 170.584C52.839 171.224 52.951 171.773 53.175 172.232C53.4097 172.691 53.719 173.037 54.103 173.272C54.4977 173.496 54.9297 173.608 55.399 173.608ZM68.703 167.672V172.552C68.703 172.883 68.7777 173.123 68.927 173.272C69.087 173.411 69.3537 173.48 69.727 173.48H70.847V175H69.407C68.5857 175 67.9563 174.808 67.519 174.424C67.0817 174.04 66.863 173.416 66.863 172.552V167.672H65.823V166.184H66.863V163.992H68.703V166.184H70.847V167.672H68.703ZM76.3521 175.144C75.5201 175.144 74.7681 174.957 74.0961 174.584C73.4241 174.2 72.8961 173.667 72.5121 172.984C72.1281 172.291 71.9361 171.491 71.9361 170.584C71.9361 169.688 72.1335 168.893 72.5281 168.2C72.9228 167.507 73.4615 166.973 74.1441 166.6C74.8268 166.227 75.5895 166.04 76.4321 166.04C77.2748 166.04 78.0375 166.227 78.7201 166.6C79.4028 166.973 79.9415 167.507 80.3361 168.2C80.7308 168.893 80.9281 169.688 80.9281 170.584C80.9281 171.48 80.7255 172.275 80.3201 172.968C79.9148 173.661 79.3601 174.2 78.6561 174.584C77.9628 174.957 77.1948 175.144 76.3521 175.144ZM76.3521 173.608C76.8215 173.608 77.2588 173.491 77.6641 173.256C78.0801 173.021 78.4161 172.68 78.6721 172.232C78.9281 171.773 79.0561 171.224 79.0561 170.584C79.0561 169.944 78.9335 169.4 78.6881 168.952C78.4428 168.493 78.1175 168.152 77.7121 167.928C77.3068 167.693 76.8695 167.576 76.4001 167.576C75.9308 167.576 75.4988 167.693 75.1041 167.928C74.7095 168.152 74.3895 168.493 74.1441 168.952C73.9095 169.4 73.7921 169.944 73.7921 170.584C73.7921 171.224 73.9041 171.773 74.1281 172.232C74.3628 172.691 74.6721 173.037 75.0561 173.272C75.4508 173.496 75.8828 173.608 76.3521 173.608ZM90.6961 175.144C90.0135 175.144 89.4001 175.021 88.8561 174.776C88.3121 174.52 87.8801 174.179 87.5601 173.752C87.2401 173.315 87.0695 172.829 87.0481 172.296H88.9361C88.9681 172.701 89.1441 173.037 89.4641 173.304C89.7948 173.571 90.2055 173.704 90.6961 173.704C91.2081 173.704 91.6028 173.603 91.8801 173.4C92.1681 173.187 92.3121 172.904 92.3121 172.552C92.3121 172.232 92.1521 171.987 91.8321 171.816C91.5121 171.645 91.0161 171.475 90.3441 171.304C89.6935 171.123 89.1601 170.952 88.7441 170.792C88.3388 170.621 87.9868 170.365 87.6881 170.024C87.3895 169.672 87.2401 169.219 87.2401 168.664C87.2401 168.184 87.3735 167.747 87.6401 167.352C87.9068 166.947 88.2908 166.627 88.7921 166.392C89.3041 166.157 89.9015 166.04 90.5841 166.04C91.5868 166.04 92.3921 166.296 93.0001 166.808C93.6188 167.309 93.9495 167.997 93.9921 168.872H92.1681C92.1361 168.445 91.9761 168.109 91.6881 167.864C91.4001 167.608 91.0108 167.48 90.5201 167.48C90.0401 167.48 89.6721 167.581 89.4161 167.784C89.1601 167.976 89.0321 168.237 89.0321 168.568C89.0321 168.803 89.1175 169 89.2881 169.16C89.4588 169.32 89.6721 169.448 89.9281 169.544C90.1841 169.629 90.5468 169.736 91.0161 169.864C91.6561 170.035 92.1788 170.205 92.5841 170.376C92.9895 170.547 93.3361 170.808 93.6241 171.16C93.9121 171.501 94.0561 171.949 94.0561 172.504C94.0561 173.005 93.9228 173.459 93.6561 173.864C93.3895 174.259 93.0001 174.573 92.4881 174.808C91.9868 175.032 91.3895 175.144 90.6961 175.144ZM104.059 166.184V175H102.235V173.96C101.947 174.323 101.568 174.611 101.099 174.824C100.64 175.027 100.15 175.128 99.627 175.128C98.9337 175.128 98.3097 174.984 97.755 174.696C97.211 174.408 96.779 173.981 96.459 173.416C96.1497 172.851 95.995 172.168 95.995 171.368V166.184H97.803V171.096C97.803 171.885 98.0003 172.493 98.395 172.92C98.7897 173.336 99.3283 173.544 100.011 173.544C100.694 173.544 101.232 173.336 101.627 172.92C102.032 172.493 102.235 171.885 102.235 171.096V166.184H104.059ZM108.29 167.496C108.599 167.069 109.02 166.723 109.554 166.456C110.098 166.179 110.7 166.04 111.362 166.04C112.14 166.04 112.844 166.227 113.474 166.6C114.103 166.973 114.599 167.507 114.962 168.2C115.324 168.883 115.506 169.667 115.506 170.552C115.506 171.437 115.324 172.232 114.962 172.936C114.599 173.629 114.098 174.173 113.458 174.568C112.828 174.952 112.13 175.144 111.362 175.144C110.679 175.144 110.071 175.011 109.538 174.744C109.015 174.477 108.599 174.136 108.29 173.72V175H106.466V163.16H108.29V167.496ZM113.65 170.552C113.65 169.944 113.522 169.421 113.266 168.984C113.02 168.536 112.69 168.2 112.274 167.976C111.868 167.741 111.431 167.624 110.962 167.624C110.503 167.624 110.066 167.741 109.65 167.976C109.244 168.211 108.914 168.552 108.658 169C108.412 169.448 108.29 169.976 108.29 170.584C108.29 171.192 108.412 171.725 108.658 172.184C108.914 172.632 109.244 172.973 109.65 173.208C110.066 173.443 110.503 173.56 110.962 173.56C111.431 173.56 111.868 173.443 112.274 173.208C112.69 172.963 113.02 172.611 113.266 172.152C113.522 171.693 113.65 171.16 113.65 170.552ZM118.237 165.016C117.907 165.016 117.629 164.904 117.405 164.68C117.181 164.456 117.069 164.179 117.069 163.848C117.069 163.517 117.181 163.24 117.405 163.016C117.629 162.792 117.907 162.68 118.237 162.68C118.557 162.68 118.829 162.792 119.053 163.016C119.277 163.24 119.389 163.517 119.389 163.848C119.389 164.179 119.277 164.456 119.053 164.68C118.829 164.904 118.557 165.016 118.237 165.016ZM119.133 176.728C119.133 177.592 118.915 178.216 118.477 178.6C118.051 178.995 117.427 179.192 116.605 179.192H115.661V177.656H116.285C116.659 177.656 116.92 177.581 117.069 177.432C117.229 177.293 117.309 177.059 117.309 176.728V166.184H119.133V176.728ZM129.608 170.344C129.608 170.653 129.587 170.941 129.544 171.208H122.792C122.845 171.944 123.107 172.531 123.576 172.968C124.045 173.395 124.627 173.608 125.32 173.608C126.301 173.608 126.995 173.197 127.4 172.376H129.368C129.101 173.187 128.616 173.853 127.912 174.376C127.219 174.888 126.355 175.144 125.32 175.144C124.477 175.144 123.72 174.957 123.048 174.584C122.387 174.2 121.864 173.667 121.48 172.984C121.107 172.291 120.92 171.491 120.92 170.584C120.92 169.677 121.101 168.883 121.464 168.2C121.837 167.507 122.355 166.973 123.016 166.6C123.688 166.227 124.456 166.04 125.32 166.04C126.152 166.04 126.893 166.221 127.544 166.584C128.195 166.947 128.701 167.453 129.064 168.104C129.427 168.755 129.608 169.501 129.608 170.344ZM127.704 169.896C127.693 169.181 127.453 168.616 126.984 168.2C126.525 167.784 125.944 167.576 125.24 167.576C124.6 167.576 124.051 167.784 123.592 168.2C123.144 168.616 122.883 169.181 122.808 169.896H127.704ZM130.795 170.584C130.795 169.677 130.976 168.883 131.339 168.2C131.712 167.507 132.224 166.973 132.875 166.6C133.526 166.227 134.272 166.04 135.115 166.04C136.182 166.04 137.062 166.296 137.755 166.808C138.459 167.309 138.934 168.029 139.179 168.968H137.211C137.051 168.531 136.795 168.189 136.443 167.944C136.091 167.699 135.648 167.576 135.115 167.576C134.368 167.576 133.771 167.843 133.323 168.376C132.886 168.899 132.667 169.635 132.667 170.584C132.667 171.533 132.886 172.275 133.323 172.808C133.771 173.341 134.368 173.608 135.115 173.608C136.171 173.608 136.87 173.144 137.211 172.216H139.179C138.923 173.112 138.443 173.827 137.739 174.36C137.035 174.883 136.16 175.144 135.115 175.144C134.272 175.144 133.526 174.957 132.875 174.584C132.224 174.2 131.712 173.667 131.339 172.984C130.976 172.291 130.795 171.491 130.795 170.584ZM143.125 167.672V172.552C143.125 172.883 143.2 173.123 143.349 173.272C143.509 173.411 143.776 173.48 144.149 173.48H145.269V175H143.829C143.008 175 142.378 174.808 141.941 174.424C141.504 174.04 141.285 173.416 141.285 172.552V167.672H140.245V166.184H141.285V163.992H143.125V166.184H145.269V167.672H143.125Z" fill="white"/>
</g>
<defs>
<filter id="filter0_d" x="0" y="0" width="332" height="227" filterUnits="userSpaceOnUse" color-interpolation-filters="sRGB">
<feFlood flood-opacity="0" result="BackgroundImageFix"/>
<feColorMatrix in="SourceAlpha" type="matrix" values="0 0 0 0 0 0 0 0 0 0 0 0 0 0 0 0 0 0 127 0" result="hardAlpha"/>
<feOffset dy="4"/>
<feGaussianBlur stdDeviation="2"/>
<feComposite in2="hardAlpha" operator="out"/>
<feColorMatrix type="matrix" values="0 0 0 0 0.7375 0 0 0 0 0.7375 0 0 0 0 0.7375 0 0 0 0.25 0"/>
<feBlend mode="normal" in2="BackgroundImageFix" result="effect1_dropShadow"/>
<feBlend mode="normal" in="SourceGraphic" in2="effect1_dropShadow" result="shape"/>
</filter>
</defs>
</svg>
