<svg width="332" height="227" viewBox="0 0 332 227" fill="none" xmlns="http://www.w3.org/2000/svg">
<g filter="url(#filter0_d)">
<rect x="4" width="324" height="219" rx="20" fill="white"/>
<path d="M27.036 51.228C27.036 49.324 27.4747 47.616 28.352 46.104C29.248 44.592 30.452 43.416 31.964 42.576C33.4947 41.7173 35.1653 41.288 36.976 41.288C39.048 41.288 40.8867 41.8013 42.492 42.828C44.116 43.836 45.292 45.2733 46.02 47.14H42.184C41.68 46.1133 40.98 45.348 40.084 44.844C39.188 44.34 38.152 44.088 36.976 44.088C35.688 44.088 34.54 44.3773 33.532 44.956C32.524 45.5347 31.7307 46.3653 31.152 47.448C30.592 48.5307 30.312 49.7907 30.312 51.228C30.312 52.6653 30.592 53.9253 31.152 55.008C31.7307 56.0907 32.524 56.9307 33.532 57.528C34.54 58.1067 35.688 58.396 36.976 58.396C38.152 58.396 39.188 58.144 40.084 57.64C40.98 57.136 41.68 56.3707 42.184 55.344H46.02C45.292 57.2107 44.116 58.648 42.492 59.656C40.8867 60.664 39.048 61.168 36.976 61.168C35.1467 61.168 33.476 60.748 31.964 59.908C30.452 59.0493 29.248 57.864 28.352 56.352C27.4747 54.84 27.036 53.132 27.036 51.228ZM56.4483 61.252C54.9923 61.252 53.6763 60.9253 52.5003 60.272C51.3243 59.6 50.4003 58.6667 49.7283 57.472C49.0563 56.2587 48.7203 54.8587 48.7203 53.272C48.7203 51.704 49.0656 50.3133 49.7563 49.1C50.4469 47.8867 51.3896 46.9533 52.5843 46.3C53.7789 45.6467 55.1136 45.32 56.5883 45.32C58.0629 45.32 59.3976 45.6467 60.5923 46.3C61.7869 46.9533 62.7296 47.8867 63.4203 49.1C64.1109 50.3133 64.4563 51.704 64.4563 53.272C64.4563 54.84 64.1016 56.2307 63.3923 57.444C62.6829 58.6573 61.7123 59.6 60.4803 60.272C59.2669 60.9253 57.9229 61.252 56.4483 61.252ZM56.4483 58.48C57.2696 58.48 58.0349 58.284 58.7443 57.892C59.4723 57.5 60.0603 56.912 60.5083 56.128C60.9563 55.344 61.1803 54.392 61.1803 53.272C61.1803 52.152 60.9656 51.2093 60.5363 50.444C60.1069 49.66 59.5376 49.072 58.8283 48.68C58.1189 48.288 57.3536 48.092 56.5323 48.092C55.7109 48.092 54.9456 48.288 54.2363 48.68C53.5456 49.072 52.9949 49.66 52.5843 50.444C52.1736 51.2093 51.9683 52.152 51.9683 53.272C51.9683 54.9333 52.3883 56.2213 53.2283 57.136C54.0869 58.032 55.1603 58.48 56.4483 58.48ZM86.2877 45.32C87.5011 45.32 88.5837 45.572 89.5357 46.076C90.5064 46.58 91.2624 47.3267 91.8037 48.316C92.3637 49.3053 92.6437 50.5 92.6437 51.9V61H89.4797V52.376C89.4797 50.9947 89.1344 49.94 88.4437 49.212C87.7531 48.4653 86.8104 48.092 85.6157 48.092C84.4211 48.092 83.4691 48.4653 82.7597 49.212C82.0691 49.94 81.7237 50.9947 81.7237 52.376V61H78.5597V52.376C78.5597 50.9947 78.2144 49.94 77.5237 49.212C76.8331 48.4653 75.8904 48.092 74.6957 48.092C73.5011 48.092 72.5491 48.4653 71.8397 49.212C71.1491 49.94 70.8037 50.9947 70.8037 52.376V61H67.6117V45.572H70.8037V47.336C71.3264 46.7013 71.9891 46.2067 72.7917 45.852C73.5944 45.4973 74.4531 45.32 75.3677 45.32C76.5997 45.32 77.7011 45.5813 78.6717 46.104C79.6424 46.6267 80.3891 47.3827 80.9117 48.372C81.3784 47.4387 82.1064 46.7013 83.0957 46.16C84.0851 45.6 85.1491 45.32 86.2877 45.32ZM99.8975 47.84C100.439 47.1307 101.176 46.5333 102.109 46.048C103.043 45.5627 104.097 45.32 105.273 45.32C106.617 45.32 107.84 45.656 108.941 46.328C110.061 46.9813 110.939 47.9053 111.573 49.1C112.208 50.2947 112.525 51.6667 112.525 53.216C112.525 54.7653 112.208 56.156 111.573 57.388C110.939 58.6013 110.061 59.5533 108.941 60.244C107.84 60.916 106.617 61.252 105.273 61.252C104.097 61.252 103.052 61.0187 102.137 60.552C101.223 60.0667 100.476 59.4693 99.8975 58.76V68.336H96.7055V45.572H99.8975V47.84ZM109.277 53.216C109.277 52.152 109.053 51.2373 108.605 50.472C108.176 49.688 107.597 49.1 106.869 48.708C106.16 48.2973 105.395 48.092 104.573 48.092C103.771 48.092 103.005 48.2973 102.277 48.708C101.568 49.1187 100.989 49.716 100.541 50.5C100.112 51.284 99.8975 52.208 99.8975 53.272C99.8975 54.336 100.112 55.2693 100.541 56.072C100.989 56.856 101.568 57.4533 102.277 57.864C103.005 58.2747 103.771 58.48 104.573 58.48C105.395 58.48 106.16 58.2747 106.869 57.864C107.597 57.4347 108.176 56.8187 108.605 56.016C109.053 55.2133 109.277 54.28 109.277 53.216ZM115.206 45.628C115.318 43.892 115.981 42.5387 117.194 41.568C118.426 40.5973 119.994 40.112 121.898 40.112C123.205 40.112 124.334 40.3453 125.286 40.812C126.238 41.2787 126.957 41.9133 127.442 42.716C127.927 43.5187 128.17 44.424 128.17 45.432C128.17 46.5893 127.862 47.5787 127.246 48.4C126.63 49.2213 125.893 49.772 125.034 50.052V50.164C126.135 50.5 126.994 51.116 127.61 52.012C128.226 52.8893 128.534 54.0187 128.534 55.4C128.534 56.5013 128.282 57.4813 127.778 58.34C127.274 59.1987 126.527 59.88 125.538 60.384C124.549 60.8693 123.363 61.112 121.982 61.112C119.966 61.112 118.305 60.5987 116.998 59.572C115.71 58.5267 115.019 57.0333 114.926 55.092H118.006C118.081 56.0813 118.463 56.8933 119.154 57.528C119.845 58.144 120.778 58.452 121.954 58.452C123.093 58.452 123.97 58.144 124.586 57.528C125.202 56.8933 125.51 56.0813 125.51 55.092C125.51 53.7853 125.09 52.8613 124.25 52.32C123.429 51.76 122.159 51.48 120.442 51.48H119.714V48.848H120.47C121.982 48.8293 123.13 48.5773 123.914 48.092C124.717 47.6067 125.118 46.8413 125.118 45.796C125.118 44.9 124.829 44.1907 124.25 43.668C123.671 43.1267 122.85 42.856 121.786 42.856C120.741 42.856 119.929 43.1267 119.35 43.668C118.771 44.1907 118.426 44.844 118.314 45.628H115.206ZM131.887 50.528C131.887 47.2987 132.428 44.7787 133.511 42.968C134.612 41.1387 136.498 40.224 139.167 40.224C141.836 40.224 143.712 41.1387 144.795 42.968C145.896 44.7787 146.447 47.2987 146.447 50.528C146.447 53.7947 145.896 56.352 144.795 58.2C143.712 60.0293 141.836 60.944 139.167 60.944C136.498 60.944 134.612 60.0293 133.511 58.2C132.428 56.352 131.887 53.7947 131.887 50.528ZM143.311 50.528C143.311 49.016 143.208 47.7373 143.003 46.692C142.816 45.6467 142.424 44.7973 141.827 44.144C141.23 43.472 140.343 43.136 139.167 43.136C137.991 43.136 137.104 43.472 136.507 44.144C135.91 44.7973 135.508 45.6467 135.303 46.692C135.116 47.7373 135.023 49.016 135.023 50.528C135.023 52.096 135.116 53.412 135.303 54.476C135.49 55.54 135.882 56.3987 136.479 57.052C137.095 57.7053 137.991 58.032 139.167 58.032C140.343 58.032 141.23 57.7053 141.827 57.052C142.443 56.3987 142.844 55.54 143.031 54.476C143.218 53.412 143.311 52.096 143.311 50.528ZM149.825 50.528C149.825 47.2987 150.366 44.7787 151.449 42.968C152.55 41.1387 154.435 40.224 157.105 40.224C159.774 40.224 161.65 41.1387 162.733 42.968C163.834 44.7787 164.385 47.2987 164.385 50.528C164.385 53.7947 163.834 56.352 162.733 58.2C161.65 60.0293 159.774 60.944 157.105 60.944C154.435 60.944 152.55 60.0293 151.449 58.2C150.366 56.352 149.825 53.7947 149.825 50.528ZM161.249 50.528C161.249 49.016 161.146 47.7373 160.941 46.692C160.754 45.6467 160.362 44.7973 159.765 44.144C159.167 43.472 158.281 43.136 157.105 43.136C155.929 43.136 155.042 43.472 154.445 44.144C153.847 44.7973 153.446 45.6467 153.241 46.692C153.054 47.7373 152.961 49.016 152.961 50.528C152.961 52.096 153.054 53.412 153.241 54.476C153.427 55.54 153.819 56.3987 154.417 57.052C155.033 57.7053 155.929 58.032 157.105 58.032C158.281 58.032 159.167 57.7053 159.765 57.052C160.381 56.3987 160.782 55.54 160.969 54.476C161.155 53.412 161.249 52.096 161.249 50.528ZM167.342 43.5V40.588H173.166V61H169.946V43.5H167.342ZM177.551 50.528C177.551 47.2987 178.092 44.7787 179.175 42.968C180.276 41.1387 182.162 40.224 184.831 40.224C187.5 40.224 189.376 41.1387 190.459 42.968C191.56 44.7787 192.111 47.2987 192.111 50.528C192.111 53.7947 191.56 56.352 190.459 58.2C189.376 60.0293 187.5 60.944 184.831 60.944C182.162 60.944 180.276 60.0293 179.175 58.2C178.092 56.352 177.551 53.7947 177.551 50.528ZM188.975 50.528C188.975 49.016 188.872 47.7373 188.667 46.692C188.48 45.6467 188.088 44.7973 187.491 44.144C186.894 43.472 186.007 43.136 184.831 43.136C183.655 43.136 182.768 43.472 182.171 44.144C181.574 44.7973 181.172 45.6467 180.967 46.692C180.78 47.7373 180.687 49.016 180.687 50.528C180.687 52.096 180.78 53.412 180.967 54.476C181.154 55.54 181.546 56.3987 182.143 57.052C182.759 57.7053 183.655 58.032 184.831 58.032C186.007 58.032 186.894 57.7053 187.491 57.052C188.107 56.3987 188.508 55.54 188.695 54.476C188.882 53.412 188.975 52.096 188.975 50.528Z" fill="#333333"/>
<path d="M29.402 99.344H33.632V101H27.35V88.49H29.402V99.344ZM44.438 95.798C44.438 96.17 44.414 96.506 44.366 96.806H36.788C36.848 97.598 37.142 98.234 37.67 98.714C38.198 99.194 38.846 99.434 39.614 99.434C40.718 99.434 41.498 98.972 41.954 98.048H44.168C43.868 98.96 43.322 99.71 42.53 100.298C41.75 100.874 40.778 101.162 39.614 101.162C38.666 101.162 37.814 100.952 37.058 100.532C36.314 100.1 35.726 99.5 35.294 98.732C34.874 97.952 34.664 97.052 34.664 96.032C34.664 95.012 34.868 94.118 35.276 93.35C35.696 92.57 36.278 91.97 37.022 91.55C37.778 91.13 38.642 90.92 39.614 90.92C40.55 90.92 41.384 91.124 42.116 91.532C42.848 91.94 43.418 92.516 43.826 93.26C44.234 93.992 44.438 94.838 44.438 95.798ZM42.296 95.15C42.284 94.394 42.014 93.788 41.486 93.332C40.958 92.876 40.304 92.648 39.524 92.648C38.816 92.648 38.21 92.876 37.706 93.332C37.202 93.776 36.902 94.382 36.806 95.15H42.296ZM45.7734 95.996C45.7734 95 45.9774 94.118 46.3854 93.35C46.8054 92.582 47.3694 91.988 48.0774 91.568C48.7974 91.136 49.5894 90.92 50.4534 90.92C51.2334 90.92 51.9114 91.076 52.4874 91.388C53.0754 91.688 53.5434 92.066 53.8914 92.522V91.082H55.9614V101H53.8914V99.524C53.5434 99.992 53.0694 100.382 52.4694 100.694C51.8694 101.006 51.1854 101.162 50.4174 101.162C49.5654 101.162 48.7854 100.946 48.0774 100.514C47.3694 100.07 46.8054 99.458 46.3854 98.678C45.9774 97.886 45.7734 96.992 45.7734 95.996ZM53.8914 96.032C53.8914 95.348 53.7474 94.754 53.4594 94.25C53.1834 93.746 52.8174 93.362 52.3614 93.098C51.9054 92.834 51.4134 92.702 50.8854 92.702C50.3574 92.702 49.8654 92.834 49.4094 93.098C48.9534 93.35 48.5814 93.728 48.2934 94.232C48.0174 94.724 47.8794 95.312 47.8794 95.996C47.8794 96.68 48.0174 97.28 48.2934 97.796C48.5814 98.312 48.9534 98.708 49.4094 98.984C49.8774 99.248 50.3694 99.38 50.8854 99.38C51.4134 99.38 51.9054 99.248 52.3614 98.984C52.8174 98.72 53.1834 98.336 53.4594 97.832C53.7474 97.316 53.8914 96.716 53.8914 96.032ZM60.7086 92.522C61.0086 92.018 61.4046 91.628 61.8966 91.352C62.4006 91.064 62.9946 90.92 63.6786 90.92V93.044H63.1566C62.3526 93.044 61.7406 93.248 61.3206 93.656C60.9126 94.064 60.7086 94.772 60.7086 95.78V101H58.6566V91.082H60.7086V92.522ZM70.5688 90.92C71.3488 90.92 72.0448 91.082 72.6568 91.406C73.2808 91.73 73.7668 92.21 74.1148 92.846C74.4628 93.482 74.6368 94.25 74.6368 95.15V101H72.6028V95.456C72.6028 94.568 72.3808 93.89 71.9368 93.422C71.4928 92.942 70.8868 92.702 70.1188 92.702C69.3508 92.702 68.7388 92.942 68.2828 93.422C67.8388 93.89 67.6168 94.568 67.6168 95.456V101H65.5648V91.082H67.6168V92.216C67.9528 91.808 68.3788 91.49 68.8948 91.262C69.4228 91.034 69.9808 90.92 70.5688 90.92ZM78.2983 89.768C77.9263 89.768 77.6143 89.642 77.3623 89.39C77.1103 89.138 76.9843 88.826 76.9843 88.454C76.9843 88.082 77.1103 87.77 77.3623 87.518C77.6143 87.266 77.9263 87.14 78.2983 87.14C78.6583 87.14 78.9643 87.266 79.2163 87.518C79.4683 87.77 79.5943 88.082 79.5943 88.454C79.5943 88.826 79.4683 89.138 79.2163 89.39C78.9643 89.642 78.6583 89.768 78.2983 89.768ZM79.3063 91.082V101H77.2543V91.082H79.3063ZM87.0044 90.92C87.7844 90.92 88.4804 91.082 89.0924 91.406C89.7164 91.73 90.2024 92.21 90.5504 92.846C90.8984 93.482 91.0724 94.25 91.0724 95.15V101H89.0384V95.456C89.0384 94.568 88.8164 93.89 88.3724 93.422C87.9284 92.942 87.3224 92.702 86.5544 92.702C85.7864 92.702 85.1744 92.942 84.7184 93.422C84.2744 93.89 84.0524 94.568 84.0524 95.456V101H82.0004V91.082H84.0524V92.216C84.3884 91.808 84.8144 91.49 85.3304 91.262C85.8584 91.034 86.4164 90.92 87.0044 90.92ZM97.6858 90.92C98.4538 90.92 99.1318 91.076 99.7198 91.388C100.32 91.688 100.788 92.066 101.124 92.522V91.082H103.194V101.162C103.194 102.074 103.002 102.884 102.618 103.592C102.234 104.312 101.676 104.876 100.944 105.284C100.224 105.692 99.3598 105.896 98.3518 105.896C97.0078 105.896 95.8918 105.578 95.0038 104.942C94.1158 104.318 93.6118 103.466 93.4918 102.386H95.5258C95.6818 102.902 96.0118 103.316 96.5158 103.628C97.0318 103.952 97.6438 104.114 98.3518 104.114C99.1798 104.114 99.8458 103.862 100.35 103.358C100.866 102.854 101.124 102.122 101.124 101.162V99.506C100.776 99.974 100.302 100.37 99.7018 100.694C99.1138 101.006 98.4418 101.162 97.6858 101.162C96.8218 101.162 96.0298 100.946 95.3098 100.514C94.6018 100.07 94.0378 99.458 93.6178 98.678C93.2098 97.886 93.0058 96.992 93.0058 95.996C93.0058 95 93.2098 94.118 93.6178 93.35C94.0378 92.582 94.6018 91.988 95.3098 91.568C96.0298 91.136 96.8218 90.92 97.6858 90.92ZM101.124 96.032C101.124 95.348 100.98 94.754 100.692 94.25C100.416 93.746 100.05 93.362 99.5938 93.098C99.1378 92.834 98.6458 92.702 98.1178 92.702C97.5898 92.702 97.0978 92.834 96.6418 93.098C96.1858 93.35 95.8138 93.728 95.5258 94.232C95.2498 94.724 95.1118 95.312 95.1118 95.996C95.1118 96.68 95.2498 97.28 95.5258 97.796C95.8138 98.312 96.1858 98.708 96.6418 98.984C97.1098 99.248 97.6018 99.38 98.1178 99.38C98.6458 99.38 99.1378 99.248 99.5938 98.984C100.05 98.72 100.416 98.336 100.692 97.832C100.98 97.316 101.124 96.716 101.124 96.032ZM119.313 92.216C119.313 92.852 119.163 93.452 118.863 94.016C118.563 94.58 118.083 95.042 117.423 95.402C116.763 95.75 115.917 95.924 114.885 95.924H112.617V101H110.565V88.49H114.885C115.845 88.49 116.655 88.658 117.315 88.994C117.987 89.318 118.485 89.762 118.809 90.326C119.145 90.89 119.313 91.52 119.313 92.216ZM114.885 94.25C115.665 94.25 116.247 94.076 116.631 93.728C117.015 93.368 117.207 92.864 117.207 92.216C117.207 90.848 116.433 90.164 114.885 90.164H112.617V94.25H114.885ZM120.586 94.718C120.586 93.494 120.868 92.396 121.432 91.424C122.008 90.452 122.782 89.696 123.754 89.156C124.738 88.604 125.812 88.328 126.976 88.328C128.308 88.328 129.49 88.658 130.522 89.318C131.566 89.966 132.322 90.89 132.79 92.09H130.324C130 91.43 129.55 90.938 128.974 90.614C128.398 90.29 127.732 90.128 126.976 90.128C126.148 90.128 125.41 90.314 124.762 90.686C124.114 91.058 123.604 91.592 123.232 92.288C122.872 92.984 122.692 93.794 122.692 94.718C122.692 95.642 122.872 96.452 123.232 97.148C123.604 97.844 124.114 98.384 124.762 98.768C125.41 99.14 126.148 99.326 126.976 99.326C127.732 99.326 128.398 99.164 128.974 98.84C129.55 98.516 130 98.024 130.324 97.364H132.79C132.322 98.564 131.566 99.488 130.522 100.136C129.49 100.784 128.308 101.108 126.976 101.108C125.8 101.108 124.726 100.838 123.754 100.298C122.782 99.746 122.008 98.984 121.432 98.012C120.868 97.04 120.586 95.942 120.586 94.718ZM141.92 92.558C142.268 92.078 142.742 91.688 143.342 91.388C143.954 91.076 144.632 90.92 145.376 90.92C146.252 90.92 147.044 91.13 147.752 91.55C148.46 91.97 149.018 92.57 149.426 93.35C149.834 94.118 150.038 95 150.038 95.996C150.038 96.992 149.834 97.886 149.426 98.678C149.018 99.458 148.454 100.07 147.734 100.514C147.026 100.946 146.24 101.162 145.376 101.162C144.608 101.162 143.924 101.012 143.324 100.712C142.736 100.412 142.268 100.028 141.92 99.56V101H139.868V87.68H141.92V92.558ZM147.95 95.996C147.95 95.312 147.806 94.724 147.518 94.232C147.242 93.728 146.87 93.35 146.402 93.098C145.946 92.834 145.454 92.702 144.926 92.702C144.41 92.702 143.918 92.834 143.45 93.098C142.994 93.362 142.622 93.746 142.334 94.25C142.058 94.754 141.92 95.348 141.92 96.032C141.92 96.716 142.058 97.316 142.334 97.832C142.622 98.336 142.994 98.72 143.45 98.984C143.918 99.248 144.41 99.38 144.926 99.38C145.454 99.38 145.946 99.248 146.402 98.984C146.87 98.708 147.242 98.312 147.518 97.796C147.806 97.28 147.95 96.68 147.95 95.996ZM161.049 91.082V101H158.997V99.83C158.673 100.238 158.247 100.562 157.719 100.802C157.203 101.03 156.651 101.144 156.063 101.144C155.283 101.144 154.581 100.982 153.957 100.658C153.345 100.334 152.859 99.854 152.499 99.218C152.151 98.582 151.977 97.814 151.977 96.914V91.082H154.011V96.608C154.011 97.496 154.233 98.18 154.677 98.66C155.121 99.128 155.727 99.362 156.495 99.362C157.263 99.362 157.869 99.128 158.313 98.66C158.769 98.18 158.997 97.496 158.997 96.608V91.082H161.049ZM164.8 89.768C164.428 89.768 164.116 89.642 163.864 89.39C163.612 89.138 163.486 88.826 163.486 88.454C163.486 88.082 163.612 87.77 163.864 87.518C164.116 87.266 164.428 87.14 164.8 87.14C165.16 87.14 165.466 87.266 165.718 87.518C165.97 87.77 166.096 88.082 166.096 88.454C166.096 88.826 165.97 89.138 165.718 89.39C165.466 89.642 165.16 89.768 164.8 89.768ZM165.808 91.082V101H163.756V91.082H165.808ZM170.554 87.68V101H168.502V87.68H170.554ZM172.564 95.996C172.564 95 172.768 94.118 173.176 93.35C173.596 92.582 174.16 91.988 174.868 91.568C175.588 91.136 176.386 90.92 177.262 90.92C177.91 90.92 178.546 91.064 179.17 91.352C179.806 91.628 180.31 92 180.682 92.468V87.68H182.752V101H180.682V99.506C180.346 99.986 179.878 100.382 179.278 100.694C178.69 101.006 178.012 101.162 177.244 101.162C176.38 101.162 175.588 100.946 174.868 100.514C174.16 100.07 173.596 99.458 173.176 98.678C172.768 97.886 172.564 96.992 172.564 95.996ZM180.682 96.032C180.682 95.348 180.538 94.754 180.25 94.25C179.974 93.746 179.608 93.362 179.152 93.098C178.696 92.834 178.204 92.702 177.676 92.702C177.148 92.702 176.656 92.834 176.2 93.098C175.744 93.35 175.372 93.728 175.084 94.232C174.808 94.724 174.67 95.312 174.67 95.996C174.67 96.68 174.808 97.28 175.084 97.796C175.372 98.312 175.744 98.708 176.2 98.984C176.668 99.248 177.16 99.38 177.676 99.38C178.204 99.38 178.696 99.248 179.152 98.984C179.608 98.72 179.974 98.336 180.25 97.832C180.538 97.316 180.682 96.716 180.682 96.032ZM186.492 89.768C186.12 89.768 185.808 89.642 185.556 89.39C185.304 89.138 185.178 88.826 185.178 88.454C185.178 88.082 185.304 87.77 185.556 87.518C185.808 87.266 186.12 87.14 186.492 87.14C186.852 87.14 187.158 87.266 187.41 87.518C187.662 87.77 187.788 88.082 187.788 88.454C187.788 88.826 187.662 89.138 187.41 89.39C187.158 89.642 186.852 89.768 186.492 89.768ZM187.5 91.082V101H185.448V91.082H187.5ZM195.198 90.92C195.978 90.92 196.674 91.082 197.286 91.406C197.91 91.73 198.396 92.21 198.744 92.846C199.092 93.482 199.266 94.25 199.266 95.15V101H197.232V95.456C197.232 94.568 197.01 93.89 196.566 93.422C196.122 92.942 195.516 92.702 194.748 92.702C193.98 92.702 193.368 92.942 192.912 93.422C192.468 93.89 192.246 94.568 192.246 95.456V101H190.194V91.082H192.246V92.216C192.582 91.808 193.008 91.49 193.524 91.262C194.052 91.034 194.61 90.92 195.198 90.92ZM205.879 90.92C206.647 90.92 207.325 91.076 207.913 91.388C208.513 91.688 208.981 92.066 209.317 92.522V91.082H211.387V101.162C211.387 102.074 211.195 102.884 210.811 103.592C210.427 104.312 209.869 104.876 209.137 105.284C208.417 105.692 207.553 105.896 206.545 105.896C205.201 105.896 204.085 105.578 203.197 104.942C202.309 104.318 201.805 103.466 201.685 102.386H203.719C203.875 102.902 204.205 103.316 204.709 103.628C205.225 103.952 205.837 104.114 206.545 104.114C207.373 104.114 208.039 103.862 208.543 103.358C209.059 102.854 209.317 102.122 209.317 101.162V99.506C208.969 99.974 208.495 100.37 207.895 100.694C207.307 101.006 206.635 101.162 205.879 101.162C205.015 101.162 204.223 100.946 203.503 100.514C202.795 100.07 202.231 99.458 201.811 98.678C201.403 97.886 201.199 96.992 201.199 95.996C201.199 95 201.403 94.118 201.811 93.35C202.231 92.582 202.795 91.988 203.503 91.568C204.223 91.136 205.015 90.92 205.879 90.92ZM209.317 96.032C209.317 95.348 209.173 94.754 208.885 94.25C208.609 93.746 208.243 93.362 207.787 93.098C207.331 92.834 206.839 92.702 206.311 92.702C205.783 92.702 205.291 92.834 204.835 93.098C204.379 93.35 204.007 93.728 203.719 94.232C203.443 94.724 203.305 95.312 203.305 95.996C203.305 96.68 203.443 97.28 203.719 97.796C204.007 98.312 204.379 98.708 204.835 98.984C205.303 99.248 205.795 99.38 206.311 99.38C206.839 99.38 207.331 99.248 207.787 98.984C208.243 98.72 208.609 98.336 208.885 97.832C209.173 97.316 209.317 96.716 209.317 96.032ZM221.152 92.756V98.246C221.152 98.618 221.236 98.888 221.404 99.056C221.584 99.212 221.884 99.29 222.304 99.29H223.564V101H221.944C221.02 101 220.312 100.784 219.82 100.352C219.328 99.92 219.082 99.218 219.082 98.246V92.756H217.912V91.082H219.082V88.616H221.152V91.082H223.564V92.756H221.152ZM230.585 90.92C231.341 90.92 232.013 91.082 232.601 91.406C233.201 91.73 233.669 92.21 234.005 92.846C234.353 93.482 234.527 94.25 234.527 95.15V101H232.493V95.456C232.493 94.568 232.271 93.89 231.827 93.422C231.383 92.942 230.777 92.702 230.009 92.702C229.241 92.702 228.629 92.942 228.173 93.422C227.729 93.89 227.507 94.568 227.507 95.456V101H225.455V87.68H227.507V92.234C227.855 91.814 228.293 91.49 228.821 91.262C229.361 91.034 229.949 90.92 230.585 90.92ZM239.197 92.522C239.497 92.018 239.893 91.628 240.385 91.352C240.889 91.064 241.483 90.92 242.167 90.92V93.044H241.645C240.841 93.044 240.229 93.248 239.809 93.656C239.401 94.064 239.197 94.772 239.197 95.78V101H237.145V91.082H239.197V92.522ZM248.355 101.162C247.419 101.162 246.573 100.952 245.817 100.532C245.061 100.1 244.467 99.5 244.035 98.732C243.603 97.952 243.387 97.052 243.387 96.032C243.387 95.024 243.609 94.13 244.053 93.35C244.497 92.57 245.103 91.97 245.871 91.55C246.639 91.13 247.497 90.92 248.445 90.92C249.393 90.92 250.251 91.13 251.019 91.55C251.787 91.97 252.393 92.57 252.837 93.35C253.281 94.13 253.503 95.024 253.503 96.032C253.503 97.04 253.275 97.934 252.819 98.714C252.363 99.494 251.739 100.1 250.947 100.532C250.167 100.952 249.303 101.162 248.355 101.162ZM248.355 99.38C248.883 99.38 249.375 99.254 249.831 99.002C250.299 98.75 250.677 98.372 250.965 97.868C251.253 97.364 251.397 96.752 251.397 96.032C251.397 95.312 251.259 94.706 250.983 94.214C250.707 93.71 250.341 93.332 249.885 93.08C249.429 92.828 248.937 92.702 248.409 92.702C247.881 92.702 247.389 92.828 246.933 93.08C246.489 93.332 246.135 93.71 245.871 94.214C245.607 94.706 245.475 95.312 245.475 96.032C245.475 97.1 245.745 97.928 246.285 98.516C246.837 99.092 247.527 99.38 248.355 99.38ZM264.514 91.082V101H262.462V99.83C262.138 100.238 261.712 100.562 261.184 100.802C260.668 101.03 260.116 101.144 259.528 101.144C258.748 101.144 258.046 100.982 257.422 100.658C256.81 100.334 256.324 99.854 255.964 99.218C255.616 98.582 255.442 97.814 255.442 96.914V91.082H257.476V96.608C257.476 97.496 257.698 98.18 258.142 98.66C258.586 99.128 259.192 99.362 259.96 99.362C260.728 99.362 261.334 99.128 261.778 98.66C262.234 98.18 262.462 97.496 262.462 96.608V91.082H264.514ZM271.217 90.92C271.985 90.92 272.663 91.076 273.251 91.388C273.851 91.688 274.319 92.066 274.655 92.522V91.082H276.725V101.162C276.725 102.074 276.533 102.884 276.149 103.592C275.765 104.312 275.207 104.876 274.475 105.284C273.755 105.692 272.891 105.896 271.883 105.896C270.539 105.896 269.423 105.578 268.535 104.942C267.647 104.318 267.143 103.466 267.023 102.386H269.057C269.213 102.902 269.543 103.316 270.047 103.628C270.563 103.952 271.175 104.114 271.883 104.114C272.711 104.114 273.377 103.862 273.881 103.358C274.397 102.854 274.655 102.122 274.655 101.162V99.506C274.307 99.974 273.833 100.37 273.233 100.694C272.645 101.006 271.973 101.162 271.217 101.162C270.353 101.162 269.561 100.946 268.841 100.514C268.133 100.07 267.569 99.458 267.149 98.678C266.741 97.886 266.537 96.992 266.537 95.996C266.537 95 266.741 94.118 267.149 93.35C267.569 92.582 268.133 91.988 268.841 91.568C269.561 91.136 270.353 90.92 271.217 90.92ZM274.655 96.032C274.655 95.348 274.511 94.754 274.223 94.25C273.947 93.746 273.581 93.362 273.125 93.098C272.669 92.834 272.177 92.702 271.649 92.702C271.121 92.702 270.629 92.834 270.173 93.098C269.717 93.35 269.345 93.728 269.057 94.232C268.781 94.724 268.643 95.312 268.643 95.996C268.643 96.68 268.781 97.28 269.057 97.796C269.345 98.312 269.717 98.708 270.173 98.984C270.641 99.248 271.133 99.38 271.649 99.38C272.177 99.38 272.669 99.248 273.125 98.984C273.581 98.72 273.947 98.336 274.223 97.832C274.511 97.316 274.655 96.716 274.655 96.032ZM284.55 90.92C285.306 90.92 285.978 91.082 286.566 91.406C287.166 91.73 287.634 92.21 287.97 92.846C288.318 93.482 288.492 94.25 288.492 95.15V101H286.458V95.456C286.458 94.568 286.236 93.89 285.792 93.422C285.348 92.942 284.742 92.702 283.974 92.702C283.206 92.702 282.594 92.942 282.138 93.422C281.694 93.89 281.472 94.568 281.472 95.456V101H279.42V87.68H281.472V92.234C281.82 91.814 282.258 91.49 282.786 91.262C283.326 91.034 283.914 90.92 284.55 90.92ZM26.666 122.996C26.666 122 26.87 121.118 27.278 120.35C27.698 119.582 28.262 118.988 28.97 118.568C29.69 118.136 30.482 117.92 31.346 117.92C32.126 117.92 32.804 118.076 33.38 118.388C33.968 118.688 34.436 119.066 34.784 119.522V118.082H36.854V128H34.784V126.524C34.436 126.992 33.962 127.382 33.362 127.694C32.762 128.006 32.078 128.162 31.31 128.162C30.458 128.162 29.678 127.946 28.97 127.514C28.262 127.07 27.698 126.458 27.278 125.678C26.87 124.886 26.666 123.992 26.666 122.996ZM34.784 123.032C34.784 122.348 34.64 121.754 34.352 121.25C34.076 120.746 33.71 120.362 33.254 120.098C32.798 119.834 32.306 119.702 31.778 119.702C31.25 119.702 30.758 119.834 30.302 120.098C29.846 120.35 29.474 120.728 29.186 121.232C28.91 121.724 28.772 122.312 28.772 122.996C28.772 123.68 28.91 124.28 29.186 124.796C29.474 125.312 29.846 125.708 30.302 125.984C30.77 126.248 31.262 126.38 31.778 126.38C32.306 126.38 32.798 126.248 33.254 125.984C33.71 125.72 34.076 125.336 34.352 124.832C34.64 124.316 34.784 123.716 34.784 123.032ZM44.5532 117.92C45.3332 117.92 46.0292 118.082 46.6412 118.406C47.2652 118.73 47.7512 119.21 48.0992 119.846C48.4472 120.482 48.6212 121.25 48.6212 122.15V128H46.5872V122.456C46.5872 121.568 46.3652 120.89 45.9212 120.422C45.4772 119.942 44.8712 119.702 44.1032 119.702C43.3352 119.702 42.7232 119.942 42.2672 120.422C41.8232 120.89 41.6012 121.568 41.6012 122.456V128H39.5492V118.082H41.6012V119.216C41.9372 118.808 42.3632 118.49 42.8792 118.262C43.4072 118.034 43.9652 117.92 44.5532 117.92ZM63.4565 125.444H58.2185L57.3185 128H55.1765L59.6585 115.472H62.0345L66.5165 128H64.3565L63.4565 125.444ZM62.8805 123.77L60.8465 117.956L58.7945 123.77H62.8805ZM74.9632 128L72.0832 122.996H70.5172V128H68.4652V115.49H72.7852C73.7452 115.49 74.5552 115.658 75.2152 115.994C75.8872 116.33 76.3852 116.78 76.7092 117.344C77.0452 117.908 77.2132 118.538 77.2132 119.234C77.2132 120.05 76.9732 120.794 76.4932 121.466C76.0252 122.126 75.2992 122.576 74.3152 122.816L77.4112 128H74.9632ZM70.5172 121.358H72.7852C73.5532 121.358 74.1292 121.166 74.5132 120.782C74.9092 120.398 75.1072 119.882 75.1072 119.234C75.1072 118.586 74.9152 118.082 74.5312 117.722C74.1472 117.35 73.5652 117.164 72.7852 117.164H70.5172V121.358ZM97.6901 115.49V128H95.6381V119.432L91.8221 128H90.4001L86.5661 119.432V128H84.5141V115.49H86.7281L91.1201 125.3L95.4941 115.49H97.6901ZM104.689 128.162C103.753 128.162 102.907 127.952 102.151 127.532C101.395 127.1 100.801 126.5 100.369 125.732C99.9371 124.952 99.7211 124.052 99.7211 123.032C99.7211 122.024 99.9431 121.13 100.387 120.35C100.831 119.57 101.437 118.97 102.205 118.55C102.973 118.13 103.831 117.92 104.779 117.92C105.727 117.92 106.585 118.13 107.353 118.55C108.121 118.97 108.727 119.57 109.171 120.35C109.615 121.13 109.837 122.024 109.837 123.032C109.837 124.04 109.609 124.934 109.153 125.714C108.697 126.494 108.073 127.1 107.281 127.532C106.501 127.952 105.637 128.162 104.689 128.162ZM104.689 126.38C105.217 126.38 105.709 126.254 106.165 126.002C106.633 125.75 107.011 125.372 107.299 124.868C107.587 124.364 107.731 123.752 107.731 123.032C107.731 122.312 107.593 121.706 107.317 121.214C107.041 120.71 106.675 120.332 106.219 120.08C105.763 119.828 105.271 119.702 104.743 119.702C104.215 119.702 103.723 119.828 103.267 120.08C102.823 120.332 102.469 120.71 102.205 121.214C101.941 121.706 101.809 122.312 101.809 123.032C101.809 124.1 102.079 124.928 102.619 125.516C103.171 126.092 103.861 126.38 104.689 126.38ZM111.182 122.996C111.182 122 111.386 121.118 111.794 120.35C112.214 119.582 112.778 118.988 113.486 118.568C114.206 118.136 115.004 117.92 115.88 117.92C116.528 117.92 117.164 118.064 117.788 118.352C118.424 118.628 118.928 119 119.3 119.468V114.68H121.37V128H119.3V126.506C118.964 126.986 118.496 127.382 117.896 127.694C117.308 128.006 116.63 128.162 115.862 128.162C114.998 128.162 114.206 127.946 113.486 127.514C112.778 127.07 112.214 126.458 111.794 125.678C111.386 124.886 111.182 123.992 111.182 122.996ZM119.3 123.032C119.3 122.348 119.156 121.754 118.868 121.25C118.592 120.746 118.226 120.362 117.77 120.098C117.314 119.834 116.822 119.702 116.294 119.702C115.766 119.702 115.274 119.834 114.818 120.098C114.362 120.35 113.99 120.728 113.702 121.232C113.426 121.724 113.288 122.312 113.288 122.996C113.288 123.68 113.426 124.28 113.702 124.796C113.99 125.312 114.362 125.708 114.818 125.984C115.286 126.248 115.778 126.38 116.294 126.38C116.822 126.38 117.314 126.248 117.77 125.984C118.226 125.72 118.592 125.336 118.868 124.832C119.156 124.316 119.3 123.716 119.3 123.032ZM133.155 122.798C133.155 123.17 133.131 123.506 133.083 123.806H125.505C125.565 124.598 125.859 125.234 126.387 125.714C126.915 126.194 127.563 126.434 128.331 126.434C129.435 126.434 130.215 125.972 130.671 125.048H132.885C132.585 125.96 132.039 126.71 131.247 127.298C130.467 127.874 129.495 128.162 128.331 128.162C127.383 128.162 126.531 127.952 125.775 127.532C125.031 127.1 124.443 126.5 124.011 125.732C123.591 124.952 123.381 124.052 123.381 123.032C123.381 122.012 123.585 121.118 123.993 120.35C124.413 119.57 124.995 118.97 125.739 118.55C126.495 118.13 127.359 117.92 128.331 117.92C129.267 117.92 130.101 118.124 130.833 118.532C131.565 118.94 132.135 119.516 132.543 120.26C132.951 120.992 133.155 121.838 133.155 122.798ZM131.013 122.15C131.001 121.394 130.731 120.788 130.203 120.332C129.675 119.876 129.021 119.648 128.241 119.648C127.533 119.648 126.927 119.876 126.423 120.332C125.919 120.776 125.619 121.382 125.523 122.15H131.013ZM137.226 114.68V128H135.174V114.68H137.226Z" fill="#333333"/>
<rect x="26" y="153" width="132" height="36" rx="4" fill="#1D1D1D"/>
<path d="M38.592 171.416C38.592 170.328 38.8427 169.352 39.344 168.488C39.856 167.624 40.544 166.952 41.408 166.472C42.2827 165.981 43.2373 165.736 44.272 165.736C45.456 165.736 46.5067 166.029 47.424 166.616C48.352 167.192 49.024 168.013 49.44 169.08H47.248C46.96 168.525 46.56 168.109 46.048 167.832C45.536 167.544 44.944 167.4 44.272 167.4C43.536 167.4 42.88 167.565 42.304 167.896C41.728 168.227 41.2747 168.696 40.944 169.304C40.624 169.912 40.464 170.616 40.464 171.416C40.464 172.216 40.624 172.925 40.944 173.544C41.2747 174.152 41.728 174.621 42.304 174.952C42.88 175.283 43.536 175.448 44.272 175.448C45.264 175.448 46.0693 175.171 46.688 174.616C47.3173 174.051 47.696 173.288 47.824 172.328H43.648V170.904H49.776V172.328C49.6587 173.192 49.3493 173.987 48.848 174.712C48.3573 175.437 47.712 176.019 46.912 176.456C46.1227 176.883 45.2427 177.096 44.272 177.096C43.2267 177.096 42.272 176.856 41.408 176.376C40.544 175.885 39.856 175.208 39.344 174.344C38.8427 173.48 38.592 172.504 38.592 171.416ZM55.399 177.144C54.567 177.144 53.815 176.957 53.143 176.584C52.471 176.2 51.943 175.667 51.559 174.984C51.175 174.291 50.983 173.491 50.983 172.584C50.983 171.688 51.1803 170.893 51.575 170.2C51.9697 169.507 52.5083 168.973 53.191 168.6C53.8737 168.227 54.6363 168.04 55.479 168.04C56.3217 168.04 57.0843 168.227 57.767 168.6C58.4497 168.973 58.9883 169.507 59.383 170.2C59.7777 170.893 59.975 171.688 59.975 172.584C59.975 173.48 59.7723 174.275 59.367 174.968C58.9617 175.661 58.407 176.2 57.703 176.584C57.0097 176.957 56.2417 177.144 55.399 177.144ZM55.399 175.608C55.8683 175.608 56.3057 175.491 56.711 175.256C57.127 175.021 57.463 174.68 57.719 174.232C57.975 173.773 58.103 173.224 58.103 172.584C58.103 171.944 57.9803 171.4 57.735 170.952C57.4897 170.493 57.1643 170.152 56.759 169.928C56.3537 169.693 55.9163 169.576 55.447 169.576C54.9777 169.576 54.5457 169.693 54.151 169.928C53.7563 170.152 53.4363 170.493 53.191 170.952C52.9563 171.4 52.839 171.944 52.839 172.584C52.839 173.224 52.951 173.773 53.175 174.232C53.4097 174.691 53.719 175.037 54.103 175.272C54.4977 175.496 54.9297 175.608 55.399 175.608ZM68.703 169.672V174.552C68.703 174.883 68.7777 175.123 68.927 175.272C69.087 175.411 69.3537 175.48 69.727 175.48H70.847V177H69.407C68.5857 177 67.9563 176.808 67.519 176.424C67.0817 176.04 66.863 175.416 66.863 174.552V169.672H65.823V168.184H66.863V165.992H68.703V168.184H70.847V169.672H68.703ZM76.3521 177.144C75.5201 177.144 74.7681 176.957 74.0961 176.584C73.4241 176.2 72.8961 175.667 72.5121 174.984C72.1281 174.291 71.9361 173.491 71.9361 172.584C71.9361 171.688 72.1335 170.893 72.5281 170.2C72.9228 169.507 73.4615 168.973 74.1441 168.6C74.8268 168.227 75.5895 168.04 76.4321 168.04C77.2748 168.04 78.0375 168.227 78.7201 168.6C79.4028 168.973 79.9415 169.507 80.3361 170.2C80.7308 170.893 80.9281 171.688 80.9281 172.584C80.9281 173.48 80.7255 174.275 80.3201 174.968C79.9148 175.661 79.3601 176.2 78.6561 176.584C77.9628 176.957 77.1948 177.144 76.3521 177.144ZM76.3521 175.608C76.8215 175.608 77.2588 175.491 77.6641 175.256C78.0801 175.021 78.4161 174.68 78.6721 174.232C78.9281 173.773 79.0561 173.224 79.0561 172.584C79.0561 171.944 78.9335 171.4 78.6881 170.952C78.4428 170.493 78.1175 170.152 77.7121 169.928C77.3068 169.693 76.8695 169.576 76.4001 169.576C75.9308 169.576 75.4988 169.693 75.1041 169.928C74.7095 170.152 74.3895 170.493 74.1441 170.952C73.9095 171.4 73.7921 171.944 73.7921 172.584C73.7921 173.224 73.9041 173.773 74.1281 174.232C74.3628 174.691 74.6721 175.037 75.0561 175.272C75.4508 175.496 75.8828 175.608 76.3521 175.608ZM90.6961 177.144C90.0135 177.144 89.4001 177.021 88.8561 176.776C88.3121 176.52 87.8801 176.179 87.5601 175.752C87.2401 175.315 87.0695 174.829 87.0481 174.296H88.9361C88.9681 174.701 89.1441 175.037 89.4641 175.304C89.7948 175.571 90.2055 175.704 90.6961 175.704C91.2081 175.704 91.6028 175.603 91.8801 175.4C92.1681 175.187 92.3121 174.904 92.3121 174.552C92.3121 174.232 92.1521 173.987 91.8321 173.816C91.5121 173.645 91.0161 173.475 90.3441 173.304C89.6935 173.123 89.1601 172.952 88.7441 172.792C88.3388 172.621 87.9868 172.365 87.6881 172.024C87.3895 171.672 87.2401 171.219 87.2401 170.664C87.2401 170.184 87.3735 169.747 87.6401 169.352C87.9068 168.947 88.2908 168.627 88.7921 168.392C89.3041 168.157 89.9015 168.04 90.5841 168.04C91.5868 168.04 92.3921 168.296 93.0001 168.808C93.6188 169.309 93.9495 169.997 93.9921 170.872H92.1681C92.1361 170.445 91.9761 170.109 91.6881 169.864C91.4001 169.608 91.0108 169.48 90.5201 169.48C90.0401 169.48 89.6721 169.581 89.4161 169.784C89.1601 169.976 89.0321 170.237 89.0321 170.568C89.0321 170.803 89.1175 171 89.2881 171.16C89.4588 171.32 89.6721 171.448 89.9281 171.544C90.1841 171.629 90.5468 171.736 91.0161 171.864C91.6561 172.035 92.1788 172.205 92.5841 172.376C92.9895 172.547 93.3361 172.808 93.6241 173.16C93.9121 173.501 94.0561 173.949 94.0561 174.504C94.0561 175.005 93.9228 175.459 93.6561 175.864C93.3895 176.259 93.0001 176.573 92.4881 176.808C91.9868 177.032 91.3895 177.144 90.6961 177.144ZM104.059 168.184V177H102.235V175.96C101.947 176.323 101.568 176.611 101.099 176.824C100.64 177.027 100.15 177.128 99.627 177.128C98.9337 177.128 98.3097 176.984 97.755 176.696C97.211 176.408 96.779 175.981 96.459 175.416C96.1497 174.851 95.995 174.168 95.995 173.368V168.184H97.803V173.096C97.803 173.885 98.0003 174.493 98.395 174.92C98.7897 175.336 99.3283 175.544 100.011 175.544C100.694 175.544 101.232 175.336 101.627 174.92C102.032 174.493 102.235 173.885 102.235 173.096V168.184H104.059ZM108.29 169.496C108.599 169.069 109.02 168.723 109.554 168.456C110.098 168.179 110.7 168.04 111.362 168.04C112.14 168.04 112.844 168.227 113.474 168.6C114.103 168.973 114.599 169.507 114.962 170.2C115.324 170.883 115.506 171.667 115.506 172.552C115.506 173.437 115.324 174.232 114.962 174.936C114.599 175.629 114.098 176.173 113.458 176.568C112.828 176.952 112.13 177.144 111.362 177.144C110.679 177.144 110.071 177.011 109.538 176.744C109.015 176.477 108.599 176.136 108.29 175.72V177H106.466V165.16H108.29V169.496ZM113.65 172.552C113.65 171.944 113.522 171.421 113.266 170.984C113.02 170.536 112.69 170.2 112.274 169.976C111.868 169.741 111.431 169.624 110.962 169.624C110.503 169.624 110.066 169.741 109.65 169.976C109.244 170.211 108.914 170.552 108.658 171C108.412 171.448 108.29 171.976 108.29 172.584C108.29 173.192 108.412 173.725 108.658 174.184C108.914 174.632 109.244 174.973 109.65 175.208C110.066 175.443 110.503 175.56 110.962 175.56C111.431 175.56 111.868 175.443 112.274 175.208C112.69 174.963 113.02 174.611 113.266 174.152C113.522 173.693 113.65 173.16 113.65 172.552ZM118.237 167.016C117.907 167.016 117.629 166.904 117.405 166.68C117.181 166.456 117.069 166.179 117.069 165.848C117.069 165.517 117.181 165.24 117.405 165.016C117.629 164.792 117.907 164.68 118.237 164.68C118.557 164.68 118.829 164.792 119.053 165.016C119.277 165.24 119.389 165.517 119.389 165.848C119.389 166.179 119.277 166.456 119.053 166.68C118.829 166.904 118.557 167.016 118.237 167.016ZM119.133 178.728C119.133 179.592 118.915 180.216 118.477 180.6C118.051 180.995 117.427 181.192 116.605 181.192H115.661V179.656H116.285C116.659 179.656 116.92 179.581 117.069 179.432C117.229 179.293 117.309 179.059 117.309 178.728V168.184H119.133V178.728ZM129.608 172.344C129.608 172.653 129.587 172.941 129.544 173.208H122.792C122.845 173.944 123.107 174.531 123.576 174.968C124.045 175.395 124.627 175.608 125.32 175.608C126.301 175.608 126.995 175.197 127.4 174.376H129.368C129.101 175.187 128.616 175.853 127.912 176.376C127.219 176.888 126.355 177.144 125.32 177.144C124.477 177.144 123.72 176.957 123.048 176.584C122.387 176.2 121.864 175.667 121.48 174.984C121.107 174.291 120.92 173.491 120.92 172.584C120.92 171.677 121.101 170.883 121.464 170.2C121.837 169.507 122.355 168.973 123.016 168.6C123.688 168.227 124.456 168.04 125.32 168.04C126.152 168.04 126.893 168.221 127.544 168.584C128.195 168.947 128.701 169.453 129.064 170.104C129.427 170.755 129.608 171.501 129.608 172.344ZM127.704 171.896C127.693 171.181 127.453 170.616 126.984 170.2C126.525 169.784 125.944 169.576 125.24 169.576C124.6 169.576 124.051 169.784 123.592 170.2C123.144 170.616 122.883 171.181 122.808 171.896H127.704ZM130.795 172.584C130.795 171.677 130.976 170.883 131.339 170.2C131.712 169.507 132.224 168.973 132.875 168.6C133.526 168.227 134.272 168.04 135.115 168.04C136.182 168.04 137.062 168.296 137.755 168.808C138.459 169.309 138.934 170.029 139.179 170.968H137.211C137.051 170.531 136.795 170.189 136.443 169.944C136.091 169.699 135.648 169.576 135.115 169.576C134.368 169.576 133.771 169.843 133.323 170.376C132.886 170.899 132.667 171.635 132.667 172.584C132.667 173.533 132.886 174.275 133.323 174.808C133.771 175.341 134.368 175.608 135.115 175.608C136.171 175.608 136.87 175.144 137.211 174.216H139.179C138.923 175.112 138.443 175.827 137.739 176.36C137.035 176.883 136.16 177.144 135.115 177.144C134.272 177.144 133.526 176.957 132.875 176.584C132.224 176.2 131.712 175.667 131.339 174.984C130.976 174.291 130.795 173.491 130.795 172.584ZM143.125 169.672V174.552C143.125 174.883 143.2 175.123 143.349 175.272C143.509 175.411 143.776 175.48 144.149 175.48H145.269V177H143.829C143.008 177 142.378 176.808 141.941 176.424C141.504 176.04 141.285 175.416 141.285 174.552V169.672H140.245V168.184H141.285V165.992H143.125V168.184H145.269V169.672H143.125Z" fill="white"/>
</g>
<defs>
<filter id="filter0_d" x="0" y="0" width="332" height="227" filterUnits="userSpaceOnUse" color-interpolation-filters="sRGB">
<feFlood flood-opacity="0" result="BackgroundImageFix"/>
<feColorMatrix in="SourceAlpha" type="matrix" values="0 0 0 0 0 0 0 0 0 0 0 0 0 0 0 0 0 0 127 0" result="hardAlpha"/>
<feOffset dy="4"/>
<feGaussianBlur stdDeviation="2"/>
<feComposite in2="hardAlpha" operator="out"/>
<feColorMatrix type="matrix" values="0 0 0 0 0.7375 0 0 0 0 0.7375 0 0 0 0 0.7375 0 0 0 0.25 0"/>
<feBlend mode="normal" in2="BackgroundImageFix" result="effect1_dropShadow"/>
<feBlend mode="normal" in="SourceGraphic" in2="effect1_dropShadow" result="shape"/>
</filter>
</defs>
</svg>
