<svg width="375" height="124" viewBox="0 0 375 124" fill="none" xmlns="http://www.w3.org/2000/svg">
<rect width="375" height="124" fill="black" fill-opacity="0.8"/>
<path d="M22.824 41.52H17.96L17.064 44H15.528L19.56 32.912H21.24L25.256 44H23.72L22.824 41.52ZM22.424 40.384L20.392 34.704L18.36 40.384H22.424ZM31.2853 35.072C32.3519 35.072 33.2159 35.3973 33.8773 36.048C34.5386 36.688 34.8693 37.616 34.8693 38.832V44H33.4293V39.04C33.4293 38.1653 33.2106 37.4987 32.7733 37.04C32.3359 36.5707 31.7386 36.336 30.9813 36.336C30.2133 36.336 29.5999 36.576 29.1413 37.056C28.6933 37.536 28.4693 38.2347 28.4693 39.152V44H27.0133V35.232H28.4693V36.48C28.7573 36.032 29.1466 35.6853 29.6373 35.44C30.1386 35.1947 30.6879 35.072 31.2853 35.072ZM40.3356 44.144C39.6636 44.144 39.061 44.032 38.5276 43.808C38.005 43.5733 37.589 43.2533 37.2796 42.848C36.9703 42.432 36.7996 41.9573 36.7676 41.424H38.2716C38.3143 41.8827 38.517 42.256 38.8796 42.544C39.253 42.832 39.7383 42.976 40.3356 42.976C40.901 42.976 41.3383 42.8533 41.6476 42.608C41.9676 42.352 42.1276 42.0213 42.1276 41.616C42.1276 41.232 41.957 40.9493 41.6156 40.768C41.2743 40.576 40.7463 40.3893 40.0316 40.208C39.381 40.0373 38.853 39.8667 38.4476 39.696C38.0423 39.5253 37.6956 39.2747 37.4076 38.944C37.1196 38.6027 36.9756 38.1547 36.9756 37.6C36.9756 37.1413 37.1036 36.72 37.3596 36.336C37.6156 35.952 37.9836 35.648 38.4636 35.424C38.9543 35.2 39.5196 35.088 40.1596 35.088C41.1303 35.088 41.9143 35.3333 42.5116 35.824C43.109 36.3147 43.429 36.9867 43.4716 37.84H42.0156C41.9836 37.36 41.797 36.976 41.4556 36.688C41.125 36.4 40.677 36.256 40.1116 36.256C39.5783 36.256 39.157 36.3733 38.8476 36.608C38.549 36.8427 38.3996 37.152 38.3996 37.536C38.3996 37.8347 38.4956 38.08 38.6876 38.272C38.8796 38.4533 39.1143 38.5973 39.3916 38.704C39.669 38.8 40.0636 38.9227 40.5756 39.072C41.2156 39.2427 41.7276 39.4133 42.1116 39.584C42.4956 39.744 42.8263 39.984 43.1036 40.304C43.381 40.624 43.5196 41.0507 43.5196 41.584C43.5196 42.0747 43.3863 42.512 43.1196 42.896C42.8636 43.28 42.4956 43.584 42.0156 43.808C41.5356 44.032 40.9756 44.144 40.3356 44.144ZM57.287 35.232L54.551 44H53.047L50.935 37.04L48.823 44H47.319L44.567 35.232H46.055L48.071 42.592L50.247 35.232H51.751L53.863 42.544L55.847 35.232H57.287ZM66.732 39.248C66.732 39.5147 66.716 39.8027 66.684 40.112H59.676C59.7187 40.976 60.0067 41.6587 60.54 42.16C61.084 42.6613 61.7453 42.912 62.524 42.912C63.1533 42.912 63.676 42.768 64.092 42.48C64.5187 42.1813 64.8173 41.7867 64.988 41.296H66.556C66.3213 42.1387 65.852 42.8267 65.148 43.36C64.444 43.8827 63.5693 44.144 62.524 44.144C61.692 44.144 60.9453 43.9573 60.284 43.584C59.6333 43.2107 59.1213 42.6827 58.748 42C58.3747 41.3067 58.188 40.5067 58.188 39.6C58.188 38.6933 58.3693 37.8987 58.732 37.216C59.0947 36.5333 59.6013 36.0107 60.252 35.648C60.9133 35.2747 61.6707 35.088 62.524 35.088C63.356 35.088 64.0867 35.2693 64.716 35.632C65.356 35.9947 65.852 36.4907 66.204 37.12C66.556 37.7493 66.732 38.4587 66.732 39.248ZM65.228 39.056C65.228 38.48 65.1053 37.9893 64.86 37.584C64.6147 37.168 64.2787 36.8533 63.852 36.64C63.436 36.4267 62.972 36.32 62.46 36.32C61.7133 36.32 61.0787 36.5653 60.556 37.056C60.0333 37.536 59.7453 38.2027 59.692 39.056H65.228ZM70.1099 36.896C70.3659 36.32 70.7285 35.872 71.1979 35.552C71.6779 35.232 72.2592 35.072 72.9419 35.072V36.576H72.5579C70.9259 36.576 70.1099 37.4613 70.1099 39.232V44H68.6539V35.232H70.1099V36.896ZM75.0866 44.096C74.8093 44.096 74.5746 44 74.3826 43.808C74.1906 43.616 74.0946 43.3813 74.0946 43.104C74.0946 42.8267 74.1906 42.592 74.3826 42.4C74.5746 42.208 74.8093 42.112 75.0866 42.112C75.3533 42.112 75.5773 42.208 75.7586 42.4C75.9506 42.592 76.0466 42.8267 76.0466 43.104C76.0466 43.3813 75.9506 43.616 75.7586 43.808C75.5773 44 75.3533 44.096 75.0866 44.096ZM75.0866 37.248C74.8093 37.248 74.5746 37.152 74.3826 36.96C74.1906 36.768 74.0946 36.5333 74.0946 36.256C74.0946 35.9787 74.1906 35.744 74.3826 35.552C74.5746 35.36 74.8093 35.264 75.0866 35.264C75.3533 35.264 75.5773 35.36 75.7586 35.552C75.9506 35.744 76.0466 35.9787 76.0466 36.256C76.0466 36.5333 75.9506 36.768 75.7586 36.96C75.5773 37.152 75.3533 37.248 75.0866 37.248ZM89.6585 32.848V33.984H86.6185V44H85.1625V33.984H82.1065V32.848H89.6585ZM95.8028 35.072C96.4641 35.072 97.0614 35.216 97.5948 35.504C98.1281 35.7813 98.5441 36.2027 98.8428 36.768C99.1521 37.3333 99.3068 38.0213 99.3068 38.832V44H97.8668V39.04C97.8668 38.1653 97.6481 37.4987 97.2108 37.04C96.7734 36.5707 96.1761 36.336 95.4188 36.336C94.6508 36.336 94.0374 36.576 93.5788 37.056C93.1308 37.536 92.9068 38.2347 92.9068 39.152V44H91.4508V32.16H92.9068V36.48C93.1948 36.032 93.5894 35.6853 94.0908 35.44C94.6028 35.1947 95.1734 35.072 95.8028 35.072ZM109.685 39.248C109.685 39.5147 109.669 39.8027 109.637 40.112H102.629C102.672 40.976 102.96 41.6587 103.493 42.16C104.037 42.6613 104.698 42.912 105.477 42.912C106.106 42.912 106.629 42.768 107.045 42.48C107.472 42.1813 107.77 41.7867 107.941 41.296H109.509C109.274 42.1387 108.805 42.8267 108.101 43.36C107.397 43.8827 106.522 44.144 105.477 44.144C104.645 44.144 103.898 43.9573 103.237 43.584C102.586 43.2107 102.074 42.6827 101.701 42C101.328 41.3067 101.141 40.5067 101.141 39.6C101.141 38.6933 101.322 37.8987 101.685 37.216C102.048 36.5333 102.554 36.0107 103.205 35.648C103.866 35.2747 104.624 35.088 105.477 35.088C106.309 35.088 107.04 35.2693 107.669 35.632C108.309 35.9947 108.805 36.4907 109.157 37.12C109.509 37.7493 109.685 38.4587 109.685 39.248ZM108.181 39.056C108.181 38.48 108.058 37.9893 107.813 37.584C107.568 37.168 107.232 36.8533 106.805 36.64C106.389 36.4267 105.925 36.32 105.413 36.32C104.666 36.32 104.032 36.5653 103.509 37.056C102.986 37.536 102.698 38.2027 102.645 39.056H108.181ZM117.829 36.848C118.117 36.3467 118.543 35.9307 119.109 35.6C119.685 35.2587 120.351 35.088 121.109 35.088C121.887 35.088 122.591 35.2747 123.221 35.648C123.861 36.0213 124.362 36.5493 124.725 37.232C125.087 37.904 125.269 38.688 125.269 39.584C125.269 40.4693 125.087 41.2587 124.725 41.952C124.362 42.6453 123.861 43.184 123.221 43.568C122.591 43.952 121.887 44.144 121.109 44.144C120.362 44.144 119.701 43.9787 119.125 43.648C118.559 43.3067 118.127 42.8853 117.829 42.384V48.16H116.373V35.232H117.829V36.848ZM123.781 39.584C123.781 38.9227 123.647 38.3467 123.381 37.856C123.114 37.3653 122.751 36.992 122.293 36.736C121.845 36.48 121.349 36.352 120.805 36.352C120.271 36.352 119.775 36.4853 119.317 36.752C118.869 37.008 118.506 37.3867 118.229 37.888C117.962 38.3787 117.829 38.9493 117.829 39.6C117.829 40.2613 117.962 40.8427 118.229 41.344C118.506 41.8347 118.869 42.2133 119.317 42.48C119.775 42.736 120.271 42.864 120.805 42.864C121.349 42.864 121.845 42.736 122.293 42.48C122.751 42.2133 123.114 41.8347 123.381 41.344C123.647 40.8427 123.781 40.256 123.781 39.584ZM135.185 39.248C135.185 39.5147 135.169 39.8027 135.137 40.112H128.129C128.172 40.976 128.46 41.6587 128.993 42.16C129.537 42.6613 130.198 42.912 130.977 42.912C131.606 42.912 132.129 42.768 132.545 42.48C132.972 42.1813 133.27 41.7867 133.441 41.296H135.009C134.774 42.1387 134.305 42.8267 133.601 43.36C132.897 43.8827 132.022 44.144 130.977 44.144C130.145 44.144 129.398 43.9573 128.737 43.584C128.086 43.2107 127.574 42.6827 127.201 42C126.828 41.3067 126.641 40.5067 126.641 39.6C126.641 38.6933 126.822 37.8987 127.185 37.216C127.548 36.5333 128.054 36.0107 128.705 35.648C129.366 35.2747 130.124 35.088 130.977 35.088C131.809 35.088 132.54 35.2693 133.169 35.632C133.809 35.9947 134.305 36.4907 134.657 37.12C135.009 37.7493 135.185 38.4587 135.185 39.248ZM133.681 39.056C133.681 38.48 133.558 37.9893 133.313 37.584C133.068 37.168 132.732 36.8533 132.305 36.64C131.889 36.4267 131.425 36.32 130.913 36.32C130.166 36.32 129.532 36.5653 129.009 37.056C128.486 37.536 128.198 38.2027 128.145 39.056H133.681ZM138.563 36.896C138.819 36.32 139.182 35.872 139.651 35.552C140.131 35.232 140.712 35.072 141.395 35.072V36.576H141.011C139.379 36.576 138.563 37.4613 138.563 39.232V44H137.107V35.232H138.563V36.896ZM143.828 33.808C143.55 33.808 143.316 33.712 143.124 33.52C142.932 33.328 142.836 33.0933 142.836 32.816C142.836 32.5387 142.932 32.304 143.124 32.112C143.316 31.92 143.55 31.824 143.828 31.824C144.094 31.824 144.318 31.92 144.5 32.112C144.692 32.304 144.788 32.5387 144.788 32.816C144.788 33.0933 144.692 33.328 144.5 33.52C144.318 33.712 144.094 33.808 143.828 33.808ZM144.532 35.232V44H143.076V35.232H144.532ZM150.837 44.144C150.016 44.144 149.269 43.9573 148.597 43.584C147.936 43.2107 147.413 42.6827 147.029 42C146.656 41.3067 146.469 40.5067 146.469 39.6C146.469 38.704 146.661 37.9147 147.045 37.232C147.44 36.5387 147.973 36.0107 148.645 35.648C149.317 35.2747 150.069 35.088 150.901 35.088C151.733 35.088 152.485 35.2747 153.157 35.648C153.829 36.0107 154.357 36.5333 154.741 37.216C155.136 37.8987 155.333 38.6933 155.333 39.6C155.333 40.5067 155.131 41.3067 154.725 42C154.331 42.6827 153.792 43.2107 153.109 43.584C152.427 43.9573 151.669 44.144 150.837 44.144ZM150.837 42.912C151.36 42.912 151.851 42.7893 152.309 42.544C152.768 42.288 153.136 41.9093 153.413 41.408C153.701 40.9067 153.845 40.304 153.845 39.6C153.845 38.896 153.707 38.2987 153.429 37.808C153.152 37.3067 152.789 36.9333 152.341 36.688C151.893 36.4427 151.408 36.32 150.885 36.32C150.352 36.32 149.861 36.4427 149.413 36.688C148.976 36.9333 148.624 37.3067 148.357 37.808C148.091 38.2987 147.957 38.896 147.957 39.6C147.957 40.3147 148.085 40.9227 148.341 41.424C148.608 41.9147 148.96 42.288 149.397 42.544C149.835 42.7893 150.315 42.912 150.837 42.912ZM156.704 39.584C156.704 38.688 156.885 37.904 157.248 37.232C157.61 36.5493 158.106 36.0213 158.736 35.648C159.376 35.2747 160.09 35.088 160.88 35.088C161.562 35.088 162.197 35.248 162.784 35.568C163.37 35.8773 163.818 36.288 164.128 36.8V32.16H165.6V44H164.128V42.352C163.84 42.8747 163.413 43.3067 162.848 43.648C162.282 43.9787 161.621 44.144 160.864 44.144C160.085 44.144 159.376 43.952 158.736 43.568C158.106 43.184 157.61 42.6453 157.248 41.952C156.885 41.2587 156.704 40.4693 156.704 39.584ZM164.128 39.6C164.128 38.9387 163.994 38.3627 163.728 37.872C163.461 37.3813 163.098 37.008 162.64 36.752C162.192 36.4853 161.696 36.352 161.152 36.352C160.608 36.352 160.112 36.48 159.664 36.736C159.216 36.992 158.858 37.3653 158.592 37.856C158.325 38.3467 158.192 38.9227 158.192 39.584C158.192 40.256 158.325 40.8427 158.592 41.344C158.858 41.8347 159.216 42.2133 159.664 42.48C160.112 42.736 160.608 42.864 161.152 42.864C161.696 42.864 162.192 42.736 162.64 42.48C163.098 42.2133 163.461 41.8347 163.728 41.344C163.994 40.8427 164.128 40.2613 164.128 39.6ZM172.282 39.584C172.282 38.688 172.463 37.904 172.826 37.232C173.188 36.5493 173.684 36.0213 174.314 35.648C174.954 35.2747 175.668 35.088 176.458 35.088C177.14 35.088 177.775 35.248 178.362 35.568C178.948 35.8773 179.396 36.288 179.706 36.8V32.16H181.178V44H179.706V42.352C179.418 42.8747 178.991 43.3067 178.426 43.648C177.86 43.9787 177.199 44.144 176.442 44.144C175.663 44.144 174.954 43.952 174.314 43.568C173.684 43.184 173.188 42.6453 172.826 41.952C172.463 41.2587 172.282 40.4693 172.282 39.584ZM179.706 39.6C179.706 38.9387 179.572 38.3627 179.306 37.872C179.039 37.3813 178.676 37.008 178.218 36.752C177.77 36.4853 177.274 36.352 176.73 36.352C176.186 36.352 175.69 36.48 175.242 36.736C174.794 36.992 174.436 37.3653 174.17 37.856C173.903 38.3467 173.77 38.9227 173.77 39.584C173.77 40.256 173.903 40.8427 174.17 41.344C174.436 41.8347 174.794 42.2133 175.242 42.48C175.69 42.736 176.186 42.864 176.73 42.864C177.274 42.864 177.77 42.736 178.218 42.48C178.676 42.2133 179.039 41.8347 179.306 41.344C179.572 40.8427 179.706 40.2613 179.706 39.6ZM191.638 39.248C191.638 39.5147 191.622 39.8027 191.59 40.112H184.582C184.625 40.976 184.913 41.6587 185.446 42.16C185.99 42.6613 186.652 42.912 187.43 42.912C188.06 42.912 188.582 42.768 188.998 42.48C189.425 42.1813 189.724 41.7867 189.894 41.296H191.462C191.228 42.1387 190.758 42.8267 190.054 43.36C189.35 43.8827 188.476 44.144 187.43 44.144C186.598 44.144 185.852 43.9573 185.19 43.584C184.54 43.2107 184.028 42.6827 183.654 42C183.281 41.3067 183.094 40.5067 183.094 39.6C183.094 38.6933 183.276 37.8987 183.638 37.216C184.001 36.5333 184.508 36.0107 185.158 35.648C185.82 35.2747 186.577 35.088 187.43 35.088C188.262 35.088 188.993 35.2693 189.622 35.632C190.262 35.9947 190.758 36.4907 191.11 37.12C191.462 37.7493 191.638 38.4587 191.638 39.248ZM190.134 39.056C190.134 38.48 190.012 37.9893 189.766 37.584C189.521 37.168 189.185 36.8533 188.758 36.64C188.342 36.4267 187.878 36.32 187.366 36.32C186.62 36.32 185.985 36.5653 185.462 37.056C184.94 37.536 184.652 38.2027 184.598 39.056H190.134ZM195.016 36.848C195.304 36.3467 195.731 35.9307 196.296 35.6C196.872 35.2587 197.539 35.088 198.296 35.088C199.075 35.088 199.779 35.2747 200.408 35.648C201.048 36.0213 201.549 36.5493 201.912 37.232C202.275 37.904 202.456 38.688 202.456 39.584C202.456 40.4693 202.275 41.2587 201.912 41.952C201.549 42.6453 201.048 43.184 200.408 43.568C199.779 43.952 199.075 44.144 198.296 44.144C197.549 44.144 196.888 43.9787 196.312 43.648C195.747 43.3067 195.315 42.8853 195.016 42.384V48.16H193.56V35.232H195.016V36.848ZM200.968 39.584C200.968 38.9227 200.835 38.3467 200.568 37.856C200.301 37.3653 199.939 36.992 199.48 36.736C199.032 36.48 198.536 36.352 197.992 36.352C197.459 36.352 196.963 36.4853 196.504 36.752C196.056 37.008 195.693 37.3867 195.416 37.888C195.149 38.3787 195.016 38.9493 195.016 39.6C195.016 40.2613 195.149 40.8427 195.416 41.344C195.693 41.8347 196.056 42.2133 196.504 42.48C196.963 42.736 197.459 42.864 197.992 42.864C198.536 42.864 199.032 42.736 199.48 42.48C199.939 42.2133 200.301 41.8347 200.568 41.344C200.835 40.8427 200.968 40.256 200.968 39.584ZM212.373 39.248C212.373 39.5147 212.357 39.8027 212.325 40.112H205.317C205.359 40.976 205.647 41.6587 206.181 42.16C206.725 42.6613 207.386 42.912 208.165 42.912C208.794 42.912 209.317 42.768 209.733 42.48C210.159 42.1813 210.458 41.7867 210.629 41.296H212.197C211.962 42.1387 211.493 42.8267 210.789 43.36C210.085 43.8827 209.21 44.144 208.165 44.144C207.333 44.144 206.586 43.9573 205.925 43.584C205.274 43.2107 204.762 42.6827 204.389 42C204.015 41.3067 203.829 40.5067 203.829 39.6C203.829 38.6933 204.01 37.8987 204.373 37.216C204.735 36.5333 205.242 36.0107 205.893 35.648C206.554 35.2747 207.311 35.088 208.165 35.088C208.997 35.088 209.727 35.2693 210.357 35.632C210.997 35.9947 211.493 36.4907 211.845 37.12C212.197 37.7493 212.373 38.4587 212.373 39.248ZM210.869 39.056C210.869 38.48 210.746 37.9893 210.501 37.584C210.255 37.168 209.919 36.8533 209.493 36.64C209.077 36.4267 208.613 36.32 208.101 36.32C207.354 36.32 206.719 36.5653 206.197 37.056C205.674 37.536 205.386 38.2027 205.333 39.056H210.869ZM218.567 35.072C219.633 35.072 220.497 35.3973 221.159 36.048C221.82 36.688 222.151 37.616 222.151 38.832V44H220.711V39.04C220.711 38.1653 220.492 37.4987 220.055 37.04C219.617 36.5707 219.02 36.336 218.263 36.336C217.495 36.336 216.881 36.576 216.423 37.056C215.975 37.536 215.751 38.2347 215.751 39.152V44H214.295V35.232H215.751V36.48C216.039 36.032 216.428 35.6853 216.919 35.44C217.42 35.1947 217.969 35.072 218.567 35.072ZM223.985 39.584C223.985 38.688 224.166 37.904 224.529 37.232C224.892 36.5493 225.388 36.0213 226.017 35.648C226.657 35.2747 227.372 35.088 228.161 35.088C228.844 35.088 229.478 35.248 230.065 35.568C230.652 35.8773 231.1 36.288 231.409 36.8V32.16H232.881V44H231.409V42.352C231.121 42.8747 230.694 43.3067 230.129 43.648C229.564 43.9787 228.902 44.144 228.145 44.144C227.366 44.144 226.657 43.952 226.017 43.568C225.388 43.184 224.892 42.6453 224.529 41.952C224.166 41.2587 223.985 40.4693 223.985 39.584ZM231.409 39.6C231.409 38.9387 231.276 38.3627 231.009 37.872C230.742 37.3813 230.38 37.008 229.921 36.752C229.473 36.4853 228.977 36.352 228.433 36.352C227.889 36.352 227.393 36.48 226.945 36.736C226.497 36.992 226.14 37.3653 225.873 37.856C225.606 38.3467 225.473 38.9227 225.473 39.584C225.473 40.256 225.606 40.8427 225.873 41.344C226.14 41.8347 226.497 42.2133 226.945 42.48C227.393 42.736 227.889 42.864 228.433 42.864C228.977 42.864 229.473 42.736 229.921 42.48C230.38 42.2133 230.742 41.8347 231.009 41.344C231.276 40.8427 231.409 40.2613 231.409 39.6ZM238.429 44.144C237.757 44.144 237.155 44.032 236.621 43.808C236.099 43.5733 235.683 43.2533 235.373 42.848C235.064 42.432 234.893 41.9573 234.861 41.424H236.365C236.408 41.8827 236.611 42.256 236.973 42.544C237.347 42.832 237.832 42.976 238.429 42.976C238.995 42.976 239.432 42.8533 239.741 42.608C240.061 42.352 240.221 42.0213 240.221 41.616C240.221 41.232 240.051 40.9493 239.709 40.768C239.368 40.576 238.84 40.3893 238.125 40.208C237.475 40.0373 236.947 39.8667 236.541 39.696C236.136 39.5253 235.789 39.2747 235.501 38.944C235.213 38.6027 235.069 38.1547 235.069 37.6C235.069 37.1413 235.197 36.72 235.453 36.336C235.709 35.952 236.077 35.648 236.557 35.424C237.048 35.2 237.613 35.088 238.253 35.088C239.224 35.088 240.008 35.3333 240.605 35.824C241.203 36.3147 241.523 36.9867 241.565 37.84H240.109C240.077 37.36 239.891 36.976 239.549 36.688C239.219 36.4 238.771 36.256 238.205 36.256C237.672 36.256 237.251 36.3733 236.941 36.608C236.643 36.8427 236.493 37.152 236.493 37.536C236.493 37.8347 236.589 38.08 236.781 38.272C236.973 38.4533 237.208 38.5973 237.485 38.704C237.763 38.8 238.157 38.9227 238.669 39.072C239.309 39.2427 239.821 39.4133 240.205 39.584C240.589 39.744 240.92 39.984 241.197 40.304C241.475 40.624 241.613 41.0507 241.613 41.584C241.613 42.0747 241.48 42.512 241.213 42.896C240.957 43.28 240.589 43.584 240.109 43.808C239.629 44.032 239.069 44.144 238.429 44.144ZM252.29 44.144C251.469 44.144 250.722 43.9573 250.05 43.584C249.389 43.2107 248.866 42.6827 248.482 42C248.109 41.3067 247.922 40.5067 247.922 39.6C247.922 38.704 248.114 37.9147 248.498 37.232C248.893 36.5387 249.426 36.0107 250.098 35.648C250.77 35.2747 251.522 35.088 252.354 35.088C253.186 35.088 253.938 35.2747 254.61 35.648C255.282 36.0107 255.81 36.5333 256.194 37.216C256.589 37.8987 256.786 38.6933 256.786 39.6C256.786 40.5067 256.584 41.3067 256.178 42C255.784 42.6827 255.245 43.2107 254.562 43.584C253.88 43.9573 253.122 44.144 252.29 44.144ZM252.29 42.912C252.813 42.912 253.304 42.7893 253.762 42.544C254.221 42.288 254.589 41.9093 254.866 41.408C255.154 40.9067 255.298 40.304 255.298 39.6C255.298 38.896 255.16 38.2987 254.882 37.808C254.605 37.3067 254.242 36.9333 253.794 36.688C253.346 36.4427 252.861 36.32 252.338 36.32C251.805 36.32 251.314 36.4427 250.866 36.688C250.429 36.9333 250.077 37.3067 249.81 37.808C249.544 38.2987 249.41 38.896 249.41 39.6C249.41 40.3147 249.538 40.9227 249.794 41.424C250.061 41.9147 250.413 42.288 250.85 42.544C251.288 42.7893 251.768 42.912 252.29 42.912ZM262.973 35.072C264.039 35.072 264.903 35.3973 265.565 36.048C266.226 36.688 266.557 37.616 266.557 38.832V44H265.117V39.04C265.117 38.1653 264.898 37.4987 264.461 37.04C264.023 36.5707 263.426 36.336 262.669 36.336C261.901 36.336 261.287 36.576 260.829 37.056C260.381 37.536 260.157 38.2347 260.157 39.152V44H258.701V35.232H260.157V36.48C260.445 36.032 260.834 35.6853 261.325 35.44C261.826 35.1947 262.375 35.072 262.973 35.072ZM274.453 33.808C274.175 33.808 273.941 33.712 273.749 33.52C273.557 33.328 273.461 33.0933 273.461 32.816C273.461 32.5387 273.557 32.304 273.749 32.112C273.941 31.92 274.175 31.824 274.453 31.824C274.719 31.824 274.943 31.92 275.125 32.112C275.317 32.304 275.413 32.5387 275.413 32.816C275.413 33.0933 275.317 33.328 275.125 33.52C274.943 33.712 274.719 33.808 274.453 33.808ZM275.157 35.232V44H273.701V35.232H275.157ZM279.414 36.432V41.6C279.414 42.0267 279.505 42.3307 279.686 42.512C279.868 42.6827 280.182 42.768 280.63 42.768H281.702V44H280.39C279.58 44 278.972 43.8133 278.566 43.44C278.161 43.0667 277.958 42.4533 277.958 41.6V36.432H276.822V35.232H277.958V33.024H279.414V35.232H281.702V36.432H279.414ZM286.554 44.144C285.882 44.144 285.28 44.032 284.746 43.808C284.224 43.5733 283.808 43.2533 283.498 42.848C283.189 42.432 283.018 41.9573 282.986 41.424H284.49C284.533 41.8827 284.736 42.256 285.098 42.544C285.472 42.832 285.957 42.976 286.554 42.976C287.12 42.976 287.557 42.8533 287.866 42.608C288.186 42.352 288.346 42.0213 288.346 41.616C288.346 41.232 288.176 40.9493 287.834 40.768C287.493 40.576 286.965 40.3893 286.25 40.208C285.6 40.0373 285.072 39.8667 284.666 39.696C284.261 39.5253 283.914 39.2747 283.626 38.944C283.338 38.6027 283.194 38.1547 283.194 37.6C283.194 37.1413 283.322 36.72 283.578 36.336C283.834 35.952 284.202 35.648 284.682 35.424C285.173 35.2 285.738 35.088 286.378 35.088C287.349 35.088 288.133 35.3333 288.73 35.824C289.328 36.3147 289.648 36.9867 289.69 37.84H288.234C288.202 37.36 288.016 36.976 287.674 36.688C287.344 36.4 286.896 36.256 286.33 36.256C285.797 36.256 285.376 36.3733 285.066 36.608C284.768 36.8427 284.618 37.152 284.618 37.536C284.618 37.8347 284.714 38.08 284.906 38.272C285.098 38.4533 285.333 38.5973 285.61 38.704C285.888 38.8 286.282 38.9227 286.794 39.072C287.434 39.2427 287.946 39.4133 288.33 39.584C288.714 39.744 289.045 39.984 289.322 40.304C289.6 40.624 289.738 41.0507 289.738 41.584C289.738 42.0747 289.605 42.512 289.338 42.896C289.082 43.28 288.714 43.584 288.234 43.808C287.754 44.032 287.194 44.144 286.554 44.144ZM298.047 32.16V44H296.591V32.16H298.047ZM308.529 39.248C308.529 39.5147 308.513 39.8027 308.481 40.112H301.473C301.516 40.976 301.804 41.6587 302.337 42.16C302.881 42.6613 303.542 42.912 304.321 42.912C304.95 42.912 305.473 42.768 305.889 42.48C306.316 42.1813 306.614 41.7867 306.785 41.296H308.353C308.118 42.1387 307.649 42.8267 306.945 43.36C306.241 43.8827 305.366 44.144 304.321 44.144C303.489 44.144 302.742 43.9573 302.081 43.584C301.43 43.2107 300.918 42.6827 300.545 42C300.172 41.3067 299.985 40.5067 299.985 39.6C299.985 38.6933 300.166 37.8987 300.529 37.216C300.892 36.5333 301.398 36.0107 302.049 35.648C302.71 35.2747 303.468 35.088 304.321 35.088C305.153 35.088 305.884 35.2693 306.513 35.632C307.153 35.9947 307.649 36.4907 308.001 37.12C308.353 37.7493 308.529 38.4587 308.529 39.248ZM307.025 39.056C307.025 38.48 306.902 37.9893 306.657 37.584C306.412 37.168 306.076 36.8533 305.649 36.64C305.233 36.4267 304.769 36.32 304.257 36.32C303.51 36.32 302.876 36.5653 302.353 37.056C301.83 37.536 301.542 38.2027 301.489 39.056H307.025ZM314.723 35.072C315.789 35.072 316.653 35.3973 317.315 36.048C317.976 36.688 318.307 37.616 318.307 38.832V44H316.867V39.04C316.867 38.1653 316.648 37.4987 316.211 37.04C315.773 36.5707 315.176 36.336 314.419 36.336C313.651 36.336 313.037 36.576 312.579 37.056C312.131 37.536 311.907 38.2347 311.907 39.152V44H310.451V35.232H311.907V36.48C312.195 36.032 312.584 35.6853 313.075 35.44C313.576 35.1947 314.125 35.072 314.723 35.072ZM324.301 35.088C325.058 35.088 325.72 35.2533 326.285 35.584C326.861 35.9147 327.288 36.3307 327.565 36.832V35.232H329.037V44.192C329.037 44.992 328.866 45.7013 328.525 46.32C328.184 46.9493 327.693 47.44 327.053 47.792C326.424 48.144 325.688 48.32 324.845 48.32C323.693 48.32 322.733 48.048 321.965 47.504C321.197 46.96 320.744 46.2187 320.605 45.28H322.045C322.205 45.8133 322.536 46.24 323.037 46.56C323.538 46.8907 324.141 47.056 324.845 47.056C325.645 47.056 326.296 46.8053 326.797 46.304C327.309 45.8027 327.565 45.0987 327.565 44.192V42.352C327.277 42.864 326.85 43.2907 326.285 43.632C325.72 43.9733 325.058 44.144 324.301 44.144C323.522 44.144 322.813 43.952 322.173 43.568C321.544 43.184 321.048 42.6453 320.685 41.952C320.322 41.2587 320.141 40.4693 320.141 39.584C320.141 38.688 320.322 37.904 320.685 37.232C321.048 36.5493 321.544 36.0213 322.173 35.648C322.813 35.2747 323.522 35.088 324.301 35.088ZM327.565 39.6C327.565 38.9387 327.432 38.3627 327.165 37.872C326.898 37.3813 326.536 37.008 326.077 36.752C325.629 36.4853 325.133 36.352 324.589 36.352C324.045 36.352 323.549 36.48 323.101 36.736C322.653 36.992 322.296 37.3653 322.029 37.856C321.762 38.3467 321.629 38.9227 321.629 39.584C321.629 40.256 321.762 40.8427 322.029 41.344C322.296 41.8347 322.653 42.2133 323.101 42.48C323.549 42.736 324.045 42.864 324.589 42.864C325.133 42.864 325.629 42.736 326.077 42.48C326.536 42.2133 326.898 41.8347 327.165 41.344C327.432 40.8427 327.565 40.2613 327.565 39.6ZM333.274 36.432V41.6C333.274 42.0267 333.364 42.3307 333.546 42.512C333.727 42.6827 334.042 42.768 334.49 42.768H335.562V44H334.25C333.439 44 332.831 43.8133 332.426 43.44C332.02 43.0667 331.818 42.4533 331.818 41.6V36.432H330.682V35.232H331.818V33.024H333.274V35.232H335.562V36.432H333.274ZM341.678 35.072C342.339 35.072 342.936 35.216 343.47 35.504C344.003 35.7813 344.419 36.2027 344.718 36.768C345.027 37.3333 345.182 38.0213 345.182 38.832V44H343.742V39.04C343.742 38.1653 343.523 37.4987 343.086 37.04C342.648 36.5707 342.051 36.336 341.294 36.336C340.526 36.336 339.912 36.576 339.454 37.056C339.006 37.536 338.782 38.2347 338.782 39.152V44H337.326V32.16H338.782V36.48C339.07 36.032 339.464 35.6853 339.966 35.44C340.478 35.1947 341.048 35.072 341.678 35.072ZM15.688 63.584C15.688 62.688 15.8693 61.904 16.232 61.232C16.5947 60.5493 17.0907 60.0213 17.72 59.648C18.36 59.2747 19.0693 59.088 19.848 59.088C20.616 59.088 21.2827 59.2533 21.848 59.584C22.4133 59.9147 22.8347 60.3307 23.112 60.832V59.232H24.584V68H23.112V66.368C22.824 66.88 22.392 67.3067 21.816 67.648C21.2507 67.9787 20.5893 68.144 19.832 68.144C19.0533 68.144 18.3493 67.952 17.72 67.568C17.0907 67.184 16.5947 66.6453 16.232 65.952C15.8693 65.2587 15.688 64.4693 15.688 63.584ZM23.112 63.6C23.112 62.9387 22.9787 62.3627 22.712 61.872C22.4453 61.3813 22.0827 61.008 21.624 60.752C21.176 60.4853 20.68 60.352 20.136 60.352C19.592 60.352 19.096 60.48 18.648 60.736C18.2 60.992 17.8427 61.3653 17.576 61.856C17.3093 62.3467 17.176 62.9227 17.176 63.584C17.176 64.256 17.3093 64.8427 17.576 65.344C17.8427 65.8347 18.2 66.2133 18.648 66.48C19.096 66.736 19.592 66.864 20.136 66.864C20.68 66.864 21.176 66.736 21.624 66.48C22.0827 66.2133 22.4453 65.8347 22.712 65.344C22.9787 64.8427 23.112 64.2613 23.112 63.6ZM31.3165 59.072C32.3832 59.072 33.2472 59.3973 33.9085 60.048C34.5698 60.688 34.9005 61.616 34.9005 62.832V68H33.4605V63.04C33.4605 62.1653 33.2418 61.4987 32.8045 61.04C32.3672 60.5707 31.7698 60.336 31.0125 60.336C30.2445 60.336 29.6312 60.576 29.1725 61.056C28.7245 61.536 28.5005 62.2347 28.5005 63.152V68H27.0445V59.232H28.5005V60.48C28.7885 60.032 29.1778 59.6853 29.6685 59.44C30.1698 59.1947 30.7192 59.072 31.3165 59.072ZM36.7349 63.584C36.7349 62.688 36.9162 61.904 37.2789 61.232C37.6415 60.5493 38.1375 60.0213 38.7669 59.648C39.4069 59.2747 40.1215 59.088 40.9109 59.088C41.5935 59.088 42.2282 59.248 42.8149 59.568C43.4015 59.8773 43.8495 60.288 44.1589 60.8V56.16H45.6309V68H44.1589V66.352C43.8709 66.8747 43.4442 67.3067 42.8789 67.648C42.3135 67.9787 41.6522 68.144 40.8949 68.144C40.1162 68.144 39.4069 67.952 38.7669 67.568C38.1375 67.184 37.6415 66.6453 37.2789 65.952C36.9162 65.2587 36.7349 64.4693 36.7349 63.584ZM44.1589 63.6C44.1589 62.9387 44.0255 62.3627 43.7589 61.872C43.4922 61.3813 43.1295 61.008 42.6709 60.752C42.2229 60.4853 41.7269 60.352 41.1829 60.352C40.6389 60.352 40.1429 60.48 39.6949 60.736C39.2469 60.992 38.8895 61.3653 38.6229 61.856C38.3562 62.3467 38.2229 62.9227 38.2229 63.584C38.2229 64.256 38.3562 64.8427 38.6229 65.344C38.8895 65.8347 39.2469 66.2133 39.6949 66.48C40.1429 66.736 40.6389 66.864 41.1829 66.864C41.7269 66.864 42.2229 66.736 42.6709 66.48C43.1295 66.2133 43.4922 65.8347 43.7589 65.344C44.0255 64.8427 44.1589 64.2613 44.1589 63.6ZM54.633 60.432V65.6C54.633 66.0267 54.7237 66.3307 54.905 66.512C55.0863 66.6827 55.401 66.768 55.849 66.768H56.921V68H55.609C54.7983 68 54.1903 67.8133 53.785 67.44C53.3797 67.0667 53.177 66.4533 53.177 65.6V60.432H52.041V59.232H53.177V57.024H54.633V59.232H56.921V60.432H54.633ZM63.0371 59.072C63.6985 59.072 64.2958 59.216 64.8291 59.504C65.3625 59.7813 65.7785 60.2027 66.0771 60.768C66.3865 61.3333 66.5411 62.0213 66.5411 62.832V68H65.1011V63.04C65.1011 62.1653 64.8825 61.4987 64.4451 61.04C64.0078 60.5707 63.4105 60.336 62.6531 60.336C61.8851 60.336 61.2718 60.576 60.8131 61.056C60.3651 61.536 60.1411 62.2347 60.1411 63.152V68H58.6851V56.16H60.1411V60.48C60.4291 60.032 60.8238 59.6853 61.3251 59.44C61.8371 59.1947 62.4078 59.072 63.0371 59.072ZM76.9195 63.248C76.9195 63.5147 76.9035 63.8027 76.8715 64.112H69.8635C69.9062 64.976 70.1942 65.6587 70.7275 66.16C71.2715 66.6613 71.9328 66.912 72.7115 66.912C73.3408 66.912 73.8635 66.768 74.2795 66.48C74.7062 66.1813 75.0048 65.7867 75.1755 65.296H76.7435C76.5088 66.1387 76.0395 66.8267 75.3355 67.36C74.6315 67.8827 73.7568 68.144 72.7115 68.144C71.8795 68.144 71.1328 67.9573 70.4715 67.584C69.8208 67.2107 69.3088 66.6827 68.9355 66C68.5622 65.3067 68.3755 64.5067 68.3755 63.6C68.3755 62.6933 68.5568 61.8987 68.9195 61.216C69.2822 60.5333 69.7888 60.0107 70.4395 59.648C71.1008 59.2747 71.8582 59.088 72.7115 59.088C73.5435 59.088 74.2742 59.2693 74.9035 59.632C75.5435 59.9947 76.0395 60.4907 76.3915 61.12C76.7435 61.7493 76.9195 62.4587 76.9195 63.248ZM75.4155 63.056C75.4155 62.48 75.2928 61.9893 75.0475 61.584C74.8022 61.168 74.4662 60.8533 74.0395 60.64C73.6235 60.4267 73.1595 60.32 72.6475 60.32C71.9008 60.32 71.2662 60.5653 70.7435 61.056C70.2208 61.536 69.9328 62.2027 69.8795 63.056H75.4155ZM83.063 63.584C83.063 62.688 83.2443 61.904 83.607 61.232C83.9697 60.5493 84.4657 60.0213 85.095 59.648C85.735 59.2747 86.4443 59.088 87.223 59.088C87.991 59.088 88.6577 59.2533 89.223 59.584C89.7883 59.9147 90.2097 60.3307 90.487 60.832V59.232H91.959V68H90.487V66.368C90.199 66.88 89.767 67.3067 89.191 67.648C88.6257 67.9787 87.9643 68.144 87.207 68.144C86.4283 68.144 85.7243 67.952 85.095 67.568C84.4657 67.184 83.9697 66.6453 83.607 65.952C83.2443 65.2587 83.063 64.4693 83.063 63.584ZM90.487 63.6C90.487 62.9387 90.3537 62.3627 90.087 61.872C89.8203 61.3813 89.4577 61.008 88.999 60.752C88.551 60.4853 88.055 60.352 87.511 60.352C86.967 60.352 86.471 60.48 86.023 60.736C85.575 60.992 85.2177 61.3653 84.951 61.856C84.6843 62.3467 84.551 62.9227 84.551 63.584C84.551 64.256 84.6843 64.8427 84.951 65.344C85.2177 65.8347 85.575 66.2133 86.023 66.48C86.471 66.736 86.967 66.864 87.511 66.864C88.055 66.864 88.551 66.736 88.999 66.48C89.4577 66.2133 89.8203 65.8347 90.087 65.344C90.3537 64.8427 90.487 64.2613 90.487 63.6ZM93.8755 63.6C93.8755 62.6933 94.0568 61.904 94.4195 61.232C94.7822 60.5493 95.2835 60.0213 95.9235 59.648C96.5742 59.2747 97.3155 59.088 98.1475 59.088C99.2248 59.088 100.11 59.3493 100.804 59.872C101.508 60.3947 101.972 61.12 102.196 62.048H100.628C100.478 61.5147 100.185 61.0933 99.7475 60.784C99.3208 60.4747 98.7875 60.32 98.1475 60.32C97.3155 60.32 96.6435 60.608 96.1315 61.184C95.6195 61.7493 95.3635 62.5547 95.3635 63.6C95.3635 64.656 95.6195 65.472 96.1315 66.048C96.6435 66.624 97.3155 66.912 98.1475 66.912C98.7875 66.912 99.3208 66.7627 99.7475 66.464C100.174 66.1653 100.468 65.7387 100.628 65.184H102.196C101.961 66.08 101.492 66.8 100.788 67.344C100.084 67.8773 99.2035 68.144 98.1475 68.144C97.3155 68.144 96.5742 67.9573 95.9235 67.584C95.2835 67.2107 94.7822 66.6827 94.4195 66C94.0568 65.3173 93.8755 64.5173 93.8755 63.6ZM103.594 63.6C103.594 62.6933 103.776 61.904 104.138 61.232C104.501 60.5493 105.002 60.0213 105.642 59.648C106.293 59.2747 107.034 59.088 107.866 59.088C108.944 59.088 109.829 59.3493 110.522 59.872C111.226 60.3947 111.69 61.12 111.914 62.048H110.346C110.197 61.5147 109.904 61.0933 109.466 60.784C109.04 60.4747 108.506 60.32 107.866 60.32C107.034 60.32 106.362 60.608 105.85 61.184C105.338 61.7493 105.082 62.5547 105.082 63.6C105.082 64.656 105.338 65.472 105.85 66.048C106.362 66.624 107.034 66.912 107.866 66.912C108.506 66.912 109.04 66.7627 109.466 66.464C109.893 66.1653 110.186 65.7387 110.346 65.184H111.914C111.68 66.08 111.21 66.8 110.506 67.344C109.802 67.8773 108.922 68.144 107.866 68.144C107.034 68.144 106.293 67.9573 105.642 67.584C105.002 67.2107 104.501 66.6827 104.138 66C103.776 65.3173 103.594 64.5173 103.594 63.6ZM121.857 63.248C121.857 63.5147 121.841 63.8027 121.809 64.112H114.801C114.844 64.976 115.132 65.6587 115.665 66.16C116.209 66.6613 116.87 66.912 117.649 66.912C118.278 66.912 118.801 66.768 119.217 66.48C119.644 66.1813 119.942 65.7867 120.113 65.296H121.681C121.446 66.1387 120.977 66.8267 120.273 67.36C119.569 67.8827 118.694 68.144 117.649 68.144C116.817 68.144 116.07 67.9573 115.409 67.584C114.758 67.2107 114.246 66.6827 113.873 66C113.5 65.3067 113.313 64.5067 113.313 63.6C113.313 62.6933 113.494 61.8987 113.857 61.216C114.22 60.5333 114.726 60.0107 115.377 59.648C116.038 59.2747 116.796 59.088 117.649 59.088C118.481 59.088 119.212 59.2693 119.841 59.632C120.481 59.9947 120.977 60.4907 121.329 61.12C121.681 61.7493 121.857 62.4587 121.857 63.248ZM120.353 63.056C120.353 62.48 120.23 61.9893 119.985 61.584C119.74 61.168 119.404 60.8533 118.977 60.64C118.561 60.4267 118.097 60.32 117.585 60.32C116.838 60.32 116.204 60.5653 115.681 61.056C115.158 61.536 114.87 62.2027 114.817 63.056H120.353ZM125.235 56.16V68H123.779V56.16H125.235ZM135.716 63.248C135.716 63.5147 135.7 63.8027 135.668 64.112H128.66C128.703 64.976 128.991 65.6587 129.524 66.16C130.068 66.6613 130.73 66.912 131.508 66.912C132.138 66.912 132.66 66.768 133.076 66.48C133.503 66.1813 133.802 65.7867 133.972 65.296H135.54C135.306 66.1387 134.836 66.8267 134.132 67.36C133.428 67.8827 132.554 68.144 131.508 68.144C130.676 68.144 129.93 67.9573 129.268 67.584C128.618 67.2107 128.106 66.6827 127.732 66C127.359 65.3067 127.172 64.5067 127.172 63.6C127.172 62.6933 127.354 61.8987 127.716 61.216C128.079 60.5333 128.586 60.0107 129.236 59.648C129.898 59.2747 130.655 59.088 131.508 59.088C132.34 59.088 133.071 59.2693 133.7 59.632C134.34 59.9947 134.836 60.4907 135.188 61.12C135.54 61.7493 135.716 62.4587 135.716 63.248ZM134.212 63.056C134.212 62.48 134.09 61.9893 133.844 61.584C133.599 61.168 133.263 60.8533 132.836 60.64C132.42 60.4267 131.956 60.32 131.444 60.32C130.698 60.32 130.063 60.5653 129.54 61.056C129.018 61.536 128.73 62.2027 128.676 63.056H134.212ZM139.094 60.896C139.35 60.32 139.713 59.872 140.182 59.552C140.662 59.232 141.244 59.072 141.926 59.072V60.576H141.542C139.91 60.576 139.094 61.4613 139.094 63.232V68H137.638V59.232H139.094V60.896ZM143.063 63.584C143.063 62.688 143.244 61.904 143.607 61.232C143.97 60.5493 144.466 60.0213 145.095 59.648C145.735 59.2747 146.444 59.088 147.223 59.088C147.991 59.088 148.658 59.2533 149.223 59.584C149.788 59.9147 150.21 60.3307 150.487 60.832V59.232H151.959V68H150.487V66.368C150.199 66.88 149.767 67.3067 149.191 67.648C148.626 67.9787 147.964 68.144 147.207 68.144C146.428 68.144 145.724 67.952 145.095 67.568C144.466 67.184 143.97 66.6453 143.607 65.952C143.244 65.2587 143.063 64.4693 143.063 63.584ZM150.487 63.6C150.487 62.9387 150.354 62.3627 150.087 61.872C149.82 61.3813 149.458 61.008 148.999 60.752C148.551 60.4853 148.055 60.352 147.511 60.352C146.967 60.352 146.471 60.48 146.023 60.736C145.575 60.992 145.218 61.3653 144.951 61.856C144.684 62.3467 144.551 62.9227 144.551 63.584C144.551 64.256 144.684 64.8427 144.951 65.344C145.218 65.8347 145.575 66.2133 146.023 66.48C146.471 66.736 146.967 66.864 147.511 66.864C148.055 66.864 148.551 66.736 148.999 66.48C149.458 66.2133 149.82 65.8347 150.087 65.344C150.354 64.8427 150.487 64.2613 150.487 63.6ZM156.196 60.432V65.6C156.196 66.0267 156.286 66.3307 156.468 66.512C156.649 66.6827 156.964 66.768 157.411 66.768H158.484V68H157.172C156.361 68 155.753 67.8133 155.348 67.44C154.942 67.0667 154.74 66.4533 154.74 65.6V60.432H153.604V59.232H154.74V57.024H156.196V59.232H158.484V60.432H156.196ZM161 57.808C160.722 57.808 160.488 57.712 160.296 57.52C160.104 57.328 160.008 57.0933 160.008 56.816C160.008 56.5387 160.104 56.304 160.296 56.112C160.488 55.92 160.722 55.824 161 55.824C161.266 55.824 161.49 55.92 161.672 56.112C161.864 56.304 161.96 56.5387 161.96 56.816C161.96 57.0933 161.864 57.328 161.672 57.52C161.49 57.712 161.266 57.808 161 57.808ZM161.704 59.232V68H160.248V59.232H161.704ZM168.009 68.144C167.188 68.144 166.441 67.9573 165.769 67.584C165.108 67.2107 164.585 66.6827 164.201 66C163.828 65.3067 163.641 64.5067 163.641 63.6C163.641 62.704 163.833 61.9147 164.217 61.232C164.612 60.5387 165.145 60.0107 165.817 59.648C166.489 59.2747 167.241 59.088 168.073 59.088C168.905 59.088 169.657 59.2747 170.329 59.648C171.001 60.0107 171.529 60.5333 171.913 61.216C172.308 61.8987 172.505 62.6933 172.505 63.6C172.505 64.5067 172.302 65.3067 171.897 66C171.502 66.6827 170.964 67.2107 170.281 67.584C169.598 67.9573 168.841 68.144 168.009 68.144ZM168.009 66.912C168.532 66.912 169.022 66.7893 169.481 66.544C169.94 66.288 170.308 65.9093 170.585 65.408C170.873 64.9067 171.017 64.304 171.017 63.6C171.017 62.896 170.878 62.2987 170.601 61.808C170.324 61.3067 169.961 60.9333 169.513 60.688C169.065 60.4427 168.58 60.32 168.057 60.32C167.524 60.32 167.033 60.4427 166.585 60.688C166.148 60.9333 165.796 61.3067 165.529 61.808C165.262 62.2987 165.129 62.896 165.129 63.6C165.129 64.3147 165.257 64.9227 165.513 65.424C165.78 65.9147 166.132 66.288 166.569 66.544C167.006 66.7893 167.486 66.912 168.009 66.912ZM178.692 59.072C179.758 59.072 180.622 59.3973 181.284 60.048C181.945 60.688 182.276 61.616 182.276 62.832V68H180.836V63.04C180.836 62.1653 180.617 61.4987 180.18 61.04C179.742 60.5707 179.145 60.336 178.388 60.336C177.62 60.336 177.006 60.576 176.548 61.056C176.1 61.536 175.876 62.2347 175.876 63.152V68H174.42V59.232H175.876V60.48C176.164 60.032 176.553 59.6853 177.044 59.44C177.545 59.1947 178.094 59.072 178.692 59.072ZM188.876 63.584C188.876 62.688 189.057 61.904 189.42 61.232C189.782 60.5493 190.278 60.0213 190.908 59.648C191.548 59.2747 192.262 59.088 193.052 59.088C193.734 59.088 194.369 59.248 194.956 59.568C195.542 59.8773 195.99 60.288 196.3 60.8V56.16H197.772V68H196.3V66.352C196.012 66.8747 195.585 67.3067 195.02 67.648C194.454 67.9787 193.793 68.144 193.036 68.144C192.257 68.144 191.548 67.952 190.908 67.568C190.278 67.184 189.782 66.6453 189.42 65.952C189.057 65.2587 188.876 64.4693 188.876 63.584ZM196.3 63.6C196.3 62.9387 196.166 62.3627 195.9 61.872C195.633 61.3813 195.27 61.008 194.812 60.752C194.364 60.4853 193.868 60.352 193.324 60.352C192.78 60.352 192.284 60.48 191.836 60.736C191.388 60.992 191.03 61.3653 190.764 61.856C190.497 62.3467 190.364 62.9227 190.364 63.584C190.364 64.256 190.497 64.8427 190.764 65.344C191.03 65.8347 191.388 66.2133 191.836 66.48C192.284 66.736 192.78 66.864 193.324 66.864C193.868 66.864 194.364 66.736 194.812 66.48C195.27 66.2133 195.633 65.8347 195.9 65.344C196.166 64.8427 196.3 64.2613 196.3 63.6ZM208.008 59.232V68H206.552V66.704C206.275 67.152 205.885 67.504 205.384 67.76C204.893 68.0053 204.349 68.128 203.752 68.128C203.069 68.128 202.456 67.9893 201.912 67.712C201.368 67.424 200.936 66.9973 200.616 66.432C200.307 65.8667 200.152 65.1787 200.152 64.368V59.232H201.592V64.176C201.592 65.04 201.811 65.7067 202.248 66.176C202.685 66.6347 203.283 66.864 204.04 66.864C204.819 66.864 205.432 66.624 205.88 66.144C206.328 65.664 206.552 64.9653 206.552 64.048V59.232H208.008ZM218.466 63.248C218.466 63.5147 218.45 63.8027 218.418 64.112H211.41C211.453 64.976 211.741 65.6587 212.274 66.16C212.818 66.6613 213.48 66.912 214.258 66.912C214.888 66.912 215.41 66.768 215.826 66.48C216.253 66.1813 216.552 65.7867 216.722 65.296H218.29C218.056 66.1387 217.586 66.8267 216.882 67.36C216.178 67.8827 215.304 68.144 214.258 68.144C213.426 68.144 212.68 67.9573 212.018 67.584C211.368 67.2107 210.856 66.6827 210.482 66C210.109 65.3067 209.922 64.5067 209.922 63.6C209.922 62.6933 210.104 61.8987 210.466 61.216C210.829 60.5333 211.336 60.0107 211.986 59.648C212.648 59.2747 213.405 59.088 214.258 59.088C215.09 59.088 215.821 59.2693 216.45 59.632C217.09 59.9947 217.586 60.4907 217.938 61.12C218.29 61.7493 218.466 62.4587 218.466 63.248ZM216.962 63.056C216.962 62.48 216.84 61.9893 216.594 61.584C216.349 61.168 216.013 60.8533 215.586 60.64C215.17 60.4267 214.706 60.32 214.194 60.32C213.448 60.32 212.813 60.5653 212.29 61.056C211.768 61.536 211.48 62.2027 211.426 63.056H216.962ZM226.93 60.432V65.6C226.93 66.0267 227.021 66.3307 227.202 66.512C227.383 66.6827 227.698 66.768 228.146 66.768H229.218V68H227.906C227.095 68 226.487 67.8133 226.082 67.44C225.677 67.0667 225.474 66.4533 225.474 65.6V60.432H224.338V59.232H225.474V57.024H226.93V59.232H229.218V60.432H226.93ZM234.806 68.144C233.985 68.144 233.238 67.9573 232.566 67.584C231.905 67.2107 231.382 66.6827 230.998 66C230.625 65.3067 230.438 64.5067 230.438 63.6C230.438 62.704 230.63 61.9147 231.014 61.232C231.409 60.5387 231.942 60.0107 232.614 59.648C233.286 59.2747 234.038 59.088 234.87 59.088C235.702 59.088 236.454 59.2747 237.126 59.648C237.798 60.0107 238.326 60.5333 238.71 61.216C239.105 61.8987 239.302 62.6933 239.302 63.6C239.302 64.5067 239.099 65.3067 238.694 66C238.299 66.6827 237.761 67.2107 237.078 67.584C236.395 67.9573 235.638 68.144 234.806 68.144ZM234.806 66.912C235.329 66.912 235.819 66.7893 236.278 66.544C236.737 66.288 237.105 65.9093 237.382 65.408C237.67 64.9067 237.814 64.304 237.814 63.6C237.814 62.896 237.675 62.2987 237.398 61.808C237.121 61.3067 236.758 60.9333 236.31 60.688C235.862 60.4427 235.377 60.32 234.854 60.32C234.321 60.32 233.83 60.4427 233.382 60.688C232.945 60.9333 232.593 61.3067 232.326 61.808C232.059 62.2987 231.926 62.896 231.926 63.6C231.926 64.3147 232.054 64.9227 232.31 65.424C232.577 65.9147 232.929 66.288 233.366 66.544C233.803 66.7893 234.283 66.912 234.806 66.912ZM249.598 59.088C250.355 59.088 251.017 59.2533 251.582 59.584C252.158 59.9147 252.585 60.3307 252.862 60.832V59.232H254.334V68.192C254.334 68.992 254.163 69.7013 253.822 70.32C253.481 70.9493 252.99 71.44 252.35 71.792C251.721 72.144 250.985 72.32 250.142 72.32C248.99 72.32 248.03 72.048 247.262 71.504C246.494 70.96 246.041 70.2187 245.902 69.28H247.342C247.502 69.8133 247.833 70.24 248.334 70.56C248.835 70.8907 249.438 71.056 250.142 71.056C250.942 71.056 251.593 70.8053 252.094 70.304C252.606 69.8027 252.862 69.0987 252.862 68.192V66.352C252.574 66.864 252.147 67.2907 251.582 67.632C251.017 67.9733 250.355 68.144 249.598 68.144C248.819 68.144 248.11 67.952 247.47 67.568C246.841 67.184 246.345 66.6453 245.982 65.952C245.619 65.2587 245.438 64.4693 245.438 63.584C245.438 62.688 245.619 61.904 245.982 61.232C246.345 60.5493 246.841 60.0213 247.47 59.648C248.11 59.2747 248.819 59.088 249.598 59.088ZM252.862 63.6C252.862 62.9387 252.729 62.3627 252.462 61.872C252.195 61.3813 251.833 61.008 251.374 60.752C250.926 60.4853 250.43 60.352 249.886 60.352C249.342 60.352 248.846 60.48 248.398 60.736C247.95 60.992 247.593 61.3653 247.326 61.856C247.059 62.3467 246.926 62.9227 246.926 63.584C246.926 64.256 247.059 64.8427 247.326 65.344C247.593 65.8347 247.95 66.2133 248.398 66.48C248.846 66.736 249.342 66.864 249.886 66.864C250.43 66.864 250.926 66.736 251.374 66.48C251.833 66.2133 252.195 65.8347 252.462 65.344C252.729 64.8427 252.862 64.2613 252.862 63.6ZM258.251 60.896C258.507 60.32 258.869 59.872 259.339 59.552C259.819 59.232 260.4 59.072 261.083 59.072V60.576H260.699C259.067 60.576 258.251 61.4613 258.251 63.232V68H256.795V59.232H258.251V60.896ZM262.219 63.584C262.219 62.688 262.401 61.904 262.763 61.232C263.126 60.5493 263.622 60.0213 264.251 59.648C264.891 59.2747 265.601 59.088 266.379 59.088C267.147 59.088 267.814 59.2533 268.379 59.584C268.945 59.9147 269.366 60.3307 269.643 60.832V59.232H271.115V68H269.643V66.368C269.355 66.88 268.923 67.3067 268.347 67.648C267.782 67.9787 267.121 68.144 266.363 68.144C265.585 68.144 264.881 67.952 264.251 67.568C263.622 67.184 263.126 66.6453 262.763 65.952C262.401 65.2587 262.219 64.4693 262.219 63.584ZM269.643 63.6C269.643 62.9387 269.51 62.3627 269.243 61.872C268.977 61.3813 268.614 61.008 268.155 60.752C267.707 60.4853 267.211 60.352 266.667 60.352C266.123 60.352 265.627 60.48 265.179 60.736C264.731 60.992 264.374 61.3653 264.107 61.856C263.841 62.3467 263.707 62.9227 263.707 63.584C263.707 64.256 263.841 64.8427 264.107 65.344C264.374 65.8347 264.731 66.2133 265.179 66.48C265.627 66.736 266.123 66.864 266.667 66.864C267.211 66.864 267.707 66.736 268.155 66.48C268.614 66.2133 268.977 65.8347 269.243 65.344C269.51 64.8427 269.643 64.2613 269.643 63.6ZM276.84 66.624L279.56 59.232H281.128L277.688 68H275.976L272.536 59.232H274.104L276.84 66.624ZM283.297 57.808C283.019 57.808 282.785 57.712 282.593 57.52C282.401 57.328 282.305 57.0933 282.305 56.816C282.305 56.5387 282.401 56.304 282.593 56.112C282.785 55.92 283.019 55.824 283.297 55.824C283.563 55.824 283.787 55.92 283.969 56.112C284.161 56.304 284.257 56.5387 284.257 56.816C284.257 57.0933 284.161 57.328 283.969 57.52C283.787 57.712 283.563 57.808 283.297 57.808ZM284.001 59.232V68H282.545V59.232H284.001ZM288.258 60.432V65.6C288.258 66.0267 288.349 66.3307 288.53 66.512C288.711 66.6827 289.026 66.768 289.474 66.768H290.546V68H289.234C288.423 68 287.815 67.8133 287.41 67.44C287.005 67.0667 286.802 66.4533 286.802 65.6V60.432H285.666V59.232H286.802V57.024H288.258V59.232H290.546V60.432H288.258ZM292.902 59.232L295.622 66.304L298.358 59.232H299.862L294.582 72.128H293.062L294.806 67.904L291.27 59.232H292.902ZM301.79 68.096C301.512 68.096 301.278 68 301.086 67.808C300.894 67.616 300.798 67.3813 300.798 67.104C300.798 66.8267 300.894 66.592 301.086 66.4C301.278 66.208 301.512 66.112 301.79 66.112C302.056 66.112 302.28 66.208 302.462 66.4C302.654 66.592 302.75 66.8267 302.75 67.104C302.75 67.3813 302.654 67.616 302.462 67.808C302.28 68 302.056 68.096 301.79 68.096ZM27.8616 80.848V81.984H24.8216V92H23.3656V81.984H20.3096V80.848H27.8616ZM38.3579 83.776V85.072H30.0379V83.776H38.3579ZM38.3579 87.216V88.512H30.0379V87.216H38.3579ZM40.8004 90.832C42.155 89.744 43.2164 88.8533 43.9844 88.16C44.7524 87.4667 45.3977 86.7467 45.9204 86C46.4537 85.2427 46.7204 84.5067 46.7204 83.792C46.7204 83.1307 46.5497 82.6027 46.2084 82.208C45.867 81.8027 45.3284 81.6 44.5924 81.6C43.867 81.6 43.3017 81.8293 42.8964 82.288C42.5017 82.736 42.2884 83.3387 42.2564 84.096H40.8484C40.891 82.9013 41.2537 81.9787 41.9364 81.328C42.619 80.6773 43.499 80.352 44.5764 80.352C45.675 80.352 46.5444 80.656 47.1844 81.264C47.835 81.8613 48.1604 82.6827 48.1604 83.728C48.1604 84.5813 47.8937 85.424 47.3604 86.256C46.8377 87.088 46.2404 87.8187 45.5684 88.448C44.8964 89.0667 44.0377 89.8027 42.9924 90.656H48.4964V91.872H40.8004V90.832ZM59.8595 83.232V84.368H58.5795V92H57.1395V84.368H52.5315V92H51.0755V84.368H49.8115V83.232H59.8595ZM72.9309 78.096L65.0589 92.704H64.3389L62.3389 89.184L61.2989 89.792L60.8509 89.04L63.1389 87.696L64.9629 90.928L71.8589 78.096H72.9309ZM75.8443 90.88H79.7483V92H74.3883V80.848H75.8443V90.88ZM86.7345 76.928L82.3505 94.72H80.9105L85.2785 76.928H86.7345ZM92.5199 83.088C93.2772 83.088 93.9385 83.2533 94.5039 83.584C95.0799 83.9147 95.5065 84.3307 95.7839 84.832V83.232H97.2559V92.192C97.2559 92.992 97.0852 93.7013 96.7439 94.32C96.4025 94.9493 95.9119 95.44 95.2719 95.792C94.6425 96.144 93.9065 96.32 93.0639 96.32C91.9119 96.32 90.9519 96.048 90.1839 95.504C89.4159 94.96 88.9625 94.2187 88.8239 93.28H90.2639C90.4239 93.8133 90.7545 94.24 91.2559 94.56C91.7572 94.8907 92.3599 95.056 93.0639 95.056C93.8639 95.056 94.5145 94.8053 95.0159 94.304C95.5279 93.8027 95.7839 93.0987 95.7839 92.192V90.352C95.4959 90.864 95.0692 91.2907 94.5039 91.632C93.9385 91.9733 93.2772 92.144 92.5199 92.144C91.7412 92.144 91.0319 91.952 90.3919 91.568C89.7625 91.184 89.2665 90.6453 88.9039 89.952C88.5412 89.2587 88.3599 88.4693 88.3599 87.584C88.3599 86.688 88.5412 85.904 88.9039 85.232C89.2665 84.5493 89.7625 84.0213 90.3919 83.648C91.0319 83.2747 91.7412 83.088 92.5199 83.088ZM95.7839 87.6C95.7839 86.9387 95.6505 86.3627 95.3839 85.872C95.1172 85.3813 94.7545 85.008 94.2959 84.752C93.8479 84.4853 93.3519 84.352 92.8079 84.352C92.2639 84.352 91.7679 84.48 91.3199 84.736C90.8719 84.992 90.5145 85.3653 90.2479 85.856C89.9812 86.3467 89.8479 86.9227 89.8479 87.584C89.8479 88.256 89.9812 88.8427 90.2479 89.344C90.5145 89.8347 90.8719 90.2133 91.3199 90.48C91.7679 90.736 92.2639 90.864 92.8079 90.864C93.3519 90.864 93.8479 90.736 94.2959 90.48C94.7545 90.2133 95.1172 89.8347 95.3839 89.344C95.6505 88.8427 95.7839 88.2613 95.7839 87.6Z" fill="white"/>
</svg>
