<svg width="332" height="227" viewBox="0 0 332 227" fill="none" xmlns="http://www.w3.org/2000/svg">
<g filter="url(#filter0_d)">
<rect x="4" width="324" height="219" rx="20" fill="white"/>
<path d="M41.708 45.336C41.708 46.3253 41.4747 47.2587 41.008 48.136C40.5413 49.0133 39.7947 49.732 38.768 50.292C37.7413 50.8333 36.4253 51.104 34.82 51.104H31.292V59H28.1V39.54H34.82C36.3133 39.54 37.5733 39.8013 38.6 40.324C39.6453 40.828 40.42 41.5187 40.924 42.396C41.4467 43.2733 41.708 44.2533 41.708 45.336ZM34.82 48.612C36.0333 48.612 36.9387 48.3227 37.536 47.744C38.1333 47.1653 38.432 46.3627 38.432 45.336C38.432 44.2907 38.1333 43.4787 37.536 42.9C36.9387 42.3213 36.0333 42.032 34.82 42.032H31.292V48.612H34.82ZM60.2923 39.54V59H57.1003V50.404H47.9443V59H44.7523V39.54H47.9443V47.94H57.1003V39.54H60.2923ZM78.9145 39.54L72.4745 51.944V59H69.2825V51.944L62.8145 39.54H66.3705L70.8505 49.032L75.3305 39.54H78.9145ZM82.8477 54.604C84.6397 53.0733 86.049 51.8133 87.0757 50.824C88.1023 49.8347 88.9517 48.8173 89.6237 47.772C90.3143 46.708 90.6597 45.6627 90.6597 44.636C90.6597 43.572 90.389 42.732 89.8477 42.116C89.325 41.5 88.4943 41.192 87.3557 41.192C86.2543 41.192 85.3957 41.5467 84.7797 42.256C84.1823 42.9467 83.865 43.88 83.8277 45.056H80.7477C80.8037 42.928 81.4383 41.304 82.6517 40.184C83.8837 39.0453 85.4423 38.476 87.3277 38.476C88.6903 38.476 89.857 38.728 90.8277 39.232C91.7983 39.736 92.5357 40.4453 93.0397 41.36C93.5623 42.2747 93.8237 43.32 93.8237 44.496C93.8237 45.784 93.4783 47.0347 92.7877 48.248C92.1157 49.4613 91.313 50.5533 90.3797 51.524C89.4463 52.4947 88.2517 53.624 86.7957 54.912L85.5077 56.06H94.3837V58.72H80.7757V56.396L82.8477 54.604ZM104.468 38.588C101.798 38.588 99.9131 39.4933 98.8118 41.304C97.7291 43.1147 97.1878 45.5973 97.1878 48.752C97.1878 51.9253 97.7291 54.4173 98.8118 56.228C99.9131 58.0387 101.798 58.944 104.468 58.944C107.137 58.944 109.013 58.0387 110.096 56.228C111.197 54.4173 111.748 51.9253 111.748 48.752C111.748 45.5973 111.197 43.1147 110.096 41.304C109.013 39.4933 107.137 38.588 104.468 38.588ZM104.468 41.5C105.644 41.5 106.53 41.8267 107.128 42.48C107.725 43.1333 108.117 43.9733 108.304 45C108.509 46.0267 108.612 47.2773 108.612 48.752C108.612 50.2453 108.509 51.5053 108.304 52.532C108.117 53.5587 107.725 54.3987 107.128 55.052C106.53 55.7053 105.644 56.032 104.468 56.032C103.292 56.032 102.405 55.7053 101.808 55.052C101.21 54.3987 100.809 53.5587 100.604 52.532C100.417 51.5053 100.324 50.2453 100.324 48.752C100.324 47.2773 100.417 46.0267 100.604 45C100.809 43.9733 101.21 43.1333 101.808 42.48C102.405 41.8267 103.292 41.5 104.468 41.5ZM122.405 38.588C119.736 38.588 117.851 39.4933 116.749 41.304C115.667 43.1147 115.125 45.5973 115.125 48.752C115.125 51.9253 115.667 54.4173 116.749 56.228C117.851 58.0387 119.736 58.944 122.405 58.944C125.075 58.944 126.951 58.0387 128.033 56.228C129.135 54.4173 129.685 51.9253 129.685 48.752C129.685 45.5973 129.135 43.1147 128.033 41.304C126.951 39.4933 125.075 38.588 122.405 38.588ZM122.405 41.5C123.581 41.5 124.468 41.8267 125.065 42.48C125.663 43.1333 126.055 43.9733 126.241 45C126.447 46.0267 126.549 47.2773 126.549 48.752C126.549 50.2453 126.447 51.5053 126.241 52.532C126.055 53.5587 125.663 54.3987 125.065 55.052C124.468 55.7053 123.581 56.032 122.405 56.032C121.229 56.032 120.343 55.7053 119.745 55.052C119.148 54.3987 118.747 53.5587 118.541 52.532C118.355 51.5053 118.261 50.2453 118.261 48.752C118.261 47.2773 118.355 46.0267 118.541 45C118.747 43.9733 119.148 43.1333 119.745 42.48C120.343 41.8267 121.229 41.5 122.405 41.5ZM140.343 38.588C137.673 38.588 135.788 39.4933 134.687 41.304C133.604 43.1147 133.063 45.5973 133.063 48.752C133.063 51.9253 133.604 54.4173 134.687 56.228C135.788 58.0387 137.673 58.944 140.343 58.944C143.012 58.944 144.888 58.0387 145.971 56.228C147.072 54.4173 147.623 51.9253 147.623 48.752C147.623 45.5973 147.072 43.1147 145.971 41.304C144.888 39.4933 143.012 38.588 140.343 38.588ZM140.343 41.5C141.519 41.5 142.405 41.8267 143.003 42.48C143.6 43.1333 143.992 43.9733 144.179 45C144.384 46.0267 144.487 47.2773 144.487 48.752C144.487 50.2453 144.384 51.5053 144.179 52.532C143.992 53.5587 143.6 54.3987 143.003 55.052C142.405 55.7053 141.519 56.032 140.343 56.032C139.167 56.032 138.28 55.7053 137.683 55.052C137.085 54.3987 136.684 53.5587 136.479 52.532C136.292 51.5053 136.199 50.2453 136.199 48.752C136.199 47.2773 136.292 46.0267 136.479 45C136.684 43.9733 137.085 43.1333 137.683 42.48C138.28 41.8267 139.167 41.5 140.343 41.5ZM164.16 41.332H154.78V46.904C155.172 46.3813 155.751 45.9427 156.516 45.588C157.3 45.2333 158.131 45.056 159.008 45.056C160.576 45.056 161.846 45.392 162.816 46.064C163.806 46.736 164.506 47.5853 164.916 48.612C165.346 49.6387 165.56 50.7213 165.56 51.86C165.56 53.2413 165.29 54.4733 164.748 55.556C164.226 56.62 163.432 57.46 162.368 58.076C161.323 58.692 160.035 59 158.504 59C156.47 59 154.836 58.496 153.604 57.488C152.372 56.48 151.635 55.1453 151.392 53.484H154.5C154.706 54.3613 155.163 55.0613 155.872 55.584C156.582 56.088 157.468 56.34 158.532 56.34C159.858 56.34 160.847 55.9387 161.5 55.136C162.172 54.3333 162.508 53.2693 162.508 51.944C162.508 50.6 162.172 49.5733 161.5 48.864C160.828 48.136 159.839 47.772 158.532 47.772C157.618 47.772 156.843 48.0053 156.208 48.472C155.592 48.92 155.144 49.536 154.864 50.32H151.84V38.532H164.16V41.332Z" fill="#333333"/>
<path d="M34.712 86.49V88.164H29.402V91.854H33.542V93.528H29.402V99H27.35V86.49H34.712ZM40.9157 99.162C39.9797 99.162 39.1337 98.952 38.3777 98.532C37.6217 98.1 37.0277 97.5 36.5957 96.732C36.1637 95.952 35.9477 95.052 35.9477 94.032C35.9477 93.024 36.1697 92.13 36.6137 91.35C37.0577 90.57 37.6637 89.97 38.4317 89.55C39.1997 89.13 40.0577 88.92 41.0057 88.92C41.9537 88.92 42.8117 89.13 43.5797 89.55C44.3477 89.97 44.9537 90.57 45.3977 91.35C45.8417 92.13 46.0637 93.024 46.0637 94.032C46.0637 95.04 45.8357 95.934 45.3797 96.714C44.9237 97.494 44.2997 98.1 43.5077 98.532C42.7277 98.952 41.8637 99.162 40.9157 99.162ZM40.9157 97.38C41.4437 97.38 41.9357 97.254 42.3917 97.002C42.8597 96.75 43.2377 96.372 43.5257 95.868C43.8137 95.364 43.9577 94.752 43.9577 94.032C43.9577 93.312 43.8197 92.706 43.5437 92.214C43.2677 91.71 42.9017 91.332 42.4457 91.08C41.9897 90.828 41.4977 90.702 40.9697 90.702C40.4417 90.702 39.9497 90.828 39.4937 91.08C39.0497 91.332 38.6957 91.71 38.4317 92.214C38.1677 92.706 38.0357 93.312 38.0357 94.032C38.0357 95.1 38.3057 95.928 38.8457 96.516C39.3977 97.092 40.0877 97.38 40.9157 97.38ZM57.0742 89.082V99H55.0222V97.83C54.6982 98.238 54.2722 98.562 53.7442 98.802C53.2282 99.03 52.6762 99.144 52.0882 99.144C51.3082 99.144 50.6062 98.982 49.9822 98.658C49.3702 98.334 48.8842 97.854 48.5242 97.218C48.1762 96.582 48.0022 95.814 48.0022 94.914V89.082H50.0362V94.608C50.0362 95.496 50.2582 96.18 50.7022 96.66C51.1462 97.128 51.7522 97.362 52.5202 97.362C53.2882 97.362 53.8942 97.128 54.3382 96.66C54.7942 96.18 55.0222 95.496 55.0222 94.608V89.082H57.0742ZM64.7856 88.92C65.5656 88.92 66.2616 89.082 66.8736 89.406C67.4976 89.73 67.9836 90.21 68.3316 90.846C68.6796 91.482 68.8536 92.25 68.8536 93.15V99H66.8196V93.456C66.8196 92.568 66.5976 91.89 66.1536 91.422C65.7096 90.942 65.1036 90.702 64.3356 90.702C63.5676 90.702 62.9556 90.942 62.4996 91.422C62.0556 91.89 61.8336 92.568 61.8336 93.456V99H59.7816V89.082H61.8336V90.216C62.1696 89.808 62.5956 89.49 63.1116 89.262C63.6396 89.034 64.1976 88.92 64.7856 88.92ZM70.7871 93.996C70.7871 93 70.9911 92.118 71.3991 91.35C71.8191 90.582 72.3831 89.988 73.0911 89.568C73.8111 89.136 74.6091 88.92 75.4851 88.92C76.1331 88.92 76.7691 89.064 77.3931 89.352C78.0291 89.628 78.5331 90 78.9051 90.468V85.68H80.9751V99H78.9051V97.506C78.5691 97.986 78.1011 98.382 77.5011 98.694C76.9131 99.006 76.2351 99.162 75.4671 99.162C74.6031 99.162 73.8111 98.946 73.0911 98.514C72.3831 98.07 71.8191 97.458 71.3991 96.678C70.9911 95.886 70.7871 94.992 70.7871 93.996ZM78.9051 94.032C78.9051 93.348 78.7611 92.754 78.4731 92.25C78.1971 91.746 77.8311 91.362 77.3751 91.098C76.9191 90.834 76.4271 90.702 75.8991 90.702C75.3711 90.702 74.8791 90.834 74.4231 91.098C73.9671 91.35 73.5951 91.728 73.3071 92.232C73.0311 92.724 72.8931 93.312 72.8931 93.996C72.8931 94.68 73.0311 95.28 73.3071 95.796C73.5951 96.312 73.9671 96.708 74.4231 96.984C74.8911 97.248 75.3831 97.38 75.8991 97.38C76.4271 97.38 76.9191 97.248 77.3751 96.984C77.8311 96.72 78.1971 96.336 78.4731 95.832C78.7611 95.316 78.9051 94.716 78.9051 94.032ZM82.9863 93.996C82.9863 93 83.1903 92.118 83.5983 91.35C84.0183 90.582 84.5823 89.988 85.2903 89.568C86.0103 89.136 86.8023 88.92 87.6663 88.92C88.4463 88.92 89.1243 89.076 89.7003 89.388C90.2883 89.688 90.7563 90.066 91.1043 90.522V89.082H93.1743V99H91.1043V97.524C90.7563 97.992 90.2823 98.382 89.6823 98.694C89.0823 99.006 88.3983 99.162 87.6303 99.162C86.7783 99.162 85.9983 98.946 85.2903 98.514C84.5823 98.07 84.0183 97.458 83.5983 96.678C83.1903 95.886 82.9863 94.992 82.9863 93.996ZM91.1043 94.032C91.1043 93.348 90.9603 92.754 90.6723 92.25C90.3963 91.746 90.0303 91.362 89.5743 91.098C89.1183 90.834 88.6263 90.702 88.0983 90.702C87.5703 90.702 87.0783 90.834 86.6223 91.098C86.1663 91.35 85.7943 91.728 85.5063 92.232C85.2303 92.724 85.0923 93.312 85.0923 93.996C85.0923 94.68 85.2303 95.28 85.5063 95.796C85.7943 96.312 86.1663 96.708 86.6223 96.984C87.0903 97.248 87.5823 97.38 88.0983 97.38C88.6263 97.38 89.1183 97.248 89.5743 96.984C90.0303 96.72 90.3963 96.336 90.6723 95.832C90.9603 95.316 91.1043 94.716 91.1043 94.032ZM98.2635 90.756V96.246C98.2635 96.618 98.3475 96.888 98.5155 97.056C98.6955 97.212 98.9955 97.29 99.4155 97.29H100.676V99H99.0555C98.1315 99 97.4235 98.784 96.9315 98.352C96.4395 97.92 96.1935 97.218 96.1935 96.246V90.756H95.0235V89.082H96.1935V86.616H98.2635V89.082H100.676V90.756H98.2635ZM103.611 87.768C103.239 87.768 102.927 87.642 102.675 87.39C102.423 87.138 102.297 86.826 102.297 86.454C102.297 86.082 102.423 85.77 102.675 85.518C102.927 85.266 103.239 85.14 103.611 85.14C103.971 85.14 104.277 85.266 104.529 85.518C104.781 85.77 104.907 86.082 104.907 86.454C104.907 86.826 104.781 87.138 104.529 87.39C104.277 87.642 103.971 87.768 103.611 87.768ZM104.619 89.082V99H102.567V89.082H104.619ZM111.615 99.162C110.679 99.162 109.833 98.952 109.077 98.532C108.321 98.1 107.727 97.5 107.295 96.732C106.863 95.952 106.647 95.052 106.647 94.032C106.647 93.024 106.869 92.13 107.313 91.35C107.757 90.57 108.363 89.97 109.131 89.55C109.899 89.13 110.757 88.92 111.705 88.92C112.653 88.92 113.511 89.13 114.279 89.55C115.047 89.97 115.653 90.57 116.097 91.35C116.541 92.13 116.763 93.024 116.763 94.032C116.763 95.04 116.535 95.934 116.079 96.714C115.623 97.494 114.999 98.1 114.207 98.532C113.427 98.952 112.563 99.162 111.615 99.162ZM111.615 97.38C112.143 97.38 112.635 97.254 113.091 97.002C113.559 96.75 113.937 96.372 114.225 95.868C114.513 95.364 114.657 94.752 114.657 94.032C114.657 93.312 114.519 92.706 114.243 92.214C113.967 91.71 113.601 91.332 113.145 91.08C112.689 90.828 112.197 90.702 111.669 90.702C111.141 90.702 110.649 90.828 110.193 91.08C109.749 91.332 109.395 91.71 109.131 92.214C108.867 92.706 108.735 93.312 108.735 94.032C108.735 95.1 109.005 95.928 109.545 96.516C110.097 97.092 110.787 97.38 111.615 97.38ZM123.795 88.92C124.575 88.92 125.271 89.082 125.883 89.406C126.507 89.73 126.993 90.21 127.341 90.846C127.689 91.482 127.863 92.25 127.863 93.15V99H125.829V93.456C125.829 92.568 125.607 91.89 125.163 91.422C124.719 90.942 124.113 90.702 123.345 90.702C122.577 90.702 121.965 90.942 121.509 91.422C121.065 91.89 120.843 92.568 120.843 93.456V99H118.791V89.082H120.843V90.216C121.179 89.808 121.605 89.49 122.121 89.262C122.649 89.034 123.207 88.92 123.795 88.92ZM134.081 99.162C133.301 99.162 132.599 99.024 131.975 98.748C131.363 98.46 130.877 98.076 130.517 97.596C130.157 97.104 129.965 96.558 129.941 95.958H132.065C132.101 96.378 132.299 96.732 132.659 97.02C133.031 97.296 133.493 97.434 134.045 97.434C134.621 97.434 135.065 97.326 135.377 97.11C135.701 96.882 135.863 96.594 135.863 96.246C135.863 95.874 135.683 95.598 135.323 95.418C134.975 95.238 134.417 95.04 133.649 94.824C132.905 94.62 132.299 94.422 131.831 94.23C131.363 94.038 130.955 93.744 130.607 93.348C130.271 92.952 130.103 92.43 130.103 91.782C130.103 91.254 130.259 90.774 130.571 90.342C130.883 89.898 131.327 89.55 131.903 89.298C132.491 89.046 133.163 88.92 133.919 88.92C135.047 88.92 135.953 89.208 136.637 89.784C137.333 90.348 137.705 91.122 137.753 92.106H135.701C135.665 91.662 135.485 91.308 135.161 91.044C134.837 90.78 134.399 90.648 133.847 90.648C133.307 90.648 132.893 90.75 132.605 90.954C132.317 91.158 132.173 91.428 132.173 91.764C132.173 92.028 132.269 92.25 132.461 92.43C132.653 92.61 132.887 92.754 133.163 92.862C133.439 92.958 133.847 93.084 134.387 93.24C135.107 93.432 135.695 93.63 136.151 93.834C136.619 94.026 137.021 94.314 137.357 94.698C137.693 95.082 137.867 95.592 137.879 96.228C137.879 96.792 137.723 97.296 137.411 97.74C137.099 98.184 136.655 98.532 136.079 98.784C135.515 99.036 134.849 99.162 134.081 99.162ZM149.074 99.162C148.138 99.162 147.292 98.952 146.536 98.532C145.78 98.1 145.186 97.5 144.754 96.732C144.322 95.952 144.106 95.052 144.106 94.032C144.106 93.024 144.328 92.13 144.772 91.35C145.216 90.57 145.822 89.97 146.59 89.55C147.358 89.13 148.216 88.92 149.164 88.92C150.112 88.92 150.97 89.13 151.738 89.55C152.506 89.97 153.112 90.57 153.556 91.35C154 92.13 154.222 93.024 154.222 94.032C154.222 95.04 153.994 95.934 153.538 96.714C153.082 97.494 152.458 98.1 151.666 98.532C150.886 98.952 150.022 99.162 149.074 99.162ZM149.074 97.38C149.602 97.38 150.094 97.254 150.55 97.002C151.018 96.75 151.396 96.372 151.684 95.868C151.972 95.364 152.116 94.752 152.116 94.032C152.116 93.312 151.978 92.706 151.702 92.214C151.426 91.71 151.06 91.332 150.604 91.08C150.148 90.828 149.656 90.702 149.128 90.702C148.6 90.702 148.108 90.828 147.652 91.08C147.208 91.332 146.854 91.71 146.59 92.214C146.326 92.706 146.194 93.312 146.194 94.032C146.194 95.1 146.464 95.928 147.004 96.516C147.556 97.092 148.246 97.38 149.074 97.38ZM160.408 90.756H158.572V99H156.502V90.756H155.332V89.082H156.502V88.38C156.502 87.24 156.802 86.412 157.402 85.896C158.014 85.368 158.968 85.104 160.264 85.104V86.814C159.64 86.814 159.202 86.934 158.95 87.174C158.698 87.402 158.572 87.804 158.572 88.38V89.082H160.408V90.756ZM168.955 90.54C169.303 90.084 169.777 89.7 170.377 89.388C170.977 89.076 171.655 88.92 172.411 88.92C173.275 88.92 174.061 89.136 174.769 89.568C175.489 89.988 176.053 90.582 176.461 91.35C176.869 92.118 177.073 93 177.073 93.996C177.073 94.992 176.869 95.886 176.461 96.678C176.053 97.458 175.489 98.07 174.769 98.514C174.061 98.946 173.275 99.162 172.411 99.162C171.655 99.162 170.983 99.012 170.395 98.712C169.807 98.4 169.327 98.016 168.955 97.56V103.716H166.903V89.082H168.955V90.54ZM174.985 93.996C174.985 93.312 174.841 92.724 174.553 92.232C174.277 91.728 173.905 91.35 173.437 91.098C172.981 90.834 172.489 90.702 171.961 90.702C171.445 90.702 170.953 90.834 170.485 91.098C170.029 91.362 169.657 91.746 169.369 92.25C169.093 92.754 168.955 93.348 168.955 94.032C168.955 94.716 169.093 95.316 169.369 95.832C169.657 96.336 170.029 96.72 170.485 96.984C170.953 97.248 171.445 97.38 171.961 97.38C172.489 97.38 172.981 97.248 173.437 96.984C173.905 96.708 174.277 96.312 174.553 95.796C174.841 95.28 174.985 94.68 174.985 93.996ZM184.232 88.92C184.988 88.92 185.66 89.082 186.248 89.406C186.848 89.73 187.316 90.21 187.652 90.846C188 91.482 188.174 92.25 188.174 93.15V99H186.14V93.456C186.14 92.568 185.918 91.89 185.474 91.422C185.03 90.942 184.424 90.702 183.656 90.702C182.888 90.702 182.276 90.942 181.82 91.422C181.376 91.89 181.154 92.568 181.154 93.456V99H179.102V85.68H181.154V90.234C181.502 89.814 181.94 89.49 182.468 89.262C183.008 89.034 183.596 88.92 184.232 88.92ZM199.719 89.082L193.635 103.662H191.511L193.527 98.838L189.621 89.082H191.907L194.697 96.642L197.595 89.082H199.719ZM204.868 99.162C204.088 99.162 203.386 99.024 202.762 98.748C202.15 98.46 201.664 98.076 201.304 97.596C200.944 97.104 200.752 96.558 200.728 95.958H202.852C202.888 96.378 203.086 96.732 203.446 97.02C203.818 97.296 204.28 97.434 204.832 97.434C205.408 97.434 205.852 97.326 206.164 97.11C206.488 96.882 206.65 96.594 206.65 96.246C206.65 95.874 206.47 95.598 206.11 95.418C205.762 95.238 205.204 95.04 204.436 94.824C203.692 94.62 203.086 94.422 202.618 94.23C202.15 94.038 201.742 93.744 201.394 93.348C201.058 92.952 200.89 92.43 200.89 91.782C200.89 91.254 201.046 90.774 201.358 90.342C201.67 89.898 202.114 89.55 202.69 89.298C203.278 89.046 203.95 88.92 204.706 88.92C205.834 88.92 206.74 89.208 207.424 89.784C208.12 90.348 208.492 91.122 208.54 92.106H206.488C206.452 91.662 206.272 91.308 205.948 91.044C205.624 90.78 205.186 90.648 204.634 90.648C204.094 90.648 203.68 90.75 203.392 90.954C203.104 91.158 202.96 91.428 202.96 91.764C202.96 92.028 203.056 92.25 203.248 92.43C203.44 92.61 203.674 92.754 203.95 92.862C204.226 92.958 204.634 93.084 205.174 93.24C205.894 93.432 206.482 93.63 206.938 93.834C207.406 94.026 207.808 94.314 208.144 94.698C208.48 95.082 208.654 95.592 208.666 96.228C208.666 96.792 208.51 97.296 208.198 97.74C207.886 98.184 207.442 98.532 206.866 98.784C206.302 99.036 205.636 99.162 204.868 99.162ZM211.927 87.768C211.555 87.768 211.243 87.642 210.991 87.39C210.739 87.138 210.613 86.826 210.613 86.454C210.613 86.082 210.739 85.77 210.991 85.518C211.243 85.266 211.555 85.14 211.927 85.14C212.287 85.14 212.593 85.266 212.845 85.518C213.097 85.77 213.223 86.082 213.223 86.454C213.223 86.826 213.097 87.138 212.845 87.39C212.593 87.642 212.287 87.768 211.927 87.768ZM212.935 89.082V99H210.883V89.082H212.935ZM214.945 94.032C214.945 93.012 215.149 92.118 215.557 91.35C215.977 90.57 216.553 89.97 217.285 89.55C218.017 89.13 218.857 88.92 219.805 88.92C221.005 88.92 221.995 89.208 222.775 89.784C223.567 90.348 224.101 91.158 224.377 92.214H222.163C221.983 91.722 221.695 91.338 221.299 91.062C220.903 90.786 220.405 90.648 219.805 90.648C218.965 90.648 218.293 90.948 217.789 91.548C217.297 92.136 217.051 92.964 217.051 94.032C217.051 95.1 217.297 95.934 217.789 96.534C218.293 97.134 218.965 97.434 219.805 97.434C220.993 97.434 221.779 96.912 222.163 95.868H224.377C224.089 96.876 223.549 97.68 222.757 98.28C221.965 98.868 220.981 99.162 219.805 99.162C218.857 99.162 218.017 98.952 217.285 98.532C216.553 98.1 215.977 97.5 215.557 96.732C215.149 95.952 214.945 95.052 214.945 94.032ZM230.022 99.162C229.242 99.162 228.54 99.024 227.916 98.748C227.304 98.46 226.818 98.076 226.458 97.596C226.098 97.104 225.906 96.558 225.882 95.958H228.006C228.042 96.378 228.24 96.732 228.6 97.02C228.972 97.296 229.434 97.434 229.986 97.434C230.562 97.434 231.006 97.326 231.318 97.11C231.642 96.882 231.804 96.594 231.804 96.246C231.804 95.874 231.624 95.598 231.264 95.418C230.916 95.238 230.358 95.04 229.59 94.824C228.846 94.62 228.24 94.422 227.772 94.23C227.304 94.038 226.896 93.744 226.548 93.348C226.212 92.952 226.044 92.43 226.044 91.782C226.044 91.254 226.2 90.774 226.512 90.342C226.824 89.898 227.268 89.55 227.844 89.298C228.432 89.046 229.104 88.92 229.86 88.92C230.988 88.92 231.894 89.208 232.578 89.784C233.274 90.348 233.646 91.122 233.694 92.106H231.642C231.606 91.662 231.426 91.308 231.102 91.044C230.778 90.78 230.34 90.648 229.788 90.648C229.248 90.648 228.834 90.75 228.546 90.954C228.258 91.158 228.114 91.428 228.114 91.764C228.114 92.028 228.21 92.25 228.402 92.43C228.594 92.61 228.828 92.754 229.104 92.862C229.38 92.958 229.788 93.084 230.328 93.24C231.048 93.432 231.636 93.63 232.092 93.834C232.56 94.026 232.962 94.314 233.298 94.698C233.634 95.082 233.808 95.592 233.82 96.228C233.82 96.792 233.664 97.296 233.352 97.74C233.04 98.184 232.596 98.532 232.02 98.784C231.456 99.036 230.79 99.162 230.022 99.162ZM36.44 120.798C36.44 121.17 36.416 121.506 36.368 121.806H28.79C28.85 122.598 29.144 123.234 29.672 123.714C30.2 124.194 30.848 124.434 31.616 124.434C32.72 124.434 33.5 123.972 33.956 123.048H36.17C35.87 123.96 35.324 124.71 34.532 125.298C33.752 125.874 32.78 126.162 31.616 126.162C30.668 126.162 29.816 125.952 29.06 125.532C28.316 125.1 27.728 124.5 27.296 123.732C26.876 122.952 26.666 122.052 26.666 121.032C26.666 120.012 26.87 119.118 27.278 118.35C27.698 117.57 28.28 116.97 29.024 116.55C29.78 116.13 30.644 115.92 31.616 115.92C32.552 115.92 33.386 116.124 34.118 116.532C34.85 116.94 35.42 117.516 35.828 118.26C36.236 118.992 36.44 119.838 36.44 120.798ZM34.298 120.15C34.286 119.394 34.016 118.788 33.488 118.332C32.96 117.876 32.306 117.648 31.526 117.648C30.818 117.648 30.212 117.876 29.708 118.332C29.204 118.776 28.904 119.382 28.808 120.15H34.298ZM42.7074 120.978L45.9114 126H43.5894L41.4474 122.634L39.4314 126H37.2894L40.4934 121.122L37.2894 116.082H39.6114L41.7534 119.448L43.7694 116.082H45.9114L42.7074 120.978ZM49.4938 117.54C49.8418 117.084 50.3158 116.7 50.9158 116.388C51.5158 116.076 52.1938 115.92 52.9498 115.92C53.8138 115.92 54.5998 116.136 55.3078 116.568C56.0278 116.988 56.5918 117.582 56.9998 118.35C57.4078 119.118 57.6118 120 57.6118 120.996C57.6118 121.992 57.4078 122.886 56.9998 123.678C56.5918 124.458 56.0278 125.07 55.3078 125.514C54.5998 125.946 53.8138 126.162 52.9498 126.162C52.1938 126.162 51.5218 126.012 50.9338 125.712C50.3458 125.4 49.8658 125.016 49.4938 124.56V130.716H47.4418V116.082H49.4938V117.54ZM55.5238 120.996C55.5238 120.312 55.3798 119.724 55.0918 119.232C54.8158 118.728 54.4438 118.35 53.9758 118.098C53.5198 117.834 53.0278 117.702 52.4998 117.702C51.9838 117.702 51.4918 117.834 51.0238 118.098C50.5678 118.362 50.1958 118.746 49.9078 119.25C49.6318 119.754 49.4938 120.348 49.4938 121.032C49.4938 121.716 49.6318 122.316 49.9078 122.832C50.1958 123.336 50.5678 123.72 51.0238 123.984C51.4918 124.248 51.9838 124.38 52.4998 124.38C53.0278 124.38 53.5198 124.248 53.9758 123.984C54.4438 123.708 54.8158 123.312 55.0918 122.796C55.3798 122.28 55.5238 121.68 55.5238 120.996ZM68.731 120.798C68.731 121.17 68.707 121.506 68.659 121.806H61.081C61.141 122.598 61.435 123.234 61.963 123.714C62.491 124.194 63.139 124.434 63.907 124.434C65.011 124.434 65.791 123.972 66.247 123.048H68.461C68.161 123.96 67.615 124.71 66.823 125.298C66.043 125.874 65.071 126.162 63.907 126.162C62.959 126.162 62.107 125.952 61.351 125.532C60.607 125.1 60.019 124.5 59.587 123.732C59.167 122.952 58.957 122.052 58.957 121.032C58.957 120.012 59.161 119.118 59.569 118.35C59.989 117.57 60.571 116.97 61.315 116.55C62.071 116.13 62.935 115.92 63.907 115.92C64.843 115.92 65.677 116.124 66.409 116.532C67.141 116.94 67.711 117.516 68.119 118.26C68.527 118.992 68.731 119.838 68.731 120.798ZM66.589 120.15C66.577 119.394 66.307 118.788 65.779 118.332C65.251 117.876 64.597 117.648 63.817 117.648C63.109 117.648 62.503 117.876 61.999 118.332C61.495 118.776 61.195 119.382 61.099 120.15H66.589ZM72.8024 117.522C73.1024 117.018 73.4984 116.628 73.9904 116.352C74.4944 116.064 75.0884 115.92 75.7724 115.92V118.044H75.2504C74.4464 118.044 73.8344 118.248 73.4144 118.656C73.0064 119.064 72.8024 119.772 72.8024 120.78V126H70.7504V116.082H72.8024V117.522ZM78.7026 114.768C78.3306 114.768 78.0186 114.642 77.7666 114.39C77.5146 114.138 77.3886 113.826 77.3886 113.454C77.3886 113.082 77.5146 112.77 77.7666 112.518C78.0186 112.266 78.3306 112.14 78.7026 112.14C79.0626 112.14 79.3686 112.266 79.6206 112.518C79.8726 112.77 79.9986 113.082 79.9986 113.454C79.9986 113.826 79.8726 114.138 79.6206 114.39C79.3686 114.642 79.0626 114.768 78.7026 114.768ZM79.7106 116.082V126H77.6586V116.082H79.7106ZM94.4107 115.92C95.1907 115.92 95.8867 116.082 96.4987 116.406C97.1227 116.73 97.6087 117.21 97.9567 117.846C98.3167 118.482 98.4967 119.25 98.4967 120.15V126H96.4627V120.456C96.4627 119.568 96.2407 118.89 95.7967 118.422C95.3527 117.942 94.7467 117.702 93.9787 117.702C93.2107 117.702 92.5987 117.942 92.1427 118.422C91.6987 118.89 91.4767 119.568 91.4767 120.456V126H89.4427V120.456C89.4427 119.568 89.2207 118.89 88.7767 118.422C88.3327 117.942 87.7267 117.702 86.9587 117.702C86.1907 117.702 85.5787 117.942 85.1227 118.422C84.6787 118.89 84.4567 119.568 84.4567 120.456V126H82.4047V116.082H84.4567V117.216C84.7927 116.808 85.2187 116.49 85.7347 116.262C86.2507 116.034 86.8027 115.92 87.3907 115.92C88.1827 115.92 88.8907 116.088 89.5147 116.424C90.1387 116.76 90.6187 117.246 90.9547 117.882C91.2547 117.282 91.7227 116.808 92.3587 116.46C92.9947 116.1 93.6787 115.92 94.4107 115.92ZM110.198 120.798C110.198 121.17 110.174 121.506 110.126 121.806H102.548C102.608 122.598 102.902 123.234 103.43 123.714C103.958 124.194 104.606 124.434 105.374 124.434C106.478 124.434 107.258 123.972 107.714 123.048H109.928C109.628 123.96 109.082 124.71 108.29 125.298C107.51 125.874 106.538 126.162 105.374 126.162C104.426 126.162 103.574 125.952 102.818 125.532C102.074 125.1 101.486 124.5 101.054 123.732C100.634 122.952 100.424 122.052 100.424 121.032C100.424 120.012 100.628 119.118 101.036 118.35C101.456 117.57 102.038 116.97 102.782 116.55C103.538 116.13 104.402 115.92 105.374 115.92C106.31 115.92 107.144 116.124 107.876 116.532C108.608 116.94 109.178 117.516 109.586 118.26C109.994 118.992 110.198 119.838 110.198 120.798ZM108.056 120.15C108.044 119.394 107.774 118.788 107.246 118.332C106.718 117.876 106.064 117.648 105.284 117.648C104.576 117.648 103.97 117.876 103.466 118.332C102.962 118.776 102.662 119.382 102.566 120.15H108.056ZM117.221 115.92C118.001 115.92 118.697 116.082 119.309 116.406C119.933 116.73 120.419 117.21 120.767 117.846C121.115 118.482 121.289 119.25 121.289 120.15V126H119.255V120.456C119.255 119.568 119.033 118.89 118.589 118.422C118.145 117.942 117.539 117.702 116.771 117.702C116.003 117.702 115.391 117.942 114.935 118.422C114.491 118.89 114.269 119.568 114.269 120.456V126H112.217V116.082H114.269V117.216C114.605 116.808 115.031 116.49 115.547 116.262C116.075 116.034 116.633 115.92 117.221 115.92ZM126.301 117.756V123.246C126.301 123.618 126.385 123.888 126.553 124.056C126.733 124.212 127.033 124.29 127.453 124.29H128.713V126H127.093C126.169 126 125.461 125.784 124.969 125.352C124.477 124.92 124.231 124.218 124.231 123.246V117.756H123.061V116.082H124.231V113.616H126.301V116.082H128.713V117.756H126.301ZM134.204 126.162C133.424 126.162 132.722 126.024 132.098 125.748C131.486 125.46 131 125.076 130.64 124.596C130.28 124.104 130.088 123.558 130.064 122.958H132.188C132.224 123.378 132.422 123.732 132.782 124.02C133.154 124.296 133.616 124.434 134.168 124.434C134.744 124.434 135.188 124.326 135.5 124.11C135.824 123.882 135.986 123.594 135.986 123.246C135.986 122.874 135.806 122.598 135.446 122.418C135.098 122.238 134.54 122.04 133.772 121.824C133.028 121.62 132.422 121.422 131.954 121.23C131.486 121.038 131.078 120.744 130.73 120.348C130.394 119.952 130.226 119.43 130.226 118.782C130.226 118.254 130.382 117.774 130.694 117.342C131.006 116.898 131.45 116.55 132.026 116.298C132.614 116.046 133.286 115.92 134.042 115.92C135.17 115.92 136.076 116.208 136.76 116.784C137.456 117.348 137.828 118.122 137.876 119.106H135.824C135.788 118.662 135.608 118.308 135.284 118.044C134.96 117.78 134.522 117.648 133.97 117.648C133.43 117.648 133.016 117.75 132.728 117.954C132.44 118.158 132.296 118.428 132.296 118.764C132.296 119.028 132.392 119.25 132.584 119.43C132.776 119.61 133.01 119.754 133.286 119.862C133.562 119.958 133.97 120.084 134.51 120.24C135.23 120.432 135.818 120.63 136.274 120.834C136.742 121.026 137.144 121.314 137.48 121.698C137.816 122.082 137.99 122.592 138.002 123.228C138.002 123.792 137.846 124.296 137.534 124.74C137.222 125.184 136.778 125.532 136.202 125.784C135.638 126.036 134.972 126.162 134.204 126.162ZM158.215 116.082L155.137 126H152.977L150.979 118.674L148.981 126H146.821L143.725 116.082H145.813L147.883 124.056L149.989 116.082H152.131L154.147 124.02L156.199 116.082H158.215ZM160.792 114.768C160.42 114.768 160.108 114.642 159.856 114.39C159.604 114.138 159.478 113.826 159.478 113.454C159.478 113.082 159.604 112.77 159.856 112.518C160.108 112.266 160.42 112.14 160.792 112.14C161.152 112.14 161.458 112.266 161.71 112.518C161.962 112.77 162.088 113.082 162.088 113.454C162.088 113.826 161.962 114.138 161.71 114.39C161.458 114.642 161.152 114.768 160.792 114.768ZM161.8 116.082V126H159.748V116.082H161.8ZM166.889 117.756V123.246C166.889 123.618 166.973 123.888 167.141 124.056C167.321 124.212 167.621 124.29 168.041 124.29H169.301V126H167.681C166.757 126 166.049 125.784 165.557 125.352C165.065 124.92 164.819 124.218 164.819 123.246V117.756H163.649V116.082H164.819V113.616H166.889V116.082H169.301V117.756H166.889ZM176.322 115.92C177.078 115.92 177.75 116.082 178.338 116.406C178.938 116.73 179.406 117.21 179.742 117.846C180.09 118.482 180.264 119.25 180.264 120.15V126H178.23V120.456C178.23 119.568 178.008 118.89 177.564 118.422C177.12 117.942 176.514 117.702 175.746 117.702C174.978 117.702 174.366 117.942 173.91 118.422C173.466 118.89 173.244 119.568 173.244 120.456V126H171.192V112.68H173.244V117.234C173.592 116.814 174.03 116.49 174.558 116.262C175.098 116.034 175.686 115.92 176.322 115.92ZM189.951 117.756V123.246C189.951 123.618 190.035 123.888 190.203 124.056C190.383 124.212 190.683 124.29 191.103 124.29H192.363V126H190.743C189.819 126 189.111 125.784 188.619 125.352C188.127 124.92 187.881 124.218 187.881 123.246V117.756H186.711V116.082H187.881V113.616H189.951V116.082H192.363V117.756H189.951ZM199.384 115.92C200.14 115.92 200.812 116.082 201.4 116.406C202 116.73 202.468 117.21 202.804 117.846C203.152 118.482 203.326 119.25 203.326 120.15V126H201.292V120.456C201.292 119.568 201.07 118.89 200.626 118.422C200.182 117.942 199.576 117.702 198.808 117.702C198.04 117.702 197.428 117.942 196.972 118.422C196.528 118.89 196.306 119.568 196.306 120.456V126H194.254V112.68H196.306V117.234C196.654 116.814 197.092 116.49 197.62 116.262C198.16 116.034 198.748 115.92 199.384 115.92ZM215.034 120.798C215.034 121.17 215.01 121.506 214.962 121.806H207.384C207.444 122.598 207.738 123.234 208.266 123.714C208.794 124.194 209.442 124.434 210.21 124.434C211.314 124.434 212.094 123.972 212.55 123.048H214.764C214.464 123.96 213.918 124.71 213.126 125.298C212.346 125.874 211.374 126.162 210.21 126.162C209.262 126.162 208.41 125.952 207.654 125.532C206.91 125.1 206.322 124.5 205.89 123.732C205.47 122.952 205.26 122.052 205.26 121.032C205.26 120.012 205.464 119.118 205.872 118.35C206.292 117.57 206.874 116.97 207.618 116.55C208.374 116.13 209.238 115.92 210.21 115.92C211.146 115.92 211.98 116.124 212.712 116.532C213.444 116.94 214.014 117.516 214.422 118.26C214.83 118.992 215.034 119.838 215.034 120.798ZM212.892 120.15C212.88 119.394 212.61 118.788 212.082 118.332C211.554 117.876 210.9 117.648 210.12 117.648C209.412 117.648 208.806 117.876 208.302 118.332C207.798 118.776 207.498 119.382 207.402 120.15H212.892ZM229.271 123.444H224.033L223.133 126H220.991L225.473 113.472H227.849L232.331 126H230.171L229.271 123.444ZM228.695 121.77L226.661 115.956L224.609 121.77H228.695ZM240.778 126L237.898 120.996H236.332V126H234.28V113.49H238.6C239.56 113.49 240.37 113.658 241.03 113.994C241.702 114.33 242.2 114.78 242.524 115.344C242.86 115.908 243.028 116.538 243.028 117.234C243.028 118.05 242.788 118.794 242.308 119.466C241.84 120.126 241.114 120.576 240.13 120.816L243.226 126H240.778ZM236.332 119.358H238.6C239.368 119.358 239.944 119.166 240.328 118.782C240.724 118.398 240.922 117.882 240.922 117.234C240.922 116.586 240.73 116.082 240.346 115.722C239.962 115.35 239.38 115.164 238.6 115.164H236.332V119.358ZM262.335 115.92C263.115 115.92 263.811 116.082 264.423 116.406C265.047 116.73 265.533 117.21 265.881 117.846C266.241 118.482 266.421 119.25 266.421 120.15V126H264.387V120.456C264.387 119.568 264.165 118.89 263.721 118.422C263.277 117.942 262.671 117.702 261.903 117.702C261.135 117.702 260.523 117.942 260.067 118.422C259.623 118.89 259.401 119.568 259.401 120.456V126H257.367V120.456C257.367 119.568 257.145 118.89 256.701 118.422C256.257 117.942 255.651 117.702 254.883 117.702C254.115 117.702 253.503 117.942 253.047 118.422C252.603 118.89 252.381 119.568 252.381 120.456V126H250.329V116.082H252.381V117.216C252.717 116.808 253.143 116.49 253.659 116.262C254.175 116.034 254.727 115.92 255.315 115.92C256.107 115.92 256.815 116.088 257.439 116.424C258.063 116.76 258.543 117.246 258.879 117.882C259.179 117.282 259.647 116.808 260.283 116.46C260.919 116.1 261.603 115.92 262.335 115.92ZM273.334 126.162C272.398 126.162 271.552 125.952 270.796 125.532C270.04 125.1 269.446 124.5 269.014 123.732C268.582 122.952 268.366 122.052 268.366 121.032C268.366 120.024 268.588 119.13 269.032 118.35C269.476 117.57 270.082 116.97 270.85 116.55C271.618 116.13 272.476 115.92 273.424 115.92C274.372 115.92 275.23 116.13 275.998 116.55C276.766 116.97 277.372 117.57 277.816 118.35C278.26 119.13 278.482 120.024 278.482 121.032C278.482 122.04 278.254 122.934 277.798 123.714C277.342 124.494 276.718 125.1 275.926 125.532C275.146 125.952 274.282 126.162 273.334 126.162ZM273.334 124.38C273.862 124.38 274.354 124.254 274.81 124.002C275.278 123.75 275.656 123.372 275.944 122.868C276.232 122.364 276.376 121.752 276.376 121.032C276.376 120.312 276.238 119.706 275.962 119.214C275.686 118.71 275.32 118.332 274.864 118.08C274.408 117.828 273.916 117.702 273.388 117.702C272.86 117.702 272.368 117.828 271.912 118.08C271.468 118.332 271.114 118.71 270.85 119.214C270.586 119.706 270.454 120.312 270.454 121.032C270.454 122.1 270.724 122.928 271.264 123.516C271.816 124.092 272.506 124.38 273.334 124.38ZM279.826 120.996C279.826 120 280.03 119.118 280.438 118.35C280.858 117.582 281.422 116.988 282.13 116.568C282.85 116.136 283.648 115.92 284.524 115.92C285.172 115.92 285.808 116.064 286.432 116.352C287.068 116.628 287.572 117 287.944 117.468V112.68H290.014V126H287.944V124.506C287.608 124.986 287.14 125.382 286.54 125.694C285.952 126.006 285.274 126.162 284.506 126.162C283.642 126.162 282.85 125.946 282.13 125.514C281.422 125.07 280.858 124.458 280.438 123.678C280.03 122.886 279.826 121.992 279.826 120.996ZM287.944 121.032C287.944 120.348 287.8 119.754 287.512 119.25C287.236 118.746 286.87 118.362 286.414 118.098C285.958 117.834 285.466 117.702 284.938 117.702C284.41 117.702 283.918 117.834 283.462 118.098C283.006 118.35 282.634 118.728 282.346 119.232C282.07 119.724 281.932 120.312 281.932 120.996C281.932 121.68 282.07 122.28 282.346 122.796C282.634 123.312 283.006 123.708 283.462 123.984C283.93 124.248 284.422 124.38 284.938 124.38C285.466 124.38 285.958 124.248 286.414 123.984C286.87 123.72 287.236 123.336 287.512 122.832C287.8 122.316 287.944 121.716 287.944 121.032ZM301.799 120.798C301.799 121.17 301.775 121.506 301.727 121.806H294.149C294.209 122.598 294.503 123.234 295.031 123.714C295.559 124.194 296.207 124.434 296.975 124.434C298.079 124.434 298.859 123.972 299.315 123.048H301.529C301.229 123.96 300.683 124.71 299.891 125.298C299.111 125.874 298.139 126.162 296.975 126.162C296.027 126.162 295.175 125.952 294.419 125.532C293.675 125.1 293.087 124.5 292.655 123.732C292.235 122.952 292.025 122.052 292.025 121.032C292.025 120.012 292.229 119.118 292.637 118.35C293.057 117.57 293.639 116.97 294.383 116.55C295.139 116.13 296.003 115.92 296.975 115.92C297.911 115.92 298.745 116.124 299.477 116.532C300.209 116.94 300.779 117.516 301.187 118.26C301.595 118.992 301.799 119.838 301.799 120.798ZM299.657 120.15C299.645 119.394 299.375 118.788 298.847 118.332C298.319 117.876 297.665 117.648 296.885 117.648C296.177 117.648 295.571 117.876 295.067 118.332C294.563 118.776 294.263 119.382 294.167 120.15H299.657ZM305.871 112.68V126H303.819V112.68H305.871Z" fill="#333333"/>
<rect x="26" y="151" width="132" height="36" rx="4" fill="#1D1D1D"/>
<path d="M38.592 169.416C38.592 168.328 38.8427 167.352 39.344 166.488C39.856 165.624 40.544 164.952 41.408 164.472C42.2827 163.981 43.2373 163.736 44.272 163.736C45.456 163.736 46.5067 164.029 47.424 164.616C48.352 165.192 49.024 166.013 49.44 167.08H47.248C46.96 166.525 46.56 166.109 46.048 165.832C45.536 165.544 44.944 165.4 44.272 165.4C43.536 165.4 42.88 165.565 42.304 165.896C41.728 166.227 41.2747 166.696 40.944 167.304C40.624 167.912 40.464 168.616 40.464 169.416C40.464 170.216 40.624 170.925 40.944 171.544C41.2747 172.152 41.728 172.621 42.304 172.952C42.88 173.283 43.536 173.448 44.272 173.448C45.264 173.448 46.0693 173.171 46.688 172.616C47.3173 172.051 47.696 171.288 47.824 170.328H43.648V168.904H49.776V170.328C49.6587 171.192 49.3493 171.987 48.848 172.712C48.3573 173.437 47.712 174.019 46.912 174.456C46.1227 174.883 45.2427 175.096 44.272 175.096C43.2267 175.096 42.272 174.856 41.408 174.376C40.544 173.885 39.856 173.208 39.344 172.344C38.8427 171.48 38.592 170.504 38.592 169.416ZM55.399 175.144C54.567 175.144 53.815 174.957 53.143 174.584C52.471 174.2 51.943 173.667 51.559 172.984C51.175 172.291 50.983 171.491 50.983 170.584C50.983 169.688 51.1803 168.893 51.575 168.2C51.9697 167.507 52.5083 166.973 53.191 166.6C53.8737 166.227 54.6363 166.04 55.479 166.04C56.3217 166.04 57.0843 166.227 57.767 166.6C58.4497 166.973 58.9883 167.507 59.383 168.2C59.7777 168.893 59.975 169.688 59.975 170.584C59.975 171.48 59.7723 172.275 59.367 172.968C58.9617 173.661 58.407 174.2 57.703 174.584C57.0097 174.957 56.2417 175.144 55.399 175.144ZM55.399 173.608C55.8683 173.608 56.3057 173.491 56.711 173.256C57.127 173.021 57.463 172.68 57.719 172.232C57.975 171.773 58.103 171.224 58.103 170.584C58.103 169.944 57.9803 169.4 57.735 168.952C57.4897 168.493 57.1643 168.152 56.759 167.928C56.3537 167.693 55.9163 167.576 55.447 167.576C54.9777 167.576 54.5457 167.693 54.151 167.928C53.7563 168.152 53.4363 168.493 53.191 168.952C52.9563 169.4 52.839 169.944 52.839 170.584C52.839 171.224 52.951 171.773 53.175 172.232C53.4097 172.691 53.719 173.037 54.103 173.272C54.4977 173.496 54.9297 173.608 55.399 173.608ZM68.703 167.672V172.552C68.703 172.883 68.7777 173.123 68.927 173.272C69.087 173.411 69.3537 173.48 69.727 173.48H70.847V175H69.407C68.5857 175 67.9563 174.808 67.519 174.424C67.0817 174.04 66.863 173.416 66.863 172.552V167.672H65.823V166.184H66.863V163.992H68.703V166.184H70.847V167.672H68.703ZM76.3521 175.144C75.5201 175.144 74.7681 174.957 74.0961 174.584C73.4241 174.2 72.8961 173.667 72.5121 172.984C72.1281 172.291 71.9361 171.491 71.9361 170.584C71.9361 169.688 72.1335 168.893 72.5281 168.2C72.9228 167.507 73.4615 166.973 74.1441 166.6C74.8268 166.227 75.5895 166.04 76.4321 166.04C77.2748 166.04 78.0375 166.227 78.7201 166.6C79.4028 166.973 79.9415 167.507 80.3361 168.2C80.7308 168.893 80.9281 169.688 80.9281 170.584C80.9281 171.48 80.7255 172.275 80.3201 172.968C79.9148 173.661 79.3601 174.2 78.6561 174.584C77.9628 174.957 77.1948 175.144 76.3521 175.144ZM76.3521 173.608C76.8215 173.608 77.2588 173.491 77.6641 173.256C78.0801 173.021 78.4161 172.68 78.6721 172.232C78.9281 171.773 79.0561 171.224 79.0561 170.584C79.0561 169.944 78.9335 169.4 78.6881 168.952C78.4428 168.493 78.1175 168.152 77.7121 167.928C77.3068 167.693 76.8695 167.576 76.4001 167.576C75.9308 167.576 75.4988 167.693 75.1041 167.928C74.7095 168.152 74.3895 168.493 74.1441 168.952C73.9095 169.4 73.7921 169.944 73.7921 170.584C73.7921 171.224 73.9041 171.773 74.1281 172.232C74.3628 172.691 74.6721 173.037 75.0561 173.272C75.4508 173.496 75.8828 173.608 76.3521 173.608ZM90.6961 175.144C90.0135 175.144 89.4001 175.021 88.8561 174.776C88.3121 174.52 87.8801 174.179 87.5601 173.752C87.2401 173.315 87.0695 172.829 87.0481 172.296H88.9361C88.9681 172.701 89.1441 173.037 89.4641 173.304C89.7948 173.571 90.2055 173.704 90.6961 173.704C91.2081 173.704 91.6028 173.603 91.8801 173.4C92.1681 173.187 92.3121 172.904 92.3121 172.552C92.3121 172.232 92.1521 171.987 91.8321 171.816C91.5121 171.645 91.0161 171.475 90.3441 171.304C89.6935 171.123 89.1601 170.952 88.7441 170.792C88.3388 170.621 87.9868 170.365 87.6881 170.024C87.3895 169.672 87.2401 169.219 87.2401 168.664C87.2401 168.184 87.3735 167.747 87.6401 167.352C87.9068 166.947 88.2908 166.627 88.7921 166.392C89.3041 166.157 89.9015 166.04 90.5841 166.04C91.5868 166.04 92.3921 166.296 93.0001 166.808C93.6188 167.309 93.9495 167.997 93.9921 168.872H92.1681C92.1361 168.445 91.9761 168.109 91.6881 167.864C91.4001 167.608 91.0108 167.48 90.5201 167.48C90.0401 167.48 89.6721 167.581 89.4161 167.784C89.1601 167.976 89.0321 168.237 89.0321 168.568C89.0321 168.803 89.1175 169 89.2881 169.16C89.4588 169.32 89.6721 169.448 89.9281 169.544C90.1841 169.629 90.5468 169.736 91.0161 169.864C91.6561 170.035 92.1788 170.205 92.5841 170.376C92.9895 170.547 93.3361 170.808 93.6241 171.16C93.9121 171.501 94.0561 171.949 94.0561 172.504C94.0561 173.005 93.9228 173.459 93.6561 173.864C93.3895 174.259 93.0001 174.573 92.4881 174.808C91.9868 175.032 91.3895 175.144 90.6961 175.144ZM104.059 166.184V175H102.235V173.96C101.947 174.323 101.568 174.611 101.099 174.824C100.64 175.027 100.15 175.128 99.627 175.128C98.9337 175.128 98.3097 174.984 97.755 174.696C97.211 174.408 96.779 173.981 96.459 173.416C96.1497 172.851 95.995 172.168 95.995 171.368V166.184H97.803V171.096C97.803 171.885 98.0003 172.493 98.395 172.92C98.7897 173.336 99.3283 173.544 100.011 173.544C100.694 173.544 101.232 173.336 101.627 172.92C102.032 172.493 102.235 171.885 102.235 171.096V166.184H104.059ZM108.29 167.496C108.599 167.069 109.02 166.723 109.554 166.456C110.098 166.179 110.7 166.04 111.362 166.04C112.14 166.04 112.844 166.227 113.474 166.6C114.103 166.973 114.599 167.507 114.962 168.2C115.324 168.883 115.506 169.667 115.506 170.552C115.506 171.437 115.324 172.232 114.962 172.936C114.599 173.629 114.098 174.173 113.458 174.568C112.828 174.952 112.13 175.144 111.362 175.144C110.679 175.144 110.071 175.011 109.538 174.744C109.015 174.477 108.599 174.136 108.29 173.72V175H106.466V163.16H108.29V167.496ZM113.65 170.552C113.65 169.944 113.522 169.421 113.266 168.984C113.02 168.536 112.69 168.2 112.274 167.976C111.868 167.741 111.431 167.624 110.962 167.624C110.503 167.624 110.066 167.741 109.65 167.976C109.244 168.211 108.914 168.552 108.658 169C108.412 169.448 108.29 169.976 108.29 170.584C108.29 171.192 108.412 171.725 108.658 172.184C108.914 172.632 109.244 172.973 109.65 173.208C110.066 173.443 110.503 173.56 110.962 173.56C111.431 173.56 111.868 173.443 112.274 173.208C112.69 172.963 113.02 172.611 113.266 172.152C113.522 171.693 113.65 171.16 113.65 170.552ZM118.237 165.016C117.907 165.016 117.629 164.904 117.405 164.68C117.181 164.456 117.069 164.179 117.069 163.848C117.069 163.517 117.181 163.24 117.405 163.016C117.629 162.792 117.907 162.68 118.237 162.68C118.557 162.68 118.829 162.792 119.053 163.016C119.277 163.24 119.389 163.517 119.389 163.848C119.389 164.179 119.277 164.456 119.053 164.68C118.829 164.904 118.557 165.016 118.237 165.016ZM119.133 176.728C119.133 177.592 118.915 178.216 118.477 178.6C118.051 178.995 117.427 179.192 116.605 179.192H115.661V177.656H116.285C116.659 177.656 116.92 177.581 117.069 177.432C117.229 177.293 117.309 177.059 117.309 176.728V166.184H119.133V176.728ZM129.608 170.344C129.608 170.653 129.587 170.941 129.544 171.208H122.792C122.845 171.944 123.107 172.531 123.576 172.968C124.045 173.395 124.627 173.608 125.32 173.608C126.301 173.608 126.995 173.197 127.4 172.376H129.368C129.101 173.187 128.616 173.853 127.912 174.376C127.219 174.888 126.355 175.144 125.32 175.144C124.477 175.144 123.72 174.957 123.048 174.584C122.387 174.2 121.864 173.667 121.48 172.984C121.107 172.291 120.92 171.491 120.92 170.584C120.92 169.677 121.101 168.883 121.464 168.2C121.837 167.507 122.355 166.973 123.016 166.6C123.688 166.227 124.456 166.04 125.32 166.04C126.152 166.04 126.893 166.221 127.544 166.584C128.195 166.947 128.701 167.453 129.064 168.104C129.427 168.755 129.608 169.501 129.608 170.344ZM127.704 169.896C127.693 169.181 127.453 168.616 126.984 168.2C126.525 167.784 125.944 167.576 125.24 167.576C124.6 167.576 124.051 167.784 123.592 168.2C123.144 168.616 122.883 169.181 122.808 169.896H127.704ZM130.795 170.584C130.795 169.677 130.976 168.883 131.339 168.2C131.712 167.507 132.224 166.973 132.875 166.6C133.526 166.227 134.272 166.04 135.115 166.04C136.182 166.04 137.062 166.296 137.755 166.808C138.459 167.309 138.934 168.029 139.179 168.968H137.211C137.051 168.531 136.795 168.189 136.443 167.944C136.091 167.699 135.648 167.576 135.115 167.576C134.368 167.576 133.771 167.843 133.323 168.376C132.886 168.899 132.667 169.635 132.667 170.584C132.667 171.533 132.886 172.275 133.323 172.808C133.771 173.341 134.368 173.608 135.115 173.608C136.171 173.608 136.87 173.144 137.211 172.216H139.179C138.923 173.112 138.443 173.827 137.739 174.36C137.035 174.883 136.16 175.144 135.115 175.144C134.272 175.144 133.526 174.957 132.875 174.584C132.224 174.2 131.712 173.667 131.339 172.984C130.976 172.291 130.795 171.491 130.795 170.584ZM143.125 167.672V172.552C143.125 172.883 143.2 173.123 143.349 173.272C143.509 173.411 143.776 173.48 144.149 173.48H145.269V175H143.829C143.008 175 142.378 174.808 141.941 174.424C141.504 174.04 141.285 173.416 141.285 172.552V167.672H140.245V166.184H141.285V163.992H143.125V166.184H145.269V167.672H143.125Z" fill="white"/>
</g>
<defs>
<filter id="filter0_d" x="0" y="0" width="332" height="227" filterUnits="userSpaceOnUse" color-interpolation-filters="sRGB">
<feFlood flood-opacity="0" result="BackgroundImageFix"/>
<feColorMatrix in="SourceAlpha" type="matrix" values="0 0 0 0 0 0 0 0 0 0 0 0 0 0 0 0 0 0 127 0" result="hardAlpha"/>
<feOffset dy="4"/>
<feGaussianBlur stdDeviation="2"/>
<feComposite in2="hardAlpha" operator="out"/>
<feColorMatrix type="matrix" values="0 0 0 0 0.7375 0 0 0 0 0.7375 0 0 0 0 0.7375 0 0 0 0.25 0"/>
<feBlend mode="normal" in2="BackgroundImageFix" result="effect1_dropShadow"/>
<feBlend mode="normal" in="SourceGraphic" in2="effect1_dropShadow" result="shape"/>
</filter>
</defs>
</svg>
