<svg width="375" height="113" viewBox="0 0 375 113" fill="none" xmlns="http://www.w3.org/2000/svg">
<rect width="375" height="100" fill="black" fill-opacity="0.8"/>
<path d="M27.72 47.64L24.94 44.86C24.26 45.0467 23.5667 45.14 22.86 45.14C21.5667 45.14 20.3867 44.84 19.32 44.24C18.2533 43.6267 17.4067 42.78 16.78 41.7C16.1667 40.6067 15.86 39.38 15.86 38.02C15.86 36.66 16.1667 35.44 16.78 34.36C17.4067 33.2667 18.2533 32.42 19.32 31.82C20.3867 31.2067 21.5667 30.9 22.86 30.9C24.1667 30.9 25.3533 31.2067 26.42 31.82C27.4867 32.42 28.3267 33.26 28.94 34.34C29.5533 35.42 29.86 36.6467 29.86 38.02C29.86 39.3533 29.5667 40.5533 28.98 41.62C28.3933 42.6867 27.5867 43.5267 26.56 44.14L30.08 47.64H27.72ZM17.72 38.02C17.72 39.1133 17.94 40.0733 18.38 40.9C18.8333 41.7267 19.4467 42.3667 20.22 42.82C21.0067 43.2733 21.8867 43.5 22.86 43.5C23.8333 43.5 24.7067 43.2733 25.48 42.82C26.2667 42.3667 26.88 41.7267 27.32 40.9C27.7733 40.0733 28 39.1133 28 38.02C28 36.9267 27.7733 35.9667 27.32 35.14C26.88 34.3 26.2667 33.66 25.48 33.22C24.7067 32.7667 23.8333 32.54 22.86 32.54C21.8867 32.54 21.0067 32.7667 20.22 33.22C19.4467 33.66 18.8333 34.3 18.38 35.14C17.94 35.9667 17.72 36.9267 17.72 38.02ZM31.5217 32.48V30.82H35.2817V45H33.4417V32.48H31.5217ZM39.288 45.12C38.9413 45.12 38.648 45 38.408 44.76C38.168 44.52 38.048 44.2267 38.048 43.88C38.048 43.5333 38.168 43.24 38.408 43C38.648 42.76 38.9413 42.64 39.288 42.64C39.6213 42.64 39.9013 42.76 40.128 43C40.368 43.24 40.488 43.5333 40.488 43.88C40.488 44.2267 40.368 44.52 40.128 44.76C39.9013 45 39.6213 45.12 39.288 45.12ZM66.3842 31.06L62.3442 45H60.3042L57.0642 33.78L53.7242 45L51.6842 45.02L47.7842 31.06H49.7242L52.7642 42.86L56.1242 31.06H58.1842L61.3642 42.84L64.4242 31.06H66.3842ZM73.8159 33.84C74.6426 33.84 75.3893 34.02 76.0559 34.38C76.7226 34.7267 77.2426 35.2533 77.6159 35.96C78.0026 36.6667 78.1959 37.5267 78.1959 38.54V45H76.3959V38.8C76.3959 37.7067 76.1226 36.8733 75.5759 36.3C75.0293 35.7133 74.2826 35.42 73.3359 35.42C72.3759 35.42 71.6093 35.72 71.0359 36.32C70.4759 36.92 70.1959 37.7933 70.1959 38.94V45H68.3759V30.2H70.1959V35.6C70.5559 35.04 71.0493 34.6067 71.6759 34.3C72.3159 33.9933 73.0293 33.84 73.8159 33.84ZM80.4889 39.48C80.4889 38.36 80.7156 37.38 81.1689 36.54C81.6222 35.6867 82.2422 35.0267 83.0289 34.56C83.8289 34.0933 84.7156 33.86 85.6889 33.86C86.6489 33.86 87.4822 34.0667 88.1889 34.48C88.8956 34.8933 89.4222 35.4133 89.7689 36.04V34.04H91.6089V45H89.7689V42.96C89.4089 43.6 88.8689 44.1333 88.1489 44.56C87.4422 44.9733 86.6156 45.18 85.6689 45.18C84.6956 45.18 83.8156 44.94 83.0289 44.46C82.2422 43.98 81.6222 43.3067 81.1689 42.44C80.7156 41.5733 80.4889 40.5867 80.4889 39.48ZM89.7689 39.5C89.7689 38.6733 89.6022 37.9533 89.2689 37.34C88.9356 36.7267 88.4822 36.26 87.9089 35.94C87.3489 35.6067 86.7289 35.44 86.0489 35.44C85.3689 35.44 84.7489 35.6 84.1889 35.92C83.6289 36.24 83.1822 36.7067 82.8489 37.32C82.5156 37.9333 82.3489 38.6533 82.3489 39.48C82.3489 40.32 82.5156 41.0533 82.8489 41.68C83.1822 42.2933 83.6289 42.7667 84.1889 43.1C84.7489 43.42 85.3689 43.58 86.0489 43.58C86.7289 43.58 87.3489 43.42 87.9089 43.1C88.4822 42.7667 88.9356 42.2933 89.2689 41.68C89.6022 41.0533 89.7689 40.3267 89.7689 39.5ZM96.9045 35.54V42C96.9045 42.5333 97.0179 42.9133 97.2445 43.14C97.4712 43.3533 97.8645 43.46 98.4245 43.46H99.7645V45H98.1245C97.1112 45 96.3512 44.7667 95.8445 44.3C95.3379 43.8333 95.0845 43.0667 95.0845 42V35.54H93.6645V34.04H95.0845V31.28H96.9045V34.04H99.7645V35.54H96.9045ZM108.867 32.26C108.52 32.26 108.227 32.14 107.987 31.9C107.747 31.66 107.627 31.3667 107.627 31.02C107.627 30.6733 107.747 30.38 107.987 30.14C108.227 29.9 108.52 29.78 108.867 29.78C109.2 29.78 109.48 29.9 109.707 30.14C109.947 30.38 110.067 30.6733 110.067 31.02C110.067 31.3667 109.947 31.66 109.707 31.9C109.48 32.14 109.2 32.26 108.867 32.26ZM109.747 34.04V45H107.927V34.04H109.747ZM116.709 45.18C115.869 45.18 115.115 45.04 114.449 44.76C113.795 44.4667 113.275 44.0667 112.889 43.56C112.502 43.04 112.289 42.4467 112.249 41.78H114.129C114.182 42.3533 114.435 42.82 114.889 43.18C115.355 43.54 115.962 43.72 116.709 43.72C117.415 43.72 117.962 43.5667 118.349 43.26C118.749 42.94 118.949 42.5267 118.949 42.02C118.949 41.54 118.735 41.1867 118.309 40.96C117.882 40.72 117.222 40.4867 116.329 40.26C115.515 40.0467 114.855 39.8333 114.349 39.62C113.842 39.4067 113.409 39.0933 113.049 38.68C112.689 38.2533 112.509 37.6933 112.509 37C112.509 36.4267 112.669 35.9 112.989 35.42C113.309 34.94 113.769 34.56 114.369 34.28C114.982 34 115.689 33.86 116.489 33.86C117.702 33.86 118.682 34.1667 119.429 34.78C120.175 35.3933 120.575 36.2333 120.629 37.3H118.809C118.769 36.7 118.535 36.22 118.109 35.86C117.695 35.5 117.135 35.32 116.429 35.32C115.762 35.32 115.235 35.4667 114.849 35.76C114.475 36.0533 114.289 36.44 114.289 36.92C114.289 37.2933 114.409 37.6 114.649 37.84C114.889 38.0667 115.182 38.2467 115.529 38.38C115.875 38.5 116.369 38.6533 117.009 38.84C117.809 39.0533 118.449 39.2667 118.929 39.48C119.409 39.68 119.822 39.98 120.169 40.38C120.515 40.78 120.689 41.3133 120.689 41.98C120.689 42.5933 120.522 43.14 120.189 43.62C119.869 44.1 119.409 44.48 118.809 44.76C118.209 45.04 117.509 45.18 116.709 45.18ZM131.475 35.54V42C131.475 42.5333 131.588 42.9133 131.815 43.14C132.042 43.3533 132.435 43.46 132.995 43.46H134.335V45H132.695C131.682 45 130.922 44.7667 130.415 44.3C129.908 43.8333 129.655 43.0667 129.655 42V35.54H128.235V34.04H129.655V31.28H131.475V34.04H134.335V35.54H131.475ZM141.98 33.84C142.807 33.84 143.553 34.02 144.22 34.38C144.887 34.7267 145.407 35.2533 145.78 35.96C146.167 36.6667 146.36 37.5267 146.36 38.54V45H144.56V38.8C144.56 37.7067 144.287 36.8733 143.74 36.3C143.193 35.7133 142.447 35.42 141.5 35.42C140.54 35.42 139.773 35.72 139.2 36.32C138.64 36.92 138.36 37.7933 138.36 38.94V45H136.54V30.2H138.36V35.6C138.72 35.04 139.213 34.6067 139.84 34.3C140.48 33.9933 141.193 33.84 141.98 33.84ZM159.333 39.06C159.333 39.3933 159.313 39.7533 159.273 40.14H150.513C150.566 41.22 150.926 42.0733 151.593 42.7C152.273 43.3267 153.1 43.64 154.073 43.64C154.86 43.64 155.513 43.46 156.033 43.1C156.566 42.7267 156.94 42.2333 157.153 41.62H159.113C158.82 42.6733 158.233 43.5333 157.353 44.2C156.473 44.8533 155.38 45.18 154.073 45.18C153.033 45.18 152.1 44.9467 151.273 44.48C150.46 44.0133 149.82 43.3533 149.353 42.5C148.886 41.6333 148.653 40.6333 148.653 39.5C148.653 38.3667 148.88 37.3733 149.333 36.52C149.786 35.6667 150.42 35.0133 151.233 34.56C152.06 34.0933 153.006 33.86 154.073 33.86C155.113 33.86 156.026 34.0867 156.813 34.54C157.613 34.9933 158.233 35.6133 158.673 36.4C159.113 37.1867 159.333 38.0733 159.333 39.06ZM157.453 38.82C157.453 38.1 157.3 37.4867 156.993 36.98C156.686 36.46 156.266 36.0667 155.733 35.8C155.213 35.5333 154.633 35.4 153.993 35.4C153.06 35.4 152.266 35.7067 151.613 36.32C150.96 36.92 150.6 37.7533 150.533 38.82H157.453ZM169.512 36.06C169.872 35.4333 170.406 34.9133 171.112 34.5C171.832 34.0733 172.666 33.86 173.612 33.86C174.586 33.86 175.466 34.0933 176.252 34.56C177.052 35.0267 177.679 35.6867 178.132 36.54C178.586 37.38 178.812 38.36 178.812 39.48C178.812 40.5867 178.586 41.5733 178.132 42.44C177.679 43.3067 177.052 43.98 176.252 44.46C175.466 44.94 174.586 45.18 173.612 45.18C172.679 45.18 171.852 44.9733 171.132 44.56C170.426 44.1333 169.886 43.6067 169.512 42.98V50.2H167.692V34.04H169.512V36.06ZM176.952 39.48C176.952 38.6533 176.786 37.9333 176.452 37.32C176.119 36.7067 175.666 36.24 175.092 35.92C174.532 35.6 173.912 35.44 173.232 35.44C172.566 35.44 171.946 35.6067 171.372 35.94C170.812 36.26 170.359 36.7333 170.012 37.36C169.679 37.9733 169.512 38.6867 169.512 39.5C169.512 40.3267 169.679 41.0533 170.012 41.68C170.359 42.2933 170.812 42.7667 171.372 43.1C171.946 43.42 172.566 43.58 173.232 43.58C173.912 43.58 174.532 43.42 175.092 43.1C175.666 42.7667 176.119 42.2933 176.452 41.68C176.786 41.0533 176.952 40.32 176.952 39.48ZM191.208 39.06C191.208 39.3933 191.188 39.7533 191.148 40.14H182.388C182.441 41.22 182.801 42.0733 183.468 42.7C184.148 43.3267 184.975 43.64 185.948 43.64C186.735 43.64 187.388 43.46 187.908 43.1C188.441 42.7267 188.815 42.2333 189.028 41.62H190.988C190.695 42.6733 190.108 43.5333 189.228 44.2C188.348 44.8533 187.255 45.18 185.948 45.18C184.908 45.18 183.975 44.9467 183.148 44.48C182.335 44.0133 181.695 43.3533 181.228 42.5C180.761 41.6333 180.528 40.6333 180.528 39.5C180.528 38.3667 180.755 37.3733 181.208 36.52C181.661 35.6667 182.295 35.0133 183.108 34.56C183.935 34.0933 184.881 33.86 185.948 33.86C186.988 33.86 187.901 34.0867 188.688 34.54C189.488 34.9933 190.108 35.6133 190.548 36.4C190.988 37.1867 191.208 38.0733 191.208 39.06ZM189.328 38.82C189.328 38.1 189.175 37.4867 188.868 36.98C188.561 36.46 188.141 36.0667 187.608 35.8C187.088 35.5333 186.508 35.4 185.868 35.4C184.935 35.4 184.141 35.7067 183.488 36.32C182.835 36.92 182.475 37.7533 182.408 38.82H189.328ZM195.43 36.12C195.75 35.4 196.204 34.84 196.79 34.44C197.39 34.04 198.117 33.84 198.97 33.84V35.72H198.49C196.45 35.72 195.43 36.8267 195.43 39.04V45H193.61V34.04H195.43V36.12ZM202.011 32.26C201.665 32.26 201.371 32.14 201.131 31.9C200.891 31.66 200.771 31.3667 200.771 31.02C200.771 30.6733 200.891 30.38 201.131 30.14C201.371 29.9 201.665 29.78 202.011 29.78C202.345 29.78 202.625 29.9 202.851 30.14C203.091 30.38 203.211 30.6733 203.211 31.02C203.211 31.3667 203.091 31.66 202.851 31.9C202.625 32.14 202.345 32.26 202.011 32.26ZM202.891 34.04V45H201.071V34.04H202.891ZM210.773 45.18C209.746 45.18 208.813 44.9467 207.973 44.48C207.146 44.0133 206.493 43.3533 206.013 42.5C205.546 41.6333 205.313 40.6333 205.313 39.5C205.313 38.38 205.553 37.3933 206.033 36.54C206.526 35.6733 207.193 35.0133 208.033 34.56C208.873 34.0933 209.813 33.86 210.853 33.86C211.893 33.86 212.833 34.0933 213.673 34.56C214.513 35.0133 215.173 35.6667 215.653 36.52C216.146 37.3733 216.393 38.3667 216.393 39.5C216.393 40.6333 216.14 41.6333 215.633 42.5C215.14 43.3533 214.466 44.0133 213.613 44.48C212.76 44.9467 211.813 45.18 210.773 45.18ZM210.773 43.64C211.426 43.64 212.04 43.4867 212.613 43.18C213.186 42.86 213.646 42.3867 213.993 41.76C214.353 41.1333 214.533 40.38 214.533 39.5C214.533 38.62 214.36 37.8733 214.013 37.26C213.666 36.6333 213.213 36.1667 212.653 35.86C212.093 35.5533 211.486 35.4 210.833 35.4C210.166 35.4 209.553 35.5533 208.993 35.86C208.446 36.1667 208.006 36.6333 207.673 37.26C207.34 37.8733 207.173 38.62 207.173 39.5C207.173 40.3933 207.333 41.1533 207.653 41.78C207.986 42.3933 208.426 42.86 208.973 43.18C209.52 43.4867 210.12 43.64 210.773 43.64ZM218.106 39.48C218.106 38.36 218.333 37.38 218.786 36.54C219.239 35.6867 219.859 35.0267 220.646 34.56C221.446 34.0933 222.339 33.86 223.326 33.86C224.179 33.86 224.973 34.06 225.706 34.46C226.439 34.8467 226.999 35.36 227.386 36V30.2H229.226V45H227.386V42.94C227.026 43.5933 226.493 44.1333 225.786 44.56C225.079 44.9733 224.253 45.18 223.306 45.18C222.333 45.18 221.446 44.94 220.646 44.46C219.859 43.98 219.239 43.3067 218.786 42.44C218.333 41.5733 218.106 40.5867 218.106 39.48ZM227.386 39.5C227.386 38.6733 227.219 37.9533 226.886 37.34C226.553 36.7267 226.099 36.26 225.526 35.94C224.966 35.6067 224.346 35.44 223.666 35.44C222.986 35.44 222.366 35.6 221.806 35.92C221.246 36.24 220.799 36.7067 220.466 37.32C220.133 37.9333 219.966 38.6533 219.966 39.48C219.966 40.32 220.133 41.0533 220.466 41.68C220.799 42.2933 221.246 42.7667 221.806 43.1C222.366 43.42 222.986 43.58 223.666 43.58C224.346 43.58 224.966 43.42 225.526 43.1C226.099 42.7667 226.553 42.2933 226.886 41.68C227.219 41.0533 227.386 40.3267 227.386 39.5ZM243.039 45.18C242.012 45.18 241.079 44.9467 240.239 44.48C239.412 44.0133 238.759 43.3533 238.279 42.5C237.812 41.6333 237.579 40.6333 237.579 39.5C237.579 38.38 237.819 37.3933 238.299 36.54C238.792 35.6733 239.459 35.0133 240.299 34.56C241.139 34.0933 242.079 33.86 243.119 33.86C244.159 33.86 245.099 34.0933 245.939 34.56C246.779 35.0133 247.439 35.6667 247.919 36.52C248.412 37.3733 248.659 38.3667 248.659 39.5C248.659 40.6333 248.405 41.6333 247.899 42.5C247.405 43.3533 246.732 44.0133 245.879 44.48C245.025 44.9467 244.079 45.18 243.039 45.18ZM243.039 43.64C243.692 43.64 244.305 43.4867 244.879 43.18C245.452 42.86 245.912 42.3867 246.259 41.76C246.619 41.1333 246.799 40.38 246.799 39.5C246.799 38.62 246.625 37.8733 246.279 37.26C245.932 36.6333 245.479 36.1667 244.919 35.86C244.359 35.5533 243.752 35.4 243.099 35.4C242.432 35.4 241.819 35.5533 241.259 35.86C240.712 36.1667 240.272 36.6333 239.939 37.26C239.605 37.8733 239.439 38.62 239.439 39.5C239.439 40.3933 239.599 41.1533 239.919 41.78C240.252 42.3933 240.692 42.86 241.239 43.18C241.785 43.4867 242.385 43.64 243.039 43.64ZM255.512 35.54H253.212V45H251.392V35.54H249.972V34.04H251.392V33.26C251.392 32.0333 251.705 31.14 252.332 30.58C252.972 30.0067 253.992 29.72 255.392 29.72V31.24C254.592 31.24 254.025 31.4 253.692 31.72C253.372 32.0267 253.212 32.54 253.212 33.26V34.04H255.512V35.54ZM265.811 35.54V42C265.811 42.5333 265.924 42.9133 266.151 43.14C266.377 43.3533 266.771 43.46 267.331 43.46H268.671V45H267.031C266.017 45 265.257 44.7667 264.751 44.3C264.244 43.8333 263.991 43.0667 263.991 42V35.54H262.571V34.04H263.991V31.28H265.811V34.04H268.671V35.54H265.811ZM276.316 33.84C277.143 33.84 277.889 34.02 278.556 34.38C279.223 34.7267 279.743 35.2533 280.116 35.96C280.503 36.6667 280.696 37.5267 280.696 38.54V45H278.896V38.8C278.896 37.7067 278.623 36.8733 278.076 36.3C277.529 35.7133 276.783 35.42 275.836 35.42C274.876 35.42 274.109 35.72 273.536 36.32C272.976 36.92 272.696 37.7933 272.696 38.94V45H270.876V30.2H272.696V35.6C273.056 35.04 273.549 34.6067 274.176 34.3C274.816 33.9933 275.529 33.84 276.316 33.84ZM293.669 39.06C293.669 39.3933 293.649 39.7533 293.609 40.14H284.849C284.902 41.22 285.262 42.0733 285.929 42.7C286.609 43.3267 287.436 43.64 288.409 43.64C289.196 43.64 289.849 43.46 290.369 43.1C290.902 42.7267 291.276 42.2333 291.489 41.62H293.449C293.156 42.6733 292.569 43.5333 291.689 44.2C290.809 44.8533 289.716 45.18 288.409 45.18C287.369 45.18 286.436 44.9467 285.609 44.48C284.796 44.0133 284.156 43.3533 283.689 42.5C283.222 41.6333 282.989 40.6333 282.989 39.5C282.989 38.3667 283.216 37.3733 283.669 36.52C284.122 35.6667 284.756 35.0133 285.569 34.56C286.396 34.0933 287.342 33.86 288.409 33.86C289.449 33.86 290.362 34.0867 291.149 34.54C291.949 34.9933 292.569 35.6133 293.009 36.4C293.449 37.1867 293.669 38.0733 293.669 39.06ZM291.789 38.82C291.789 38.1 291.636 37.4867 291.329 36.98C291.022 36.46 290.602 36.0667 290.069 35.8C289.549 35.5333 288.969 35.4 288.329 35.4C287.396 35.4 286.602 35.7067 285.949 36.32C285.296 36.92 284.936 37.7533 284.869 38.82H291.789ZM18.36 66.06C18.72 65.4333 19.2533 64.9133 19.96 64.5C20.68 64.0733 21.5133 63.86 22.46 63.86C23.4333 63.86 24.3133 64.0933 25.1 64.56C25.9 65.0267 26.5267 65.6867 26.98 66.54C27.4333 67.38 27.66 68.36 27.66 69.48C27.66 70.5867 27.4333 71.5733 26.98 72.44C26.5267 73.3067 25.9 73.98 25.1 74.46C24.3133 74.94 23.4333 75.18 22.46 75.18C21.5267 75.18 20.7 74.9733 19.98 74.56C19.2733 74.1333 18.7333 73.6067 18.36 72.98V80.2H16.54V64.04H18.36V66.06ZM25.8 69.48C25.8 68.6533 25.6333 67.9333 25.3 67.32C24.9667 66.7067 24.5133 66.24 23.94 65.92C23.38 65.6 22.76 65.44 22.08 65.44C21.4133 65.44 20.7933 65.6067 20.22 65.94C19.66 66.26 19.2067 66.7333 18.86 67.36C18.5267 67.9733 18.36 68.6867 18.36 69.5C18.36 70.3267 18.5267 71.0533 18.86 71.68C19.2067 72.2933 19.66 72.7667 20.22 73.1C20.7933 73.42 21.4133 73.58 22.08 73.58C22.76 73.58 23.38 73.42 23.94 73.1C24.5133 72.7667 24.9667 72.2933 25.3 71.68C25.6333 71.0533 25.8 70.32 25.8 69.48ZM40.0556 69.06C40.0556 69.3933 40.0356 69.7533 39.9956 70.14H31.2356C31.289 71.22 31.649 72.0733 32.3156 72.7C32.9956 73.3267 33.8223 73.64 34.7956 73.64C35.5823 73.64 36.2356 73.46 36.7556 73.1C37.289 72.7267 37.6623 72.2333 37.8756 71.62H39.8356C39.5423 72.6733 38.9556 73.5333 38.0756 74.2C37.1956 74.8533 36.1023 75.18 34.7956 75.18C33.7556 75.18 32.8223 74.9467 31.9956 74.48C31.1823 74.0133 30.5423 73.3533 30.0756 72.5C29.609 71.6333 29.3756 70.6333 29.3756 69.5C29.3756 68.3667 29.6023 67.3733 30.0556 66.52C30.509 65.6667 31.1423 65.0133 31.9556 64.56C32.7823 64.0933 33.729 63.86 34.7956 63.86C35.8356 63.86 36.749 64.0867 37.5356 64.54C38.3356 64.9933 38.9556 65.6133 39.3956 66.4C39.8356 67.1867 40.0556 68.0733 40.0556 69.06ZM38.1756 68.82C38.1756 68.1 38.0223 67.4867 37.7156 66.98C37.409 66.46 36.989 66.0667 36.4556 65.8C35.9356 65.5333 35.3556 65.4 34.7156 65.4C33.7823 65.4 32.989 65.7067 32.3356 66.32C31.6823 66.92 31.3223 67.7533 31.2556 68.82H38.1756ZM47.798 63.84C49.1313 63.84 50.2113 64.2467 51.038 65.06C51.8646 65.86 52.278 67.02 52.278 68.54V75H50.478V68.8C50.478 67.7067 50.2046 66.8733 49.658 66.3C49.1113 65.7133 48.3646 65.42 47.418 65.42C46.458 65.42 45.6913 65.72 45.118 66.32C44.558 66.92 44.278 67.7933 44.278 68.94V75H42.458V64.04H44.278V65.6C44.638 65.04 45.1246 64.6067 45.738 64.3C46.3646 63.9933 47.0513 63.84 47.798 63.84ZM54.5709 69.48C54.5709 68.36 54.7976 67.38 55.2509 66.54C55.7043 65.6867 56.3243 65.0267 57.1109 64.56C57.9109 64.0933 58.8043 63.86 59.7909 63.86C60.6443 63.86 61.4376 64.06 62.1709 64.46C62.9043 64.8467 63.4643 65.36 63.8509 66V60.2H65.6909V75H63.8509V72.94C63.4909 73.5933 62.9576 74.1333 62.2509 74.56C61.5443 74.9733 60.7176 75.18 59.7709 75.18C58.7976 75.18 57.9109 74.94 57.1109 74.46C56.3243 73.98 55.7043 73.3067 55.2509 72.44C54.7976 71.5733 54.5709 70.5867 54.5709 69.48ZM63.8509 69.5C63.8509 68.6733 63.6843 67.9533 63.3509 67.34C63.0176 66.7267 62.5643 66.26 61.9909 65.94C61.4309 65.6067 60.8109 65.44 60.1309 65.44C59.4509 65.44 58.8309 65.6 58.2709 65.92C57.7109 66.24 57.2643 66.7067 56.9309 67.32C56.5976 67.9333 56.4309 68.6533 56.4309 69.48C56.4309 70.32 56.5976 71.0533 56.9309 71.68C57.2643 72.2933 57.7109 72.7667 58.2709 73.1C58.8309 73.42 59.4509 73.58 60.1309 73.58C60.8109 73.58 61.4309 73.42 61.9909 73.1C62.5643 72.7667 63.0176 72.2933 63.3509 71.68C63.6843 71.0533 63.8509 70.3267 63.8509 69.5ZM78.4866 64.04V75H76.6666V73.38C76.3199 73.94 75.8332 74.38 75.2066 74.7C74.5932 75.0067 73.9132 75.16 73.1666 75.16C72.3132 75.16 71.5466 74.9867 70.8666 74.64C70.1866 74.28 69.6466 73.7467 69.2466 73.04C68.8599 72.3333 68.6666 71.4733 68.6666 70.46V64.04H70.4666V70.22C70.4666 71.3 70.7399 72.1333 71.2866 72.72C71.8332 73.2933 72.5799 73.58 73.5266 73.58C74.4999 73.58 75.2666 73.28 75.8266 72.68C76.3866 72.08 76.6666 71.2067 76.6666 70.06V64.04H78.4866ZM83.3795 60.2V75H81.5595V60.2H83.3795ZM96.2014 64.04V75H94.3814V73.38C94.0347 73.94 93.5481 74.38 92.9214 74.7C92.3081 75.0067 91.6281 75.16 90.8814 75.16C90.0281 75.16 89.2614 74.9867 88.5814 74.64C87.9014 74.28 87.3614 73.7467 86.9614 73.04C86.5747 72.3333 86.3814 71.4733 86.3814 70.46V64.04H88.1814V70.22C88.1814 71.3 88.4547 72.1333 89.0014 72.72C89.5481 73.2933 90.2947 73.58 91.2414 73.58C92.2147 73.58 92.9814 73.28 93.5414 72.68C94.1014 72.08 94.3814 71.2067 94.3814 70.06V64.04H96.2014ZM112.454 63.84C113.308 63.84 114.068 64.02 114.734 64.38C115.401 64.7267 115.928 65.2533 116.314 65.96C116.701 66.6667 116.894 67.5267 116.894 68.54V75H115.094V68.8C115.094 67.7067 114.821 66.8733 114.274 66.3C113.741 65.7133 113.014 65.42 112.094 65.42C111.148 65.42 110.394 65.7267 109.834 66.34C109.274 66.94 108.994 67.8133 108.994 68.96V75H107.194V68.8C107.194 67.7067 106.921 66.8733 106.374 66.3C105.841 65.7133 105.114 65.42 104.194 65.42C103.248 65.42 102.494 65.7267 101.934 66.34C101.374 66.94 101.094 67.8133 101.094 68.96V75H99.2744V64.04H101.094V65.62C101.454 65.0467 101.934 64.6067 102.534 64.3C103.148 63.9933 103.821 63.84 104.554 63.84C105.474 63.84 106.288 64.0467 106.994 64.46C107.701 64.8733 108.228 65.48 108.574 66.28C108.881 65.5067 109.388 64.9067 110.094 64.48C110.801 64.0533 111.588 63.84 112.454 63.84ZM123.44 60.88C124.76 60.88 125.827 61.2533 126.64 62C127.453 62.7467 127.86 63.7467 127.86 65C127.86 66.4 127.427 67.44 126.56 68.12C125.693 68.7867 124.52 69.12 123.04 69.12L122.98 71.02H121.4L121.32 67.86H121.9C123.22 67.86 124.253 67.66 125 67.26C125.747 66.86 126.12 66.1067 126.12 65C126.12 64.2 125.88 63.5667 125.4 63.1C124.92 62.6333 124.273 62.4 123.46 62.4C122.633 62.4 121.98 62.6267 121.5 63.08C121.033 63.52 120.8 64.1267 120.8 64.9H119.08C119.08 64.1 119.26 63.4 119.62 62.8C119.98 62.1867 120.487 61.7133 121.14 61.38C121.807 61.0467 122.573 60.88 123.44 60.88ZM122.18 75.12C121.833 75.12 121.54 75 121.3 74.76C121.06 74.52 120.94 74.2267 120.94 73.88C120.94 73.5333 121.06 73.24 121.3 73C121.54 72.76 121.833 72.64 122.18 72.64C122.513 72.64 122.793 72.76 123.02 73C123.26 73.24 123.38 73.5333 123.38 73.88C123.38 74.2267 123.26 74.52 123.02 74.76C122.793 75 122.513 75.12 122.18 75.12Z" fill="white"/>
</svg>
