<svg width="332" height="79" viewBox="0 0 332 79" fill="none" xmlns="http://www.w3.org/2000/svg">
<g filter="url(#filter0_d)">
<rect x="4" width="324" height="219" rx="20" fill="white"/>
<path d="M38.516 51.004C39.5613 51.1907 40.448 51.7413 41.176 52.656C41.904 53.5707 42.268 54.6067 42.268 55.764C42.268 56.7533 42.0067 57.6493 41.484 58.452C40.98 59.236 40.2427 59.8613 39.272 60.328C38.3013 60.776 37.172 61 35.884 61H28.1V41.54H35.52C36.8453 41.54 37.984 41.764 38.936 42.212C39.888 42.66 40.6067 43.2667 41.092 44.032C41.5773 44.7787 41.82 45.6187 41.82 46.552C41.82 47.672 41.5213 48.6053 40.924 49.352C40.3267 50.0987 39.524 50.6493 38.516 51.004ZM31.292 49.8H35.24C36.2853 49.8 37.0973 49.548 37.676 49.044C38.2733 48.54 38.572 47.84 38.572 46.944C38.572 46.0293 38.2733 45.32 37.676 44.816C37.0973 44.2933 36.2853 44.032 35.24 44.032H31.292V49.8ZM35.604 58.508C36.6867 58.508 37.536 58.2373 38.152 57.696C38.768 57.1547 39.076 56.3987 39.076 55.428C39.076 54.476 38.7493 53.72 38.096 53.16C37.4427 52.5813 36.5747 52.292 35.492 52.292H31.292V58.508H35.604ZM48.9287 41.54V61H45.7367V41.54H48.9287ZM61.9955 61.196C60.1849 61.196 58.5142 60.776 56.9835 59.936C55.4715 59.0773 54.2675 57.892 53.3715 56.38C52.4942 54.8493 52.0555 53.132 52.0555 51.228C52.0555 49.324 52.4942 47.616 53.3715 46.104C54.2675 44.592 55.4715 43.416 56.9835 42.576C58.5142 41.7173 60.1849 41.288 61.9955 41.288C63.8249 41.288 65.4955 41.7173 67.0075 42.576C68.5382 43.416 69.7422 44.592 70.6195 46.104C71.4969 47.616 71.9355 49.324 71.9355 51.228C71.9355 53.132 71.4969 54.8493 70.6195 56.38C69.7422 57.892 68.5382 59.0773 67.0075 59.936C65.4955 60.776 63.8249 61.196 61.9955 61.196ZM61.9955 58.312C63.2835 58.312 64.4315 58.0227 65.4395 57.444C66.4475 56.8467 67.2315 56.016 67.7915 54.952C68.3702 53.8693 68.6595 52.628 68.6595 51.228C68.6595 49.828 68.3702 48.596 67.7915 47.532C67.2315 46.468 66.4475 45.6467 65.4395 45.068C64.4315 44.4893 63.2835 44.2 61.9955 44.2C60.7075 44.2 59.5595 44.4893 58.5515 45.068C57.5435 45.6467 56.7502 46.468 56.1715 47.532C55.6115 48.596 55.3315 49.828 55.3315 51.228C55.3315 52.628 55.6115 53.8693 56.1715 54.952C56.7502 56.016 57.5435 56.8467 58.5515 57.444C59.5595 58.0227 60.7075 58.312 61.9955 58.312ZM74.6006 45.628C74.7126 43.892 75.3752 42.5387 76.5886 41.568C77.8206 40.5973 79.3886 40.112 81.2926 40.112C82.5992 40.112 83.7286 40.3453 84.6806 40.812C85.6326 41.2787 86.3512 41.9133 86.8366 42.716C87.3219 43.5187 87.5646 44.424 87.5646 45.432C87.5646 46.5893 87.2566 47.5787 86.6406 48.4C86.0246 49.2213 85.2872 49.772 84.4286 50.052V50.164C85.5299 50.5 86.3886 51.116 87.0046 52.012C87.6206 52.8893 87.9286 54.0187 87.9286 55.4C87.9286 56.5013 87.6766 57.4813 87.1726 58.34C86.6686 59.1987 85.9219 59.88 84.9326 60.384C83.9432 60.8693 82.7579 61.112 81.3766 61.112C79.3606 61.112 77.6992 60.5987 76.3926 59.572C75.1046 58.5267 74.4139 57.0333 74.3206 55.092H77.4006C77.4752 56.0813 77.8579 56.8933 78.5486 57.528C79.2392 58.144 80.1726 58.452 81.3486 58.452C82.4872 58.452 83.3646 58.144 83.9806 57.528C84.5966 56.8933 84.9046 56.0813 84.9046 55.092C84.9046 53.7853 84.4846 52.8613 83.6446 52.32C82.8232 51.76 81.5539 51.48 79.8366 51.48H79.1086V48.848H79.8646C81.3766 48.8293 82.5246 48.5773 83.3086 48.092C84.1112 47.6067 84.5126 46.8413 84.5126 45.796C84.5126 44.9 84.2232 44.1907 83.6446 43.668C83.0659 43.1267 82.2446 42.856 81.1806 42.856C80.1352 42.856 79.3232 43.1267 78.7446 43.668C78.1659 44.1907 77.8206 44.844 77.7086 45.628H74.6006ZM98.5616 40.588C95.8922 40.588 94.0069 41.4933 92.9056 43.304C91.8229 45.1147 91.2816 47.5973 91.2816 50.752C91.2816 53.9253 91.8229 56.4173 92.9056 58.228C94.0069 60.0387 95.8922 60.944 98.5616 60.944C101.231 60.944 103.107 60.0387 104.19 58.228C105.291 56.4173 105.842 53.9253 105.842 50.752C105.842 47.5973 105.291 45.1147 104.19 43.304C103.107 41.4933 101.231 40.588 98.5616 40.588ZM98.5616 43.5C99.7376 43.5 100.624 43.8267 101.222 44.48C101.819 45.1333 102.211 45.9733 102.398 47C102.603 48.0267 102.706 49.2773 102.706 50.752C102.706 52.2453 102.603 53.5053 102.398 54.532C102.211 55.5587 101.819 56.3987 101.222 57.052C100.624 57.7053 99.7376 58.032 98.5616 58.032C97.3856 58.032 96.4989 57.7053 95.9016 57.052C95.3042 56.3987 94.9029 55.5587 94.6976 54.532C94.5109 53.5053 94.4176 52.2453 94.4176 50.752C94.4176 49.2773 94.5109 48.0267 94.6976 47C94.9029 45.9733 95.3042 45.1333 95.9016 44.48C96.4989 43.8267 97.3856 43.5 98.5616 43.5ZM116.499 40.588C113.83 40.588 111.944 41.4933 110.843 43.304C109.76 45.1147 109.219 47.5973 109.219 50.752C109.219 53.9253 109.76 56.4173 110.843 58.228C111.944 60.0387 113.83 60.944 116.499 60.944C119.168 60.944 121.044 60.0387 122.127 58.228C123.228 56.4173 123.779 53.9253 123.779 50.752C123.779 47.5973 123.228 45.1147 122.127 43.304C121.044 41.4933 119.168 40.588 116.499 40.588ZM116.499 43.5C117.675 43.5 118.562 43.8267 119.159 44.48C119.756 45.1333 120.148 45.9733 120.335 47C120.54 48.0267 120.643 49.2773 120.643 50.752C120.643 52.2453 120.54 53.5053 120.335 54.532C120.148 55.5587 119.756 56.3987 119.159 57.052C118.562 57.7053 117.675 58.032 116.499 58.032C115.323 58.032 114.436 57.7053 113.839 57.052C113.242 56.3987 112.84 55.5587 112.635 54.532C112.448 53.5053 112.355 52.2453 112.355 50.752C112.355 49.2773 112.448 48.0267 112.635 47C112.84 45.9733 113.242 45.1333 113.839 44.48C114.436 43.8267 115.323 43.5 116.499 43.5ZM126.737 44.032V41.12H132.561V61H129.341V44.032H126.737ZM150.106 43.332H140.726V48.904C141.118 48.3813 141.696 47.9427 142.462 47.588C143.246 47.2333 144.076 47.056 144.954 47.056C146.522 47.056 147.791 47.392 148.762 48.064C149.751 48.736 150.451 49.5853 150.862 50.612C151.291 51.6387 151.506 52.7213 151.506 53.86C151.506 55.2413 151.235 56.4733 150.694 57.556C150.171 58.62 149.378 59.46 148.314 60.076C147.268 60.692 145.98 61 144.45 61C142.415 61 140.782 60.496 139.55 59.488C138.318 58.48 137.58 57.1453 137.338 55.484H140.446C140.651 56.3613 141.108 57.0613 141.818 57.584C142.527 58.088 143.414 58.34 144.478 58.34C145.803 58.34 146.792 57.9387 147.446 57.136C148.118 56.3333 148.454 55.2693 148.454 53.944C148.454 52.6 148.118 51.5733 147.446 50.864C146.774 50.136 145.784 49.772 144.478 49.772C143.563 49.772 142.788 50.0053 142.154 50.472C141.538 50.92 141.09 51.536 140.81 52.32H137.786V40.532H150.106V43.332Z" fill="#333333"/>
</g>
<defs>
<filter id="filter0_d" x="0" y="0" width="332" height="227" filterUnits="userSpaceOnUse" color-interpolation-filters="sRGB">
<feFlood flood-opacity="0" result="BackgroundImageFix"/>
<feColorMatrix in="SourceAlpha" type="matrix" values="0 0 0 0 0 0 0 0 0 0 0 0 0 0 0 0 0 0 127 0" result="hardAlpha"/>
<feOffset dy="4"/>
<feGaussianBlur stdDeviation="2"/>
<feComposite in2="hardAlpha" operator="out"/>
<feColorMatrix type="matrix" values="0 0 0 0 0.7375 0 0 0 0 0.7375 0 0 0 0 0.7375 0 0 0 0.25 0"/>
<feBlend mode="normal" in2="BackgroundImageFix" result="effect1_dropShadow"/>
<feBlend mode="normal" in="SourceGraphic" in2="effect1_dropShadow" result="shape"/>
</filter>
</defs>
</svg>
