<svg width="137" height="38" viewBox="0 0 137 38" fill="none" xmlns="http://www.w3.org/2000/svg">
<ellipse cx="18.5" cy="19" rx="18.5" ry="19" fill="white"/>
<path d="M9.88 22.16H4.06L3.06 25H0.68L5.66 11.08H8.3L13.28 25H10.88L9.88 22.16ZM9.26 20.38L6.98 13.84L4.68 20.38H9.26ZM22.6653 25L19.4653 19.44H17.7253V25H15.4453V11.1H20.2453C21.312 11.1 22.212 11.2867 22.9453 11.66C23.692 12.0333 24.2453 12.5333 24.6053 13.16C24.9786 13.7867 25.1653 14.4867 25.1653 15.26C25.1653 16.1667 24.8986 16.9933 24.3653 17.74C23.8453 18.4733 23.0386 18.9733 21.9453 19.24L25.3853 25H22.6653ZM17.7253 17.64H20.2453C21.0986 17.64 21.7386 17.4267 22.1653 17C22.6053 16.5733 22.8253 15.9933 22.8253 15.26C22.8253 14.5133 22.612 13.9333 22.1853 13.52C21.7586 13.0933 21.112 12.88 20.2453 12.88H17.7253V17.64ZM32.802 19.42L36.362 25H33.782L31.402 21.26L29.162 25H26.782L30.342 19.58L26.782 13.98H29.362L31.742 17.72L33.982 13.98H36.362L32.802 19.42Z" fill="black"/>
<path d="M40.3425 15.6C40.7292 15.0933 41.2558 14.6667 41.9225 14.32C42.5892 13.9733 43.3425 13.8 44.1825 13.8C45.1425 13.8 46.0158 14.04 46.8025 14.52C47.6025 14.9867 48.2292 15.6467 48.6825 16.5C49.1358 17.3533 49.3625 18.3333 49.3625 19.44C49.3625 20.5467 49.1358 21.54 48.6825 22.42C48.2292 23.2867 47.6025 23.9667 46.8025 24.46C46.0158 24.94 45.1425 25.18 44.1825 25.18C43.3425 25.18 42.5958 25.0133 41.9425 24.68C41.2892 24.3333 40.7558 23.9067 40.3425 23.4V30.24H38.0625V13.98H40.3425V15.6ZM47.0425 19.44C47.0425 18.68 46.8825 18.0267 46.5625 17.48C46.2558 16.92 45.8425 16.5 45.3225 16.22C44.8158 15.9267 44.2692 15.78 43.6825 15.78C43.1092 15.78 42.5625 15.9267 42.0425 16.22C41.5358 16.5133 41.1225 16.94 40.8025 17.5C40.4958 18.06 40.3425 18.72 40.3425 19.48C40.3425 20.24 40.4958 20.9067 40.8025 21.48C41.1225 22.04 41.5358 22.4667 42.0425 22.76C42.5625 23.0533 43.1092 23.2 43.6825 23.2C44.2692 23.2 44.8158 23.0533 45.3225 22.76C45.8425 22.4533 46.2558 22.0133 46.5625 21.44C46.8825 20.8667 47.0425 20.2 47.0425 19.44ZM61.7172 19.18C61.7172 19.5667 61.6905 19.9267 61.6372 20.26H53.1972C53.2639 21.18 53.5905 21.9133 54.1772 22.46C54.7639 22.9933 55.4905 23.26 56.3572 23.26C57.5839 23.26 58.4505 22.7467 58.9572 21.72H61.4172C61.0839 22.7333 60.4772 23.5667 59.5972 24.22C58.7305 24.86 57.6505 25.18 56.3572 25.18C55.3039 25.18 54.3572 24.9467 53.5172 24.48C52.6905 24 52.0372 23.3333 51.5572 22.48C51.0905 21.6133 50.8572 20.6133 50.8572 19.48C50.8572 18.3467 51.0839 17.3533 51.5372 16.5C52.0039 15.6333 52.6505 14.9667 53.4772 14.5C54.3172 14.0333 55.2772 13.8 56.3572 13.8C57.3972 13.8 58.3239 14.0267 59.1372 14.48C59.9505 14.9333 60.5839 15.5667 61.0372 16.38C61.4905 17.1933 61.7172 18.1267 61.7172 19.18ZM59.3372 18.62C59.3239 17.7267 59.0239 17.02 58.4372 16.5C57.8639 15.98 57.1372 15.72 56.2572 15.72C55.4572 15.72 54.7705 15.98 54.1972 16.5C53.6372 17.02 53.3105 17.7267 53.2172 18.62H59.3372ZM66.2409 15.9C66.5743 15.2333 67.0143 14.72 67.5609 14.36C68.1209 13.9867 68.7809 13.8 69.5409 13.8V16.16H68.9609C68.0676 16.16 67.3876 16.3867 66.9209 16.84C66.4676 17.2933 66.2409 18.08 66.2409 19.2V25H63.9609V13.98H66.2409V15.9ZM72.7967 12.52C72.3834 12.52 72.0367 12.38 71.7567 12.1C71.4767 11.82 71.3367 11.4733 71.3367 11.06C71.3367 10.6467 71.4767 10.3 71.7567 10.02C72.0367 9.74 72.3834 9.6 72.7967 9.6C73.1967 9.6 73.5367 9.74 73.8167 10.02C74.0967 10.3 74.2367 10.6467 74.2367 11.06C74.2367 11.4733 74.0967 11.82 73.8167 12.1C73.5367 12.38 73.1967 12.52 72.7967 12.52ZM73.9167 13.98V25H71.6367V13.98H73.9167ZM90.2502 13.8C91.1168 13.8 91.8902 13.98 92.5702 14.34C93.2635 14.7 93.8035 15.2333 94.1902 15.94C94.5902 16.6467 94.7902 17.5 94.7902 18.5V25H92.5302V18.84C92.5302 17.8533 92.2835 17.1 91.7902 16.58C91.2968 16.0467 90.6235 15.78 89.7702 15.78C88.9168 15.78 88.2368 16.0467 87.7302 16.58C87.2368 17.1 86.9902 17.8533 86.9902 18.84V25H84.7302V18.84C84.7302 17.8533 84.4835 17.1 83.9902 16.58C83.4968 16.0467 82.8235 15.78 81.9702 15.78C81.1168 15.78 80.4368 16.0467 79.9302 16.58C79.4368 17.1 79.1902 17.8533 79.1902 18.84V25H76.9102V13.98H79.1902V15.24C79.5635 14.7867 80.0368 14.4333 80.6102 14.18C81.1835 13.9267 81.7968 13.8 82.4502 13.8C83.3302 13.8 84.1168 13.9867 84.8102 14.36C85.5035 14.7333 86.0368 15.2733 86.4102 15.98C86.7435 15.3133 87.2635 14.7867 87.9702 14.4C88.6768 14 89.4368 13.8 90.2502 13.8ZM107.791 19.18C107.791 19.5667 107.765 19.9267 107.711 20.26H99.2714C99.3381 21.18 99.6647 21.9133 100.251 22.46C100.838 22.9933 101.565 23.26 102.431 23.26C103.658 23.26 104.525 22.7467 105.031 21.72H107.491C107.158 22.7333 106.551 23.5667 105.671 24.22C104.805 24.86 103.725 25.18 102.431 25.18C101.378 25.18 100.431 24.9467 99.5914 24.48C98.7647 24 98.1114 23.3333 97.6314 22.48C97.1647 21.6133 96.9314 20.6133 96.9314 19.48C96.9314 18.3467 97.1581 17.3533 97.6114 16.5C98.0781 15.6333 98.7247 14.9667 99.5514 14.5C100.391 14.0333 101.351 13.8 102.431 13.8C103.471 13.8 104.398 14.0267 105.211 14.48C106.025 14.9333 106.658 15.5667 107.111 16.38C107.565 17.1933 107.791 18.1267 107.791 19.18ZM105.411 18.62C105.398 17.7267 105.098 17.02 104.511 16.5C103.938 15.98 103.211 15.72 102.331 15.72C101.531 15.72 100.845 15.98 100.271 16.5C99.7114 17.02 99.3847 17.7267 99.2914 18.62H105.411ZM115.595 13.8C116.462 13.8 117.235 13.98 117.915 14.34C118.608 14.7 119.148 15.2333 119.535 15.94C119.922 16.6467 120.115 17.5 120.115 18.5V25H117.855V18.84C117.855 17.8533 117.608 17.1 117.115 16.58C116.622 16.0467 115.948 15.78 115.095 15.78C114.242 15.78 113.562 16.0467 113.055 16.58C112.562 17.1 112.315 17.8533 112.315 18.84V25H110.035V13.98H112.315V15.24C112.688 14.7867 113.162 14.4333 113.735 14.18C114.322 13.9267 114.942 13.8 115.595 13.8ZM125.683 15.84V21.94C125.683 22.3533 125.777 22.6533 125.963 22.84C126.163 23.0133 126.497 23.1 126.963 23.1H128.363V25H126.563C125.537 25 124.75 24.76 124.203 24.28C123.657 23.8 123.383 23.02 123.383 21.94V15.84H122.083V13.98H123.383V11.24H125.683V13.98H128.363V15.84H125.683Z" fill="white"/>
</svg>
