<svg width="339" height="182" viewBox="0 0 339 182" fill="none" xmlns="http://www.w3.org/2000/svg">
<rect width="339" height="182" fill="white"/>
<path d="M39.376 47.224C39.376 49.08 38.736 50.6267 37.456 51.864C36.1973 53.08 34.2667 53.688 31.664 53.688H27.376V63H24.464V40.696H31.664C34.1813 40.696 36.0907 41.304 37.392 42.52C38.7147 43.736 39.376 45.304 39.376 47.224ZM31.664 51.384C33.264 51.384 34.448 51.0213 35.216 50.296C36.0053 49.5493 36.4 48.5253 36.4 47.224C36.4 45.88 36.016 44.8453 35.248 44.12C34.48 43.3733 33.2853 43 31.664 43H27.376V51.384H31.664ZM45.9073 39.32V63H42.9953V39.32H45.9073ZM66.8703 53.496C66.8703 54.0293 66.8383 54.6053 66.7743 55.224H52.7583C52.8436 56.952 53.4196 58.3173 54.4863 59.32C55.5743 60.3227 56.8969 60.824 58.4543 60.824C59.7129 60.824 60.7583 60.536 61.5903 59.96C62.4436 59.3627 63.0409 58.5733 63.3823 57.592H66.5183C66.0489 59.2773 65.1103 60.6533 63.7023 61.72C62.2943 62.7653 60.5449 63.288 58.4543 63.288C56.7903 63.288 55.2969 62.9147 53.9743 62.168C52.6729 61.4213 51.6489 60.3653 50.9023 59C50.1556 57.6133 49.7823 56.0133 49.7823 54.2C49.7823 52.3867 50.1449 50.7973 50.8703 49.432C51.5956 48.0667 52.6089 47.0213 53.9103 46.296C55.2329 45.5493 56.7476 45.176 58.4543 45.176C60.1183 45.176 61.5796 45.5387 62.8383 46.264C64.1183 46.9893 65.1103 47.9813 65.8143 49.24C66.5183 50.4987 66.8703 51.9173 66.8703 53.496ZM63.8623 53.112C63.8623 51.96 63.6169 50.9787 63.1263 50.168C62.6356 49.336 61.9636 48.7067 61.1103 48.28C60.2783 47.8533 59.3503 47.64 58.3263 47.64C56.8329 47.64 55.5636 48.1307 54.5183 49.112C53.4729 50.072 52.8969 51.4053 52.7903 53.112H63.8623ZM69.626 54.168C69.626 52.376 69.9887 50.808 70.714 49.464C71.4393 48.0987 72.4313 47.0427 73.69 46.296C74.97 45.5493 76.3887 45.176 77.946 45.176C79.482 45.176 80.8153 45.5067 81.946 46.168C83.0767 46.8293 83.9193 47.6613 84.474 48.664V45.464H87.418V63H84.474V59.736C83.898 60.76 83.034 61.6133 81.882 62.296C80.7513 62.9573 79.4287 63.288 77.914 63.288C76.3567 63.288 74.9487 62.904 73.69 62.136C72.4313 61.368 71.4393 60.2907 70.714 58.904C69.9887 57.5173 69.626 55.9387 69.626 54.168ZM84.474 54.2C84.474 52.8773 84.2073 51.7253 83.674 50.744C83.1407 49.7627 82.4153 49.016 81.498 48.504C80.602 47.9707 79.61 47.704 78.522 47.704C77.434 47.704 76.442 47.96 75.546 48.472C74.65 48.984 73.9353 49.7307 73.402 50.712C72.8687 51.6933 72.602 52.8453 72.602 54.168C72.602 55.512 72.8687 56.6853 73.402 57.688C73.9353 58.6693 74.65 59.4267 75.546 59.96C76.442 60.472 77.434 60.728 78.522 60.728C79.61 60.728 80.602 60.472 81.498 59.96C82.4153 59.4267 83.1407 58.6693 83.674 57.688C84.2073 56.6853 84.474 55.5227 84.474 54.2ZM98.515 63.288C97.171 63.288 95.9657 63.064 94.899 62.616C93.8537 62.1467 93.0217 61.5067 92.403 60.696C91.7843 59.864 91.443 58.9147 91.379 57.848H94.387C94.4723 58.7653 94.8777 59.512 95.603 60.088C96.3497 60.664 97.3203 60.952 98.515 60.952C99.6457 60.952 100.52 60.7067 101.139 60.216C101.779 59.704 102.099 59.0427 102.099 58.232C102.099 57.464 101.758 56.8987 101.075 56.536C100.392 56.152 99.3363 55.7787 97.907 55.416C96.6057 55.0747 95.5497 54.7333 94.739 54.392C93.9283 54.0507 93.235 53.5493 92.659 52.888C92.083 52.2053 91.795 51.3093 91.795 50.2C91.795 49.2827 92.051 48.44 92.563 47.672C93.075 46.904 93.811 46.296 94.771 45.848C95.7523 45.4 96.883 45.176 98.163 45.176C100.104 45.176 101.672 45.6667 102.867 46.648C104.062 47.6293 104.702 48.9733 104.787 50.68H101.875C101.811 49.72 101.438 48.952 100.755 48.376C100.094 47.8 99.1977 47.512 98.067 47.512C97.0003 47.512 96.1577 47.7467 95.539 48.216C94.9417 48.6853 94.643 49.304 94.643 50.072C94.643 50.6693 94.835 51.16 95.219 51.544C95.603 51.9067 96.0723 52.1947 96.627 52.408C97.1817 52.6 97.971 52.8453 98.995 53.144C100.275 53.4853 101.299 53.8267 102.067 54.168C102.835 54.488 103.496 54.968 104.051 55.608C104.606 56.248 104.883 57.1013 104.883 58.168C104.883 59.1493 104.616 60.024 104.083 60.792C103.571 61.56 102.835 62.168 101.875 62.616C100.915 63.064 99.795 63.288 98.515 63.288ZM125.058 53.496C125.058 54.0293 125.026 54.6053 124.962 55.224H110.946C111.031 56.952 111.607 58.3173 112.674 59.32C113.762 60.3227 115.084 60.824 116.642 60.824C117.9 60.824 118.946 60.536 119.778 59.96C120.631 59.3627 121.228 58.5733 121.57 57.592H124.706C124.236 59.2773 123.298 60.6533 121.89 61.72C120.482 62.7653 118.732 63.288 116.642 63.288C114.978 63.288 113.484 62.9147 112.162 62.168C110.86 61.4213 109.836 60.3653 109.09 59C108.343 57.6133 107.97 56.0133 107.97 54.2C107.97 52.3867 108.332 50.7973 109.058 49.432C109.783 48.0667 110.796 47.0213 112.098 46.296C113.42 45.5493 114.935 45.176 116.642 45.176C118.306 45.176 119.767 45.5387 121.026 46.264C122.306 46.9893 123.298 47.9813 124.002 49.24C124.706 50.4987 125.058 51.9173 125.058 53.496ZM122.05 53.112C122.05 51.96 121.804 50.9787 121.314 50.168C120.823 49.336 120.151 48.7067 119.298 48.28C118.466 47.8533 117.538 47.64 116.514 47.64C115.02 47.64 113.751 48.1307 112.706 49.112C111.66 50.072 111.084 51.4053 110.978 53.112H122.05ZM141.985 47.864V58.2C141.985 59.0533 142.166 59.6613 142.529 60.024C142.891 60.3653 143.521 60.536 144.417 60.536H146.561V63H143.937C142.315 63 141.099 62.6267 140.289 61.88C139.478 61.1333 139.073 59.9067 139.073 58.2V47.864H136.801V45.464H139.073V41.048H141.985V45.464H146.561V47.864H141.985ZM153.001 48.792C153.513 47.64 154.238 46.744 155.177 46.104C156.137 45.464 157.3 45.144 158.665 45.144V48.152H157.897C154.633 48.152 153.001 49.9227 153.001 53.464V63H150.089V45.464H153.001V48.792ZM163.211 45.464L168.651 59.608L174.123 45.464H177.131L166.571 71.256H163.531L167.019 62.808L159.947 45.464H163.211ZM188.501 54.168C188.501 52.376 188.864 50.808 189.589 49.464C190.314 48.0987 191.306 47.0427 192.565 46.296C193.845 45.5493 195.264 45.176 196.821 45.176C198.357 45.176 199.69 45.5067 200.821 46.168C201.952 46.8293 202.794 47.6613 203.349 48.664V45.464H206.293V63H203.349V59.736C202.773 60.76 201.909 61.6133 200.757 62.296C199.626 62.9573 198.304 63.288 196.789 63.288C195.232 63.288 193.824 62.904 192.565 62.136C191.306 61.368 190.314 60.2907 189.589 58.904C188.864 57.5173 188.501 55.9387 188.501 54.168ZM203.349 54.2C203.349 52.8773 203.082 51.7253 202.549 50.744C202.016 49.7627 201.29 49.016 200.373 48.504C199.477 47.9707 198.485 47.704 197.397 47.704C196.309 47.704 195.317 47.96 194.421 48.472C193.525 48.984 192.81 49.7307 192.277 50.712C191.744 51.6933 191.477 52.8453 191.477 54.168C191.477 55.512 191.744 56.6853 192.277 57.688C192.81 58.6693 193.525 59.4267 194.421 59.96C195.317 60.472 196.309 60.728 197.397 60.728C198.485 60.728 199.477 60.472 200.373 59.96C201.29 59.4267 202.016 58.6693 202.549 57.688C203.082 56.6853 203.349 55.5227 203.349 54.2ZM218.446 45.176C219.961 45.176 221.283 45.5067 222.414 46.168C223.566 46.8293 224.419 47.6613 224.974 48.664V45.464H227.918V63.384C227.918 64.984 227.577 66.4027 226.894 67.64C226.211 68.8987 225.23 69.88 223.95 70.584C222.691 71.288 221.219 71.64 219.534 71.64C217.23 71.64 215.31 71.096 213.774 70.008C212.238 68.92 211.331 67.4373 211.054 65.56H213.934C214.254 66.6267 214.915 67.48 215.918 68.12C216.921 68.7813 218.126 69.112 219.534 69.112C221.134 69.112 222.435 68.6107 223.438 67.608C224.462 66.6053 224.974 65.1973 224.974 63.384V59.704C224.398 60.728 223.545 61.5813 222.414 62.264C221.283 62.9467 219.961 63.288 218.446 63.288C216.889 63.288 215.47 62.904 214.19 62.136C212.931 61.368 211.939 60.2907 211.214 58.904C210.489 57.5173 210.126 55.9387 210.126 54.168C210.126 52.376 210.489 50.808 211.214 49.464C211.939 48.0987 212.931 47.0427 214.19 46.296C215.47 45.5493 216.889 45.176 218.446 45.176ZM224.974 54.2C224.974 52.8773 224.707 51.7253 224.174 50.744C223.641 49.7627 222.915 49.016 221.998 48.504C221.102 47.9707 220.11 47.704 219.022 47.704C217.934 47.704 216.942 47.96 216.046 48.472C215.15 48.984 214.435 49.7307 213.902 50.712C213.369 51.6933 213.102 52.8453 213.102 54.168C213.102 55.512 213.369 56.6853 213.902 57.688C214.435 58.6693 215.15 59.4267 216.046 59.96C216.942 60.472 217.934 60.728 219.022 60.728C220.11 60.728 221.102 60.472 221.998 59.96C222.915 59.4267 223.641 58.6693 224.174 57.688C224.707 56.6853 224.974 55.5227 224.974 54.2ZM231.751 54.168C231.751 52.376 232.114 50.808 232.839 49.464C233.564 48.0987 234.556 47.0427 235.815 46.296C237.095 45.5493 238.514 45.176 240.071 45.176C241.607 45.176 242.94 45.5067 244.071 46.168C245.202 46.8293 246.044 47.6613 246.599 48.664V45.464H249.543V63H246.599V59.736C246.023 60.76 245.159 61.6133 244.007 62.296C242.876 62.9573 241.554 63.288 240.039 63.288C238.482 63.288 237.074 62.904 235.815 62.136C234.556 61.368 233.564 60.2907 232.839 58.904C232.114 57.5173 231.751 55.9387 231.751 54.168ZM246.599 54.2C246.599 52.8773 246.332 51.7253 245.799 50.744C245.266 49.7627 244.54 49.016 243.623 48.504C242.727 47.9707 241.735 47.704 240.647 47.704C239.559 47.704 238.567 47.96 237.671 48.472C236.775 48.984 236.06 49.7307 235.527 50.712C234.994 51.6933 234.727 52.8453 234.727 54.168C234.727 55.512 234.994 56.6853 235.527 57.688C236.06 58.6693 236.775 59.4267 237.671 59.96C238.567 60.472 239.559 60.728 240.647 60.728C241.735 60.728 242.727 60.472 243.623 59.96C244.54 59.4267 245.266 58.6693 245.799 57.688C246.332 56.6853 246.599 55.5227 246.599 54.2ZM255.968 42.616C255.413 42.616 254.944 42.424 254.56 42.04C254.176 41.656 253.984 41.1867 253.984 40.632C253.984 40.0773 254.176 39.608 254.56 39.224C254.944 38.84 255.413 38.648 255.968 38.648C256.501 38.648 256.949 38.84 257.312 39.224C257.696 39.608 257.888 40.0773 257.888 40.632C257.888 41.1867 257.696 41.656 257.312 42.04C256.949 42.424 256.501 42.616 255.968 42.616ZM257.376 45.464V63H254.464V45.464H257.376ZM270.883 45.144C273.016 45.144 274.744 45.7947 276.067 47.096C277.39 48.376 278.051 50.232 278.051 52.664V63H275.171V53.08C275.171 51.3307 274.734 49.9973 273.859 49.08C272.984 48.1413 271.79 47.672 270.275 47.672C268.739 47.672 267.512 48.152 266.595 49.112C265.699 50.072 265.251 51.4693 265.251 53.304V63H262.339V45.464H265.251V47.96C265.827 47.064 266.606 46.3707 267.587 45.88C268.59 45.3893 269.688 45.144 270.883 45.144ZM286.584 40.696L286.232 56.696H283.8L283.448 40.696H286.584ZM285.144 63.192C284.589 63.192 284.12 63 283.736 62.616C283.352 62.232 283.16 61.7627 283.16 61.208C283.16 60.6533 283.352 60.184 283.736 59.8C284.12 59.416 284.589 59.224 285.144 59.224C285.677 59.224 286.125 59.416 286.488 59.8C286.872 60.184 287.064 60.6533 287.064 61.208C287.064 61.7627 286.872 62.232 286.488 62.616C286.125 63 285.677 63.192 285.144 63.192ZM31.824 99.848V111H30.368V105.912H24.688V111H23.232V99.848H24.688V104.776H30.368V99.848H31.824ZM35.0465 100.808C34.7692 100.808 34.5345 100.712 34.3425 100.52C34.1505 100.328 34.0545 100.093 34.0545 99.816C34.0545 99.5387 34.1505 99.304 34.3425 99.112C34.5345 98.92 34.7692 98.824 35.0465 98.824C35.3132 98.824 35.5372 98.92 35.7185 99.112C35.9105 99.304 36.0065 99.5387 36.0065 99.816C36.0065 100.093 35.9105 100.328 35.7185 100.52C35.5372 100.712 35.3132 100.808 35.0465 100.808ZM35.7505 102.232V111H34.2945V102.232H35.7505ZM42.504 102.072C43.5707 102.072 44.4347 102.397 45.096 103.048C45.7573 103.688 46.088 104.616 46.088 105.832V111H44.648V106.04C44.648 105.165 44.4293 104.499 43.992 104.04C43.5547 103.571 42.9573 103.336 42.2 103.336C41.432 103.336 40.8187 103.576 40.36 104.056C39.912 104.536 39.688 105.235 39.688 106.152V111H38.232V102.232H39.688V103.48C39.976 103.032 40.3653 102.685 40.856 102.44C41.3573 102.195 41.9067 102.072 42.504 102.072ZM50.2424 103.432V108.6C50.2424 109.027 50.333 109.331 50.5144 109.512C50.6957 109.683 51.0104 109.768 51.4584 109.768H52.5304V111H51.2184C50.4077 111 49.7997 110.813 49.3944 110.44C48.989 110.067 48.7864 109.453 48.7864 108.6V103.432H47.6504V102.232H48.7864V100.024H50.2424V102.232H52.5304V103.432H50.2424ZM54.7585 111.096C54.4812 111.096 54.2465 111 54.0545 110.808C53.8625 110.616 53.7665 110.381 53.7665 110.104C53.7665 109.827 53.8625 109.592 54.0545 109.4C54.2465 109.208 54.4812 109.112 54.7585 109.112C55.0252 109.112 55.2492 109.208 55.4305 109.4C55.6225 109.592 55.7185 109.827 55.7185 110.104C55.7185 110.381 55.6225 110.616 55.4305 110.808C55.2492 111 55.0252 111.096 54.7585 111.096ZM54.7585 104.248C54.4812 104.248 54.2465 104.152 54.0545 103.96C53.8625 103.768 53.7665 103.533 53.7665 103.256C53.7665 102.979 53.8625 102.744 54.0545 102.552C54.2465 102.36 54.4812 102.264 54.7585 102.264C55.0252 102.264 55.2492 102.36 55.4305 102.552C55.6225 102.744 55.7185 102.979 55.7185 103.256C55.7185 103.533 55.6225 103.768 55.4305 103.96C55.2492 104.152 55.0252 104.248 54.7585 104.248ZM69.3304 99.848V100.984H66.2904V111H64.8344V100.984H61.7784V99.848H69.3304ZM75.4746 102.072C76.136 102.072 76.7333 102.216 77.2666 102.504C77.8 102.781 78.216 103.203 78.5146 103.768C78.824 104.333 78.9786 105.021 78.9786 105.832V111H77.5386V106.04C77.5386 105.165 77.32 104.499 76.8826 104.04C76.4453 103.571 75.848 103.336 75.0906 103.336C74.3226 103.336 73.7093 103.576 73.2506 104.056C72.8026 104.536 72.5786 105.235 72.5786 106.152V111H71.1226V99.16H72.5786V103.48C72.8666 103.032 73.2613 102.685 73.7626 102.44C74.2746 102.195 74.8453 102.072 75.4746 102.072ZM89.357 106.248C89.357 106.515 89.341 106.803 89.309 107.112H82.301C82.3437 107.976 82.6317 108.659 83.165 109.16C83.709 109.661 84.3703 109.912 85.149 109.912C85.7783 109.912 86.301 109.768 86.717 109.48C87.1437 109.181 87.4423 108.787 87.613 108.296H89.181C88.9463 109.139 88.477 109.827 87.773 110.36C87.069 110.883 86.1943 111.144 85.149 111.144C84.317 111.144 83.5703 110.957 82.909 110.584C82.2583 110.211 81.7463 109.683 81.373 109C80.9997 108.307 80.813 107.507 80.813 106.6C80.813 105.693 80.9943 104.899 81.357 104.216C81.7197 103.533 82.2263 103.011 82.877 102.648C83.5383 102.275 84.2957 102.088 85.149 102.088C85.981 102.088 86.7117 102.269 87.341 102.632C87.981 102.995 88.477 103.491 88.829 104.12C89.181 104.749 89.357 105.459 89.357 106.248ZM87.853 106.056C87.853 105.48 87.7303 104.989 87.485 104.584C87.2397 104.168 86.9037 103.853 86.477 103.64C86.061 103.427 85.597 103.32 85.085 103.32C84.3383 103.32 83.7037 103.565 83.181 104.056C82.6583 104.536 82.3703 105.203 82.317 106.056H87.853ZM97.5005 103.848C97.7885 103.347 98.2152 102.931 98.7805 102.6C99.3565 102.259 100.023 102.088 100.781 102.088C101.559 102.088 102.263 102.275 102.892 102.648C103.532 103.021 104.034 103.549 104.397 104.232C104.759 104.904 104.941 105.688 104.941 106.584C104.941 107.469 104.759 108.259 104.397 108.952C104.034 109.645 103.532 110.184 102.892 110.568C102.263 110.952 101.559 111.144 100.781 111.144C100.034 111.144 99.3725 110.979 98.7965 110.648C98.2312 110.307 97.7992 109.885 97.5005 109.384V115.16H96.0445V102.232H97.5005V103.848ZM103.453 106.584C103.453 105.923 103.319 105.347 103.053 104.856C102.786 104.365 102.423 103.992 101.965 103.736C101.517 103.48 101.021 103.352 100.477 103.352C99.9432 103.352 99.4472 103.485 98.9885 103.752C98.5405 104.008 98.1778 104.387 97.9005 104.888C97.6338 105.379 97.5005 105.949 97.5005 106.6C97.5005 107.261 97.6338 107.843 97.9005 108.344C98.1778 108.835 98.5405 109.213 98.9885 109.48C99.4472 109.736 99.9432 109.864 100.477 109.864C101.021 109.864 101.517 109.736 101.965 109.48C102.423 109.213 102.786 108.835 103.053 108.344C103.319 107.843 103.453 107.256 103.453 106.584ZM114.857 106.248C114.857 106.515 114.841 106.803 114.809 107.112H107.801C107.844 107.976 108.132 108.659 108.665 109.16C109.209 109.661 109.87 109.912 110.649 109.912C111.278 109.912 111.801 109.768 112.217 109.48C112.644 109.181 112.942 108.787 113.113 108.296H114.681C114.446 109.139 113.977 109.827 113.273 110.36C112.569 110.883 111.694 111.144 110.649 111.144C109.817 111.144 109.07 110.957 108.409 110.584C107.758 110.211 107.246 109.683 106.873 109C106.5 108.307 106.313 107.507 106.313 106.6C106.313 105.693 106.494 104.899 106.857 104.216C107.22 103.533 107.726 103.011 108.377 102.648C109.038 102.275 109.796 102.088 110.649 102.088C111.481 102.088 112.212 102.269 112.841 102.632C113.481 102.995 113.977 103.491 114.329 104.12C114.681 104.749 114.857 105.459 114.857 106.248ZM113.353 106.056C113.353 105.48 113.23 104.989 112.985 104.584C112.74 104.168 112.404 103.853 111.977 103.64C111.561 103.427 111.097 103.32 110.585 103.32C109.838 103.32 109.204 103.565 108.681 104.056C108.158 104.536 107.87 105.203 107.817 106.056H113.353ZM118.235 103.896C118.491 103.32 118.854 102.872 119.323 102.552C119.803 102.232 120.384 102.072 121.067 102.072V103.576H120.683C119.051 103.576 118.235 104.461 118.235 106.232V111H116.779V102.232H118.235V103.896ZM123.5 100.808C123.222 100.808 122.988 100.712 122.796 100.52C122.604 100.328 122.508 100.093 122.508 99.816C122.508 99.5387 122.604 99.304 122.796 99.112C122.988 98.92 123.222 98.824 123.5 98.824C123.766 98.824 123.99 98.92 124.172 99.112C124.364 99.304 124.46 99.5387 124.46 99.816C124.46 100.093 124.364 100.328 124.172 100.52C123.99 100.712 123.766 100.808 123.5 100.808ZM124.204 102.232V111H122.748V102.232H124.204ZM130.509 111.144C129.688 111.144 128.941 110.957 128.269 110.584C127.608 110.211 127.085 109.683 126.701 109C126.328 108.307 126.141 107.507 126.141 106.6C126.141 105.704 126.333 104.915 126.717 104.232C127.112 103.539 127.645 103.011 128.317 102.648C128.989 102.275 129.741 102.088 130.573 102.088C131.405 102.088 132.157 102.275 132.829 102.648C133.501 103.011 134.029 103.533 134.413 104.216C134.808 104.899 135.005 105.693 135.005 106.6C135.005 107.507 134.802 108.307 134.397 109C134.002 109.683 133.464 110.211 132.781 110.584C132.098 110.957 131.341 111.144 130.509 111.144ZM130.509 109.912C131.032 109.912 131.522 109.789 131.981 109.544C132.44 109.288 132.808 108.909 133.085 108.408C133.373 107.907 133.517 107.304 133.517 106.6C133.517 105.896 133.378 105.299 133.101 104.808C132.824 104.307 132.461 103.933 132.013 103.688C131.565 103.443 131.08 103.32 130.557 103.32C130.024 103.32 129.533 103.443 129.085 103.688C128.648 103.933 128.296 104.307 128.029 104.808C127.762 105.299 127.629 105.896 127.629 106.6C127.629 107.315 127.757 107.923 128.013 108.424C128.28 108.915 128.632 109.288 129.069 109.544C129.506 109.789 129.986 109.912 130.509 109.912ZM136.376 106.584C136.376 105.688 136.557 104.904 136.92 104.232C137.282 103.549 137.778 103.021 138.408 102.648C139.048 102.275 139.762 102.088 140.552 102.088C141.234 102.088 141.869 102.248 142.456 102.568C143.042 102.877 143.49 103.288 143.8 103.8V99.16H145.272V111H143.8V109.352C143.512 109.875 143.085 110.307 142.52 110.648C141.954 110.979 141.293 111.144 140.536 111.144C139.757 111.144 139.048 110.952 138.408 110.568C137.778 110.184 137.282 109.645 136.92 108.952C136.557 108.259 136.376 107.469 136.376 106.584ZM143.8 106.6C143.8 105.939 143.666 105.363 143.4 104.872C143.133 104.381 142.77 104.008 142.312 103.752C141.864 103.485 141.368 103.352 140.824 103.352C140.28 103.352 139.784 103.48 139.336 103.736C138.888 103.992 138.53 104.365 138.264 104.856C137.997 105.347 137.864 105.923 137.864 106.584C137.864 107.256 137.997 107.843 138.264 108.344C138.53 108.835 138.888 109.213 139.336 109.48C139.784 109.736 140.28 109.864 140.824 109.864C141.368 109.864 141.864 109.736 142.312 109.48C142.77 109.213 143.133 108.835 143.4 108.344C143.666 107.843 143.8 107.261 143.8 106.6ZM151.954 106.584C151.954 105.688 152.135 104.904 152.498 104.232C152.86 103.549 153.356 103.021 153.986 102.648C154.626 102.275 155.34 102.088 156.13 102.088C156.812 102.088 157.447 102.248 158.034 102.568C158.62 102.877 159.068 103.288 159.378 103.8V99.16H160.85V111H159.378V109.352C159.09 109.875 158.663 110.307 158.098 110.648C157.532 110.979 156.871 111.144 156.114 111.144C155.335 111.144 154.626 110.952 153.986 110.568C153.356 110.184 152.86 109.645 152.498 108.952C152.135 108.259 151.954 107.469 151.954 106.584ZM159.378 106.6C159.378 105.939 159.244 105.363 158.978 104.872C158.711 104.381 158.348 104.008 157.89 103.752C157.442 103.485 156.946 103.352 156.402 103.352C155.858 103.352 155.362 103.48 154.914 103.736C154.466 103.992 154.108 104.365 153.842 104.856C153.575 105.347 153.442 105.923 153.442 106.584C153.442 107.256 153.575 107.843 153.842 108.344C154.108 108.835 154.466 109.213 154.914 109.48C155.362 109.736 155.858 109.864 156.402 109.864C156.946 109.864 157.442 109.736 157.89 109.48C158.348 109.213 158.711 108.835 158.978 108.344C159.244 107.843 159.378 107.261 159.378 106.6ZM171.31 106.248C171.31 106.515 171.294 106.803 171.262 107.112H164.254C164.297 107.976 164.585 108.659 165.118 109.16C165.662 109.661 166.323 109.912 167.102 109.912C167.731 109.912 168.254 109.768 168.67 109.48C169.097 109.181 169.395 108.787 169.566 108.296H171.134C170.899 109.139 170.43 109.827 169.726 110.36C169.022 110.883 168.147 111.144 167.102 111.144C166.27 111.144 165.523 110.957 164.862 110.584C164.211 110.211 163.699 109.683 163.326 109C162.953 108.307 162.766 107.507 162.766 106.6C162.766 105.693 162.947 104.899 163.31 104.216C163.673 103.533 164.179 103.011 164.83 102.648C165.491 102.275 166.249 102.088 167.102 102.088C167.934 102.088 168.665 102.269 169.294 102.632C169.934 102.995 170.43 103.491 170.782 104.12C171.134 104.749 171.31 105.459 171.31 106.248ZM169.806 106.056C169.806 105.48 169.683 104.989 169.438 104.584C169.193 104.168 168.857 103.853 168.43 103.64C168.014 103.427 167.55 103.32 167.038 103.32C166.291 103.32 165.657 103.565 165.134 104.056C164.611 104.536 164.323 105.203 164.27 106.056H169.806ZM174.688 103.848C174.976 103.347 175.403 102.931 175.968 102.6C176.544 102.259 177.211 102.088 177.968 102.088C178.747 102.088 179.451 102.275 180.08 102.648C180.72 103.021 181.221 103.549 181.584 104.232C181.947 104.904 182.128 105.688 182.128 106.584C182.128 107.469 181.947 108.259 181.584 108.952C181.221 109.645 180.72 110.184 180.08 110.568C179.451 110.952 178.747 111.144 177.968 111.144C177.221 111.144 176.56 110.979 175.984 110.648C175.419 110.307 174.987 109.885 174.688 109.384V115.16H173.232V102.232H174.688V103.848ZM180.64 106.584C180.64 105.923 180.507 105.347 180.24 104.856C179.973 104.365 179.611 103.992 179.152 103.736C178.704 103.48 178.208 103.352 177.664 103.352C177.131 103.352 176.635 103.485 176.176 103.752C175.728 104.008 175.365 104.387 175.088 104.888C174.821 105.379 174.688 105.949 174.688 106.6C174.688 107.261 174.821 107.843 175.088 108.344C175.365 108.835 175.728 109.213 176.176 109.48C176.635 109.736 177.131 109.864 177.664 109.864C178.208 109.864 178.704 109.736 179.152 109.48C179.611 109.213 179.973 108.835 180.24 108.344C180.507 107.843 180.64 107.256 180.64 106.584ZM192.045 106.248C192.045 106.515 192.029 106.803 191.997 107.112H184.989C185.031 107.976 185.319 108.659 185.853 109.16C186.397 109.661 187.058 109.912 187.837 109.912C188.466 109.912 188.989 109.768 189.405 109.48C189.831 109.181 190.13 108.787 190.301 108.296H191.869C191.634 109.139 191.165 109.827 190.461 110.36C189.757 110.883 188.882 111.144 187.837 111.144C187.005 111.144 186.258 110.957 185.597 110.584C184.946 110.211 184.434 109.683 184.061 109C183.687 108.307 183.501 107.507 183.501 106.6C183.501 105.693 183.682 104.899 184.045 104.216C184.407 103.533 184.914 103.011 185.565 102.648C186.226 102.275 186.983 102.088 187.837 102.088C188.669 102.088 189.399 102.269 190.029 102.632C190.669 102.995 191.165 103.491 191.517 104.12C191.869 104.749 192.045 105.459 192.045 106.248ZM190.541 106.056C190.541 105.48 190.418 104.989 190.173 104.584C189.927 104.168 189.591 103.853 189.165 103.64C188.749 103.427 188.285 103.32 187.773 103.32C187.026 103.32 186.391 103.565 185.869 104.056C185.346 104.536 185.058 105.203 185.005 106.056H190.541ZM198.238 102.072C199.305 102.072 200.169 102.397 200.83 103.048C201.492 103.688 201.822 104.616 201.822 105.832V111H200.382V106.04C200.382 105.165 200.164 104.499 199.726 104.04C199.289 103.571 198.692 103.336 197.934 103.336C197.166 103.336 196.553 103.576 196.094 104.056C195.646 104.536 195.422 105.235 195.422 106.152V111H193.966V102.232H195.422V103.48C195.71 103.032 196.1 102.685 196.59 102.44C197.092 102.195 197.641 102.072 198.238 102.072ZM203.657 106.584C203.657 105.688 203.838 104.904 204.201 104.232C204.563 103.549 205.059 103.021 205.689 102.648C206.329 102.275 207.043 102.088 207.833 102.088C208.515 102.088 209.15 102.248 209.737 102.568C210.323 102.877 210.771 103.288 211.081 103.8V99.16H212.553V111H211.081V109.352C210.793 109.875 210.366 110.307 209.801 110.648C209.235 110.979 208.574 111.144 207.817 111.144C207.038 111.144 206.329 110.952 205.689 110.568C205.059 110.184 204.563 109.645 204.201 108.952C203.838 108.259 203.657 107.469 203.657 106.584ZM211.081 106.6C211.081 105.939 210.947 105.363 210.681 104.872C210.414 104.381 210.051 104.008 209.593 103.752C209.145 103.485 208.649 103.352 208.105 103.352C207.561 103.352 207.065 103.48 206.617 103.736C206.169 103.992 205.811 104.365 205.545 104.856C205.278 105.347 205.145 105.923 205.145 106.584C205.145 107.256 205.278 107.843 205.545 108.344C205.811 108.835 206.169 109.213 206.617 109.48C207.065 109.736 207.561 109.864 208.105 109.864C208.649 109.864 209.145 109.736 209.593 109.48C210.051 109.213 210.414 108.835 210.681 108.344C210.947 107.843 211.081 107.261 211.081 106.6ZM218.101 111.144C217.429 111.144 216.827 111.032 216.293 110.808C215.771 110.573 215.355 110.253 215.045 109.848C214.736 109.432 214.565 108.957 214.533 108.424H216.037C216.08 108.883 216.283 109.256 216.645 109.544C217.019 109.832 217.504 109.976 218.101 109.976C218.667 109.976 219.104 109.853 219.413 109.608C219.733 109.352 219.893 109.021 219.893 108.616C219.893 108.232 219.723 107.949 219.381 107.768C219.04 107.576 218.512 107.389 217.797 107.208C217.147 107.037 216.619 106.867 216.213 106.696C215.808 106.525 215.461 106.275 215.173 105.944C214.885 105.603 214.741 105.155 214.741 104.6C214.741 104.141 214.869 103.72 215.125 103.336C215.381 102.952 215.749 102.648 216.229 102.424C216.72 102.2 217.285 102.088 217.925 102.088C218.896 102.088 219.68 102.333 220.277 102.824C220.875 103.315 221.195 103.987 221.237 104.84H219.781C219.749 104.36 219.563 103.976 219.221 103.688C218.891 103.4 218.443 103.256 217.877 103.256C217.344 103.256 216.923 103.373 216.613 103.608C216.315 103.843 216.165 104.152 216.165 104.536C216.165 104.835 216.261 105.08 216.453 105.272C216.645 105.453 216.88 105.597 217.157 105.704C217.435 105.8 217.829 105.923 218.341 106.072C218.981 106.243 219.493 106.413 219.877 106.584C220.261 106.744 220.592 106.984 220.869 107.304C221.147 107.624 221.285 108.051 221.285 108.584C221.285 109.075 221.152 109.512 220.885 109.896C220.629 110.28 220.261 110.584 219.781 110.808C219.301 111.032 218.741 111.144 218.101 111.144ZM231.962 111.144C231.141 111.144 230.394 110.957 229.722 110.584C229.061 110.211 228.538 109.683 228.154 109C227.781 108.307 227.594 107.507 227.594 106.6C227.594 105.704 227.786 104.915 228.17 104.232C228.565 103.539 229.098 103.011 229.77 102.648C230.442 102.275 231.194 102.088 232.026 102.088C232.858 102.088 233.61 102.275 234.282 102.648C234.954 103.011 235.482 103.533 235.866 104.216C236.261 104.899 236.458 105.693 236.458 106.6C236.458 107.507 236.256 108.307 235.85 109C235.456 109.683 234.917 110.211 234.234 110.584C233.552 110.957 232.794 111.144 231.962 111.144ZM231.962 109.912C232.485 109.912 232.976 109.789 233.434 109.544C233.893 109.288 234.261 108.909 234.538 108.408C234.826 107.907 234.97 107.304 234.97 106.6C234.97 105.896 234.832 105.299 234.554 104.808C234.277 104.307 233.914 103.933 233.466 103.688C233.018 103.443 232.533 103.32 232.01 103.32C231.477 103.32 230.986 103.443 230.538 103.688C230.101 103.933 229.749 104.307 229.482 104.808C229.216 105.299 229.082 105.896 229.082 106.6C229.082 107.315 229.21 107.923 229.466 108.424C229.733 108.915 230.085 109.288 230.522 109.544C230.96 109.789 231.44 109.912 231.962 109.912ZM242.645 102.072C243.711 102.072 244.575 102.397 245.237 103.048C245.898 103.688 246.229 104.616 246.229 105.832V111H244.789V106.04C244.789 105.165 244.57 104.499 244.133 104.04C243.695 103.571 243.098 103.336 242.341 103.336C241.573 103.336 240.959 103.576 240.501 104.056C240.053 104.536 239.829 105.235 239.829 106.152V111H238.373V102.232H239.829V103.48C240.117 103.032 240.506 102.685 240.997 102.44C241.498 102.195 242.047 102.072 242.645 102.072ZM254.125 100.808C253.847 100.808 253.613 100.712 253.421 100.52C253.229 100.328 253.133 100.093 253.133 99.816C253.133 99.5387 253.229 99.304 253.421 99.112C253.613 98.92 253.847 98.824 254.125 98.824C254.391 98.824 254.615 98.92 254.797 99.112C254.989 99.304 255.085 99.5387 255.085 99.816C255.085 100.093 254.989 100.328 254.797 100.52C254.615 100.712 254.391 100.808 254.125 100.808ZM254.829 102.232V111H253.373V102.232H254.829ZM259.086 103.432V108.6C259.086 109.027 259.177 109.331 259.358 109.512C259.539 109.683 259.854 109.768 260.302 109.768H261.374V111H260.062C259.251 111 258.643 110.813 258.238 110.44C257.833 110.067 257.63 109.453 257.63 108.6V103.432H256.494V102.232H257.63V100.024H259.086V102.232H261.374V103.432H259.086ZM266.226 111.144C265.554 111.144 264.952 111.032 264.418 110.808C263.896 110.573 263.48 110.253 263.17 109.848C262.861 109.432 262.69 108.957 262.658 108.424H264.162C264.205 108.883 264.408 109.256 264.77 109.544C265.144 109.832 265.629 109.976 266.226 109.976C266.792 109.976 267.229 109.853 267.538 109.608C267.858 109.352 268.018 109.021 268.018 108.616C268.018 108.232 267.848 107.949 267.506 107.768C267.165 107.576 266.637 107.389 265.922 107.208C265.272 107.037 264.744 106.867 264.338 106.696C263.933 106.525 263.586 106.275 263.298 105.944C263.01 105.603 262.866 105.155 262.866 104.6C262.866 104.141 262.994 103.72 263.25 103.336C263.506 102.952 263.874 102.648 264.354 102.424C264.845 102.2 265.41 102.088 266.05 102.088C267.021 102.088 267.805 102.333 268.402 102.824C269 103.315 269.32 103.987 269.362 104.84H267.906C267.874 104.36 267.688 103.976 267.346 103.688C267.016 103.4 266.568 103.256 266.002 103.256C265.469 103.256 265.048 103.373 264.738 103.608C264.44 103.843 264.29 104.152 264.29 104.536C264.29 104.835 264.386 105.08 264.578 105.272C264.77 105.453 265.005 105.597 265.282 105.704C265.56 105.8 265.954 105.923 266.466 106.072C267.106 106.243 267.618 106.413 268.002 106.584C268.386 106.744 268.717 106.984 268.994 107.304C269.272 107.624 269.41 108.051 269.41 108.584C269.41 109.075 269.277 109.512 269.01 109.896C268.754 110.28 268.386 110.584 267.906 110.808C267.426 111.032 266.866 111.144 266.226 111.144ZM277.719 99.16V111H276.263V99.16H277.719ZM288.201 106.248C288.201 106.515 288.185 106.803 288.153 107.112H281.145C281.187 107.976 281.475 108.659 282.009 109.16C282.553 109.661 283.214 109.912 283.993 109.912C284.622 109.912 285.145 109.768 285.561 109.48C285.987 109.181 286.286 108.787 286.457 108.296H288.025C287.79 109.139 287.321 109.827 286.617 110.36C285.913 110.883 285.038 111.144 283.993 111.144C283.161 111.144 282.414 110.957 281.753 110.584C281.102 110.211 280.59 109.683 280.217 109C279.843 108.307 279.657 107.507 279.657 106.6C279.657 105.693 279.838 104.899 280.201 104.216C280.563 103.533 281.07 103.011 281.721 102.648C282.382 102.275 283.139 102.088 283.993 102.088C284.825 102.088 285.555 102.269 286.185 102.632C286.825 102.995 287.321 103.491 287.673 104.12C288.025 104.749 288.201 105.459 288.201 106.248ZM286.697 106.056C286.697 105.48 286.574 104.989 286.329 104.584C286.083 104.168 285.747 103.853 285.321 103.64C284.905 103.427 284.441 103.32 283.929 103.32C283.182 103.32 282.547 103.565 282.025 104.056C281.502 104.536 281.214 105.203 281.161 106.056H286.697ZM294.395 102.072C295.461 102.072 296.325 102.397 296.987 103.048C297.648 103.688 297.979 104.616 297.979 105.832V111H296.539V106.04C296.539 105.165 296.32 104.499 295.883 104.04C295.445 103.571 294.848 103.336 294.091 103.336C293.323 103.336 292.709 103.576 292.251 104.056C291.803 104.536 291.579 105.235 291.579 106.152V111H290.123V102.232H291.579V103.48C291.867 103.032 292.256 102.685 292.747 102.44C293.248 102.195 293.797 102.072 294.395 102.072ZM303.973 102.088C304.73 102.088 305.392 102.253 305.957 102.584C306.533 102.915 306.96 103.331 307.237 103.832V102.232H308.709V111.192C308.709 111.992 308.538 112.701 308.197 113.32C307.856 113.949 307.365 114.44 306.725 114.792C306.096 115.144 305.36 115.32 304.517 115.32C303.365 115.32 302.405 115.048 301.637 114.504C300.869 113.96 300.416 113.219 300.277 112.28H301.717C301.877 112.813 302.208 113.24 302.709 113.56C303.21 113.891 303.813 114.056 304.517 114.056C305.317 114.056 305.968 113.805 306.469 113.304C306.981 112.803 307.237 112.099 307.237 111.192V109.352C306.949 109.864 306.522 110.291 305.957 110.632C305.392 110.973 304.73 111.144 303.973 111.144C303.194 111.144 302.485 110.952 301.845 110.568C301.216 110.184 300.72 109.645 300.357 108.952C299.994 108.259 299.813 107.469 299.813 106.584C299.813 105.688 299.994 104.904 300.357 104.232C300.72 103.549 301.216 103.021 301.845 102.648C302.485 102.275 303.194 102.088 303.973 102.088ZM307.237 106.6C307.237 105.939 307.104 105.363 306.837 104.872C306.57 104.381 306.208 104.008 305.749 103.752C305.301 103.485 304.805 103.352 304.261 103.352C303.717 103.352 303.221 103.48 302.773 103.736C302.325 103.992 301.968 104.365 301.701 104.856C301.434 105.347 301.301 105.923 301.301 106.584C301.301 107.256 301.434 107.843 301.701 108.344C301.968 108.835 302.325 109.213 302.773 109.48C303.221 109.736 303.717 109.864 304.261 109.864C304.805 109.864 305.301 109.736 305.749 109.48C306.208 109.213 306.57 108.835 306.837 108.344C307.104 107.843 307.237 107.261 307.237 106.6ZM312.946 103.432V108.6C312.946 109.027 313.036 109.331 313.218 109.512C313.399 109.683 313.714 109.768 314.161 109.768H315.234V111H313.922C313.111 111 312.503 110.813 312.098 110.44C311.692 110.067 311.49 109.453 311.49 108.6V103.432H310.354V102.232H311.49V100.024H312.946V102.232H315.234V103.432H312.946ZM321.35 102.072C322.011 102.072 322.608 102.216 323.142 102.504C323.675 102.781 324.091 103.203 324.39 103.768C324.699 104.333 324.854 105.021 324.854 105.832V111H323.414V106.04C323.414 105.165 323.195 104.499 322.758 104.04C322.32 103.571 321.723 103.336 320.966 103.336C320.198 103.336 319.584 103.576 319.126 104.056C318.678 104.536 318.454 105.235 318.454 106.152V111H316.998V99.16H318.454V103.48C318.742 103.032 319.136 102.685 319.638 102.44C320.15 102.195 320.72 102.072 321.35 102.072ZM22.688 130.584C22.688 129.688 22.8693 128.904 23.232 128.232C23.5947 127.549 24.0907 127.021 24.72 126.648C25.36 126.275 26.0693 126.088 26.848 126.088C27.616 126.088 28.2827 126.253 28.848 126.584C29.4133 126.915 29.8347 127.331 30.112 127.832V126.232H31.584V135H30.112V133.368C29.824 133.88 29.392 134.307 28.816 134.648C28.2507 134.979 27.5893 135.144 26.832 135.144C26.0533 135.144 25.3493 134.952 24.72 134.568C24.0907 134.184 23.5947 133.645 23.232 132.952C22.8693 132.259 22.688 131.469 22.688 130.584ZM30.112 130.6C30.112 129.939 29.9787 129.363 29.712 128.872C29.4453 128.381 29.0827 128.008 28.624 127.752C28.176 127.485 27.68 127.352 27.136 127.352C26.592 127.352 26.096 127.48 25.648 127.736C25.2 127.992 24.8427 128.365 24.576 128.856C24.3093 129.347 24.176 129.923 24.176 130.584C24.176 131.256 24.3093 131.843 24.576 132.344C24.8427 132.835 25.2 133.213 25.648 133.48C26.096 133.736 26.592 133.864 27.136 133.864C27.68 133.864 28.176 133.736 28.624 133.48C29.0827 133.213 29.4453 132.835 29.712 132.344C29.9787 131.843 30.112 131.261 30.112 130.6ZM38.3165 126.072C39.3832 126.072 40.2472 126.397 40.9085 127.048C41.5698 127.688 41.9005 128.616 41.9005 129.832V135H40.4605V130.04C40.4605 129.165 40.2418 128.499 39.8045 128.04C39.3672 127.571 38.7698 127.336 38.0125 127.336C37.2445 127.336 36.6312 127.576 36.1725 128.056C35.7245 128.536 35.5005 129.235 35.5005 130.152V135H34.0445V126.232H35.5005V127.48C35.7885 127.032 36.1778 126.685 36.6685 126.44C37.1698 126.195 37.7192 126.072 38.3165 126.072ZM43.7349 130.584C43.7349 129.688 43.9162 128.904 44.2789 128.232C44.6415 127.549 45.1375 127.021 45.7669 126.648C46.4069 126.275 47.1215 126.088 47.9109 126.088C48.5935 126.088 49.2282 126.248 49.8149 126.568C50.4015 126.877 50.8495 127.288 51.1589 127.8V123.16H52.6309V135H51.1589V133.352C50.8709 133.875 50.4442 134.307 49.8789 134.648C49.3135 134.979 48.6522 135.144 47.8949 135.144C47.1162 135.144 46.4069 134.952 45.7669 134.568C45.1375 134.184 44.6415 133.645 44.2789 132.952C43.9162 132.259 43.7349 131.469 43.7349 130.584ZM51.1589 130.6C51.1589 129.939 51.0255 129.363 50.7589 128.872C50.4922 128.381 50.1295 128.008 49.6709 127.752C49.2229 127.485 48.7269 127.352 48.1829 127.352C47.6389 127.352 47.1429 127.48 46.6949 127.736C46.2469 127.992 45.8895 128.365 45.6229 128.856C45.3562 129.347 45.2229 129.923 45.2229 130.584C45.2229 131.256 45.3562 131.843 45.6229 132.344C45.8895 132.835 46.2469 133.213 46.6949 133.48C47.1429 133.736 47.6389 133.864 48.1829 133.864C48.7269 133.864 49.2229 133.736 49.6709 133.48C50.1295 133.213 50.4922 132.835 50.7589 132.344C51.0255 131.843 51.1589 131.261 51.1589 130.6ZM61.633 127.432V132.6C61.633 133.027 61.7237 133.331 61.905 133.512C62.0863 133.683 62.401 133.768 62.849 133.768H63.921V135H62.609C61.7983 135 61.1903 134.813 60.785 134.44C60.3797 134.067 60.177 133.453 60.177 132.6V127.432H59.041V126.232H60.177V124.024H61.633V126.232H63.921V127.432H61.633ZM70.0371 126.072C70.6985 126.072 71.2958 126.216 71.8291 126.504C72.3625 126.781 72.7785 127.203 73.0771 127.768C73.3865 128.333 73.5411 129.021 73.5411 129.832V135H72.1011V130.04C72.1011 129.165 71.8825 128.499 71.4451 128.04C71.0078 127.571 70.4105 127.336 69.6531 127.336C68.8851 127.336 68.2718 127.576 67.8131 128.056C67.3651 128.536 67.1411 129.235 67.1411 130.152V135H65.6851V123.16H67.1411V127.48C67.4291 127.032 67.8238 126.685 68.3251 126.44C68.8371 126.195 69.4078 126.072 70.0371 126.072ZM83.9195 130.248C83.9195 130.515 83.9035 130.803 83.8715 131.112H76.8635C76.9062 131.976 77.1942 132.659 77.7275 133.16C78.2715 133.661 78.9328 133.912 79.7115 133.912C80.3408 133.912 80.8635 133.768 81.2795 133.48C81.7062 133.181 82.0048 132.787 82.1755 132.296H83.7435C83.5088 133.139 83.0395 133.827 82.3355 134.36C81.6315 134.883 80.7568 135.144 79.7115 135.144C78.8795 135.144 78.1328 134.957 77.4715 134.584C76.8208 134.211 76.3088 133.683 75.9355 133C75.5622 132.307 75.3755 131.507 75.3755 130.6C75.3755 129.693 75.5568 128.899 75.9195 128.216C76.2822 127.533 76.7888 127.011 77.4395 126.648C78.1008 126.275 78.8582 126.088 79.7115 126.088C80.5435 126.088 81.2742 126.269 81.9035 126.632C82.5435 126.995 83.0395 127.491 83.3915 128.12C83.7435 128.749 83.9195 129.459 83.9195 130.248ZM82.4155 130.056C82.4155 129.48 82.2928 128.989 82.0475 128.584C81.8022 128.168 81.4662 127.853 81.0395 127.64C80.6235 127.427 80.1595 127.32 79.6475 127.32C78.9008 127.32 78.2662 127.565 77.7435 128.056C77.2208 128.536 76.9328 129.203 76.8795 130.056H82.4155ZM90.063 130.584C90.063 129.688 90.2443 128.904 90.607 128.232C90.9697 127.549 91.4657 127.021 92.095 126.648C92.735 126.275 93.4443 126.088 94.223 126.088C94.991 126.088 95.6577 126.253 96.223 126.584C96.7883 126.915 97.2097 127.331 97.487 127.832V126.232H98.959V135H97.487V133.368C97.199 133.88 96.767 134.307 96.191 134.648C95.6257 134.979 94.9643 135.144 94.207 135.144C93.4283 135.144 92.7243 134.952 92.095 134.568C91.4657 134.184 90.9697 133.645 90.607 132.952C90.2443 132.259 90.063 131.469 90.063 130.584ZM97.487 130.6C97.487 129.939 97.3537 129.363 97.087 128.872C96.8203 128.381 96.4577 128.008 95.999 127.752C95.551 127.485 95.055 127.352 94.511 127.352C93.967 127.352 93.471 127.48 93.023 127.736C92.575 127.992 92.2177 128.365 91.951 128.856C91.6843 129.347 91.551 129.923 91.551 130.584C91.551 131.256 91.6843 131.843 91.951 132.344C92.2177 132.835 92.575 133.213 93.023 133.48C93.471 133.736 93.967 133.864 94.511 133.864C95.055 133.864 95.551 133.736 95.999 133.48C96.4577 133.213 96.8203 132.835 97.087 132.344C97.3537 131.843 97.487 131.261 97.487 130.6ZM100.876 130.6C100.876 129.693 101.057 128.904 101.42 128.232C101.782 127.549 102.284 127.021 102.924 126.648C103.574 126.275 104.316 126.088 105.148 126.088C106.225 126.088 107.11 126.349 107.804 126.872C108.508 127.395 108.972 128.12 109.196 129.048H107.628C107.478 128.515 107.185 128.093 106.748 127.784C106.321 127.475 105.788 127.32 105.148 127.32C104.316 127.32 103.644 127.608 103.132 128.184C102.62 128.749 102.364 129.555 102.364 130.6C102.364 131.656 102.62 132.472 103.132 133.048C103.644 133.624 104.316 133.912 105.148 133.912C105.788 133.912 106.321 133.763 106.748 133.464C107.174 133.165 107.468 132.739 107.628 132.184H109.196C108.961 133.08 108.492 133.8 107.788 134.344C107.084 134.877 106.204 135.144 105.148 135.144C104.316 135.144 103.574 134.957 102.924 134.584C102.284 134.211 101.782 133.683 101.42 133C101.057 132.317 100.876 131.517 100.876 130.6ZM110.594 130.6C110.594 129.693 110.776 128.904 111.138 128.232C111.501 127.549 112.002 127.021 112.642 126.648C113.293 126.275 114.034 126.088 114.866 126.088C115.944 126.088 116.829 126.349 117.522 126.872C118.226 127.395 118.69 128.12 118.914 129.048H117.346C117.197 128.515 116.904 128.093 116.466 127.784C116.04 127.475 115.506 127.32 114.866 127.32C114.034 127.32 113.362 127.608 112.85 128.184C112.338 128.749 112.082 129.555 112.082 130.6C112.082 131.656 112.338 132.472 112.85 133.048C113.362 133.624 114.034 133.912 114.866 133.912C115.506 133.912 116.04 133.763 116.466 133.464C116.893 133.165 117.186 132.739 117.346 132.184H118.914C118.68 133.08 118.21 133.8 117.506 134.344C116.802 134.877 115.922 135.144 114.866 135.144C114.034 135.144 113.293 134.957 112.642 134.584C112.002 134.211 111.501 133.683 111.138 133C110.776 132.317 110.594 131.517 110.594 130.6ZM128.857 130.248C128.857 130.515 128.841 130.803 128.809 131.112H121.801C121.844 131.976 122.132 132.659 122.665 133.16C123.209 133.661 123.87 133.912 124.649 133.912C125.278 133.912 125.801 133.768 126.217 133.48C126.644 133.181 126.942 132.787 127.113 132.296H128.681C128.446 133.139 127.977 133.827 127.273 134.36C126.569 134.883 125.694 135.144 124.649 135.144C123.817 135.144 123.07 134.957 122.409 134.584C121.758 134.211 121.246 133.683 120.873 133C120.5 132.307 120.313 131.507 120.313 130.6C120.313 129.693 120.494 128.899 120.857 128.216C121.22 127.533 121.726 127.011 122.377 126.648C123.038 126.275 123.796 126.088 124.649 126.088C125.481 126.088 126.212 126.269 126.841 126.632C127.481 126.995 127.977 127.491 128.329 128.12C128.681 128.749 128.857 129.459 128.857 130.248ZM127.353 130.056C127.353 129.48 127.23 128.989 126.985 128.584C126.74 128.168 126.404 127.853 125.977 127.64C125.561 127.427 125.097 127.32 124.585 127.32C123.838 127.32 123.204 127.565 122.681 128.056C122.158 128.536 121.87 129.203 121.817 130.056H127.353ZM132.235 123.16V135H130.779V123.16H132.235ZM142.716 130.248C142.716 130.515 142.7 130.803 142.668 131.112H135.66C135.703 131.976 135.991 132.659 136.524 133.16C137.068 133.661 137.73 133.912 138.508 133.912C139.138 133.912 139.66 133.768 140.076 133.48C140.503 133.181 140.802 132.787 140.972 132.296H142.54C142.306 133.139 141.836 133.827 141.132 134.36C140.428 134.883 139.554 135.144 138.508 135.144C137.676 135.144 136.93 134.957 136.268 134.584C135.618 134.211 135.106 133.683 134.732 133C134.359 132.307 134.172 131.507 134.172 130.6C134.172 129.693 134.354 128.899 134.716 128.216C135.079 127.533 135.586 127.011 136.236 126.648C136.898 126.275 137.655 126.088 138.508 126.088C139.34 126.088 140.071 126.269 140.7 126.632C141.34 126.995 141.836 127.491 142.188 128.12C142.54 128.749 142.716 129.459 142.716 130.248ZM141.212 130.056C141.212 129.48 141.09 128.989 140.844 128.584C140.599 128.168 140.263 127.853 139.836 127.64C139.42 127.427 138.956 127.32 138.444 127.32C137.698 127.32 137.063 127.565 136.54 128.056C136.018 128.536 135.73 129.203 135.676 130.056H141.212ZM146.094 127.896C146.35 127.32 146.713 126.872 147.182 126.552C147.662 126.232 148.244 126.072 148.926 126.072V127.576H148.542C146.91 127.576 146.094 128.461 146.094 130.232V135H144.638V126.232H146.094V127.896ZM150.063 130.584C150.063 129.688 150.244 128.904 150.607 128.232C150.97 127.549 151.466 127.021 152.095 126.648C152.735 126.275 153.444 126.088 154.223 126.088C154.991 126.088 155.658 126.253 156.223 126.584C156.788 126.915 157.21 127.331 157.487 127.832V126.232H158.959V135H157.487V133.368C157.199 133.88 156.767 134.307 156.191 134.648C155.626 134.979 154.964 135.144 154.207 135.144C153.428 135.144 152.724 134.952 152.095 134.568C151.466 134.184 150.97 133.645 150.607 132.952C150.244 132.259 150.063 131.469 150.063 130.584ZM157.487 130.6C157.487 129.939 157.354 129.363 157.087 128.872C156.82 128.381 156.458 128.008 155.999 127.752C155.551 127.485 155.055 127.352 154.511 127.352C153.967 127.352 153.471 127.48 153.023 127.736C152.575 127.992 152.218 128.365 151.951 128.856C151.684 129.347 151.551 129.923 151.551 130.584C151.551 131.256 151.684 131.843 151.951 132.344C152.218 132.835 152.575 133.213 153.023 133.48C153.471 133.736 153.967 133.864 154.511 133.864C155.055 133.864 155.551 133.736 155.999 133.48C156.458 133.213 156.82 132.835 157.087 132.344C157.354 131.843 157.487 131.261 157.487 130.6ZM163.196 127.432V132.6C163.196 133.027 163.286 133.331 163.468 133.512C163.649 133.683 163.964 133.768 164.411 133.768H165.484V135H164.172C163.361 135 162.753 134.813 162.348 134.44C161.942 134.067 161.74 133.453 161.74 132.6V127.432H160.604V126.232H161.74V124.024H163.196V126.232H165.484V127.432H163.196ZM168 124.808C167.722 124.808 167.488 124.712 167.296 124.52C167.104 124.328 167.008 124.093 167.008 123.816C167.008 123.539 167.104 123.304 167.296 123.112C167.488 122.92 167.722 122.824 168 122.824C168.266 122.824 168.49 122.92 168.672 123.112C168.864 123.304 168.96 123.539 168.96 123.816C168.96 124.093 168.864 124.328 168.672 124.52C168.49 124.712 168.266 124.808 168 124.808ZM168.704 126.232V135H167.248V126.232H168.704ZM175.009 135.144C174.188 135.144 173.441 134.957 172.769 134.584C172.108 134.211 171.585 133.683 171.201 133C170.828 132.307 170.641 131.507 170.641 130.6C170.641 129.704 170.833 128.915 171.217 128.232C171.612 127.539 172.145 127.011 172.817 126.648C173.489 126.275 174.241 126.088 175.073 126.088C175.905 126.088 176.657 126.275 177.329 126.648C178.001 127.011 178.529 127.533 178.913 128.216C179.308 128.899 179.505 129.693 179.505 130.6C179.505 131.507 179.302 132.307 178.897 133C178.502 133.683 177.964 134.211 177.281 134.584C176.598 134.957 175.841 135.144 175.009 135.144ZM175.009 133.912C175.532 133.912 176.022 133.789 176.481 133.544C176.94 133.288 177.308 132.909 177.585 132.408C177.873 131.907 178.017 131.304 178.017 130.6C178.017 129.896 177.878 129.299 177.601 128.808C177.324 128.307 176.961 127.933 176.513 127.688C176.065 127.443 175.58 127.32 175.057 127.32C174.524 127.32 174.033 127.443 173.585 127.688C173.148 127.933 172.796 128.307 172.529 128.808C172.262 129.299 172.129 129.896 172.129 130.6C172.129 131.315 172.257 131.923 172.513 132.424C172.78 132.915 173.132 133.288 173.569 133.544C174.006 133.789 174.486 133.912 175.009 133.912ZM185.692 126.072C186.758 126.072 187.622 126.397 188.284 127.048C188.945 127.688 189.276 128.616 189.276 129.832V135H187.836V130.04C187.836 129.165 187.617 128.499 187.18 128.04C186.742 127.571 186.145 127.336 185.388 127.336C184.62 127.336 184.006 127.576 183.548 128.056C183.1 128.536 182.876 129.235 182.876 130.152V135H181.42V126.232H182.876V127.48C183.164 127.032 183.553 126.685 184.044 126.44C184.545 126.195 185.094 126.072 185.692 126.072ZM195.876 130.584C195.876 129.688 196.057 128.904 196.42 128.232C196.782 127.549 197.278 127.021 197.908 126.648C198.548 126.275 199.262 126.088 200.052 126.088C200.734 126.088 201.369 126.248 201.956 126.568C202.542 126.877 202.99 127.288 203.3 127.8V123.16H204.772V135H203.3V133.352C203.012 133.875 202.585 134.307 202.02 134.648C201.454 134.979 200.793 135.144 200.036 135.144C199.257 135.144 198.548 134.952 197.908 134.568C197.278 134.184 196.782 133.645 196.42 132.952C196.057 132.259 195.876 131.469 195.876 130.584ZM203.3 130.6C203.3 129.939 203.166 129.363 202.9 128.872C202.633 128.381 202.27 128.008 201.812 127.752C201.364 127.485 200.868 127.352 200.324 127.352C199.78 127.352 199.284 127.48 198.836 127.736C198.388 127.992 198.03 128.365 197.764 128.856C197.497 129.347 197.364 129.923 197.364 130.584C197.364 131.256 197.497 131.843 197.764 132.344C198.03 132.835 198.388 133.213 198.836 133.48C199.284 133.736 199.78 133.864 200.324 133.864C200.868 133.864 201.364 133.736 201.812 133.48C202.27 133.213 202.633 132.835 202.9 132.344C203.166 131.843 203.3 131.261 203.3 130.6ZM215.008 126.232V135H213.552V133.704C213.275 134.152 212.885 134.504 212.384 134.76C211.893 135.005 211.349 135.128 210.752 135.128C210.069 135.128 209.456 134.989 208.912 134.712C208.368 134.424 207.936 133.997 207.616 133.432C207.307 132.867 207.152 132.179 207.152 131.368V126.232H208.592V131.176C208.592 132.04 208.811 132.707 209.248 133.176C209.685 133.635 210.283 133.864 211.04 133.864C211.819 133.864 212.432 133.624 212.88 133.144C213.328 132.664 213.552 131.965 213.552 131.048V126.232H215.008ZM225.466 130.248C225.466 130.515 225.45 130.803 225.418 131.112H218.41C218.453 131.976 218.741 132.659 219.274 133.16C219.818 133.661 220.48 133.912 221.258 133.912C221.888 133.912 222.41 133.768 222.826 133.48C223.253 133.181 223.552 132.787 223.722 132.296H225.29C225.056 133.139 224.586 133.827 223.882 134.36C223.178 134.883 222.304 135.144 221.258 135.144C220.426 135.144 219.68 134.957 219.018 134.584C218.368 134.211 217.856 133.683 217.482 133C217.109 132.307 216.922 131.507 216.922 130.6C216.922 129.693 217.104 128.899 217.466 128.216C217.829 127.533 218.336 127.011 218.986 126.648C219.648 126.275 220.405 126.088 221.258 126.088C222.09 126.088 222.821 126.269 223.45 126.632C224.09 126.995 224.586 127.491 224.938 128.12C225.29 128.749 225.466 129.459 225.466 130.248ZM223.962 130.056C223.962 129.48 223.84 128.989 223.594 128.584C223.349 128.168 223.013 127.853 222.586 127.64C222.17 127.427 221.706 127.32 221.194 127.32C220.448 127.32 219.813 127.565 219.29 128.056C218.768 128.536 218.48 129.203 218.426 130.056H223.962ZM233.93 127.432V132.6C233.93 133.027 234.021 133.331 234.202 133.512C234.383 133.683 234.698 133.768 235.146 133.768H236.218V135H234.906C234.095 135 233.487 134.813 233.082 134.44C232.677 134.067 232.474 133.453 232.474 132.6V127.432H231.338V126.232H232.474V124.024H233.93V126.232H236.218V127.432H233.93ZM241.806 135.144C240.985 135.144 240.238 134.957 239.566 134.584C238.905 134.211 238.382 133.683 237.998 133C237.625 132.307 237.438 131.507 237.438 130.6C237.438 129.704 237.63 128.915 238.014 128.232C238.409 127.539 238.942 127.011 239.614 126.648C240.286 126.275 241.038 126.088 241.87 126.088C242.702 126.088 243.454 126.275 244.126 126.648C244.798 127.011 245.326 127.533 245.71 128.216C246.105 128.899 246.302 129.693 246.302 130.6C246.302 131.507 246.099 132.307 245.694 133C245.299 133.683 244.761 134.211 244.078 134.584C243.395 134.957 242.638 135.144 241.806 135.144ZM241.806 133.912C242.329 133.912 242.819 133.789 243.278 133.544C243.737 133.288 244.105 132.909 244.382 132.408C244.67 131.907 244.814 131.304 244.814 130.6C244.814 129.896 244.675 129.299 244.398 128.808C244.121 128.307 243.758 127.933 243.31 127.688C242.862 127.443 242.377 127.32 241.854 127.32C241.321 127.32 240.83 127.443 240.382 127.688C239.945 127.933 239.593 128.307 239.326 128.808C239.059 129.299 238.926 129.896 238.926 130.6C238.926 131.315 239.054 131.923 239.31 132.424C239.577 132.915 239.929 133.288 240.366 133.544C240.803 133.789 241.283 133.912 241.806 133.912ZM256.598 126.088C257.355 126.088 258.017 126.253 258.582 126.584C259.158 126.915 259.585 127.331 259.862 127.832V126.232H261.334V135.192C261.334 135.992 261.163 136.701 260.822 137.32C260.481 137.949 259.99 138.44 259.35 138.792C258.721 139.144 257.985 139.32 257.142 139.32C255.99 139.32 255.03 139.048 254.262 138.504C253.494 137.96 253.041 137.219 252.902 136.28H254.342C254.502 136.813 254.833 137.24 255.334 137.56C255.835 137.891 256.438 138.056 257.142 138.056C257.942 138.056 258.593 137.805 259.094 137.304C259.606 136.803 259.862 136.099 259.862 135.192V133.352C259.574 133.864 259.147 134.291 258.582 134.632C258.017 134.973 257.355 135.144 256.598 135.144C255.819 135.144 255.11 134.952 254.47 134.568C253.841 134.184 253.345 133.645 252.982 132.952C252.619 132.259 252.438 131.469 252.438 130.584C252.438 129.688 252.619 128.904 252.982 128.232C253.345 127.549 253.841 127.021 254.47 126.648C255.11 126.275 255.819 126.088 256.598 126.088ZM259.862 130.6C259.862 129.939 259.729 129.363 259.462 128.872C259.195 128.381 258.833 128.008 258.374 127.752C257.926 127.485 257.43 127.352 256.886 127.352C256.342 127.352 255.846 127.48 255.398 127.736C254.95 127.992 254.593 128.365 254.326 128.856C254.059 129.347 253.926 129.923 253.926 130.584C253.926 131.256 254.059 131.843 254.326 132.344C254.593 132.835 254.95 133.213 255.398 133.48C255.846 133.736 256.342 133.864 256.886 133.864C257.43 133.864 257.926 133.736 258.374 133.48C258.833 133.213 259.195 132.835 259.462 132.344C259.729 131.843 259.862 131.261 259.862 130.6ZM265.251 127.896C265.507 127.32 265.869 126.872 266.339 126.552C266.819 126.232 267.4 126.072 268.083 126.072V127.576H267.699C266.067 127.576 265.251 128.461 265.251 130.232V135H263.795V126.232H265.251V127.896ZM269.219 130.584C269.219 129.688 269.401 128.904 269.763 128.232C270.126 127.549 270.622 127.021 271.251 126.648C271.891 126.275 272.601 126.088 273.379 126.088C274.147 126.088 274.814 126.253 275.379 126.584C275.945 126.915 276.366 127.331 276.643 127.832V126.232H278.115V135H276.643V133.368C276.355 133.88 275.923 134.307 275.347 134.648C274.782 134.979 274.121 135.144 273.363 135.144C272.585 135.144 271.881 134.952 271.251 134.568C270.622 134.184 270.126 133.645 269.763 132.952C269.401 132.259 269.219 131.469 269.219 130.584ZM276.643 130.6C276.643 129.939 276.51 129.363 276.243 128.872C275.977 128.381 275.614 128.008 275.155 127.752C274.707 127.485 274.211 127.352 273.667 127.352C273.123 127.352 272.627 127.48 272.179 127.736C271.731 127.992 271.374 128.365 271.107 128.856C270.841 129.347 270.707 129.923 270.707 130.584C270.707 131.256 270.841 131.843 271.107 132.344C271.374 132.835 271.731 133.213 272.179 133.48C272.627 133.736 273.123 133.864 273.667 133.864C274.211 133.864 274.707 133.736 275.155 133.48C275.614 133.213 275.977 132.835 276.243 132.344C276.51 131.843 276.643 131.261 276.643 130.6ZM283.84 133.624L286.56 126.232H288.128L284.688 135H282.976L279.536 126.232H281.104L283.84 133.624ZM290.297 124.808C290.019 124.808 289.785 124.712 289.593 124.52C289.401 124.328 289.305 124.093 289.305 123.816C289.305 123.539 289.401 123.304 289.593 123.112C289.785 122.92 290.019 122.824 290.297 122.824C290.563 122.824 290.787 122.92 290.969 123.112C291.161 123.304 291.257 123.539 291.257 123.816C291.257 124.093 291.161 124.328 290.969 124.52C290.787 124.712 290.563 124.808 290.297 124.808ZM291.001 126.232V135H289.545V126.232H291.001ZM295.258 127.432V132.6C295.258 133.027 295.349 133.331 295.53 133.512C295.711 133.683 296.026 133.768 296.474 133.768H297.546V135H296.234C295.423 135 294.815 134.813 294.41 134.44C294.005 134.067 293.802 133.453 293.802 132.6V127.432H292.666V126.232H293.802V124.024H295.258V126.232H297.546V127.432H295.258ZM299.902 126.232L302.622 133.304L305.358 126.232H306.862L301.582 139.128H300.062L301.806 134.904L298.27 126.232H299.902ZM308.79 135.096C308.512 135.096 308.278 135 308.086 134.808C307.894 134.616 307.798 134.381 307.798 134.104C307.798 133.827 307.894 133.592 308.086 133.4C308.278 133.208 308.512 133.112 308.79 133.112C309.056 133.112 309.28 133.208 309.462 133.4C309.654 133.592 309.75 133.827 309.75 134.104C309.75 134.381 309.654 134.616 309.462 134.808C309.28 135 309.056 135.096 308.79 135.096Z" fill="black"/>
</svg>
