<svg width="332" height="227" viewBox="0 0 332 227" fill="none" xmlns="http://www.w3.org/2000/svg">
<g filter="url(#filter0_d)">
<rect x="4" width="324" height="219" rx="20" fill="white"/>
<path d="M38.516 51.004C39.5613 51.1907 40.448 51.7413 41.176 52.656C41.904 53.5707 42.268 54.6067 42.268 55.764C42.268 56.7533 42.0067 57.6493 41.484 58.452C40.98 59.236 40.2427 59.8613 39.272 60.328C38.3013 60.776 37.172 61 35.884 61H28.1V41.54H35.52C36.8453 41.54 37.984 41.764 38.936 42.212C39.888 42.66 40.6067 43.2667 41.092 44.032C41.5773 44.7787 41.82 45.6187 41.82 46.552C41.82 47.672 41.5213 48.6053 40.924 49.352C40.3267 50.0987 39.524 50.6493 38.516 51.004ZM31.292 49.716H35.24C36.2853 49.716 37.0973 49.4827 37.676 49.016C38.2733 48.5307 38.572 47.84 38.572 46.944C38.572 46.0667 38.2733 45.3853 37.676 44.9C37.0973 44.396 36.2853 44.144 35.24 44.144H31.292V49.716ZM35.604 58.396C36.6867 58.396 37.536 58.1347 38.152 57.612C38.768 57.0893 39.076 56.3613 39.076 55.428C39.076 54.476 38.7493 53.72 38.096 53.16C37.4427 52.6 36.5747 52.32 35.492 52.32H31.292V58.396H35.604ZM48.9287 41.54V61H45.7367V41.54H48.9287ZM61.9955 61.196C60.1849 61.196 58.5142 60.776 56.9835 59.936C55.4715 59.0773 54.2675 57.892 53.3715 56.38C52.4942 54.8493 52.0555 53.132 52.0555 51.228C52.0555 49.324 52.4942 47.616 53.3715 46.104C54.2675 44.592 55.4715 43.416 56.9835 42.576C58.5142 41.7173 60.1849 41.288 61.9955 41.288C63.8249 41.288 65.4955 41.7173 67.0075 42.576C68.5382 43.416 69.7422 44.592 70.6195 46.104C71.4969 47.616 71.9355 49.324 71.9355 51.228C71.9355 53.132 71.4969 54.8493 70.6195 56.38C69.7422 57.892 68.5382 59.0773 67.0075 59.936C65.4955 60.776 63.8249 61.196 61.9955 61.196ZM61.9955 58.424C63.2835 58.424 64.4315 58.1347 65.4395 57.556C66.4475 56.9587 67.2315 56.1187 67.7915 55.036C68.3702 53.9347 68.6595 52.6653 68.6595 51.228C68.6595 49.7907 68.3702 48.5307 67.7915 47.448C67.2315 46.3653 66.4475 45.5347 65.4395 44.956C64.4315 44.3773 63.2835 44.088 61.9955 44.088C60.7075 44.088 59.5595 44.3773 58.5515 44.956C57.5435 45.5347 56.7502 46.3653 56.1715 47.448C55.6115 48.5307 55.3315 49.7907 55.3315 51.228C55.3315 52.6653 55.6115 53.9347 56.1715 55.036C56.7502 56.1187 57.5435 56.9587 58.5515 57.556C59.5595 58.1347 60.7075 58.424 61.9955 58.424ZM74.6006 45.628C74.7126 43.892 75.3752 42.5387 76.5886 41.568C77.8206 40.5973 79.3886 40.112 81.2926 40.112C82.5992 40.112 83.7286 40.3453 84.6806 40.812C85.6326 41.2787 86.3512 41.9133 86.8366 42.716C87.3219 43.5187 87.5646 44.424 87.5646 45.432C87.5646 46.5893 87.2566 47.5787 86.6406 48.4C86.0246 49.2213 85.2872 49.772 84.4286 50.052V50.164C85.5299 50.5 86.3886 51.116 87.0046 52.012C87.6206 52.8893 87.9286 54.0187 87.9286 55.4C87.9286 56.5013 87.6766 57.4813 87.1726 58.34C86.6686 59.1987 85.9219 59.88 84.9326 60.384C83.9432 60.8693 82.7579 61.112 81.3766 61.112C79.3606 61.112 77.6992 60.5987 76.3926 59.572C75.1046 58.5267 74.4139 57.0333 74.3206 55.092H77.4006C77.4752 56.0813 77.8579 56.8933 78.5486 57.528C79.2392 58.144 80.1726 58.452 81.3486 58.452C82.4872 58.452 83.3646 58.144 83.9806 57.528C84.5966 56.8933 84.9046 56.0813 84.9046 55.092C84.9046 53.7853 84.4846 52.8613 83.6446 52.32C82.8232 51.76 81.5539 51.48 79.8366 51.48H79.1086V48.848H79.8646C81.3766 48.8293 82.5246 48.5773 83.3086 48.092C84.1112 47.6067 84.5126 46.8413 84.5126 45.796C84.5126 44.9 84.2232 44.1907 83.6446 43.668C83.0659 43.1267 82.2446 42.856 81.1806 42.856C80.1352 42.856 79.3232 43.1267 78.7446 43.668C78.1659 44.1907 77.8206 44.844 77.7086 45.628H74.6006ZM91.2816 50.528C91.2816 47.2987 91.8229 44.7787 92.9056 42.968C94.0069 41.1387 95.8922 40.224 98.5616 40.224C101.231 40.224 103.107 41.1387 104.19 42.968C105.291 44.7787 105.842 47.2987 105.842 50.528C105.842 53.7947 105.291 56.352 104.19 58.2C103.107 60.0293 101.231 60.944 98.5616 60.944C95.8922 60.944 94.0069 60.0293 92.9056 58.2C91.8229 56.352 91.2816 53.7947 91.2816 50.528ZM102.706 50.528C102.706 49.016 102.603 47.7373 102.398 46.692C102.211 45.6467 101.819 44.7973 101.222 44.144C100.624 43.472 99.7376 43.136 98.5616 43.136C97.3856 43.136 96.4989 43.472 95.9016 44.144C95.3042 44.7973 94.9029 45.6467 94.6976 46.692C94.5109 47.7373 94.4176 49.016 94.4176 50.528C94.4176 52.096 94.5109 53.412 94.6976 54.476C94.8842 55.54 95.2762 56.3987 95.8736 57.052C96.4896 57.7053 97.3856 58.032 98.5616 58.032C99.7376 58.032 100.624 57.7053 101.222 57.052C101.838 56.3987 102.239 55.54 102.426 54.476C102.612 53.412 102.706 52.096 102.706 50.528ZM109.219 50.528C109.219 47.2987 109.76 44.7787 110.843 42.968C111.944 41.1387 113.83 40.224 116.499 40.224C119.168 40.224 121.044 41.1387 122.127 42.968C123.228 44.7787 123.779 47.2987 123.779 50.528C123.779 53.7947 123.228 56.352 122.127 58.2C121.044 60.0293 119.168 60.944 116.499 60.944C113.83 60.944 111.944 60.0293 110.843 58.2C109.76 56.352 109.219 53.7947 109.219 50.528ZM120.643 50.528C120.643 49.016 120.54 47.7373 120.335 46.692C120.148 45.6467 119.756 44.7973 119.159 44.144C118.562 43.472 117.675 43.136 116.499 43.136C115.323 43.136 114.436 43.472 113.839 44.144C113.242 44.7973 112.84 45.6467 112.635 46.692C112.448 47.7373 112.355 49.016 112.355 50.528C112.355 52.096 112.448 53.412 112.635 54.476C112.822 55.54 113.214 56.3987 113.811 57.052C114.427 57.7053 115.323 58.032 116.499 58.032C117.675 58.032 118.562 57.7053 119.159 57.052C119.775 56.3987 120.176 55.54 120.363 54.476C120.55 53.412 120.643 52.096 120.643 50.528ZM126.737 43.5V40.588H132.561V61H129.341V43.5H126.737ZM150.106 43.332H140.726V48.904C141.118 48.3813 141.696 47.9427 142.462 47.588C143.246 47.2333 144.076 47.056 144.954 47.056C146.522 47.056 147.791 47.392 148.762 48.064C149.751 48.736 150.451 49.5853 150.862 50.612C151.291 51.6387 151.506 52.7213 151.506 53.86C151.506 55.2413 151.235 56.4733 150.694 57.556C150.171 58.62 149.378 59.46 148.314 60.076C147.268 60.692 145.98 61 144.45 61C142.415 61 140.782 60.496 139.55 59.488C138.318 58.48 137.58 57.1453 137.338 55.484H140.446C140.651 56.3613 141.108 57.0613 141.818 57.584C142.527 58.088 143.414 58.34 144.478 58.34C145.803 58.34 146.792 57.9387 147.446 57.136C148.118 56.3333 148.454 55.2693 148.454 53.944C148.454 52.6 148.118 51.5733 147.446 50.864C146.774 50.136 145.784 49.772 144.478 49.772C143.563 49.772 142.788 50.0053 142.154 50.472C141.538 50.92 141.09 51.536 140.81 52.32H137.786V40.532H150.106V43.332Z" fill="#333333"/>
<path d="M29.402 99.344H33.632V101H27.35V88.49H29.402V99.344ZM44.438 95.798C44.438 96.17 44.414 96.506 44.366 96.806H36.788C36.848 97.598 37.142 98.234 37.67 98.714C38.198 99.194 38.846 99.434 39.614 99.434C40.718 99.434 41.498 98.972 41.954 98.048H44.168C43.868 98.96 43.322 99.71 42.53 100.298C41.75 100.874 40.778 101.162 39.614 101.162C38.666 101.162 37.814 100.952 37.058 100.532C36.314 100.1 35.726 99.5 35.294 98.732C34.874 97.952 34.664 97.052 34.664 96.032C34.664 95.012 34.868 94.118 35.276 93.35C35.696 92.57 36.278 91.97 37.022 91.55C37.778 91.13 38.642 90.92 39.614 90.92C40.55 90.92 41.384 91.124 42.116 91.532C42.848 91.94 43.418 92.516 43.826 93.26C44.234 93.992 44.438 94.838 44.438 95.798ZM42.296 95.15C42.284 94.394 42.014 93.788 41.486 93.332C40.958 92.876 40.304 92.648 39.524 92.648C38.816 92.648 38.21 92.876 37.706 93.332C37.202 93.776 36.902 94.382 36.806 95.15H42.296ZM45.7734 95.996C45.7734 95 45.9774 94.118 46.3854 93.35C46.8054 92.582 47.3694 91.988 48.0774 91.568C48.7974 91.136 49.5894 90.92 50.4534 90.92C51.2334 90.92 51.9114 91.076 52.4874 91.388C53.0754 91.688 53.5434 92.066 53.8914 92.522V91.082H55.9614V101H53.8914V99.524C53.5434 99.992 53.0694 100.382 52.4694 100.694C51.8694 101.006 51.1854 101.162 50.4174 101.162C49.5654 101.162 48.7854 100.946 48.0774 100.514C47.3694 100.07 46.8054 99.458 46.3854 98.678C45.9774 97.886 45.7734 96.992 45.7734 95.996ZM53.8914 96.032C53.8914 95.348 53.7474 94.754 53.4594 94.25C53.1834 93.746 52.8174 93.362 52.3614 93.098C51.9054 92.834 51.4134 92.702 50.8854 92.702C50.3574 92.702 49.8654 92.834 49.4094 93.098C48.9534 93.35 48.5814 93.728 48.2934 94.232C48.0174 94.724 47.8794 95.312 47.8794 95.996C47.8794 96.68 48.0174 97.28 48.2934 97.796C48.5814 98.312 48.9534 98.708 49.4094 98.984C49.8774 99.248 50.3694 99.38 50.8854 99.38C51.4134 99.38 51.9054 99.248 52.3614 98.984C52.8174 98.72 53.1834 98.336 53.4594 97.832C53.7474 97.316 53.8914 96.716 53.8914 96.032ZM60.7086 92.522C61.0086 92.018 61.4046 91.628 61.8966 91.352C62.4006 91.064 62.9946 90.92 63.6786 90.92V93.044H63.1566C62.3526 93.044 61.7406 93.248 61.3206 93.656C60.9126 94.064 60.7086 94.772 60.7086 95.78V101H58.6566V91.082H60.7086V92.522ZM70.5688 90.92C71.3488 90.92 72.0448 91.082 72.6568 91.406C73.2808 91.73 73.7668 92.21 74.1148 92.846C74.4628 93.482 74.6368 94.25 74.6368 95.15V101H72.6028V95.456C72.6028 94.568 72.3808 93.89 71.9368 93.422C71.4928 92.942 70.8868 92.702 70.1188 92.702C69.3508 92.702 68.7388 92.942 68.2828 93.422C67.8388 93.89 67.6168 94.568 67.6168 95.456V101H65.5648V91.082H67.6168V92.216C67.9528 91.808 68.3788 91.49 68.8948 91.262C69.4228 91.034 69.9808 90.92 70.5688 90.92ZM78.2983 89.768C77.9263 89.768 77.6143 89.642 77.3623 89.39C77.1103 89.138 76.9843 88.826 76.9843 88.454C76.9843 88.082 77.1103 87.77 77.3623 87.518C77.6143 87.266 77.9263 87.14 78.2983 87.14C78.6583 87.14 78.9643 87.266 79.2163 87.518C79.4683 87.77 79.5943 88.082 79.5943 88.454C79.5943 88.826 79.4683 89.138 79.2163 89.39C78.9643 89.642 78.6583 89.768 78.2983 89.768ZM79.3063 91.082V101H77.2543V91.082H79.3063ZM87.0044 90.92C87.7844 90.92 88.4804 91.082 89.0924 91.406C89.7164 91.73 90.2024 92.21 90.5504 92.846C90.8984 93.482 91.0724 94.25 91.0724 95.15V101H89.0384V95.456C89.0384 94.568 88.8164 93.89 88.3724 93.422C87.9284 92.942 87.3224 92.702 86.5544 92.702C85.7864 92.702 85.1744 92.942 84.7184 93.422C84.2744 93.89 84.0524 94.568 84.0524 95.456V101H82.0004V91.082H84.0524V92.216C84.3884 91.808 84.8144 91.49 85.3304 91.262C85.8584 91.034 86.4164 90.92 87.0044 90.92ZM97.6858 90.92C98.4538 90.92 99.1318 91.076 99.7198 91.388C100.32 91.688 100.788 92.066 101.124 92.522V91.082H103.194V101.162C103.194 102.074 103.002 102.884 102.618 103.592C102.234 104.312 101.676 104.876 100.944 105.284C100.224 105.692 99.3598 105.896 98.3518 105.896C97.0078 105.896 95.8918 105.578 95.0038 104.942C94.1158 104.318 93.6118 103.466 93.4918 102.386H95.5258C95.6818 102.902 96.0118 103.316 96.5158 103.628C97.0318 103.952 97.6438 104.114 98.3518 104.114C99.1798 104.114 99.8458 103.862 100.35 103.358C100.866 102.854 101.124 102.122 101.124 101.162V99.506C100.776 99.974 100.302 100.37 99.7018 100.694C99.1138 101.006 98.4418 101.162 97.6858 101.162C96.8218 101.162 96.0298 100.946 95.3098 100.514C94.6018 100.07 94.0378 99.458 93.6178 98.678C93.2098 97.886 93.0058 96.992 93.0058 95.996C93.0058 95 93.2098 94.118 93.6178 93.35C94.0378 92.582 94.6018 91.988 95.3098 91.568C96.0298 91.136 96.8218 90.92 97.6858 90.92ZM101.124 96.032C101.124 95.348 100.98 94.754 100.692 94.25C100.416 93.746 100.05 93.362 99.5938 93.098C99.1378 92.834 98.6458 92.702 98.1178 92.702C97.5898 92.702 97.0978 92.834 96.6418 93.098C96.1858 93.35 95.8138 93.728 95.5258 94.232C95.2498 94.724 95.1118 95.312 95.1118 95.996C95.1118 96.68 95.2498 97.28 95.5258 97.796C95.8138 98.312 96.1858 98.708 96.6418 98.984C97.1098 99.248 97.6018 99.38 98.1178 99.38C98.6458 99.38 99.1378 99.248 99.5938 98.984C100.05 98.72 100.416 98.336 100.692 97.832C100.98 97.316 101.124 96.716 101.124 96.032ZM112.617 92.558C112.965 92.078 113.439 91.688 114.039 91.388C114.651 91.076 115.329 90.92 116.073 90.92C116.949 90.92 117.741 91.13 118.449 91.55C119.157 91.97 119.715 92.57 120.123 93.35C120.531 94.118 120.735 95 120.735 95.996C120.735 96.992 120.531 97.886 120.123 98.678C119.715 99.458 119.151 100.07 118.431 100.514C117.723 100.946 116.937 101.162 116.073 101.162C115.305 101.162 114.621 101.012 114.021 100.712C113.433 100.412 112.965 100.028 112.617 99.56V101H110.565V87.68H112.617V92.558ZM118.647 95.996C118.647 95.312 118.503 94.724 118.215 94.232C117.939 93.728 117.567 93.35 117.099 93.098C116.643 92.834 116.151 92.702 115.623 92.702C115.107 92.702 114.615 92.834 114.147 93.098C113.691 93.362 113.319 93.746 113.031 94.25C112.755 94.754 112.617 95.348 112.617 96.032C112.617 96.716 112.755 97.316 113.031 97.832C113.319 98.336 113.691 98.72 114.147 98.984C114.615 99.248 115.107 99.38 115.623 99.38C116.151 99.38 116.643 99.248 117.099 98.984C117.567 98.708 117.939 98.312 118.215 97.796C118.503 97.28 118.647 96.68 118.647 95.996ZM127.066 101.162C126.13 101.162 125.284 100.952 124.528 100.532C123.772 100.1 123.178 99.5 122.746 98.732C122.314 97.952 122.098 97.052 122.098 96.032C122.098 95.024 122.32 94.13 122.764 93.35C123.208 92.57 123.814 91.97 124.582 91.55C125.35 91.13 126.208 90.92 127.156 90.92C128.104 90.92 128.962 91.13 129.73 91.55C130.498 91.97 131.104 92.57 131.548 93.35C131.992 94.13 132.214 95.024 132.214 96.032C132.214 97.04 131.986 97.934 131.53 98.714C131.074 99.494 130.45 100.1 129.658 100.532C128.878 100.952 128.014 101.162 127.066 101.162ZM127.066 99.38C127.594 99.38 128.086 99.254 128.542 99.002C129.01 98.75 129.388 98.372 129.676 97.868C129.964 97.364 130.108 96.752 130.108 96.032C130.108 95.312 129.97 94.706 129.694 94.214C129.418 93.71 129.052 93.332 128.596 93.08C128.14 92.828 127.648 92.702 127.12 92.702C126.592 92.702 126.1 92.828 125.644 93.08C125.2 93.332 124.846 93.71 124.582 94.214C124.318 94.706 124.186 95.312 124.186 96.032C124.186 97.1 124.456 97.928 124.996 98.516C125.548 99.092 126.238 99.38 127.066 99.38ZM136.637 92.756V98.246C136.637 98.618 136.721 98.888 136.889 99.056C137.069 99.212 137.369 99.29 137.789 99.29H139.049V101H137.429C136.505 101 135.797 100.784 135.305 100.352C134.813 99.92 134.567 99.218 134.567 98.246V92.756H133.397V91.082H134.567V88.616H136.637V91.082H139.049V92.756H136.637ZM140.256 95.996C140.256 95 140.46 94.118 140.868 93.35C141.288 92.582 141.852 91.988 142.56 91.568C143.28 91.136 144.072 90.92 144.936 90.92C145.716 90.92 146.394 91.076 146.97 91.388C147.558 91.688 148.026 92.066 148.374 92.522V91.082H150.444V101H148.374V99.524C148.026 99.992 147.552 100.382 146.952 100.694C146.352 101.006 145.668 101.162 144.9 101.162C144.048 101.162 143.268 100.946 142.56 100.514C141.852 100.07 141.288 99.458 140.868 98.678C140.46 97.886 140.256 96.992 140.256 95.996ZM148.374 96.032C148.374 95.348 148.23 94.754 147.942 94.25C147.666 93.746 147.3 93.362 146.844 93.098C146.388 92.834 145.896 92.702 145.368 92.702C144.84 92.702 144.348 92.834 143.892 93.098C143.436 93.35 143.064 93.728 142.776 94.232C142.5 94.724 142.362 95.312 142.362 95.996C142.362 96.68 142.5 97.28 142.776 97.796C143.064 98.312 143.436 98.708 143.892 98.984C144.36 99.248 144.852 99.38 145.368 99.38C145.896 99.38 146.388 99.248 146.844 98.984C147.3 98.72 147.666 98.336 147.942 97.832C148.23 97.316 148.374 96.716 148.374 96.032ZM158.143 90.92C158.923 90.92 159.619 91.082 160.231 91.406C160.855 91.73 161.341 92.21 161.689 92.846C162.037 93.482 162.211 94.25 162.211 95.15V101H160.177V95.456C160.177 94.568 159.955 93.89 159.511 93.422C159.067 92.942 158.461 92.702 157.693 92.702C156.925 92.702 156.313 92.942 155.857 93.422C155.413 93.89 155.191 94.568 155.191 95.456V101H153.139V91.082H155.191V92.216C155.527 91.808 155.953 91.49 156.469 91.262C156.997 91.034 157.555 90.92 158.143 90.92ZM165.873 89.768C165.501 89.768 165.189 89.642 164.937 89.39C164.685 89.138 164.559 88.826 164.559 88.454C164.559 88.082 164.685 87.77 164.937 87.518C165.189 87.266 165.501 87.14 165.873 87.14C166.233 87.14 166.539 87.266 166.791 87.518C167.043 87.77 167.169 88.082 167.169 88.454C167.169 88.826 167.043 89.138 166.791 89.39C166.539 89.642 166.233 89.768 165.873 89.768ZM166.881 91.082V101H164.829V91.082H166.881ZM168.891 96.032C168.891 95.012 169.095 94.118 169.503 93.35C169.923 92.57 170.499 91.97 171.231 91.55C171.963 91.13 172.803 90.92 173.751 90.92C174.951 90.92 175.941 91.208 176.721 91.784C177.513 92.348 178.047 93.158 178.323 94.214H176.109C175.929 93.722 175.641 93.338 175.245 93.062C174.849 92.786 174.351 92.648 173.751 92.648C172.911 92.648 172.239 92.948 171.735 93.548C171.243 94.136 170.997 94.964 170.997 96.032C170.997 97.1 171.243 97.934 171.735 98.534C172.239 99.134 172.911 99.434 173.751 99.434C174.939 99.434 175.725 98.912 176.109 97.868H178.323C178.035 98.876 177.495 99.68 176.703 100.28C175.911 100.868 174.927 101.162 173.751 101.162C172.803 101.162 171.963 100.952 171.231 100.532C170.499 100.1 169.923 99.5 169.503 98.732C169.095 97.952 168.891 97.052 168.891 96.032ZM179.684 95.996C179.684 95 179.888 94.118 180.296 93.35C180.716 92.582 181.28 91.988 181.988 91.568C182.708 91.136 183.5 90.92 184.364 90.92C185.144 90.92 185.822 91.076 186.398 91.388C186.986 91.688 187.454 92.066 187.802 92.522V91.082H189.872V101H187.802V99.524C187.454 99.992 186.98 100.382 186.38 100.694C185.78 101.006 185.096 101.162 184.328 101.162C183.476 101.162 182.696 100.946 181.988 100.514C181.28 100.07 180.716 99.458 180.296 98.678C179.888 97.886 179.684 96.992 179.684 95.996ZM187.802 96.032C187.802 95.348 187.658 94.754 187.37 94.25C187.094 93.746 186.728 93.362 186.272 93.098C185.816 92.834 185.324 92.702 184.796 92.702C184.268 92.702 183.776 92.834 183.32 93.098C182.864 93.35 182.492 93.728 182.204 94.232C181.928 94.724 181.79 95.312 181.79 95.996C181.79 96.68 181.928 97.28 182.204 97.796C182.492 98.312 182.864 98.708 183.32 98.984C183.788 99.248 184.28 99.38 184.796 99.38C185.324 99.38 185.816 99.248 186.272 98.984C186.728 98.72 187.094 98.336 187.37 97.832C187.658 97.316 187.802 96.716 187.802 96.032ZM194.619 87.68V101H192.567V87.68H194.619ZM205.589 101.162C204.809 101.162 204.107 101.024 203.483 100.748C202.871 100.46 202.385 100.076 202.025 99.596C201.665 99.104 201.473 98.558 201.449 97.958H203.573C203.609 98.378 203.807 98.732 204.167 99.02C204.539 99.296 205.001 99.434 205.553 99.434C206.129 99.434 206.573 99.326 206.885 99.11C207.209 98.882 207.371 98.594 207.371 98.246C207.371 97.874 207.191 97.598 206.831 97.418C206.483 97.238 205.925 97.04 205.157 96.824C204.413 96.62 203.807 96.422 203.339 96.23C202.871 96.038 202.463 95.744 202.115 95.348C201.779 94.952 201.611 94.43 201.611 93.782C201.611 93.254 201.767 92.774 202.079 92.342C202.391 91.898 202.835 91.55 203.411 91.298C203.999 91.046 204.671 90.92 205.427 90.92C206.555 90.92 207.461 91.208 208.145 91.784C208.841 92.348 209.213 93.122 209.261 94.106H207.209C207.173 93.662 206.993 93.308 206.669 93.044C206.345 92.78 205.907 92.648 205.355 92.648C204.815 92.648 204.401 92.75 204.113 92.954C203.825 93.158 203.681 93.428 203.681 93.764C203.681 94.028 203.777 94.25 203.969 94.43C204.161 94.61 204.395 94.754 204.671 94.862C204.947 94.958 205.355 95.084 205.895 95.24C206.615 95.432 207.203 95.63 207.659 95.834C208.127 96.026 208.529 96.314 208.865 96.698C209.201 97.082 209.375 97.592 209.387 98.228C209.387 98.792 209.231 99.296 208.919 99.74C208.607 100.184 208.163 100.532 207.587 100.784C207.023 101.036 206.357 101.162 205.589 101.162ZM210.92 96.032C210.92 95.012 211.124 94.118 211.532 93.35C211.952 92.57 212.528 91.97 213.26 91.55C213.992 91.13 214.832 90.92 215.78 90.92C216.98 90.92 217.97 91.208 218.75 91.784C219.542 92.348 220.076 93.158 220.352 94.214H218.138C217.958 93.722 217.67 93.338 217.274 93.062C216.878 92.786 216.38 92.648 215.78 92.648C214.94 92.648 214.268 92.948 213.764 93.548C213.272 94.136 213.026 94.964 213.026 96.032C213.026 97.1 213.272 97.934 213.764 98.534C214.268 99.134 214.94 99.434 215.78 99.434C216.968 99.434 217.754 98.912 218.138 97.868H220.352C220.064 98.876 219.524 99.68 218.732 100.28C217.94 100.868 216.956 101.162 215.78 101.162C214.832 101.162 213.992 100.952 213.26 100.532C212.528 100.1 211.952 99.5 211.532 98.732C211.124 97.952 210.92 97.052 210.92 96.032ZM223.441 89.768C223.069 89.768 222.757 89.642 222.505 89.39C222.253 89.138 222.127 88.826 222.127 88.454C222.127 88.082 222.253 87.77 222.505 87.518C222.757 87.266 223.069 87.14 223.441 87.14C223.801 87.14 224.107 87.266 224.359 87.518C224.611 87.77 224.737 88.082 224.737 88.454C224.737 88.826 224.611 89.138 224.359 89.39C224.107 89.642 223.801 89.768 223.441 89.768ZM224.449 91.082V101H222.397V91.082H224.449ZM236.233 95.798C236.233 96.17 236.209 96.506 236.161 96.806H228.583C228.643 97.598 228.937 98.234 229.465 98.714C229.993 99.194 230.641 99.434 231.409 99.434C232.513 99.434 233.293 98.972 233.749 98.048H235.963C235.663 98.96 235.117 99.71 234.325 100.298C233.545 100.874 232.573 101.162 231.409 101.162C230.461 101.162 229.609 100.952 228.853 100.532C228.109 100.1 227.521 99.5 227.089 98.732C226.669 97.952 226.459 97.052 226.459 96.032C226.459 95.012 226.663 94.118 227.071 93.35C227.491 92.57 228.073 91.97 228.817 91.55C229.573 91.13 230.437 90.92 231.409 90.92C232.345 90.92 233.179 91.124 233.911 91.532C234.643 91.94 235.213 92.516 235.621 93.26C236.029 93.992 236.233 94.838 236.233 95.798ZM234.091 95.15C234.079 94.394 233.809 93.788 233.281 93.332C232.753 92.876 232.099 92.648 231.319 92.648C230.611 92.648 230.005 92.876 229.501 93.332C228.997 93.776 228.697 94.382 228.601 95.15H234.091ZM243.256 90.92C244.036 90.92 244.732 91.082 245.344 91.406C245.968 91.73 246.454 92.21 246.802 92.846C247.15 93.482 247.324 94.25 247.324 95.15V101H245.29V95.456C245.29 94.568 245.068 93.89 244.624 93.422C244.18 92.942 243.574 92.702 242.806 92.702C242.038 92.702 241.426 92.942 240.97 93.422C240.526 93.89 240.304 94.568 240.304 95.456V101H238.252V91.082H240.304V92.216C240.64 91.808 241.066 91.49 241.582 91.262C242.11 91.034 242.668 90.92 243.256 90.92ZM249.258 96.032C249.258 95.012 249.462 94.118 249.87 93.35C250.29 92.57 250.866 91.97 251.598 91.55C252.33 91.13 253.17 90.92 254.118 90.92C255.318 90.92 256.308 91.208 257.088 91.784C257.88 92.348 258.414 93.158 258.69 94.214H256.476C256.296 93.722 256.008 93.338 255.612 93.062C255.216 92.786 254.718 92.648 254.118 92.648C253.278 92.648 252.606 92.948 252.102 93.548C251.61 94.136 251.364 94.964 251.364 96.032C251.364 97.1 251.61 97.934 252.102 98.534C252.606 99.134 253.278 99.434 254.118 99.434C255.306 99.434 256.092 98.912 256.476 97.868H258.69C258.402 98.876 257.862 99.68 257.07 100.28C256.278 100.868 255.294 101.162 254.118 101.162C253.17 101.162 252.33 100.952 251.598 100.532C250.866 100.1 250.29 99.5 249.87 98.732C249.462 97.952 249.258 97.052 249.258 96.032ZM269.825 95.798C269.825 96.17 269.801 96.506 269.753 96.806H262.175C262.235 97.598 262.529 98.234 263.057 98.714C263.585 99.194 264.233 99.434 265.001 99.434C266.105 99.434 266.885 98.972 267.341 98.048H269.555C269.255 98.96 268.709 99.71 267.917 100.298C267.137 100.874 266.165 101.162 265.001 101.162C264.053 101.162 263.201 100.952 262.445 100.532C261.701 100.1 261.113 99.5 260.681 98.732C260.261 97.952 260.051 97.052 260.051 96.032C260.051 95.012 260.255 94.118 260.663 93.35C261.083 92.57 261.665 91.97 262.409 91.55C263.165 91.13 264.029 90.92 265.001 90.92C265.937 90.92 266.771 91.124 267.503 91.532C268.235 91.94 268.805 92.516 269.213 93.26C269.621 93.992 269.825 94.838 269.825 95.798ZM267.683 95.15C267.671 94.394 267.401 93.788 266.873 93.332C266.345 92.876 265.691 92.648 264.911 92.648C264.203 92.648 263.597 92.876 263.093 93.332C262.589 93.776 262.289 94.382 262.193 95.15H267.683ZM40.67 118.082L37.592 128H35.432L33.434 120.674L31.436 128H29.276L26.18 118.082H28.268L30.338 126.056L32.444 118.082H34.586L36.602 126.02L38.654 118.082H40.67ZM43.2475 116.768C42.8755 116.768 42.5635 116.642 42.3115 116.39C42.0595 116.138 41.9335 115.826 41.9335 115.454C41.9335 115.082 42.0595 114.77 42.3115 114.518C42.5635 114.266 42.8755 114.14 43.2475 114.14C43.6075 114.14 43.9135 114.266 44.1655 114.518C44.4175 114.77 44.5435 115.082 44.5435 115.454C44.5435 115.826 44.4175 116.138 44.1655 116.39C43.9135 116.642 43.6075 116.768 43.2475 116.768ZM44.2555 118.082V128H42.2035V118.082H44.2555ZM49.3436 119.756V125.246C49.3436 125.618 49.4276 125.888 49.5956 126.056C49.7756 126.212 50.0756 126.29 50.4956 126.29H51.7556V128H50.1356C49.2116 128 48.5036 127.784 48.0116 127.352C47.5196 126.92 47.2736 126.218 47.2736 125.246V119.756H46.1036V118.082H47.2736V115.616H49.3436V118.082H51.7556V119.756H49.3436ZM58.7769 117.92C59.5329 117.92 60.2049 118.082 60.7929 118.406C61.3929 118.73 61.8609 119.21 62.1969 119.846C62.5449 120.482 62.7189 121.25 62.7189 122.15V128H60.6849V122.456C60.6849 121.568 60.4629 120.89 60.0189 120.422C59.5749 119.942 58.9689 119.702 58.2009 119.702C57.4329 119.702 56.8209 119.942 56.3649 120.422C55.9209 120.89 55.6989 121.568 55.6989 122.456V128H53.6469V114.68H55.6989V119.234C56.0469 118.814 56.4849 118.49 57.0129 118.262C57.5529 118.034 58.1409 117.92 58.7769 117.92ZM72.4061 119.756V125.246C72.4061 125.618 72.4901 125.888 72.6581 126.056C72.8381 126.212 73.1381 126.29 73.5581 126.29H74.8181V128H73.1981C72.2741 128 71.5661 127.784 71.0741 127.352C70.5821 126.92 70.3361 126.218 70.3361 125.246V119.756H69.1661V118.082H70.3361V115.616H72.4061V118.082H74.8181V119.756H72.4061ZM81.8394 117.92C82.5954 117.92 83.2674 118.082 83.8554 118.406C84.4554 118.73 84.9234 119.21 85.2594 119.846C85.6074 120.482 85.7814 121.25 85.7814 122.15V128H83.7474V122.456C83.7474 121.568 83.5254 120.89 83.0814 120.422C82.6374 119.942 82.0314 119.702 81.2634 119.702C80.4954 119.702 79.8834 119.942 79.4274 120.422C78.9834 120.89 78.7614 121.568 78.7614 122.456V128H76.7094V114.68H78.7614V119.234C79.1094 118.814 79.5474 118.49 80.0754 118.262C80.6154 118.034 81.2034 117.92 81.8394 117.92ZM97.4888 122.798C97.4888 123.17 97.4648 123.506 97.4168 123.806H89.8388C89.8988 124.598 90.1928 125.234 90.7208 125.714C91.2488 126.194 91.8968 126.434 92.6648 126.434C93.7688 126.434 94.5488 125.972 95.0048 125.048H97.2188C96.9188 125.96 96.3728 126.71 95.5808 127.298C94.8008 127.874 93.8288 128.162 92.6648 128.162C91.7168 128.162 90.8648 127.952 90.1088 127.532C89.3648 127.1 88.7768 126.5 88.3448 125.732C87.9248 124.952 87.7148 124.052 87.7148 123.032C87.7148 122.012 87.9188 121.118 88.3268 120.35C88.7468 119.57 89.3288 118.97 90.0728 118.55C90.8288 118.13 91.6928 117.92 92.6648 117.92C93.6008 117.92 94.4348 118.124 95.1668 118.532C95.8988 118.94 96.4688 119.516 96.8768 120.26C97.2848 120.992 97.4888 121.838 97.4888 122.798ZM95.3468 122.15C95.3348 121.394 95.0648 120.788 94.5368 120.332C94.0088 119.876 93.3548 119.648 92.5748 119.648C91.8668 119.648 91.2608 119.876 90.7568 120.332C90.2528 120.776 89.9528 121.382 89.8568 122.15H95.3468ZM111.726 125.444H106.488L105.588 128H103.446L107.928 115.472H110.304L114.786 128H112.626L111.726 125.444ZM111.15 123.77L109.116 117.956L107.064 123.77H111.15ZM123.233 128L120.353 122.996H118.787V128H116.735V115.49H121.055C122.015 115.49 122.825 115.658 123.485 115.994C124.157 116.33 124.655 116.78 124.979 117.344C125.315 117.908 125.483 118.538 125.483 119.234C125.483 120.05 125.243 120.794 124.763 121.466C124.295 122.126 123.569 122.576 122.585 122.816L125.681 128H123.233ZM118.787 121.358H121.055C121.823 121.358 122.399 121.166 122.783 120.782C123.179 120.398 123.377 119.882 123.377 119.234C123.377 118.586 123.185 118.082 122.801 117.722C122.417 117.35 121.835 117.164 121.055 117.164H118.787V121.358ZM144.79 117.92C145.57 117.92 146.266 118.082 146.878 118.406C147.502 118.73 147.988 119.21 148.336 119.846C148.696 120.482 148.876 121.25 148.876 122.15V128H146.842V122.456C146.842 121.568 146.62 120.89 146.176 120.422C145.732 119.942 145.126 119.702 144.358 119.702C143.59 119.702 142.978 119.942 142.522 120.422C142.078 120.89 141.856 121.568 141.856 122.456V128H139.822V122.456C139.822 121.568 139.6 120.89 139.156 120.422C138.712 119.942 138.106 119.702 137.338 119.702C136.57 119.702 135.958 119.942 135.502 120.422C135.058 120.89 134.836 121.568 134.836 122.456V128H132.784V118.082H134.836V119.216C135.172 118.808 135.598 118.49 136.114 118.262C136.63 118.034 137.182 117.92 137.77 117.92C138.562 117.92 139.27 118.088 139.894 118.424C140.518 118.76 140.998 119.246 141.334 119.882C141.634 119.282 142.102 118.808 142.738 118.46C143.374 118.1 144.058 117.92 144.79 117.92ZM155.789 128.162C154.853 128.162 154.007 127.952 153.251 127.532C152.495 127.1 151.901 126.5 151.469 125.732C151.037 124.952 150.821 124.052 150.821 123.032C150.821 122.024 151.043 121.13 151.487 120.35C151.931 119.57 152.537 118.97 153.305 118.55C154.073 118.13 154.931 117.92 155.879 117.92C156.827 117.92 157.685 118.13 158.453 118.55C159.221 118.97 159.827 119.57 160.271 120.35C160.715 121.13 160.937 122.024 160.937 123.032C160.937 124.04 160.709 124.934 160.253 125.714C159.797 126.494 159.173 127.1 158.381 127.532C157.601 127.952 156.737 128.162 155.789 128.162ZM155.789 126.38C156.317 126.38 156.809 126.254 157.265 126.002C157.733 125.75 158.111 125.372 158.399 124.868C158.687 124.364 158.831 123.752 158.831 123.032C158.831 122.312 158.693 121.706 158.417 121.214C158.141 120.71 157.775 120.332 157.319 120.08C156.863 119.828 156.371 119.702 155.843 119.702C155.315 119.702 154.823 119.828 154.367 120.08C153.923 120.332 153.569 120.71 153.305 121.214C153.041 121.706 152.909 122.312 152.909 123.032C152.909 124.1 153.179 124.928 153.719 125.516C154.271 126.092 154.961 126.38 155.789 126.38ZM162.281 122.996C162.281 122 162.485 121.118 162.893 120.35C163.313 119.582 163.877 118.988 164.585 118.568C165.305 118.136 166.103 117.92 166.979 117.92C167.627 117.92 168.263 118.064 168.887 118.352C169.523 118.628 170.027 119 170.399 119.468V114.68H172.469V128H170.399V126.506C170.063 126.986 169.595 127.382 168.995 127.694C168.407 128.006 167.729 128.162 166.961 128.162C166.097 128.162 165.305 127.946 164.585 127.514C163.877 127.07 163.313 126.458 162.893 125.678C162.485 124.886 162.281 123.992 162.281 122.996ZM170.399 123.032C170.399 122.348 170.255 121.754 169.967 121.25C169.691 120.746 169.325 120.362 168.869 120.098C168.413 119.834 167.921 119.702 167.393 119.702C166.865 119.702 166.373 119.834 165.917 120.098C165.461 120.35 165.089 120.728 164.801 121.232C164.525 121.724 164.387 122.312 164.387 122.996C164.387 123.68 164.525 124.28 164.801 124.796C165.089 125.312 165.461 125.708 165.917 125.984C166.385 126.248 166.877 126.38 167.393 126.38C167.921 126.38 168.413 126.248 168.869 125.984C169.325 125.72 169.691 125.336 169.967 124.832C170.255 124.316 170.399 123.716 170.399 123.032ZM184.254 122.798C184.254 123.17 184.23 123.506 184.182 123.806H176.604C176.664 124.598 176.958 125.234 177.486 125.714C178.014 126.194 178.662 126.434 179.43 126.434C180.534 126.434 181.314 125.972 181.77 125.048H183.984C183.684 125.96 183.138 126.71 182.346 127.298C181.566 127.874 180.594 128.162 179.43 128.162C178.482 128.162 177.63 127.952 176.874 127.532C176.13 127.1 175.542 126.5 175.11 125.732C174.69 124.952 174.48 124.052 174.48 123.032C174.48 122.012 174.684 121.118 175.092 120.35C175.512 119.57 176.094 118.97 176.838 118.55C177.594 118.13 178.458 117.92 179.43 117.92C180.366 117.92 181.2 118.124 181.932 118.532C182.664 118.94 183.234 119.516 183.642 120.26C184.05 120.992 184.254 121.838 184.254 122.798ZM182.112 122.15C182.1 121.394 181.83 120.788 181.302 120.332C180.774 119.876 180.12 119.648 179.34 119.648C178.632 119.648 178.026 119.876 177.522 120.332C177.018 120.776 176.718 121.382 176.622 122.15H182.112ZM188.326 114.68V128H186.274V114.68H188.326Z" fill="#333333"/>
<rect x="26" y="153" width="132" height="36" rx="4" fill="#1D1D1D"/>
<path d="M38.592 171.416C38.592 170.328 38.8427 169.352 39.344 168.488C39.856 167.624 40.544 166.952 41.408 166.472C42.2827 165.981 43.2373 165.736 44.272 165.736C45.456 165.736 46.5067 166.029 47.424 166.616C48.352 167.192 49.024 168.013 49.44 169.08H47.248C46.96 168.525 46.56 168.109 46.048 167.832C45.536 167.544 44.944 167.4 44.272 167.4C43.536 167.4 42.88 167.565 42.304 167.896C41.728 168.227 41.2747 168.696 40.944 169.304C40.624 169.912 40.464 170.616 40.464 171.416C40.464 172.216 40.624 172.925 40.944 173.544C41.2747 174.152 41.728 174.621 42.304 174.952C42.88 175.283 43.536 175.448 44.272 175.448C45.264 175.448 46.0693 175.171 46.688 174.616C47.3173 174.051 47.696 173.288 47.824 172.328H43.648V170.904H49.776V172.328C49.6587 173.192 49.3493 173.987 48.848 174.712C48.3573 175.437 47.712 176.019 46.912 176.456C46.1227 176.883 45.2427 177.096 44.272 177.096C43.2267 177.096 42.272 176.856 41.408 176.376C40.544 175.885 39.856 175.208 39.344 174.344C38.8427 173.48 38.592 172.504 38.592 171.416ZM55.399 177.144C54.567 177.144 53.815 176.957 53.143 176.584C52.471 176.2 51.943 175.667 51.559 174.984C51.175 174.291 50.983 173.491 50.983 172.584C50.983 171.688 51.1803 170.893 51.575 170.2C51.9697 169.507 52.5083 168.973 53.191 168.6C53.8737 168.227 54.6363 168.04 55.479 168.04C56.3217 168.04 57.0843 168.227 57.767 168.6C58.4497 168.973 58.9883 169.507 59.383 170.2C59.7777 170.893 59.975 171.688 59.975 172.584C59.975 173.48 59.7723 174.275 59.367 174.968C58.9617 175.661 58.407 176.2 57.703 176.584C57.0097 176.957 56.2417 177.144 55.399 177.144ZM55.399 175.608C55.8683 175.608 56.3057 175.491 56.711 175.256C57.127 175.021 57.463 174.68 57.719 174.232C57.975 173.773 58.103 173.224 58.103 172.584C58.103 171.944 57.9803 171.4 57.735 170.952C57.4897 170.493 57.1643 170.152 56.759 169.928C56.3537 169.693 55.9163 169.576 55.447 169.576C54.9777 169.576 54.5457 169.693 54.151 169.928C53.7563 170.152 53.4363 170.493 53.191 170.952C52.9563 171.4 52.839 171.944 52.839 172.584C52.839 173.224 52.951 173.773 53.175 174.232C53.4097 174.691 53.719 175.037 54.103 175.272C54.4977 175.496 54.9297 175.608 55.399 175.608ZM68.703 169.672V174.552C68.703 174.883 68.7777 175.123 68.927 175.272C69.087 175.411 69.3537 175.48 69.727 175.48H70.847V177H69.407C68.5857 177 67.9563 176.808 67.519 176.424C67.0817 176.04 66.863 175.416 66.863 174.552V169.672H65.823V168.184H66.863V165.992H68.703V168.184H70.847V169.672H68.703ZM76.3521 177.144C75.5201 177.144 74.7681 176.957 74.0961 176.584C73.4241 176.2 72.8961 175.667 72.5121 174.984C72.1281 174.291 71.9361 173.491 71.9361 172.584C71.9361 171.688 72.1335 170.893 72.5281 170.2C72.9228 169.507 73.4615 168.973 74.1441 168.6C74.8268 168.227 75.5895 168.04 76.4321 168.04C77.2748 168.04 78.0375 168.227 78.7201 168.6C79.4028 168.973 79.9415 169.507 80.3361 170.2C80.7308 170.893 80.9281 171.688 80.9281 172.584C80.9281 173.48 80.7255 174.275 80.3201 174.968C79.9148 175.661 79.3601 176.2 78.6561 176.584C77.9628 176.957 77.1948 177.144 76.3521 177.144ZM76.3521 175.608C76.8215 175.608 77.2588 175.491 77.6641 175.256C78.0801 175.021 78.4161 174.68 78.6721 174.232C78.9281 173.773 79.0561 173.224 79.0561 172.584C79.0561 171.944 78.9335 171.4 78.6881 170.952C78.4428 170.493 78.1175 170.152 77.7121 169.928C77.3068 169.693 76.8695 169.576 76.4001 169.576C75.9308 169.576 75.4988 169.693 75.1041 169.928C74.7095 170.152 74.3895 170.493 74.1441 170.952C73.9095 171.4 73.7921 171.944 73.7921 172.584C73.7921 173.224 73.9041 173.773 74.1281 174.232C74.3628 174.691 74.6721 175.037 75.0561 175.272C75.4508 175.496 75.8828 175.608 76.3521 175.608ZM90.6961 177.144C90.0135 177.144 89.4001 177.021 88.8561 176.776C88.3121 176.52 87.8801 176.179 87.5601 175.752C87.2401 175.315 87.0695 174.829 87.0481 174.296H88.9361C88.9681 174.701 89.1441 175.037 89.4641 175.304C89.7948 175.571 90.2055 175.704 90.6961 175.704C91.2081 175.704 91.6028 175.603 91.8801 175.4C92.1681 175.187 92.3121 174.904 92.3121 174.552C92.3121 174.232 92.1521 173.987 91.8321 173.816C91.5121 173.645 91.0161 173.475 90.3441 173.304C89.6935 173.123 89.1601 172.952 88.7441 172.792C88.3388 172.621 87.9868 172.365 87.6881 172.024C87.3895 171.672 87.2401 171.219 87.2401 170.664C87.2401 170.184 87.3735 169.747 87.6401 169.352C87.9068 168.947 88.2908 168.627 88.7921 168.392C89.3041 168.157 89.9015 168.04 90.5841 168.04C91.5868 168.04 92.3921 168.296 93.0001 168.808C93.6188 169.309 93.9495 169.997 93.9921 170.872H92.1681C92.1361 170.445 91.9761 170.109 91.6881 169.864C91.4001 169.608 91.0108 169.48 90.5201 169.48C90.0401 169.48 89.6721 169.581 89.4161 169.784C89.1601 169.976 89.0321 170.237 89.0321 170.568C89.0321 170.803 89.1175 171 89.2881 171.16C89.4588 171.32 89.6721 171.448 89.9281 171.544C90.1841 171.629 90.5468 171.736 91.0161 171.864C91.6561 172.035 92.1788 172.205 92.5841 172.376C92.9895 172.547 93.3361 172.808 93.6241 173.16C93.9121 173.501 94.0561 173.949 94.0561 174.504C94.0561 175.005 93.9228 175.459 93.6561 175.864C93.3895 176.259 93.0001 176.573 92.4881 176.808C91.9868 177.032 91.3895 177.144 90.6961 177.144ZM104.059 168.184V177H102.235V175.96C101.947 176.323 101.568 176.611 101.099 176.824C100.64 177.027 100.15 177.128 99.627 177.128C98.9337 177.128 98.3097 176.984 97.755 176.696C97.211 176.408 96.779 175.981 96.459 175.416C96.1497 174.851 95.995 174.168 95.995 173.368V168.184H97.803V173.096C97.803 173.885 98.0003 174.493 98.395 174.92C98.7897 175.336 99.3283 175.544 100.011 175.544C100.694 175.544 101.232 175.336 101.627 174.92C102.032 174.493 102.235 173.885 102.235 173.096V168.184H104.059ZM108.29 169.496C108.599 169.069 109.02 168.723 109.554 168.456C110.098 168.179 110.7 168.04 111.362 168.04C112.14 168.04 112.844 168.227 113.474 168.6C114.103 168.973 114.599 169.507 114.962 170.2C115.324 170.883 115.506 171.667 115.506 172.552C115.506 173.437 115.324 174.232 114.962 174.936C114.599 175.629 114.098 176.173 113.458 176.568C112.828 176.952 112.13 177.144 111.362 177.144C110.679 177.144 110.071 177.011 109.538 176.744C109.015 176.477 108.599 176.136 108.29 175.72V177H106.466V165.16H108.29V169.496ZM113.65 172.552C113.65 171.944 113.522 171.421 113.266 170.984C113.02 170.536 112.69 170.2 112.274 169.976C111.868 169.741 111.431 169.624 110.962 169.624C110.503 169.624 110.066 169.741 109.65 169.976C109.244 170.211 108.914 170.552 108.658 171C108.412 171.448 108.29 171.976 108.29 172.584C108.29 173.192 108.412 173.725 108.658 174.184C108.914 174.632 109.244 174.973 109.65 175.208C110.066 175.443 110.503 175.56 110.962 175.56C111.431 175.56 111.868 175.443 112.274 175.208C112.69 174.963 113.02 174.611 113.266 174.152C113.522 173.693 113.65 173.16 113.65 172.552ZM118.237 167.016C117.907 167.016 117.629 166.904 117.405 166.68C117.181 166.456 117.069 166.179 117.069 165.848C117.069 165.517 117.181 165.24 117.405 165.016C117.629 164.792 117.907 164.68 118.237 164.68C118.557 164.68 118.829 164.792 119.053 165.016C119.277 165.24 119.389 165.517 119.389 165.848C119.389 166.179 119.277 166.456 119.053 166.68C118.829 166.904 118.557 167.016 118.237 167.016ZM119.133 178.728C119.133 179.592 118.915 180.216 118.477 180.6C118.051 180.995 117.427 181.192 116.605 181.192H115.661V179.656H116.285C116.659 179.656 116.92 179.581 117.069 179.432C117.229 179.293 117.309 179.059 117.309 178.728V168.184H119.133V178.728ZM129.608 172.344C129.608 172.653 129.587 172.941 129.544 173.208H122.792C122.845 173.944 123.107 174.531 123.576 174.968C124.045 175.395 124.627 175.608 125.32 175.608C126.301 175.608 126.995 175.197 127.4 174.376H129.368C129.101 175.187 128.616 175.853 127.912 176.376C127.219 176.888 126.355 177.144 125.32 177.144C124.477 177.144 123.72 176.957 123.048 176.584C122.387 176.2 121.864 175.667 121.48 174.984C121.107 174.291 120.92 173.491 120.92 172.584C120.92 171.677 121.101 170.883 121.464 170.2C121.837 169.507 122.355 168.973 123.016 168.6C123.688 168.227 124.456 168.04 125.32 168.04C126.152 168.04 126.893 168.221 127.544 168.584C128.195 168.947 128.701 169.453 129.064 170.104C129.427 170.755 129.608 171.501 129.608 172.344ZM127.704 171.896C127.693 171.181 127.453 170.616 126.984 170.2C126.525 169.784 125.944 169.576 125.24 169.576C124.6 169.576 124.051 169.784 123.592 170.2C123.144 170.616 122.883 171.181 122.808 171.896H127.704ZM130.795 172.584C130.795 171.677 130.976 170.883 131.339 170.2C131.712 169.507 132.224 168.973 132.875 168.6C133.526 168.227 134.272 168.04 135.115 168.04C136.182 168.04 137.062 168.296 137.755 168.808C138.459 169.309 138.934 170.029 139.179 170.968H137.211C137.051 170.531 136.795 170.189 136.443 169.944C136.091 169.699 135.648 169.576 135.115 169.576C134.368 169.576 133.771 169.843 133.323 170.376C132.886 170.899 132.667 171.635 132.667 172.584C132.667 173.533 132.886 174.275 133.323 174.808C133.771 175.341 134.368 175.608 135.115 175.608C136.171 175.608 136.87 175.144 137.211 174.216H139.179C138.923 175.112 138.443 175.827 137.739 176.36C137.035 176.883 136.16 177.144 135.115 177.144C134.272 177.144 133.526 176.957 132.875 176.584C132.224 176.2 131.712 175.667 131.339 174.984C130.976 174.291 130.795 173.491 130.795 172.584ZM143.125 169.672V174.552C143.125 174.883 143.2 175.123 143.349 175.272C143.509 175.411 143.776 175.48 144.149 175.48H145.269V177H143.829C143.008 177 142.378 176.808 141.941 176.424C141.504 176.04 141.285 175.416 141.285 174.552V169.672H140.245V168.184H141.285V165.992H143.125V168.184H145.269V169.672H143.125Z" fill="white"/>
</g>
<defs>
<filter id="filter0_d" x="0" y="0" width="332" height="227" filterUnits="userSpaceOnUse" color-interpolation-filters="sRGB">
<feFlood flood-opacity="0" result="BackgroundImageFix"/>
<feColorMatrix in="SourceAlpha" type="matrix" values="0 0 0 0 0 0 0 0 0 0 0 0 0 0 0 0 0 0 127 0" result="hardAlpha"/>
<feOffset dy="4"/>
<feGaussianBlur stdDeviation="2"/>
<feComposite in2="hardAlpha" operator="out"/>
<feColorMatrix type="matrix" values="0 0 0 0 0.7375 0 0 0 0 0.7375 0 0 0 0 0.7375 0 0 0 0.25 0"/>
<feBlend mode="normal" in2="BackgroundImageFix" result="effect1_dropShadow"/>
<feBlend mode="normal" in="SourceGraphic" in2="effect1_dropShadow" result="shape"/>
</filter>
</defs>
</svg>
